<?xml version="1.0" encoding="utf-8" standalone="no"?>
<!DOCTYPE svg PUBLIC "-//W3C//DTD SVG 1.1//EN"
  "http://www.w3.org/Graphics/SVG/1.1/DTD/svg11.dtd">
<svg xmlns:xlink="http://www.w3.org/1999/xlink" width="629.730435pt" height="419.888007pt" viewBox="0 0 629.730435 419.888007" xmlns="http://www.w3.org/2000/svg" version="1.1">
 <metadata>
  <rdf:RDF xmlns:dc="http://purl.org/dc/elements/1.1/" xmlns:cc="http://creativecommons.org/ns#" xmlns:rdf="http://www.w3.org/1999/02/22-rdf-syntax-ns#">
   <cc:Work>
    <dc:type rdf:resource="http://purl.org/dc/dcmitype/StillImage"/>
    <dc:date>2024-03-12T10:11:03.942928</dc:date>
    <dc:format>image/svg+xml</dc:format>
    <dc:creator>
     <cc:Agent>
      <dc:title>Matplotlib v3.8.3, https://matplotlib.org/</dc:title>
     </cc:Agent>
    </dc:creator>
   </cc:Work>
  </rdf:RDF>
 </metadata>
 <defs>
  <style type="text/css">*{stroke-linejoin: round; stroke-linecap: butt}</style>
 </defs>
 <g id="figure_1">
  <g id="patch_1">
   <path d="M 0 419.888007 
L 629.730435 419.888007 
L 629.730435 0 
L 0 0 
z
" style="fill: #ffffff"/>
  </g>
  <g id="axes_1">
   <g id="patch_2">
    <path d="M 66.906062 364.088062 
L 624.906062 364.088062 
L 624.906062 31.448062 
L 66.906062 31.448062 
z
" style="fill: #ffffff"/>
   </g>
   <g id="matplotlib.axis_1">
    <g id="xtick_1">
     <g id="line2d_1">
      <defs>
       <path id="m0fed2a8ce7" d="M 0 0 
L 0 3 
" style="stroke: #262626; stroke-width: 0.5"/>
      </defs>
      <g>
       <use xlink:href="#m0fed2a8ce7" x="79.262706" y="31.448062" style="fill: #262626; stroke: #262626; stroke-width: 0.5"/>
      </g>
     </g>
     <g id="text_1">
      <!-- $\mathdefault{0}$ -->
      <g style="fill: #262626" transform="translate(72.615704 384.624031) scale(0.24 -0.24)">
       <defs>
        <path id="NimbusSanL-Regu-30" d="M 1760 4544 
C 1338 4544 954 4360 717 4046 
C 422 3651 275 3044 275 2208 
C 275 683 787 -128 1760 -128 
C 2720 -128 3245 683 3245 2170 
C 3245 3050 3104 3638 2803 4046 
C 2566 4366 2189 4544 1760 4544 
z
M 1760 4044 
C 2368 4044 2669 3432 2669 2221 
C 2669 939 2374 340 1747 340 
C 1152 340 851 965 851 2202 
C 851 3438 1152 4044 1760 4044 
z
" transform="scale(0.015625)"/>
       </defs>
       <use xlink:href="#NimbusSanL-Regu-30" transform="scale(0.996264)"/>
      </g>
     </g>
    </g>
    <g id="xtick_2">
     <g id="line2d_2">
      <g>
       <use xlink:href="#m0fed2a8ce7" x="209.332636" y="31.448062" style="fill: #262626; stroke: #262626; stroke-width: 0.5"/>
      </g>
     </g>
     <g id="text_2">
      <!-- $\mathdefault{500}$ -->
      <g style="fill: #262626" transform="translate(189.391629 384.624031) scale(0.24 -0.24)">
       <defs>
        <path id="NimbusSanL-Regu-35" d="M 3046 4544 
L 704 4544 
L 365 2086 
L 883 2086 
C 1146 2399 1363 2508 1715 2508 
C 2323 2508 2707 2092 2707 1421 
C 2707 768 2330 372 1715 372 
C 1222 372 922 621 787 1133 
L 224 1133 
C 301 762 365 582 499 415 
C 755 70 1216 -128 1728 -128 
C 2643 -128 3283 537 3283 1497 
C 3283 2394 2688 3008 1818 3008 
C 1498 3008 1242 2925 979 2732 
L 1158 3987 
L 3046 3987 
L 3046 4544 
z
" transform="scale(0.015625)"/>
       </defs>
       <use xlink:href="#NimbusSanL-Regu-35" transform="scale(0.996264)"/>
       <use xlink:href="#NimbusSanL-Regu-30" transform="translate(55.391677 0) scale(0.996264)"/>
       <use xlink:href="#NimbusSanL-Regu-30" transform="translate(110.783354 0) scale(0.996264)"/>
      </g>
     </g>
    </g>
    <g id="xtick_3">
     <g id="line2d_3">
      <g>
       <use xlink:href="#m0fed2a8ce7" x="339.402566" y="31.448062" style="fill: #262626; stroke: #262626; stroke-width: 0.5"/>
      </g>
     </g>
     <g id="text_3">
      <!-- $\mathdefault{1000}$ -->
      <g style="fill: #262626" transform="translate(312.814557 384.624031) scale(0.24 -0.24)">
       <defs>
        <path id="NimbusSanL-Regu-31" d="M 1658 3238 
L 1658 0 
L 2221 0 
L 2221 4545 
L 1850 4545 
C 1651 3847 1523 3751 653 3642 
L 653 3238 
L 1658 3238 
z
" transform="scale(0.015625)"/>
       </defs>
       <use xlink:href="#NimbusSanL-Regu-31" transform="scale(0.996264)"/>
       <use xlink:href="#NimbusSanL-Regu-30" transform="translate(55.391677 0) scale(0.996264)"/>
       <use xlink:href="#NimbusSanL-Regu-30" transform="translate(110.783354 0) scale(0.996264)"/>
       <use xlink:href="#NimbusSanL-Regu-30" transform="translate(166.175031 0) scale(0.996264)"/>
      </g>
     </g>
    </g>
    <g id="xtick_4">
     <g id="line2d_4">
      <g>
       <use xlink:href="#m0fed2a8ce7" x="469.472496" y="31.448062" style="fill: #262626; stroke: #262626; stroke-width: 0.5"/>
      </g>
     </g>
     <g id="text_4">
      <!-- $\mathdefault{1500}$ -->
      <g style="fill: #262626" transform="translate(442.884487 384.624031) scale(0.24 -0.24)">
       <use xlink:href="#NimbusSanL-Regu-31" transform="scale(0.996264)"/>
       <use xlink:href="#NimbusSanL-Regu-35" transform="translate(55.391677 0) scale(0.996264)"/>
       <use xlink:href="#NimbusSanL-Regu-30" transform="translate(110.783354 0) scale(0.996264)"/>
       <use xlink:href="#NimbusSanL-Regu-30" transform="translate(166.175031 0) scale(0.996264)"/>
      </g>
     </g>
    </g>
    <g id="xtick_5">
     <g id="line2d_5">
      <g>
       <use xlink:href="#m0fed2a8ce7" x="599.542426" y="31.448062" style="fill: #262626; stroke: #262626; stroke-width: 0.5"/>
      </g>
     </g>
     <g id="text_5">
      <!-- $\mathdefault{2000}$ -->
      <g style="fill: #262626" transform="translate(572.954417 384.624031) scale(0.24 -0.24)">
       <defs>
        <path id="NimbusSanL-Regu-32" d="M 3238 558 
L 851 558 
C 909 930 1114 1167 1670 1494 
L 2310 1840 
C 2944 2186 3270 2653 3270 3211 
C 3270 3589 3117 3942 2848 4185 
C 2579 4429 2246 4544 1818 4544 
C 1242 4544 813 4339 563 3955 
C 403 3711 333 3429 320 2967 
L 883 2967 
C 902 3275 941 3461 1018 3608 
C 1165 3884 1459 4051 1798 4051 
C 2310 4051 2694 3685 2694 3198 
C 2694 2839 2483 2531 2080 2301 
L 1491 1968 
C 544 1430 269 1000 218 0 
L 3238 0 
L 3238 558 
z
" transform="scale(0.015625)"/>
       </defs>
       <use xlink:href="#NimbusSanL-Regu-32" transform="scale(0.996264)"/>
       <use xlink:href="#NimbusSanL-Regu-30" transform="translate(55.391677 0) scale(0.996264)"/>
       <use xlink:href="#NimbusSanL-Regu-30" transform="translate(110.783354 0) scale(0.996264)"/>
       <use xlink:href="#NimbusSanL-Regu-30" transform="translate(166.175031 0) scale(0.996264)"/>
      </g>
     </g>
    </g>
    <g id="xtick_6">
     <g id="line2d_6">
      <defs>
       <path id="m57289ad14c" d="M 0 0 
L 0 1.5 
" style="stroke: #262626; stroke-width: 0.5"/>
      </defs>
      <g>
       <use xlink:href="#m57289ad14c" x="105.276692" y="31.448062" style="fill: #262626; stroke: #262626; stroke-width: 0.5"/>
      </g>
     </g>
    </g>
    <g id="xtick_7">
     <g id="line2d_7">
      <g>
       <use xlink:href="#m57289ad14c" x="131.290678" y="31.448062" style="fill: #262626; stroke: #262626; stroke-width: 0.5"/>
      </g>
     </g>
    </g>
    <g id="xtick_8">
     <g id="line2d_8">
      <g>
       <use xlink:href="#m57289ad14c" x="157.304664" y="31.448062" style="fill: #262626; stroke: #262626; stroke-width: 0.5"/>
      </g>
     </g>
    </g>
    <g id="xtick_9">
     <g id="line2d_9">
      <g>
       <use xlink:href="#m57289ad14c" x="183.31865" y="31.448062" style="fill: #262626; stroke: #262626; stroke-width: 0.5"/>
      </g>
     </g>
    </g>
    <g id="xtick_10">
     <g id="line2d_10">
      <g>
       <use xlink:href="#m57289ad14c" x="235.346622" y="31.448062" style="fill: #262626; stroke: #262626; stroke-width: 0.5"/>
      </g>
     </g>
    </g>
    <g id="xtick_11">
     <g id="line2d_11">
      <g>
       <use xlink:href="#m57289ad14c" x="261.360608" y="31.448062" style="fill: #262626; stroke: #262626; stroke-width: 0.5"/>
      </g>
     </g>
    </g>
    <g id="xtick_12">
     <g id="line2d_12">
      <g>
       <use xlink:href="#m57289ad14c" x="287.374594" y="31.448062" style="fill: #262626; stroke: #262626; stroke-width: 0.5"/>
      </g>
     </g>
    </g>
    <g id="xtick_13">
     <g id="line2d_13">
      <g>
       <use xlink:href="#m57289ad14c" x="313.38858" y="31.448062" style="fill: #262626; stroke: #262626; stroke-width: 0.5"/>
      </g>
     </g>
    </g>
    <g id="xtick_14">
     <g id="line2d_14">
      <g>
       <use xlink:href="#m57289ad14c" x="365.416552" y="31.448062" style="fill: #262626; stroke: #262626; stroke-width: 0.5"/>
      </g>
     </g>
    </g>
    <g id="xtick_15">
     <g id="line2d_15">
      <g>
       <use xlink:href="#m57289ad14c" x="391.430538" y="31.448062" style="fill: #262626; stroke: #262626; stroke-width: 0.5"/>
      </g>
     </g>
    </g>
    <g id="xtick_16">
     <g id="line2d_16">
      <g>
       <use xlink:href="#m57289ad14c" x="417.444524" y="31.448062" style="fill: #262626; stroke: #262626; stroke-width: 0.5"/>
      </g>
     </g>
    </g>
    <g id="xtick_17">
     <g id="line2d_17">
      <g>
       <use xlink:href="#m57289ad14c" x="443.45851" y="31.448062" style="fill: #262626; stroke: #262626; stroke-width: 0.5"/>
      </g>
     </g>
    </g>
    <g id="xtick_18">
     <g id="line2d_18">
      <g>
       <use xlink:href="#m57289ad14c" x="495.486482" y="31.448062" style="fill: #262626; stroke: #262626; stroke-width: 0.5"/>
      </g>
     </g>
    </g>
    <g id="xtick_19">
     <g id="line2d_19">
      <g>
       <use xlink:href="#m57289ad14c" x="521.500468" y="31.448062" style="fill: #262626; stroke: #262626; stroke-width: 0.5"/>
      </g>
     </g>
    </g>
    <g id="xtick_20">
     <g id="line2d_20">
      <g>
       <use xlink:href="#m57289ad14c" x="547.514454" y="31.448062" style="fill: #262626; stroke: #262626; stroke-width: 0.5"/>
      </g>
     </g>
    </g>
    <g id="xtick_21">
     <g id="line2d_21">
      <g>
       <use xlink:href="#m57289ad14c" x="573.52844" y="31.448062" style="fill: #262626; stroke: #262626; stroke-width: 0.5"/>
      </g>
     </g>
    </g>
    <g id="text_6">
     <!-- Subgraph Size -->
     <g style="fill: #262626" transform="translate(267.911266 411.195242) scale(0.24 -0.24)">
      <defs>
       <path id="NimbusSanL-Regu-53" d="M 3814 3335 
C 3808 4255 3181 4788 2106 4788 
C 1082 4788 448 4260 448 3410 
C 448 2837 749 2477 1363 2316 
L 2522 2007 
C 3110 1852 3379 1614 3379 1247 
C 3379 995 3245 738 3046 597 
C 2861 468 2566 397 2189 397 
C 1683 397 1338 520 1114 790 
C 941 996 864 1222 870 1511 
L 307 1511 
C 314 1081 397 798 582 540 
C 902 103 1440 -128 2150 -128 
C 2707 -128 3162 1 3462 232 
C 3776 483 3974 901 3974 1307 
C 3974 1886 3616 2311 2982 2485 
L 1811 2801 
C 1248 2955 1043 3135 1043 3496 
C 1043 3972 1459 4288 2086 4288 
C 2829 4288 3245 3947 3251 3335 
L 3814 3335 
z
" transform="scale(0.015625)"/>
       <path id="NimbusSanL-Regu-75" d="M 3085 33 
L 3085 3392 
L 2554 3392 
L 2554 1479 
C 2554 790 2195 340 1638 340 
C 1216 340 947 597 947 1003 
L 947 3392 
L 416 3392 
L 416 792 
C 416 232 832 -128 1485 -128 
C 1978 -128 2291 45 2605 488 
L 2605 33 
L 3085 33 
z
" transform="scale(0.015625)"/>
       <path id="NimbusSanL-Regu-62" d="M 346 4672 
L 346 -2 
L 826 -2 
L 826 448 
C 1082 57 1421 -128 1888 -128 
C 2771 -128 3347 592 3347 1702 
C 3347 2786 2797 3456 1914 3456 
C 1453 3456 1126 3282 877 2905 
L 877 4672 
L 346 4672 
z
M 1811 2956 
C 2406 2956 2790 2440 2790 1645 
C 2790 887 2394 372 1811 372 
C 1248 372 877 881 877 1664 
C 877 2447 1248 2956 1811 2956 
z
" transform="scale(0.015625)"/>
       <path id="NimbusSanL-Regu-67" d="M 2637 3341 
L 2637 2854 
C 2368 3252 2042 3438 1613 3438 
C 762 3438 186 2692 186 1600 
C 186 1048 333 598 608 276 
C 858 -7 1216 -173 1568 -173 
C 1990 -173 2285 6 2586 429 
L 2586 258 
C 2586 -192 2528 -465 2394 -649 
C 2253 -844 1978 -959 1651 -959 
C 1408 -959 1190 -896 1043 -783 
C 922 -688 870 -600 838 -406 
L 294 -406 
C 352 -1033 845 -1408 1632 -1408 
C 2131 -1408 2560 -1247 2778 -979 
C 3034 -671 3130 -249 3130 538 
L 3130 3341 
L 2637 3341 
z
M 1670 2944 
C 2246 2944 2586 2455 2586 1613 
C 2586 808 2240 320 1677 320 
C 1094 320 742 816 742 1632 
C 742 2442 1101 2944 1670 2944 
z
" transform="scale(0.015625)"/>
       <path id="NimbusSanL-Regu-72" d="M 442 3359 
L 442 0 
L 979 0 
L 979 1741 
C 979 2221 1101 2535 1357 2720 
C 1523 2842 1683 2880 2054 2880 
L 2054 3432 
C 1965 3444 1920 3444 1850 3444 
C 1504 3444 1242 3240 934 2746 
L 934 3359 
L 442 3359 
z
" transform="scale(0.015625)"/>
       <path id="NimbusSanL-Regu-61" d="M 3424 333 
C 3366 320 3341 320 3309 320 
C 3123 320 3021 415 3021 581 
L 3021 2545 
C 3021 3137 2586 3456 1760 3456 
C 1274 3456 870 3316 646 3066 
C 493 2893 429 2702 416 2370 
L 954 2370 
C 998 2777 1242 2962 1741 2962 
C 2221 2962 2490 2783 2490 2465 
L 2490 2325 
C 2490 2101 2355 2006 1933 1955 
C 1178 1860 1062 1834 858 1751 
C 467 1592 269 1292 269 859 
C 269 254 691 -128 1370 -128 
C 1792 -128 2131 19 2509 365 
C 2547 25 2714 -128 3059 -128 
C 3168 -128 3251 -116 3424 -70 
L 3424 333 
z
M 2490 1072 
C 2490 893 2438 785 2278 639 
C 2061 441 1798 340 1485 340 
C 1069 340 826 537 826 874 
C 826 1225 1062 1403 1632 1486 
C 2195 1562 2310 1588 2490 1670 
L 2490 1072 
z
" transform="scale(0.015625)"/>
       <path id="NimbusSanL-Regu-70" d="M 346 -1408 
L 883 -1408 
L 883 320 
C 1165 -27 1478 -180 1914 -180 
C 2778 -180 3347 522 3347 1599 
C 3347 2734 2797 3444 1907 3444 
C 1453 3444 1088 3238 838 2841 
L 838 3349 
L 346 3349 
L 346 -1408 
z
M 1818 2944 
C 2406 2944 2790 2420 2790 1612 
C 2790 843 2400 320 1818 320 
C 1254 320 883 837 883 1632 
C 883 2427 1254 2944 1818 2944 
z
" transform="scale(0.015625)"/>
       <path id="NimbusSanL-Regu-68" d="M 448 4672 
L 448 -2 
L 979 -2 
L 979 1852 
C 979 2539 1338 2988 1888 2988 
C 2061 2988 2234 2930 2362 2834 
C 2515 2725 2579 2564 2579 2327 
L 2579 -2 
L 3110 -2 
L 3110 2538 
C 3110 3103 2707 3456 2054 3456 
C 1581 3456 1293 3308 979 2898 
L 979 4672 
L 448 4672 
z
" transform="scale(0.015625)"/>
       <path id="NimbusSanL-Regu-69" d="M 960 3359 
L 429 3359 
L 429 0 
L 960 0 
L 960 3359 
z
M 960 4672 
L 422 4672 
L 422 3999 
L 960 3999 
L 960 4672 
z
" transform="scale(0.015625)"/>
       <path id="NimbusSanL-Regu-7a" d="M 2835 3348 
L 333 3348 
L 333 2880 
L 2202 2880 
L 198 481 
L 198 0 
L 2925 0 
L 2925 468 
L 845 468 
L 2835 2874 
L 2835 3348 
z
" transform="scale(0.015625)"/>
       <path id="NimbusSanL-Regu-65" d="M 3283 1529 
C 3283 2034 3245 2338 3149 2584 
C 2931 3127 2419 3456 1792 3456 
C 858 3456 256 2742 256 1645 
C 256 547 838 -128 1779 -128 
C 2547 -128 3078 310 3213 1044 
L 2675 1044 
C 2528 598 2227 365 1798 365 
C 1459 365 1171 520 992 805 
C 864 998 819 1193 813 1529 
L 3283 1529 
z
M 826 1984 
C 870 2577 1248 2962 1786 2962 
C 2310 2962 2714 2530 2714 1984 
C 2714 1984 2714 1984 2707 1984 
L 826 1984 
z
" transform="scale(0.015625)"/>
      </defs>
      <use xlink:href="#NimbusSanL-Regu-53" transform="scale(0.996264)"/>
      <use xlink:href="#NimbusSanL-Regu-75" transform="translate(66.450031 0) scale(0.996264)"/>
      <use xlink:href="#NimbusSanL-Regu-62" transform="translate(121.841708 0) scale(0.996264)"/>
      <use xlink:href="#NimbusSanL-Regu-67" transform="translate(177.233385 0) scale(0.996264)"/>
      <use xlink:href="#NimbusSanL-Regu-72" transform="translate(231.628965 0) scale(0.996264)"/>
      <use xlink:href="#NimbusSanL-Regu-61" transform="translate(263.808098 0) scale(0.996264)"/>
      <use xlink:href="#NimbusSanL-Regu-70" transform="translate(319.199775 0) scale(0.996264)"/>
      <use xlink:href="#NimbusSanL-Regu-68" transform="translate(374.591452 0) scale(0.996264)"/>
      <use xlink:href="#NimbusSanL-Regu-53" transform="translate(457.678299 0) scale(0.996264)"/>
      <use xlink:href="#NimbusSanL-Regu-69" transform="translate(524.12833 0) scale(0.996264)"/>
      <use xlink:href="#NimbusSanL-Regu-7a" transform="translate(546.245114 0) scale(0.996264)"/>
      <use xlink:href="#NimbusSanL-Regu-65" transform="translate(594.564922 0) scale(0.996264)"/>
     </g>
    </g>
   </g>
   <g id="matplotlib.axis_2">
    <g id="ytick_1">
     <g id="line2d_22">
      <defs>
       <path id="mde83b914dc" d="M 0 0 
L -3 0 
" style="stroke: #262626; stroke-width: 0.5"/>
      </defs>
      <g>
       <use xlink:href="#mde83b914dc" x="624.906062" y="290.047518" style="fill: #262626; stroke: #262626; stroke-width: 0.5"/>
      </g>
     </g>
     <g id="text_7">
      <!-- $\mathdefault{0.6}$ -->
      <g style="fill: #262626" transform="translate(30.171211 298.565502) scale(0.24 -0.24)">
       <defs>
        <path id="NimbusSanL-Regu-2e" d="M 1222 667 
L 557 667 
L 557 0 
L 1222 0 
L 1222 667 
z
" transform="scale(0.015625)"/>
        <path id="NimbusSanL-Regu-36" d="M 3187 3382 
C 3078 4111 2592 4544 1901 4544 
C 1402 4544 954 4302 685 3900 
C 403 3460 275 2904 275 2081 
C 275 1321 390 836 659 434 
C 902 69 1299 -128 1798 -128 
C 2662 -128 3283 518 3283 1415 
C 3283 2268 2707 2868 1894 2868 
C 1446 2868 1094 2695 851 2362 
C 858 3444 1216 4044 1862 4044 
C 2259 4044 2534 3803 2624 3382 
L 3187 3382 
z
M 1824 2368 
C 2368 2368 2707 1986 2707 1370 
C 2707 793 2323 372 1805 372 
C 1280 372 883 813 883 1402 
C 883 1973 1267 2368 1824 2368 
z
" transform="scale(0.015625)"/>
       </defs>
       <use xlink:href="#NimbusSanL-Regu-30" transform="scale(0.996264)"/>
       <use xlink:href="#NimbusSanL-Regu-2e" transform="translate(55.391677 0) scale(0.996264)"/>
       <use xlink:href="#NimbusSanL-Regu-36" transform="translate(83.086847 0) scale(0.996264)"/>
      </g>
     </g>
    </g>
    <g id="ytick_2">
     <g id="line2d_23">
      <g>
       <use xlink:href="#mde83b914dc" x="624.906062" y="196.814553" style="fill: #262626; stroke: #262626; stroke-width: 0.5"/>
      </g>
     </g>
     <g id="text_8">
      <!-- $\mathdefault{0.8}$ -->
      <g style="fill: #262626" transform="translate(30.171211 205.332538) scale(0.24 -0.24)">
       <defs>
        <path id="NimbusSanL-Regu-38" d="M 2502 2399 
C 2970 2680 3123 2910 3123 3338 
C 3123 4046 2566 4544 1760 4544 
C 960 4544 397 4046 397 3338 
C 397 2917 550 2687 1011 2399 
C 493 2150 237 1774 237 1276 
C 237 446 864 -128 1760 -128 
C 2656 -128 3283 447 3283 1270 
C 3283 1774 3027 2150 2502 2399 
z
M 1760 4044 
C 2240 4044 2547 3764 2547 3325 
C 2547 2904 2234 2624 1760 2624 
C 1286 2624 973 2904 973 3331 
C 973 3764 1286 4044 1760 4044 
z
M 1760 2149 
C 2323 2149 2707 1792 2707 1263 
C 2707 729 2323 372 1747 372 
C 1197 372 813 735 813 1263 
C 813 1792 1197 2149 1760 2149 
z
" transform="scale(0.015625)"/>
       </defs>
       <use xlink:href="#NimbusSanL-Regu-30" transform="scale(0.996264)"/>
       <use xlink:href="#NimbusSanL-Regu-2e" transform="translate(55.391677 0) scale(0.996264)"/>
       <use xlink:href="#NimbusSanL-Regu-38" transform="translate(83.086847 0) scale(0.996264)"/>
      </g>
     </g>
    </g>
    <g id="ytick_3">
     <g id="line2d_24">
      <g>
       <use xlink:href="#mde83b914dc" x="624.906062" y="103.581589" style="fill: #262626; stroke: #262626; stroke-width: 0.5"/>
      </g>
     </g>
     <g id="text_9">
      <!-- $\mathdefault{1.0}$ -->
      <g style="fill: #262626" transform="translate(30.171211 112.099573) scale(0.24 -0.24)">
       <use xlink:href="#NimbusSanL-Regu-31" transform="scale(0.996264)"/>
       <use xlink:href="#NimbusSanL-Regu-2e" transform="translate(55.391677 0) scale(0.996264)"/>
       <use xlink:href="#NimbusSanL-Regu-30" transform="translate(83.086847 0) scale(0.996264)"/>
      </g>
     </g>
    </g>
    <g id="ytick_4">
     <g id="line2d_25">
      <defs>
       <path id="ma941c52a72" d="M 0 0 
L -1.5 0 
" style="stroke: #262626; stroke-width: 0.5"/>
      </defs>
      <g>
       <use xlink:href="#ma941c52a72" x="624.906062" y="359.972241" style="fill: #262626; stroke: #262626; stroke-width: 0.5"/>
      </g>
     </g>
    </g>
    <g id="ytick_5">
     <g id="line2d_26">
      <g>
       <use xlink:href="#ma941c52a72" x="624.906062" y="336.664" style="fill: #262626; stroke: #262626; stroke-width: 0.5"/>
      </g>
     </g>
    </g>
    <g id="ytick_6">
     <g id="line2d_27">
      <g>
       <use xlink:href="#ma941c52a72" x="624.906062" y="313.355759" style="fill: #262626; stroke: #262626; stroke-width: 0.5"/>
      </g>
     </g>
    </g>
    <g id="ytick_7">
     <g id="line2d_28">
      <g>
       <use xlink:href="#ma941c52a72" x="624.906062" y="266.739277" style="fill: #262626; stroke: #262626; stroke-width: 0.5"/>
      </g>
     </g>
    </g>
    <g id="ytick_8">
     <g id="line2d_29">
      <g>
       <use xlink:href="#ma941c52a72" x="624.906062" y="243.431036" style="fill: #262626; stroke: #262626; stroke-width: 0.5"/>
      </g>
     </g>
    </g>
    <g id="ytick_9">
     <g id="line2d_30">
      <g>
       <use xlink:href="#ma941c52a72" x="624.906062" y="220.122794" style="fill: #262626; stroke: #262626; stroke-width: 0.5"/>
      </g>
     </g>
    </g>
    <g id="ytick_10">
     <g id="line2d_31">
      <g>
       <use xlink:href="#ma941c52a72" x="624.906062" y="173.506312" style="fill: #262626; stroke: #262626; stroke-width: 0.5"/>
      </g>
     </g>
    </g>
    <g id="ytick_11">
     <g id="line2d_32">
      <g>
       <use xlink:href="#ma941c52a72" x="624.906062" y="150.198071" style="fill: #262626; stroke: #262626; stroke-width: 0.5"/>
      </g>
     </g>
    </g>
    <g id="ytick_12">
     <g id="line2d_33">
      <g>
       <use xlink:href="#ma941c52a72" x="624.906062" y="126.88983" style="fill: #262626; stroke: #262626; stroke-width: 0.5"/>
      </g>
     </g>
    </g>
    <g id="ytick_13">
     <g id="line2d_34">
      <g>
       <use xlink:href="#ma941c52a72" x="624.906062" y="80.273348" style="fill: #262626; stroke: #262626; stroke-width: 0.5"/>
      </g>
     </g>
    </g>
    <g id="ytick_14">
     <g id="line2d_35">
      <g>
       <use xlink:href="#ma941c52a72" x="624.906062" y="56.965107" style="fill: #262626; stroke: #262626; stroke-width: 0.5"/>
      </g>
     </g>
    </g>
    <g id="ytick_15">
     <g id="line2d_36">
      <g>
       <use xlink:href="#ma941c52a72" x="624.906062" y="33.656866" style="fill: #262626; stroke: #262626; stroke-width: 0.5"/>
      </g>
     </g>
    </g>
    <g id="text_10">
     <!-- Mean Spatial Constant -->
     <g style="fill: #262626" transform="translate(21.078447 318.705006) rotate(-90) scale(0.24 -0.24)">
      <defs>
       <path id="NimbusSanL-Regu-4d" d="M 2995 -2 
L 4307 3915 
L 4307 -2 
L 4870 -2 
L 4870 4672 
L 4045 4672 
L 2688 601 
L 1306 4672 
L 480 4672 
L 480 -2 
L 1043 -2 
L 1043 3915 
L 2368 -2 
L 2995 -2 
z
" transform="scale(0.015625)"/>
       <path id="NimbusSanL-Regu-6e" d="M 448 3359 
L 448 0 
L 986 0 
L 986 1853 
C 986 2539 1344 2988 1894 2988 
C 2317 2988 2586 2731 2586 2327 
L 2586 0 
L 3117 0 
L 3117 2539 
C 3117 3097 2701 3456 2054 3456 
C 1555 3456 1235 3263 941 2796 
L 941 3359 
L 448 3359 
z
" transform="scale(0.015625)"/>
       <path id="NimbusSanL-Regu-74" d="M 1626 3380 
L 1075 3380 
L 1075 4288 
L 544 4288 
L 544 3380 
L 90 3380 
L 90 2944 
L 544 2944 
L 544 404 
C 544 64 774 -128 1190 -128 
C 1318 -128 1446 -116 1626 -83 
L 1626 366 
C 1555 346 1472 340 1370 340 
C 1139 340 1075 404 1075 641 
L 1075 2944 
L 1626 2944 
L 1626 3380 
z
" transform="scale(0.015625)"/>
       <path id="NimbusSanL-Regu-6c" d="M 973 4672 
L 435 4672 
L 435 -2 
L 973 -2 
L 973 4672 
z
" transform="scale(0.015625)"/>
       <path id="NimbusSanL-Regu-43" d="M 4237 3229 
C 4051 4252 3462 4750 2438 4750 
C 1811 4750 1306 4552 960 4168 
C 538 3709 307 3045 307 2291 
C 307 1525 544 868 986 414 
C 1344 44 1805 -128 2413 -128 
C 3552 -128 4192 485 4333 1717 
L 3718 1717 
C 3667 1399 3603 1182 3507 997 
C 3315 614 2918 397 2419 397 
C 1491 397 902 1137 902 2298 
C 902 3491 1466 4224 2368 4224 
C 2746 4224 3098 4110 3290 3930 
C 3462 3771 3558 3573 3629 3229 
L 4237 3229 
z
" transform="scale(0.015625)"/>
       <path id="NimbusSanL-Regu-6f" d="M 1741 3456 
C 800 3456 230 2786 230 1663 
C 230 541 794 -128 1747 -128 
C 2688 -128 3264 541 3264 1638 
C 3264 2792 2707 3456 1741 3456 
z
M 1747 2962 
C 2349 2962 2707 2472 2707 1645 
C 2707 861 2336 365 1747 365 
C 1152 365 787 855 787 1663 
C 787 2466 1152 2962 1747 2962 
z
" transform="scale(0.015625)"/>
       <path id="NimbusSanL-Regu-73" d="M 2803 2427 
C 2797 3085 2362 3456 1587 3456 
C 806 3456 301 3054 301 2436 
C 301 1913 570 1665 1363 1474 
L 1862 1353 
C 2234 1263 2381 1130 2381 888 
C 2381 576 2067 365 1600 365 
C 1312 365 1069 448 934 588 
C 851 684 813 779 781 1014 
L 218 1014 
C 243 241 678 -128 1555 -128 
C 2400 -128 2938 285 2938 929 
C 2938 1426 2656 1701 1990 1860 
L 1478 1981 
C 1043 2082 858 2223 858 2458 
C 858 2764 1133 2962 1568 2962 
C 1997 2962 2227 2777 2240 2427 
L 2803 2427 
z
" transform="scale(0.015625)"/>
      </defs>
      <use xlink:href="#NimbusSanL-Regu-4d" transform="scale(0.996264)"/>
      <use xlink:href="#NimbusSanL-Regu-65" transform="translate(82.98843 0) scale(0.996264)"/>
      <use xlink:href="#NimbusSanL-Regu-61" transform="translate(138.380107 0) scale(0.996264)"/>
      <use xlink:href="#NimbusSanL-Regu-6e" transform="translate(193.771784 0) scale(0.996264)"/>
      <use xlink:href="#NimbusSanL-Regu-53" transform="translate(276.858631 0) scale(0.996264)"/>
      <use xlink:href="#NimbusSanL-Regu-70" transform="translate(343.308662 0) scale(0.996264)"/>
      <use xlink:href="#NimbusSanL-Regu-61" transform="translate(398.700339 0) scale(0.996264)"/>
      <use xlink:href="#NimbusSanL-Regu-74" transform="translate(454.092016 0) scale(0.996264)"/>
      <use xlink:href="#NimbusSanL-Regu-69" transform="translate(481.787185 0) scale(0.996264)"/>
      <use xlink:href="#NimbusSanL-Regu-61" transform="translate(503.90397 0) scale(0.996264)"/>
      <use xlink:href="#NimbusSanL-Regu-6c" transform="translate(559.295647 0) scale(0.996264)"/>
      <use xlink:href="#NimbusSanL-Regu-43" transform="translate(609.107601 0) scale(0.996264)"/>
      <use xlink:href="#NimbusSanL-Regu-6f" transform="translate(681.037585 0) scale(0.996264)"/>
      <use xlink:href="#NimbusSanL-Regu-6e" transform="translate(736.429262 0) scale(0.996264)"/>
      <use xlink:href="#NimbusSanL-Regu-73" transform="translate(791.820939 0) scale(0.996264)"/>
      <use xlink:href="#NimbusSanL-Regu-74" transform="translate(841.63414 0) scale(0.996264)"/>
      <use xlink:href="#NimbusSanL-Regu-61" transform="translate(869.32931 0) scale(0.996264)"/>
      <use xlink:href="#NimbusSanL-Regu-6e" transform="translate(924.720986 0) scale(0.996264)"/>
      <use xlink:href="#NimbusSanL-Regu-74" transform="translate(980.112663 0) scale(0.996264)"/>
     </g>
    </g>
   </g>
   <g id="PolyCollection_1">
    <defs>
     <path id="m5430e52286" d="M 92.269699 -361.010069 
L 92.269699 -341.460006 
L 144.297671 -326.762956 
L 196.325643 -329.257608 
L 248.353615 -324.167061 
L 300.381587 -321.70599 
L 352.409559 -319.530777 
L 404.437531 -321.78979 
L 456.465503 -316.260007 
L 508.493475 -313.834954 
L 560.521447 -311.8984 
L 560.521447 -314.698113 
L 560.521447 -314.698113 
L 508.493475 -320.204638 
L 456.465503 -325.543066 
L 404.437531 -329.623531 
L 352.409559 -342.084555 
L 300.381587 -342.088741 
L 248.353615 -349.469321 
L 196.325643 -364.267377 
L 144.297671 -372.215401 
L 92.269699 -361.010069 
z
" style="stroke: #ffffff; stroke-opacity: 0.3"/>
    </defs>
    <g clip-path="url(#p8a48cd6c3d)">
     <use xlink:href="#m5430e52286" x="0" y="419.888007" style="fill: #0c5da5; fill-opacity: 0.3; stroke: #ffffff; stroke-opacity: 0.3"/>
    </g>
   </g>
   <g id="PolyCollection_2">
    <defs>
     <path id="m96328ace54" d="M 92.269699 -373.319944 
L 92.269699 -349.035554 
L 144.297671 -301.650575 
L 196.325643 -277.256103 
L 248.353615 -243.612862 
L 300.381587 -238.764203 
L 352.409559 -224.018567 
L 404.437531 -210.270461 
L 456.465503 -190.151974 
L 508.493475 -174.847354 
L 560.521447 -160.689269 
L 560.521447 -166.400376 
L 560.521447 -166.400376 
L 508.493475 -184.186603 
L 456.465503 -201.704281 
L 404.437531 -225.443181 
L 352.409559 -245.021517 
L 300.381587 -254.463849 
L 248.353615 -291.181827 
L 196.325643 -330.60821 
L 144.297671 -345.890616 
L 92.269699 -373.319944 
z
" style="stroke: #ffffff; stroke-opacity: 0.3"/>
    </defs>
    <g clip-path="url(#p8a48cd6c3d)">
     <use xlink:href="#m96328ace54" x="0" y="419.888007" style="fill: #00b945; fill-opacity: 0.3; stroke: #ffffff; stroke-opacity: 0.3"/>
    </g>
   </g>
   <g id="PolyCollection_3">
    <defs>
     <path id="m9e7fa29a9a" d="M 92.269699 -363.572444 
L 92.269699 -336.80337 
L 144.297671 -287.560663 
L 196.325643 -246.878494 
L 248.353615 -216.237031 
L 300.381587 -204.497765 
L 352.409559 -175.731614 
L 404.437531 -169.54479 
L 456.465503 -149.974872 
L 508.493475 -136.694654 
L 560.521447 -124.52167 
L 560.521447 -129.044201 
L 560.521447 -129.044201 
L 508.493475 -144.790438 
L 456.465503 -158.578279 
L 404.437531 -183.267291 
L 352.409559 -201.243925 
L 300.381587 -234.025022 
L 248.353615 -251.535111 
L 196.325643 -287.042153 
L 144.297671 -329.739847 
L 92.269699 -363.572444 
z
" style="stroke: #ffffff; stroke-opacity: 0.3"/>
    </defs>
    <g clip-path="url(#p8a48cd6c3d)">
     <use xlink:href="#m9e7fa29a9a" x="0" y="419.888007" style="fill: #ff9500; fill-opacity: 0.3; stroke: #ffffff; stroke-opacity: 0.3"/>
    </g>
   </g>
   <g id="PolyCollection_4">
    <defs>
     <path id="m4bee8212ee" d="M 92.269699 -364.285055 
L 92.269699 -334.908885 
L 144.297671 -273.140168 
L 196.325643 -236.320693 
L 248.353615 -211.023844 
L 300.381587 -176.742023 
L 352.409559 -163.279757 
L 404.437531 -140.795592 
L 456.465503 -125.627137 
L 508.493475 -111.374335 
L 560.521447 -100.562188 
L 560.521447 -102.34945 
L 560.521447 -102.34945 
L 508.493475 -116.228961 
L 456.465503 -130.42968 
L 404.437531 -151.977885 
L 352.409559 -173.10624 
L 300.381587 -202.038015 
L 248.353615 -233.596048 
L 196.325643 -272.978887 
L 144.297671 -312.099553 
L 92.269699 -364.285055 
z
" style="stroke: #ffffff; stroke-opacity: 0.3"/>
    </defs>
    <g clip-path="url(#p8a48cd6c3d)">
     <use xlink:href="#m4bee8212ee" x="0" y="419.888007" style="fill: #ff2c00; fill-opacity: 0.3; stroke: #ffffff; stroke-opacity: 0.3"/>
    </g>
   </g>
   <g id="PolyCollection_5">
    <defs>
     <path id="m46145a8fb3" d="M 92.269699 -370.357167 
L 92.269699 -350.931185 
L 144.297671 -264.703402 
L 196.325643 -229.837621 
L 248.353615 -185.051932 
L 300.381587 -161.341146 
L 352.409559 -142.647424 
L 404.437531 -121.221095 
L 456.465503 -108.264961 
L 508.493475 -96.588931 
L 560.521447 -86.251702 
L 560.521447 -90.093647 
L 560.521447 -90.093647 
L 508.493475 -101.467982 
L 456.465503 -116.171774 
L 404.437531 -132.188597 
L 352.409559 -157.918344 
L 300.381587 -183.366787 
L 248.353615 -213.406319 
L 196.325643 -266.429375 
L 144.297671 -312.475626 
L 92.269699 -370.357167 
z
" style="stroke: #ffffff; stroke-opacity: 0.3"/>
    </defs>
    <g clip-path="url(#p8a48cd6c3d)">
     <use xlink:href="#m46145a8fb3" x="0" y="419.888007" style="fill: #845b97; fill-opacity: 0.3; stroke: #ffffff; stroke-opacity: 0.3"/>
    </g>
   </g>
   <g id="PolyCollection_6">
    <defs>
     <path id="m995879483d" d="M 92.269699 -363.405566 
L 92.269699 -329.789065 
L 144.297671 -265.913192 
L 196.325643 -210.272837 
L 248.353615 -181.320504 
L 300.381587 -156.297373 
L 352.409559 -130.869658 
L 404.437531 -113.376206 
L 456.465503 -95.564507 
L 508.493475 -83.70064 
L 560.521447 -74.713993 
L 560.521447 -77.011512 
L 560.521447 -77.011512 
L 508.493475 -87.657334 
L 456.465503 -103.699244 
L 404.437531 -118.125357 
L 352.409559 -138.892845 
L 300.381587 -174.624547 
L 248.353615 -200.434699 
L 196.325643 -251.773418 
L 144.297671 -302.004058 
L 92.269699 -363.405566 
z
" style="stroke: #ffffff; stroke-opacity: 0.3"/>
    </defs>
    <g clip-path="url(#p8a48cd6c3d)">
     <use xlink:href="#m995879483d" x="0" y="419.888007" style="fill: #474747; fill-opacity: 0.3; stroke: #ffffff; stroke-opacity: 0.3"/>
    </g>
   </g>
   <g id="line2d_37">
    <path d="M 92.269699 68.652969 
L 144.297671 70.398828 
L 196.325643 73.125514 
L 248.353615 83.069816 
L 300.381587 87.990641 
L 352.409559 89.080341 
L 404.437531 94.181346 
L 456.465503 98.98647 
L 508.493475 102.86821 
L 560.521447 106.58975 
L 599.542426 106.681234 
" clip-path="url(#p8a48cd6c3d)" style="fill: none; stroke: #0c5da5; stroke-linecap: round"/>
    <defs>
     <path id="ma58d1a9cb6" d="M 0 1.5 
C 0.397805 1.5 0.77937 1.341951 1.06066 1.06066 
C 1.341951 0.77937 1.5 0.397805 1.5 0 
C 1.5 -0.397805 1.341951 -0.77937 1.06066 -1.06066 
C 0.77937 -1.341951 0.397805 -1.5 0 -1.5 
C -0.397805 -1.5 -0.77937 -1.341951 -1.06066 -1.06066 
C -1.341951 -0.77937 -1.5 -0.397805 -1.5 0 
C -1.5 0.397805 -1.341951 0.77937 -1.06066 1.06066 
C -0.77937 1.341951 -0.397805 1.5 0 1.5 
z
" style="stroke: #0c5da5"/>
    </defs>
    <g clip-path="url(#p8a48cd6c3d)">
     <use xlink:href="#ma58d1a9cb6" x="92.269699" y="68.652969" style="fill: #0c5da5; stroke: #0c5da5"/>
     <use xlink:href="#ma58d1a9cb6" x="144.297671" y="70.398828" style="fill: #0c5da5; stroke: #0c5da5"/>
     <use xlink:href="#ma58d1a9cb6" x="196.325643" y="73.125514" style="fill: #0c5da5; stroke: #0c5da5"/>
     <use xlink:href="#ma58d1a9cb6" x="248.353615" y="83.069816" style="fill: #0c5da5; stroke: #0c5da5"/>
     <use xlink:href="#ma58d1a9cb6" x="300.381587" y="87.990641" style="fill: #0c5da5; stroke: #0c5da5"/>
     <use xlink:href="#ma58d1a9cb6" x="352.409559" y="89.080341" style="fill: #0c5da5; stroke: #0c5da5"/>
     <use xlink:href="#ma58d1a9cb6" x="404.437531" y="94.181346" style="fill: #0c5da5; stroke: #0c5da5"/>
     <use xlink:href="#ma58d1a9cb6" x="456.465503" y="98.98647" style="fill: #0c5da5; stroke: #0c5da5"/>
     <use xlink:href="#ma58d1a9cb6" x="508.493475" y="102.86821" style="fill: #0c5da5; stroke: #0c5da5"/>
     <use xlink:href="#ma58d1a9cb6" x="560.521447" y="106.58975" style="fill: #0c5da5; stroke: #0c5da5"/>
     <use xlink:href="#ma58d1a9cb6" x="599.542426" y="106.681234" style="fill: #0c5da5; stroke: #0c5da5"/>
    </g>
   </g>
   <g id="line2d_38">
    <path d="M 92.269699 58.710258 
L 144.297671 96.117411 
L 196.325643 115.95585 
L 248.353615 152.490662 
L 300.381587 173.273981 
L 352.409559 185.367964 
L 404.437531 202.031186 
L 456.465503 223.959879 
L 508.493475 240.371028 
L 560.521447 256.343184 
L 599.542426 263.292148 
" clip-path="url(#p8a48cd6c3d)" style="fill: none; stroke: #00b945; stroke-linecap: round"/>
    <defs>
     <path id="m3d52c66332" d="M 0 1.5 
C 0.397805 1.5 0.77937 1.341951 1.06066 1.06066 
C 1.341951 0.77937 1.5 0.397805 1.5 0 
C 1.5 -0.397805 1.341951 -0.77937 1.06066 -1.06066 
C 0.77937 -1.341951 0.397805 -1.5 0 -1.5 
C -0.397805 -1.5 -0.77937 -1.341951 -1.06066 -1.06066 
C -1.341951 -0.77937 -1.5 -0.397805 -1.5 0 
C -1.5 0.397805 -1.341951 0.77937 -1.06066 1.06066 
C -0.77937 1.341951 -0.397805 1.5 0 1.5 
z
" style="stroke: #00b945"/>
    </defs>
    <g clip-path="url(#p8a48cd6c3d)">
     <use xlink:href="#m3d52c66332" x="92.269699" y="58.710258" style="fill: #00b945; stroke: #00b945"/>
     <use xlink:href="#m3d52c66332" x="144.297671" y="96.117411" style="fill: #00b945; stroke: #00b945"/>
     <use xlink:href="#m3d52c66332" x="196.325643" y="115.95585" style="fill: #00b945; stroke: #00b945"/>
     <use xlink:href="#m3d52c66332" x="248.353615" y="152.490662" style="fill: #00b945; stroke: #00b945"/>
     <use xlink:href="#m3d52c66332" x="300.381587" y="173.273981" style="fill: #00b945; stroke: #00b945"/>
     <use xlink:href="#m3d52c66332" x="352.409559" y="185.367964" style="fill: #00b945; stroke: #00b945"/>
     <use xlink:href="#m3d52c66332" x="404.437531" y="202.031186" style="fill: #00b945; stroke: #00b945"/>
     <use xlink:href="#m3d52c66332" x="456.465503" y="223.959879" style="fill: #00b945; stroke: #00b945"/>
     <use xlink:href="#m3d52c66332" x="508.493475" y="240.371028" style="fill: #00b945; stroke: #00b945"/>
     <use xlink:href="#m3d52c66332" x="560.521447" y="256.343184" style="fill: #00b945; stroke: #00b945"/>
     <use xlink:href="#m3d52c66332" x="599.542426" y="263.292148" style="fill: #00b945; stroke: #00b945"/>
    </g>
   </g>
   <g id="line2d_39">
    <path d="M 92.269699 69.7001 
L 144.297671 111.237752 
L 196.325643 152.927683 
L 248.353615 186.001936 
L 300.381587 200.626614 
L 352.409559 231.400237 
L 404.437531 243.481966 
L 456.465503 265.611431 
L 508.493475 279.14546 
L 560.521447 293.105071 
L 599.542426 298.94095 
" clip-path="url(#p8a48cd6c3d)" style="fill: none; stroke: #ff9500; stroke-linecap: round"/>
    <defs>
     <path id="m13d512d681" d="M 0 1.5 
C 0.397805 1.5 0.77937 1.341951 1.06066 1.06066 
C 1.341951 0.77937 1.5 0.397805 1.5 0 
C 1.5 -0.397805 1.341951 -0.77937 1.06066 -1.06066 
C 0.77937 -1.341951 0.397805 -1.5 0 -1.5 
C -0.397805 -1.5 -0.77937 -1.341951 -1.06066 -1.06066 
C -1.341951 -0.77937 -1.5 -0.397805 -1.5 0 
C -1.5 0.397805 -1.341951 0.77937 -1.06066 1.06066 
C -0.77937 1.341951 -0.397805 1.5 0 1.5 
z
" style="stroke: #ff9500"/>
    </defs>
    <g clip-path="url(#p8a48cd6c3d)">
     <use xlink:href="#m13d512d681" x="92.269699" y="69.7001" style="fill: #ff9500; stroke: #ff9500"/>
     <use xlink:href="#m13d512d681" x="144.297671" y="111.237752" style="fill: #ff9500; stroke: #ff9500"/>
     <use xlink:href="#m13d512d681" x="196.325643" y="152.927683" style="fill: #ff9500; stroke: #ff9500"/>
     <use xlink:href="#m13d512d681" x="248.353615" y="186.001936" style="fill: #ff9500; stroke: #ff9500"/>
     <use xlink:href="#m13d512d681" x="300.381587" y="200.626614" style="fill: #ff9500; stroke: #ff9500"/>
     <use xlink:href="#m13d512d681" x="352.409559" y="231.400237" style="fill: #ff9500; stroke: #ff9500"/>
     <use xlink:href="#m13d512d681" x="404.437531" y="243.481966" style="fill: #ff9500; stroke: #ff9500"/>
     <use xlink:href="#m13d512d681" x="456.465503" y="265.611431" style="fill: #ff9500; stroke: #ff9500"/>
     <use xlink:href="#m13d512d681" x="508.493475" y="279.14546" style="fill: #ff9500; stroke: #ff9500"/>
     <use xlink:href="#m13d512d681" x="560.521447" y="293.105071" style="fill: #ff9500; stroke: #ff9500"/>
     <use xlink:href="#m13d512d681" x="599.542426" y="298.94095" style="fill: #ff9500; stroke: #ff9500"/>
    </g>
   </g>
   <g id="line2d_40">
    <path d="M 92.269699 70.291036 
L 144.297671 127.268146 
L 196.325643 165.238217 
L 248.353615 197.578061 
L 300.381587 230.497988 
L 352.409559 251.695008 
L 404.437531 273.501268 
L 456.465503 291.859598 
L 508.493475 306.086358 
L 560.521447 318.432188 
L 599.542426 322.522314 
" clip-path="url(#p8a48cd6c3d)" style="fill: none; stroke: #ff2c00; stroke-linecap: round"/>
    <defs>
     <path id="mbc89b80eba" d="M 0 1.5 
C 0.397805 1.5 0.77937 1.341951 1.06066 1.06066 
C 1.341951 0.77937 1.5 0.397805 1.5 0 
C 1.5 -0.397805 1.341951 -0.77937 1.06066 -1.06066 
C 0.77937 -1.341951 0.397805 -1.5 0 -1.5 
C -0.397805 -1.5 -0.77937 -1.341951 -1.06066 -1.06066 
C -1.341951 -0.77937 -1.5 -0.397805 -1.5 0 
C -1.5 0.397805 -1.341951 0.77937 -1.06066 1.06066 
C -0.77937 1.341951 -0.397805 1.5 0 1.5 
z
" style="stroke: #ff2c00"/>
    </defs>
    <g clip-path="url(#p8a48cd6c3d)">
     <use xlink:href="#mbc89b80eba" x="92.269699" y="70.291036" style="fill: #ff2c00; stroke: #ff2c00"/>
     <use xlink:href="#mbc89b80eba" x="144.297671" y="127.268146" style="fill: #ff2c00; stroke: #ff2c00"/>
     <use xlink:href="#mbc89b80eba" x="196.325643" y="165.238217" style="fill: #ff2c00; stroke: #ff2c00"/>
     <use xlink:href="#mbc89b80eba" x="248.353615" y="197.578061" style="fill: #ff2c00; stroke: #ff2c00"/>
     <use xlink:href="#mbc89b80eba" x="300.381587" y="230.497988" style="fill: #ff2c00; stroke: #ff2c00"/>
     <use xlink:href="#mbc89b80eba" x="352.409559" y="251.695008" style="fill: #ff2c00; stroke: #ff2c00"/>
     <use xlink:href="#mbc89b80eba" x="404.437531" y="273.501268" style="fill: #ff2c00; stroke: #ff2c00"/>
     <use xlink:href="#mbc89b80eba" x="456.465503" y="291.859598" style="fill: #ff2c00; stroke: #ff2c00"/>
     <use xlink:href="#mbc89b80eba" x="508.493475" y="306.086358" style="fill: #ff2c00; stroke: #ff2c00"/>
     <use xlink:href="#mbc89b80eba" x="560.521447" y="318.432188" style="fill: #ff2c00; stroke: #ff2c00"/>
     <use xlink:href="#mbc89b80eba" x="599.542426" y="322.522314" style="fill: #ff2c00; stroke: #ff2c00"/>
    </g>
   </g>
   <g id="line2d_41">
    <path d="M 92.269699 59.243831 
L 144.297671 131.298493 
L 196.325643 171.754508 
L 248.353615 220.658881 
L 300.381587 247.53404 
L 352.409559 269.605123 
L 404.437531 293.183161 
L 456.465503 307.669639 
L 508.493475 320.85955 
L 560.521447 331.715332 
L 599.542426 336.918969 
" clip-path="url(#p8a48cd6c3d)" style="fill: none; stroke: #845b97; stroke-linecap: round"/>
    <defs>
     <path id="mb03cb6a68b" d="M 0 1.5 
C 0.397805 1.5 0.77937 1.341951 1.06066 1.06066 
C 1.341951 0.77937 1.5 0.397805 1.5 0 
C 1.5 -0.397805 1.341951 -0.77937 1.06066 -1.06066 
C 0.77937 -1.341951 0.397805 -1.5 0 -1.5 
C -0.397805 -1.5 -0.77937 -1.341951 -1.06066 -1.06066 
C -1.341951 -0.77937 -1.5 -0.397805 -1.5 0 
C -1.5 0.397805 -1.341951 0.77937 -1.06066 1.06066 
C -0.77937 1.341951 -0.397805 1.5 0 1.5 
z
" style="stroke: #845b97"/>
    </defs>
    <g clip-path="url(#p8a48cd6c3d)">
     <use xlink:href="#mb03cb6a68b" x="92.269699" y="59.243831" style="fill: #845b97; stroke: #845b97"/>
     <use xlink:href="#mb03cb6a68b" x="144.297671" y="131.298493" style="fill: #845b97; stroke: #845b97"/>
     <use xlink:href="#mb03cb6a68b" x="196.325643" y="171.754508" style="fill: #845b97; stroke: #845b97"/>
     <use xlink:href="#mb03cb6a68b" x="248.353615" y="220.658881" style="fill: #845b97; stroke: #845b97"/>
     <use xlink:href="#mb03cb6a68b" x="300.381587" y="247.53404" style="fill: #845b97; stroke: #845b97"/>
     <use xlink:href="#mb03cb6a68b" x="352.409559" y="269.605123" style="fill: #845b97; stroke: #845b97"/>
     <use xlink:href="#mb03cb6a68b" x="404.437531" y="293.183161" style="fill: #845b97; stroke: #845b97"/>
     <use xlink:href="#mb03cb6a68b" x="456.465503" y="307.669639" style="fill: #845b97; stroke: #845b97"/>
     <use xlink:href="#mb03cb6a68b" x="508.493475" y="320.85955" style="fill: #845b97; stroke: #845b97"/>
     <use xlink:href="#mb03cb6a68b" x="560.521447" y="331.715332" style="fill: #845b97; stroke: #845b97"/>
     <use xlink:href="#mb03cb6a68b" x="599.542426" y="336.918969" style="fill: #845b97; stroke: #845b97"/>
    </g>
   </g>
   <g id="line2d_42">
    <path d="M 92.269699 73.290691 
L 144.297671 135.929382 
L 196.325643 188.864879 
L 248.353615 229.010405 
L 300.381587 254.427046 
L 352.409559 285.006755 
L 404.437531 304.137225 
L 456.465503 320.256131 
L 508.493475 334.20902 
L 560.521447 344.025254 
L 599.542426 348.968062 
" clip-path="url(#p8a48cd6c3d)" style="fill: none; stroke: #474747; stroke-linecap: round"/>
    <defs>
     <path id="mb2c928dd49" d="M 0 1.5 
C 0.397805 1.5 0.77937 1.341951 1.06066 1.06066 
C 1.341951 0.77937 1.5 0.397805 1.5 0 
C 1.5 -0.397805 1.341951 -0.77937 1.06066 -1.06066 
C 0.77937 -1.341951 0.397805 -1.5 0 -1.5 
C -0.397805 -1.5 -0.77937 -1.341951 -1.06066 -1.06066 
C -1.341951 -0.77937 -1.5 -0.397805 -1.5 0 
C -1.5 0.397805 -1.341951 0.77937 -1.06066 1.06066 
C -0.77937 1.341951 -0.397805 1.5 0 1.5 
z
" style="stroke: #474747"/>
    </defs>
    <g clip-path="url(#p8a48cd6c3d)">
     <use xlink:href="#mb2c928dd49" x="92.269699" y="73.290691" style="fill: #474747; stroke: #474747"/>
     <use xlink:href="#mb2c928dd49" x="144.297671" y="135.929382" style="fill: #474747; stroke: #474747"/>
     <use xlink:href="#mb2c928dd49" x="196.325643" y="188.864879" style="fill: #474747; stroke: #474747"/>
     <use xlink:href="#mb2c928dd49" x="248.353615" y="229.010405" style="fill: #474747; stroke: #474747"/>
     <use xlink:href="#mb2c928dd49" x="300.381587" y="254.427046" style="fill: #474747; stroke: #474747"/>
     <use xlink:href="#mb2c928dd49" x="352.409559" y="285.006755" style="fill: #474747; stroke: #474747"/>
     <use xlink:href="#mb2c928dd49" x="404.437531" y="304.137225" style="fill: #474747; stroke: #474747"/>
     <use xlink:href="#mb2c928dd49" x="456.465503" y="320.256131" style="fill: #474747; stroke: #474747"/>
     <use xlink:href="#mb2c928dd49" x="508.493475" y="334.20902" style="fill: #474747; stroke: #474747"/>
     <use xlink:href="#mb2c928dd49" x="560.521447" y="344.025254" style="fill: #474747; stroke: #474747"/>
     <use xlink:href="#mb2c928dd49" x="599.542426" y="348.968062" style="fill: #474747; stroke: #474747"/>
    </g>
   </g>
   <g id="patch_3">
    <path d="M 66.906062 364.088062 
L 66.906062 31.448062 
" style="fill: none; stroke: #262626; stroke-width: 0.5; stroke-linejoin: miter; stroke-linecap: square"/>
   </g>
   <g id="patch_4">
    <path d="M 624.906062 364.088062 
L 624.906062 31.448062 
" style="fill: none; stroke: #262626; stroke-width: 0.5; stroke-linejoin: miter; stroke-linecap: square"/>
   </g>
   <g id="patch_5">
    <path d="M 66.906062 364.088062 
L 624.906062 364.088062 
" style="fill: none; stroke: #262626; stroke-width: 0.5; stroke-linejoin: miter; stroke-linecap: square"/>
   </g>
   <g id="patch_6">
    <path d="M 66.906062 31.448062 
L 624.906062 31.448062 
" style="fill: none; stroke: #262626; stroke-width: 0.5; stroke-linejoin: miter; stroke-linecap: square"/>
   </g>
   <g id="text_11">
    <!-- Mean Spatial Constant vs. Subgraph Size -->
    <g style="fill: #262626" transform="translate(69.072568 25.448062) scale(0.3 -0.3)">
     <defs>
      <path id="NimbusSanL-Regu-76" d="M 1824 0 
L 3110 3360 
L 2509 3360 
L 1562 635 
L 666 3360 
L 64 3360 
L 1242 0 
L 1824 0 
z
" transform="scale(0.015625)"/>
     </defs>
     <use xlink:href="#NimbusSanL-Regu-4d" transform="scale(0.996264)"/>
     <use xlink:href="#NimbusSanL-Regu-65" transform="translate(82.98843 0) scale(0.996264)"/>
     <use xlink:href="#NimbusSanL-Regu-61" transform="translate(138.380107 0) scale(0.996264)"/>
     <use xlink:href="#NimbusSanL-Regu-6e" transform="translate(193.771784 0) scale(0.996264)"/>
     <use xlink:href="#NimbusSanL-Regu-53" transform="translate(276.858631 0) scale(0.996264)"/>
     <use xlink:href="#NimbusSanL-Regu-70" transform="translate(343.308662 0) scale(0.996264)"/>
     <use xlink:href="#NimbusSanL-Regu-61" transform="translate(398.700339 0) scale(0.996264)"/>
     <use xlink:href="#NimbusSanL-Regu-74" transform="translate(454.092016 0) scale(0.996264)"/>
     <use xlink:href="#NimbusSanL-Regu-69" transform="translate(481.787185 0) scale(0.996264)"/>
     <use xlink:href="#NimbusSanL-Regu-61" transform="translate(503.90397 0) scale(0.996264)"/>
     <use xlink:href="#NimbusSanL-Regu-6c" transform="translate(559.295647 0) scale(0.996264)"/>
     <use xlink:href="#NimbusSanL-Regu-43" transform="translate(609.107601 0) scale(0.996264)"/>
     <use xlink:href="#NimbusSanL-Regu-6f" transform="translate(681.037585 0) scale(0.996264)"/>
     <use xlink:href="#NimbusSanL-Regu-6e" transform="translate(736.429262 0) scale(0.996264)"/>
     <use xlink:href="#NimbusSanL-Regu-73" transform="translate(791.820939 0) scale(0.996264)"/>
     <use xlink:href="#NimbusSanL-Regu-74" transform="translate(841.63414 0) scale(0.996264)"/>
     <use xlink:href="#NimbusSanL-Regu-61" transform="translate(869.32931 0) scale(0.996264)"/>
     <use xlink:href="#NimbusSanL-Regu-6e" transform="translate(924.720986 0) scale(0.996264)"/>
     <use xlink:href="#NimbusSanL-Regu-74" transform="translate(980.112663 0) scale(0.996264)"/>
     <use xlink:href="#NimbusSanL-Regu-76" transform="translate(1035.503003 0) scale(0.996264)"/>
     <use xlink:href="#NimbusSanL-Regu-73" transform="translate(1085.316203 0) scale(0.996264)"/>
     <use xlink:href="#NimbusSanL-Regu-2e" transform="translate(1133.636011 0) scale(0.996264)"/>
     <use xlink:href="#NimbusSanL-Regu-53" transform="translate(1195.600832 0) scale(0.996264)"/>
     <use xlink:href="#NimbusSanL-Regu-75" transform="translate(1262.050863 0) scale(0.996264)"/>
     <use xlink:href="#NimbusSanL-Regu-62" transform="translate(1317.44254 0) scale(0.996264)"/>
     <use xlink:href="#NimbusSanL-Regu-67" transform="translate(1372.834217 0) scale(0.996264)"/>
     <use xlink:href="#NimbusSanL-Regu-72" transform="translate(1427.229797 0) scale(0.996264)"/>
     <use xlink:href="#NimbusSanL-Regu-61" transform="translate(1459.40893 0) scale(0.996264)"/>
     <use xlink:href="#NimbusSanL-Regu-70" transform="translate(1514.800607 0) scale(0.996264)"/>
     <use xlink:href="#NimbusSanL-Regu-68" transform="translate(1570.192284 0) scale(0.996264)"/>
     <use xlink:href="#NimbusSanL-Regu-53" transform="translate(1653.279131 0) scale(0.996264)"/>
     <use xlink:href="#NimbusSanL-Regu-69" transform="translate(1719.729162 0) scale(0.996264)"/>
     <use xlink:href="#NimbusSanL-Regu-7a" transform="translate(1741.845946 0) scale(0.996264)"/>
     <use xlink:href="#NimbusSanL-Regu-65" transform="translate(1790.165754 0) scale(0.996264)"/>
    </g>
   </g>
   <g id="legend_1">
    <g id="line2d_43">
     <path d="M 79.506062 244.075153 
L 93.506062 244.075153 
L 107.506062 244.075153 
" style="fill: none; stroke: #0c5da5; stroke-linecap: round"/>
     <g>
      <use xlink:href="#ma58d1a9cb6" x="93.506062" y="244.075153" style="fill: #0c5da5; stroke: #0c5da5"/>
     </g>
    </g>
    <g id="text_12">
     <!-- False Edges: 0 -->
     <g style="fill: #262626" transform="translate(118.706062 248.975153) scale(0.14 -0.14)">
      <defs>
       <path id="NimbusSanL-Regu-46" d="M 1171 2112 
L 3398 2112 
L 3398 2638 
L 1171 2638 
L 1171 4146 
L 3706 4146 
L 3706 4672 
L 576 4672 
L 576 -14 
L 1171 -14 
L 1171 2112 
z
" transform="scale(0.015625)"/>
       <path id="NimbusSanL-Regu-45" d="M 1171 2112 
L 3712 2112 
L 3712 2638 
L 1171 2638 
L 1171 4146 
L 3808 4146 
L 3808 4672 
L 576 4672 
L 576 0 
L 3923 0 
L 3923 526 
L 1171 526 
L 1171 2112 
z
" transform="scale(0.015625)"/>
       <path id="NimbusSanL-Regu-64" d="M 3168 4672 
L 2637 4672 
L 2637 2937 
C 2413 3276 2054 3456 1606 3456 
C 736 3456 166 2761 166 1695 
C 166 566 723 -128 1626 -128 
C 2086 -128 2406 45 2694 461 
L 2694 -2 
L 3168 -2 
L 3168 4672 
z
M 1696 2956 
C 2272 2956 2637 2447 2637 1651 
C 2637 881 2266 372 1702 372 
C 1114 372 723 887 723 1664 
C 723 2440 1114 2956 1696 2956 
z
" transform="scale(0.015625)"/>
       <path id="NimbusSanL-Regu-3a" d="M 1370 667 
L 704 667 
L 704 0 
L 1370 0 
L 1370 667 
z
M 1370 3354 
L 704 3354 
L 704 2688 
L 1370 2688 
L 1370 3354 
z
" transform="scale(0.015625)"/>
      </defs>
      <use xlink:href="#NimbusSanL-Regu-46" transform="scale(0.996264)"/>
      <use xlink:href="#NimbusSanL-Regu-61" transform="translate(55.89028 0) scale(0.996264)"/>
      <use xlink:href="#NimbusSanL-Regu-6c" transform="translate(111.281957 0) scale(0.996264)"/>
      <use xlink:href="#NimbusSanL-Regu-73" transform="translate(133.398742 0) scale(0.996264)"/>
      <use xlink:href="#NimbusSanL-Regu-65" transform="translate(183.211942 0) scale(0.996264)"/>
      <use xlink:href="#NimbusSanL-Regu-45" transform="translate(266.298789 0) scale(0.996264)"/>
      <use xlink:href="#NimbusSanL-Regu-64" transform="translate(332.74882 0) scale(0.996264)"/>
      <use xlink:href="#NimbusSanL-Regu-67" transform="translate(388.140497 0) scale(0.996264)"/>
      <use xlink:href="#NimbusSanL-Regu-65" transform="translate(443.532174 0) scale(0.996264)"/>
      <use xlink:href="#NimbusSanL-Regu-73" transform="translate(498.923851 0) scale(0.996264)"/>
      <use xlink:href="#NimbusSanL-Regu-3a" transform="translate(548.737051 0) scale(0.996264)"/>
      <use xlink:href="#NimbusSanL-Regu-30" transform="translate(610.701872 0) scale(0.996264)"/>
     </g>
    </g>
    <g id="line2d_44">
     <path d="M 79.506062 263.983579 
L 93.506062 263.983579 
L 107.506062 263.983579 
" style="fill: none; stroke: #00b945; stroke-linecap: round"/>
     <g>
      <use xlink:href="#m3d52c66332" x="93.506062" y="263.983579" style="fill: #00b945; stroke: #00b945"/>
     </g>
    </g>
    <g id="text_13">
     <!-- False Edges: 20 -->
     <g style="fill: #262626" transform="translate(118.706062 268.883579) scale(0.14 -0.14)">
      <use xlink:href="#NimbusSanL-Regu-46" transform="scale(0.996264)"/>
      <use xlink:href="#NimbusSanL-Regu-61" transform="translate(55.89028 0) scale(0.996264)"/>
      <use xlink:href="#NimbusSanL-Regu-6c" transform="translate(111.281957 0) scale(0.996264)"/>
      <use xlink:href="#NimbusSanL-Regu-73" transform="translate(133.398742 0) scale(0.996264)"/>
      <use xlink:href="#NimbusSanL-Regu-65" transform="translate(183.211942 0) scale(0.996264)"/>
      <use xlink:href="#NimbusSanL-Regu-45" transform="translate(266.298789 0) scale(0.996264)"/>
      <use xlink:href="#NimbusSanL-Regu-64" transform="translate(332.74882 0) scale(0.996264)"/>
      <use xlink:href="#NimbusSanL-Regu-67" transform="translate(388.140497 0) scale(0.996264)"/>
      <use xlink:href="#NimbusSanL-Regu-65" transform="translate(443.532174 0) scale(0.996264)"/>
      <use xlink:href="#NimbusSanL-Regu-73" transform="translate(498.923851 0) scale(0.996264)"/>
      <use xlink:href="#NimbusSanL-Regu-3a" transform="translate(548.737051 0) scale(0.996264)"/>
      <use xlink:href="#NimbusSanL-Regu-32" transform="translate(610.701872 0) scale(0.996264)"/>
      <use xlink:href="#NimbusSanL-Regu-30" transform="translate(666.093549 0) scale(0.996264)"/>
     </g>
    </g>
    <g id="line2d_45">
     <path d="M 79.506062 283.892006 
L 93.506062 283.892006 
L 107.506062 283.892006 
" style="fill: none; stroke: #ff9500; stroke-linecap: round"/>
     <g>
      <use xlink:href="#m13d512d681" x="93.506062" y="283.892006" style="fill: #ff9500; stroke: #ff9500"/>
     </g>
    </g>
    <g id="text_14">
     <!-- False Edges: 40 -->
     <g style="fill: #262626" transform="translate(118.706062 288.792006) scale(0.14 -0.14)">
      <defs>
       <path id="NimbusSanL-Regu-34" d="M 2093 1088 
L 2093 0 
L 2656 0 
L 2656 1088 
L 3328 1088 
L 3328 1594 
L 2656 1594 
L 2656 4545 
L 2240 4545 
L 179 1684 
L 179 1088 
L 2093 1088 
z
M 2093 1594 
L 672 1594 
L 2093 3583 
L 2093 1594 
z
" transform="scale(0.015625)"/>
      </defs>
      <use xlink:href="#NimbusSanL-Regu-46" transform="scale(0.996264)"/>
      <use xlink:href="#NimbusSanL-Regu-61" transform="translate(55.89028 0) scale(0.996264)"/>
      <use xlink:href="#NimbusSanL-Regu-6c" transform="translate(111.281957 0) scale(0.996264)"/>
      <use xlink:href="#NimbusSanL-Regu-73" transform="translate(133.398742 0) scale(0.996264)"/>
      <use xlink:href="#NimbusSanL-Regu-65" transform="translate(183.211942 0) scale(0.996264)"/>
      <use xlink:href="#NimbusSanL-Regu-45" transform="translate(266.298789 0) scale(0.996264)"/>
      <use xlink:href="#NimbusSanL-Regu-64" transform="translate(332.74882 0) scale(0.996264)"/>
      <use xlink:href="#NimbusSanL-Regu-67" transform="translate(388.140497 0) scale(0.996264)"/>
      <use xlink:href="#NimbusSanL-Regu-65" transform="translate(443.532174 0) scale(0.996264)"/>
      <use xlink:href="#NimbusSanL-Regu-73" transform="translate(498.923851 0) scale(0.996264)"/>
      <use xlink:href="#NimbusSanL-Regu-3a" transform="translate(548.737051 0) scale(0.996264)"/>
      <use xlink:href="#NimbusSanL-Regu-34" transform="translate(610.701872 0) scale(0.996264)"/>
      <use xlink:href="#NimbusSanL-Regu-30" transform="translate(666.093549 0) scale(0.996264)"/>
     </g>
    </g>
    <g id="line2d_46">
     <path d="M 79.506062 303.800432 
L 93.506062 303.800432 
L 107.506062 303.800432 
" style="fill: none; stroke: #ff2c00; stroke-linecap: round"/>
     <g>
      <use xlink:href="#mbc89b80eba" x="93.506062" y="303.800432" style="fill: #ff2c00; stroke: #ff2c00"/>
     </g>
    </g>
    <g id="text_15">
     <!-- False Edges: 60 -->
     <g style="fill: #262626" transform="translate(118.706062 308.700432) scale(0.14 -0.14)">
      <use xlink:href="#NimbusSanL-Regu-46" transform="scale(0.996264)"/>
      <use xlink:href="#NimbusSanL-Regu-61" transform="translate(55.89028 0) scale(0.996264)"/>
      <use xlink:href="#NimbusSanL-Regu-6c" transform="translate(111.281957 0) scale(0.996264)"/>
      <use xlink:href="#NimbusSanL-Regu-73" transform="translate(133.398742 0) scale(0.996264)"/>
      <use xlink:href="#NimbusSanL-Regu-65" transform="translate(183.211942 0) scale(0.996264)"/>
      <use xlink:href="#NimbusSanL-Regu-45" transform="translate(266.298789 0) scale(0.996264)"/>
      <use xlink:href="#NimbusSanL-Regu-64" transform="translate(332.74882 0) scale(0.996264)"/>
      <use xlink:href="#NimbusSanL-Regu-67" transform="translate(388.140497 0) scale(0.996264)"/>
      <use xlink:href="#NimbusSanL-Regu-65" transform="translate(443.532174 0) scale(0.996264)"/>
      <use xlink:href="#NimbusSanL-Regu-73" transform="translate(498.923851 0) scale(0.996264)"/>
      <use xlink:href="#NimbusSanL-Regu-3a" transform="translate(548.737051 0) scale(0.996264)"/>
      <use xlink:href="#NimbusSanL-Regu-36" transform="translate(610.701872 0) scale(0.996264)"/>
      <use xlink:href="#NimbusSanL-Regu-30" transform="translate(666.093549 0) scale(0.996264)"/>
     </g>
    </g>
    <g id="line2d_47">
     <path d="M 79.506062 323.708858 
L 93.506062 323.708858 
L 107.506062 323.708858 
" style="fill: none; stroke: #845b97; stroke-linecap: round"/>
     <g>
      <use xlink:href="#mb03cb6a68b" x="93.506062" y="323.708858" style="fill: #845b97; stroke: #845b97"/>
     </g>
    </g>
    <g id="text_16">
     <!-- False Edges: 80 -->
     <g style="fill: #262626" transform="translate(118.706062 328.608858) scale(0.14 -0.14)">
      <use xlink:href="#NimbusSanL-Regu-46" transform="scale(0.996264)"/>
      <use xlink:href="#NimbusSanL-Regu-61" transform="translate(55.89028 0) scale(0.996264)"/>
      <use xlink:href="#NimbusSanL-Regu-6c" transform="translate(111.281957 0) scale(0.996264)"/>
      <use xlink:href="#NimbusSanL-Regu-73" transform="translate(133.398742 0) scale(0.996264)"/>
      <use xlink:href="#NimbusSanL-Regu-65" transform="translate(183.211942 0) scale(0.996264)"/>
      <use xlink:href="#NimbusSanL-Regu-45" transform="translate(266.298789 0) scale(0.996264)"/>
      <use xlink:href="#NimbusSanL-Regu-64" transform="translate(332.74882 0) scale(0.996264)"/>
      <use xlink:href="#NimbusSanL-Regu-67" transform="translate(388.140497 0) scale(0.996264)"/>
      <use xlink:href="#NimbusSanL-Regu-65" transform="translate(443.532174 0) scale(0.996264)"/>
      <use xlink:href="#NimbusSanL-Regu-73" transform="translate(498.923851 0) scale(0.996264)"/>
      <use xlink:href="#NimbusSanL-Regu-3a" transform="translate(548.737051 0) scale(0.996264)"/>
      <use xlink:href="#NimbusSanL-Regu-38" transform="translate(610.701872 0) scale(0.996264)"/>
      <use xlink:href="#NimbusSanL-Regu-30" transform="translate(666.093549 0) scale(0.996264)"/>
     </g>
    </g>
    <g id="line2d_48">
     <path d="M 79.506062 343.617285 
L 93.506062 343.617285 
L 107.506062 343.617285 
" style="fill: none; stroke: #474747; stroke-linecap: round"/>
     <g>
      <use xlink:href="#mb2c928dd49" x="93.506062" y="343.617285" style="fill: #474747; stroke: #474747"/>
     </g>
    </g>
    <g id="text_17">
     <!-- False Edges: 100 -->
     <g style="fill: #262626" transform="translate(118.706062 348.517285) scale(0.14 -0.14)">
      <use xlink:href="#NimbusSanL-Regu-46" transform="scale(0.996264)"/>
      <use xlink:href="#NimbusSanL-Regu-61" transform="translate(55.89028 0) scale(0.996264)"/>
      <use xlink:href="#NimbusSanL-Regu-6c" transform="translate(111.281957 0) scale(0.996264)"/>
      <use xlink:href="#NimbusSanL-Regu-73" transform="translate(133.398742 0) scale(0.996264)"/>
      <use xlink:href="#NimbusSanL-Regu-65" transform="translate(183.211942 0) scale(0.996264)"/>
      <use xlink:href="#NimbusSanL-Regu-45" transform="translate(266.298789 0) scale(0.996264)"/>
      <use xlink:href="#NimbusSanL-Regu-64" transform="translate(332.74882 0) scale(0.996264)"/>
      <use xlink:href="#NimbusSanL-Regu-67" transform="translate(388.140497 0) scale(0.996264)"/>
      <use xlink:href="#NimbusSanL-Regu-65" transform="translate(443.532174 0) scale(0.996264)"/>
      <use xlink:href="#NimbusSanL-Regu-73" transform="translate(498.923851 0) scale(0.996264)"/>
      <use xlink:href="#NimbusSanL-Regu-3a" transform="translate(548.737051 0) scale(0.996264)"/>
      <use xlink:href="#NimbusSanL-Regu-31" transform="translate(610.701872 0) scale(0.996264)"/>
      <use xlink:href="#NimbusSanL-Regu-30" transform="translate(666.093549 0) scale(0.996264)"/>
      <use xlink:href="#NimbusSanL-Regu-30" transform="translate(721.485226 0) scale(0.996264)"/>
     </g>
    </g>
   </g>
  </g>
 </g>
 <defs>
  <clipPath id="p8a48cd6c3d">
   <rect x="66.906062" y="31.448062" width="558" height="332.64"/>
  </clipPath>
 </defs>
</svg>
