<?xml version="1.0" encoding="utf-8" standalone="no"?>
<!DOCTYPE svg PUBLIC "-//W3C//DTD SVG 1.1//EN"
  "http://www.w3.org/Graphics/SVG/1.1/DTD/svg11.dtd">
<svg xmlns:xlink="http://www.w3.org/1999/xlink" width="432pt" height="324pt" viewBox="0 0 432 324" xmlns="http://www.w3.org/2000/svg" version="1.1">
 <metadata>
  <rdf:RDF xmlns:dc="http://purl.org/dc/elements/1.1/" xmlns:cc="http://creativecommons.org/ns#" xmlns:rdf="http://www.w3.org/1999/02/22-rdf-syntax-ns#">
   <cc:Work>
    <dc:type rdf:resource="http://purl.org/dc/dcmitype/StillImage"/>
    <dc:date>2024-03-27T10:19:00.466070</dc:date>
    <dc:format>image/svg+xml</dc:format>
    <dc:creator>
     <cc:Agent>
      <dc:title>Matplotlib v3.8.3, https://matplotlib.org/</dc:title>
     </cc:Agent>
    </dc:creator>
   </cc:Work>
  </rdf:RDF>
 </metadata>
 <defs>
  <style type="text/css">*{stroke-linejoin: round; stroke-linecap: butt}</style>
 </defs>
 <g id="figure_1">
  <g id="patch_1">
   <path d="M 0 324 
L 432 324 
L 432 0 
L 0 0 
z
" style="fill: #ffffff"/>
  </g>
  <g id="axes_1">
   <g id="patch_2">
    <path d="M 54 288.36 
L 388.8 288.36 
L 388.8 38.88 
L 54 38.88 
z
" style="fill: #ffffff"/>
   </g>
   <g id="PolyCollection_1">
    <path d="M 69.218182 89.059797 
L 69.218182 123.440574 
L 103.036364 107.292731 
L 136.854545 100.336752 
L 170.672727 87.736652 
L 204.490909 91.058259 
L 238.309091 85.783682 
L 272.127273 84.103119 
L 305.945455 82.746814 
L 339.763636 72.434119 
L 339.763636 67.054214 
L 339.763636 67.054214 
L 305.945455 70.68994 
L 272.127273 70.787916 
L 238.309091 61.439926 
L 204.490909 72.56287 
L 170.672727 70.283358 
L 136.854545 73.398149 
L 103.036364 78.883379 
L 69.218182 89.059797 
z
" clip-path="url(#pe2a72d8303)" style="fill: #1f77b4; fill-opacity: 0.3"/>
   </g>
   <g id="PolyCollection_2">
    <path d="M 69.218182 107.471793 
L 69.218182 141.902505 
L 103.036364 156.411397 
L 136.854545 159.216472 
L 170.672727 179.956091 
L 204.490909 172.433895 
L 238.309091 198.949749 
L 272.127273 204.706982 
L 305.945455 214.596234 
L 339.763636 215.210836 
L 339.763636 202.424806 
L 339.763636 202.424806 
L 305.945455 198.565691 
L 272.127273 183.649692 
L 238.309091 169.126773 
L 204.490909 132.758011 
L 170.672727 121.800874 
L 136.854545 129.299119 
L 103.036364 137.007676 
L 69.218182 107.471793 
z
" clip-path="url(#pe2a72d8303)" style="fill: #ff7f0e; fill-opacity: 0.3"/>
   </g>
   <g id="PolyCollection_3">
    <path d="M 69.218182 115.818157 
L 69.218182 148.482829 
L 103.036364 171.853205 
L 136.854545 189.223722 
L 170.672727 204.783523 
L 204.490909 216.460664 
L 238.309091 220.825006 
L 272.127273 230.639646 
L 305.945455 236.685517 
L 339.763636 241.168324 
L 339.763636 239.162912 
L 339.763636 239.162912 
L 305.945455 231.447508 
L 272.127273 215.596201 
L 238.309091 210.039311 
L 204.490909 205.142163 
L 170.672727 183.249206 
L 136.854545 158.822368 
L 103.036364 143.739702 
L 69.218182 115.818157 
z
" clip-path="url(#pe2a72d8303)" style="fill: #2ca02c; fill-opacity: 0.3"/>
   </g>
   <g id="PolyCollection_4">
    <path d="M 69.218182 128.624541 
L 69.218182 168.948704 
L 103.036364 176.925884 
L 136.854545 200.969428 
L 170.672727 207.829199 
L 204.490909 221.937392 
L 238.309091 238.960031 
L 272.127273 248.55092 
L 305.945455 251.688977 
L 339.763636 257.016904 
L 339.763636 254.591495 
L 339.763636 254.591495 
L 305.945455 246.973923 
L 272.127273 233.358527 
L 238.309091 228.010889 
L 204.490909 209.538666 
L 170.672727 189.461209 
L 136.854545 182.082104 
L 103.036364 158.253941 
L 69.218182 128.624541 
z
" clip-path="url(#pe2a72d8303)" style="fill: #d62728; fill-opacity: 0.3"/>
   </g>
   <g id="PolyCollection_5">
    <path d="M 69.218182 153.769693 
L 69.218182 172.773011 
L 103.036364 190.117681 
L 136.854545 209.365482 
L 170.672727 223.23201 
L 204.490909 236.436153 
L 238.309091 247.220653 
L 272.127273 255.879443 
L 305.945455 262.520009 
L 339.763636 268.185797 
L 339.763636 266.563738 
L 339.763636 266.563738 
L 305.945455 259.496244 
L 272.127273 253.394375 
L 238.309091 237.25148 
L 204.490909 224.14694 
L 170.672727 211.601132 
L 136.854545 185.664965 
L 103.036364 177.358113 
L 69.218182 153.769693 
z
" clip-path="url(#pe2a72d8303)" style="fill: #9467bd; fill-opacity: 0.3"/>
   </g>
   <g id="PolyCollection_6">
    <path d="M 69.218182 155.129985 
L 69.218182 186.193798 
L 103.036364 192.564172 
L 136.854545 213.989894 
L 170.672727 232.875486 
L 204.490909 241.002295 
L 238.309091 252.204809 
L 272.127273 260.326437 
L 305.945455 267.614157 
L 339.763636 274.009984 
L 339.763636 272.707157 
L 339.763636 272.707157 
L 305.945455 264.861454 
L 272.127273 257.719009 
L 238.309091 247.883695 
L 204.490909 233.304093 
L 170.672727 222.735672 
L 136.854545 202.265086 
L 103.036364 179.185092 
L 69.218182 155.129985 
z
" clip-path="url(#pe2a72d8303)" style="fill: #8c564b; fill-opacity: 0.3"/>
   </g>
   <g id="matplotlib.axis_1">
    <g id="xtick_1">
     <g id="line2d_1">
      <defs>
       <path id="m98d5ca69fd" d="M 0 0 
L 0 3.5 
" style="stroke: #000000; stroke-width: 0.8"/>
      </defs>
      <g>
       <use xlink:href="#m98d5ca69fd" x="170.672727" y="288.36" style="stroke: #000000; stroke-width: 0.8"/>
      </g>
     </g>
     <g id="text_1">
      <!-- 200 -->
      <g transform="translate(147.767727 313.59625) scale(0.24 -0.24)">
       <defs>
        <path id="DejaVuSans-32" d="M 1228 531 
L 3431 531 
L 3431 0 
L 469 0 
L 469 531 
Q 828 903 1448 1529 
Q 2069 2156 2228 2338 
Q 2531 2678 2651 2914 
Q 2772 3150 2772 3378 
Q 2772 3750 2511 3984 
Q 2250 4219 1831 4219 
Q 1534 4219 1204 4116 
Q 875 4013 500 3803 
L 500 4441 
Q 881 4594 1212 4672 
Q 1544 4750 1819 4750 
Q 2544 4750 2975 4387 
Q 3406 4025 3406 3419 
Q 3406 3131 3298 2873 
Q 3191 2616 2906 2266 
Q 2828 2175 2409 1742 
Q 1991 1309 1228 531 
z
" transform="scale(0.015625)"/>
        <path id="DejaVuSans-30" d="M 2034 4250 
Q 1547 4250 1301 3770 
Q 1056 3291 1056 2328 
Q 1056 1369 1301 889 
Q 1547 409 2034 409 
Q 2525 409 2770 889 
Q 3016 1369 3016 2328 
Q 3016 3291 2770 3770 
Q 2525 4250 2034 4250 
z
M 2034 4750 
Q 2819 4750 3233 4129 
Q 3647 3509 3647 2328 
Q 3647 1150 3233 529 
Q 2819 -91 2034 -91 
Q 1250 -91 836 529 
Q 422 1150 422 2328 
Q 422 3509 836 4129 
Q 1250 4750 2034 4750 
z
" transform="scale(0.015625)"/>
       </defs>
       <use xlink:href="#DejaVuSans-32"/>
       <use xlink:href="#DejaVuSans-30" x="63.623047"/>
       <use xlink:href="#DejaVuSans-30" x="127.246094"/>
      </g>
     </g>
    </g>
    <g id="xtick_2">
     <g id="line2d_2">
      <g>
       <use xlink:href="#m98d5ca69fd" x="305.945455" y="288.36" style="stroke: #000000; stroke-width: 0.8"/>
      </g>
     </g>
     <g id="text_2">
      <!-- 400 -->
      <g transform="translate(283.040455 313.59625) scale(0.24 -0.24)">
       <defs>
        <path id="DejaVuSans-34" d="M 2419 4116 
L 825 1625 
L 2419 1625 
L 2419 4116 
z
M 2253 4666 
L 3047 4666 
L 3047 1625 
L 3713 1625 
L 3713 1100 
L 3047 1100 
L 3047 0 
L 2419 0 
L 2419 1100 
L 313 1100 
L 313 1709 
L 2253 4666 
z
" transform="scale(0.015625)"/>
       </defs>
       <use xlink:href="#DejaVuSans-34"/>
       <use xlink:href="#DejaVuSans-30" x="63.623047"/>
       <use xlink:href="#DejaVuSans-30" x="127.246094"/>
      </g>
     </g>
    </g>
    <g id="text_3">
     <!-- Subgraph Size -->
     <g transform="translate(134.983125 340.82375) scale(0.24 -0.24)">
      <defs>
       <path id="DejaVuSans-53" d="M 3425 4513 
L 3425 3897 
Q 3066 4069 2747 4153 
Q 2428 4238 2131 4238 
Q 1616 4238 1336 4038 
Q 1056 3838 1056 3469 
Q 1056 3159 1242 3001 
Q 1428 2844 1947 2747 
L 2328 2669 
Q 3034 2534 3370 2195 
Q 3706 1856 3706 1288 
Q 3706 609 3251 259 
Q 2797 -91 1919 -91 
Q 1588 -91 1214 -16 
Q 841 59 441 206 
L 441 856 
Q 825 641 1194 531 
Q 1563 422 1919 422 
Q 2459 422 2753 634 
Q 3047 847 3047 1241 
Q 3047 1584 2836 1778 
Q 2625 1972 2144 2069 
L 1759 2144 
Q 1053 2284 737 2584 
Q 422 2884 422 3419 
Q 422 4038 858 4394 
Q 1294 4750 2059 4750 
Q 2388 4750 2728 4690 
Q 3069 4631 3425 4513 
z
" transform="scale(0.015625)"/>
       <path id="DejaVuSans-75" d="M 544 1381 
L 544 3500 
L 1119 3500 
L 1119 1403 
Q 1119 906 1312 657 
Q 1506 409 1894 409 
Q 2359 409 2629 706 
Q 2900 1003 2900 1516 
L 2900 3500 
L 3475 3500 
L 3475 0 
L 2900 0 
L 2900 538 
Q 2691 219 2414 64 
Q 2138 -91 1772 -91 
Q 1169 -91 856 284 
Q 544 659 544 1381 
z
M 1991 3584 
L 1991 3584 
z
" transform="scale(0.015625)"/>
       <path id="DejaVuSans-62" d="M 3116 1747 
Q 3116 2381 2855 2742 
Q 2594 3103 2138 3103 
Q 1681 3103 1420 2742 
Q 1159 2381 1159 1747 
Q 1159 1113 1420 752 
Q 1681 391 2138 391 
Q 2594 391 2855 752 
Q 3116 1113 3116 1747 
z
M 1159 2969 
Q 1341 3281 1617 3432 
Q 1894 3584 2278 3584 
Q 2916 3584 3314 3078 
Q 3713 2572 3713 1747 
Q 3713 922 3314 415 
Q 2916 -91 2278 -91 
Q 1894 -91 1617 61 
Q 1341 213 1159 525 
L 1159 0 
L 581 0 
L 581 4863 
L 1159 4863 
L 1159 2969 
z
" transform="scale(0.015625)"/>
       <path id="DejaVuSans-67" d="M 2906 1791 
Q 2906 2416 2648 2759 
Q 2391 3103 1925 3103 
Q 1463 3103 1205 2759 
Q 947 2416 947 1791 
Q 947 1169 1205 825 
Q 1463 481 1925 481 
Q 2391 481 2648 825 
Q 2906 1169 2906 1791 
z
M 3481 434 
Q 3481 -459 3084 -895 
Q 2688 -1331 1869 -1331 
Q 1566 -1331 1297 -1286 
Q 1028 -1241 775 -1147 
L 775 -588 
Q 1028 -725 1275 -790 
Q 1522 -856 1778 -856 
Q 2344 -856 2625 -561 
Q 2906 -266 2906 331 
L 2906 616 
Q 2728 306 2450 153 
Q 2172 0 1784 0 
Q 1141 0 747 490 
Q 353 981 353 1791 
Q 353 2603 747 3093 
Q 1141 3584 1784 3584 
Q 2172 3584 2450 3431 
Q 2728 3278 2906 2969 
L 2906 3500 
L 3481 3500 
L 3481 434 
z
" transform="scale(0.015625)"/>
       <path id="DejaVuSans-72" d="M 2631 2963 
Q 2534 3019 2420 3045 
Q 2306 3072 2169 3072 
Q 1681 3072 1420 2755 
Q 1159 2438 1159 1844 
L 1159 0 
L 581 0 
L 581 3500 
L 1159 3500 
L 1159 2956 
Q 1341 3275 1631 3429 
Q 1922 3584 2338 3584 
Q 2397 3584 2469 3576 
Q 2541 3569 2628 3553 
L 2631 2963 
z
" transform="scale(0.015625)"/>
       <path id="DejaVuSans-61" d="M 2194 1759 
Q 1497 1759 1228 1600 
Q 959 1441 959 1056 
Q 959 750 1161 570 
Q 1363 391 1709 391 
Q 2188 391 2477 730 
Q 2766 1069 2766 1631 
L 2766 1759 
L 2194 1759 
z
M 3341 1997 
L 3341 0 
L 2766 0 
L 2766 531 
Q 2569 213 2275 61 
Q 1981 -91 1556 -91 
Q 1019 -91 701 211 
Q 384 513 384 1019 
Q 384 1609 779 1909 
Q 1175 2209 1959 2209 
L 2766 2209 
L 2766 2266 
Q 2766 2663 2505 2880 
Q 2244 3097 1772 3097 
Q 1472 3097 1187 3025 
Q 903 2953 641 2809 
L 641 3341 
Q 956 3463 1253 3523 
Q 1550 3584 1831 3584 
Q 2591 3584 2966 3190 
Q 3341 2797 3341 1997 
z
" transform="scale(0.015625)"/>
       <path id="DejaVuSans-70" d="M 1159 525 
L 1159 -1331 
L 581 -1331 
L 581 3500 
L 1159 3500 
L 1159 2969 
Q 1341 3281 1617 3432 
Q 1894 3584 2278 3584 
Q 2916 3584 3314 3078 
Q 3713 2572 3713 1747 
Q 3713 922 3314 415 
Q 2916 -91 2278 -91 
Q 1894 -91 1617 61 
Q 1341 213 1159 525 
z
M 3116 1747 
Q 3116 2381 2855 2742 
Q 2594 3103 2138 3103 
Q 1681 3103 1420 2742 
Q 1159 2381 1159 1747 
Q 1159 1113 1420 752 
Q 1681 391 2138 391 
Q 2594 391 2855 752 
Q 3116 1113 3116 1747 
z
" transform="scale(0.015625)"/>
       <path id="DejaVuSans-68" d="M 3513 2113 
L 3513 0 
L 2938 0 
L 2938 2094 
Q 2938 2591 2744 2837 
Q 2550 3084 2163 3084 
Q 1697 3084 1428 2787 
Q 1159 2491 1159 1978 
L 1159 0 
L 581 0 
L 581 4863 
L 1159 4863 
L 1159 2956 
Q 1366 3272 1645 3428 
Q 1925 3584 2291 3584 
Q 2894 3584 3203 3211 
Q 3513 2838 3513 2113 
z
" transform="scale(0.015625)"/>
       <path id="DejaVuSans-20" transform="scale(0.015625)"/>
       <path id="DejaVuSans-69" d="M 603 3500 
L 1178 3500 
L 1178 0 
L 603 0 
L 603 3500 
z
M 603 4863 
L 1178 4863 
L 1178 4134 
L 603 4134 
L 603 4863 
z
" transform="scale(0.015625)"/>
       <path id="DejaVuSans-7a" d="M 353 3500 
L 3084 3500 
L 3084 2975 
L 922 459 
L 3084 459 
L 3084 0 
L 275 0 
L 275 525 
L 2438 3041 
L 353 3041 
L 353 3500 
z
" transform="scale(0.015625)"/>
       <path id="DejaVuSans-65" d="M 3597 1894 
L 3597 1613 
L 953 1613 
Q 991 1019 1311 708 
Q 1631 397 2203 397 
Q 2534 397 2845 478 
Q 3156 559 3463 722 
L 3463 178 
Q 3153 47 2828 -22 
Q 2503 -91 2169 -91 
Q 1331 -91 842 396 
Q 353 884 353 1716 
Q 353 2575 817 3079 
Q 1281 3584 2069 3584 
Q 2775 3584 3186 3129 
Q 3597 2675 3597 1894 
z
M 3022 2063 
Q 3016 2534 2758 2815 
Q 2500 3097 2075 3097 
Q 1594 3097 1305 2825 
Q 1016 2553 972 2059 
L 3022 2063 
z
" transform="scale(0.015625)"/>
      </defs>
      <use xlink:href="#DejaVuSans-53"/>
      <use xlink:href="#DejaVuSans-75" x="63.476562"/>
      <use xlink:href="#DejaVuSans-62" x="126.855469"/>
      <use xlink:href="#DejaVuSans-67" x="190.332031"/>
      <use xlink:href="#DejaVuSans-72" x="253.808594"/>
      <use xlink:href="#DejaVuSans-61" x="294.921875"/>
      <use xlink:href="#DejaVuSans-70" x="356.201172"/>
      <use xlink:href="#DejaVuSans-68" x="419.677734"/>
      <use xlink:href="#DejaVuSans-20" x="483.056641"/>
      <use xlink:href="#DejaVuSans-53" x="514.84375"/>
      <use xlink:href="#DejaVuSans-69" x="578.320312"/>
      <use xlink:href="#DejaVuSans-7a" x="606.103516"/>
      <use xlink:href="#DejaVuSans-65" x="658.59375"/>
     </g>
    </g>
   </g>
   <g id="matplotlib.axis_2">
    <g id="ytick_1">
     <g id="line2d_3">
      <defs>
       <path id="mc2e70f8d72" d="M 0 0 
L -3.5 0 
" style="stroke: #000000; stroke-width: 0.8"/>
      </defs>
      <g>
       <use xlink:href="#mc2e70f8d72" x="54" y="228.463132" style="stroke: #000000; stroke-width: 0.8"/>
      </g>
     </g>
     <g id="text_4">
      <!-- 0.75 -->
      <g transform="translate(-6.4375 237.581257) scale(0.24 -0.24)">
       <defs>
        <path id="DejaVuSans-2e" d="M 684 794 
L 1344 794 
L 1344 0 
L 684 0 
L 684 794 
z
" transform="scale(0.015625)"/>
        <path id="DejaVuSans-37" d="M 525 4666 
L 3525 4666 
L 3525 4397 
L 1831 0 
L 1172 0 
L 2766 4134 
L 525 4134 
L 525 4666 
z
" transform="scale(0.015625)"/>
        <path id="DejaVuSans-35" d="M 691 4666 
L 3169 4666 
L 3169 4134 
L 1269 4134 
L 1269 2991 
Q 1406 3038 1543 3061 
Q 1681 3084 1819 3084 
Q 2600 3084 3056 2656 
Q 3513 2228 3513 1497 
Q 3513 744 3044 326 
Q 2575 -91 1722 -91 
Q 1428 -91 1123 -41 
Q 819 9 494 109 
L 494 744 
Q 775 591 1075 516 
Q 1375 441 1709 441 
Q 2250 441 2565 725 
Q 2881 1009 2881 1497 
Q 2881 1984 2565 2268 
Q 2250 2553 1709 2553 
Q 1456 2553 1204 2497 
Q 953 2441 691 2322 
L 691 4666 
z
" transform="scale(0.015625)"/>
       </defs>
       <use xlink:href="#DejaVuSans-30"/>
       <use xlink:href="#DejaVuSans-2e" x="63.623047"/>
       <use xlink:href="#DejaVuSans-37" x="95.410156"/>
       <use xlink:href="#DejaVuSans-35" x="159.033203"/>
      </g>
     </g>
    </g>
    <g id="ytick_2">
     <g id="line2d_4">
      <g>
       <use xlink:href="#mc2e70f8d72" x="54" y="167.089115" style="stroke: #000000; stroke-width: 0.8"/>
      </g>
     </g>
     <g id="text_5">
      <!-- 1.00 -->
      <g transform="translate(-6.4375 176.20724) scale(0.24 -0.24)">
       <defs>
        <path id="DejaVuSans-31" d="M 794 531 
L 1825 531 
L 1825 4091 
L 703 3866 
L 703 4441 
L 1819 4666 
L 2450 4666 
L 2450 531 
L 3481 531 
L 3481 0 
L 794 0 
L 794 531 
z
" transform="scale(0.015625)"/>
       </defs>
       <use xlink:href="#DejaVuSans-31"/>
       <use xlink:href="#DejaVuSans-2e" x="63.623047"/>
       <use xlink:href="#DejaVuSans-30" x="95.410156"/>
       <use xlink:href="#DejaVuSans-30" x="159.033203"/>
      </g>
     </g>
    </g>
    <g id="ytick_3">
     <g id="line2d_5">
      <g>
       <use xlink:href="#mc2e70f8d72" x="54" y="105.715099" style="stroke: #000000; stroke-width: 0.8"/>
      </g>
     </g>
     <g id="text_6">
      <!-- 1.25 -->
      <g transform="translate(-6.4375 114.833224) scale(0.24 -0.24)">
       <use xlink:href="#DejaVuSans-31"/>
       <use xlink:href="#DejaVuSans-2e" x="63.623047"/>
       <use xlink:href="#DejaVuSans-32" x="95.410156"/>
       <use xlink:href="#DejaVuSans-35" x="159.033203"/>
      </g>
     </g>
    </g>
    <g id="ytick_4">
     <g id="line2d_6">
      <g>
       <use xlink:href="#mc2e70f8d72" x="54" y="44.341082" style="stroke: #000000; stroke-width: 0.8"/>
      </g>
     </g>
     <g id="text_7">
      <!-- 1.50 -->
      <g transform="translate(-6.4375 53.459207) scale(0.24 -0.24)">
       <use xlink:href="#DejaVuSans-31"/>
       <use xlink:href="#DejaVuSans-2e" x="63.623047"/>
       <use xlink:href="#DejaVuSans-35" x="95.410156"/>
       <use xlink:href="#DejaVuSans-30" x="159.033203"/>
      </g>
     </g>
    </g>
    <g id="text_8">
     <!-- Mean Spatial Constant -->
     <g transform="translate(-15.42875 299.205) rotate(-90) scale(0.24 -0.24)">
      <defs>
       <path id="DejaVuSans-4d" d="M 628 4666 
L 1569 4666 
L 2759 1491 
L 3956 4666 
L 4897 4666 
L 4897 0 
L 4281 0 
L 4281 4097 
L 3078 897 
L 2444 897 
L 1241 4097 
L 1241 0 
L 628 0 
L 628 4666 
z
" transform="scale(0.015625)"/>
       <path id="DejaVuSans-6e" d="M 3513 2113 
L 3513 0 
L 2938 0 
L 2938 2094 
Q 2938 2591 2744 2837 
Q 2550 3084 2163 3084 
Q 1697 3084 1428 2787 
Q 1159 2491 1159 1978 
L 1159 0 
L 581 0 
L 581 3500 
L 1159 3500 
L 1159 2956 
Q 1366 3272 1645 3428 
Q 1925 3584 2291 3584 
Q 2894 3584 3203 3211 
Q 3513 2838 3513 2113 
z
" transform="scale(0.015625)"/>
       <path id="DejaVuSans-74" d="M 1172 4494 
L 1172 3500 
L 2356 3500 
L 2356 3053 
L 1172 3053 
L 1172 1153 
Q 1172 725 1289 603 
Q 1406 481 1766 481 
L 2356 481 
L 2356 0 
L 1766 0 
Q 1100 0 847 248 
Q 594 497 594 1153 
L 594 3053 
L 172 3053 
L 172 3500 
L 594 3500 
L 594 4494 
L 1172 4494 
z
" transform="scale(0.015625)"/>
       <path id="DejaVuSans-6c" d="M 603 4863 
L 1178 4863 
L 1178 0 
L 603 0 
L 603 4863 
z
" transform="scale(0.015625)"/>
       <path id="DejaVuSans-43" d="M 4122 4306 
L 4122 3641 
Q 3803 3938 3442 4084 
Q 3081 4231 2675 4231 
Q 1875 4231 1450 3742 
Q 1025 3253 1025 2328 
Q 1025 1406 1450 917 
Q 1875 428 2675 428 
Q 3081 428 3442 575 
Q 3803 722 4122 1019 
L 4122 359 
Q 3791 134 3420 21 
Q 3050 -91 2638 -91 
Q 1578 -91 968 557 
Q 359 1206 359 2328 
Q 359 3453 968 4101 
Q 1578 4750 2638 4750 
Q 3056 4750 3426 4639 
Q 3797 4528 4122 4306 
z
" transform="scale(0.015625)"/>
       <path id="DejaVuSans-6f" d="M 1959 3097 
Q 1497 3097 1228 2736 
Q 959 2375 959 1747 
Q 959 1119 1226 758 
Q 1494 397 1959 397 
Q 2419 397 2687 759 
Q 2956 1122 2956 1747 
Q 2956 2369 2687 2733 
Q 2419 3097 1959 3097 
z
M 1959 3584 
Q 2709 3584 3137 3096 
Q 3566 2609 3566 1747 
Q 3566 888 3137 398 
Q 2709 -91 1959 -91 
Q 1206 -91 779 398 
Q 353 888 353 1747 
Q 353 2609 779 3096 
Q 1206 3584 1959 3584 
z
" transform="scale(0.015625)"/>
       <path id="DejaVuSans-73" d="M 2834 3397 
L 2834 2853 
Q 2591 2978 2328 3040 
Q 2066 3103 1784 3103 
Q 1356 3103 1142 2972 
Q 928 2841 928 2578 
Q 928 2378 1081 2264 
Q 1234 2150 1697 2047 
L 1894 2003 
Q 2506 1872 2764 1633 
Q 3022 1394 3022 966 
Q 3022 478 2636 193 
Q 2250 -91 1575 -91 
Q 1294 -91 989 -36 
Q 684 19 347 128 
L 347 722 
Q 666 556 975 473 
Q 1284 391 1588 391 
Q 1994 391 2212 530 
Q 2431 669 2431 922 
Q 2431 1156 2273 1281 
Q 2116 1406 1581 1522 
L 1381 1569 
Q 847 1681 609 1914 
Q 372 2147 372 2553 
Q 372 3047 722 3315 
Q 1072 3584 1716 3584 
Q 2034 3584 2315 3537 
Q 2597 3491 2834 3397 
z
" transform="scale(0.015625)"/>
      </defs>
      <use xlink:href="#DejaVuSans-4d"/>
      <use xlink:href="#DejaVuSans-65" x="86.279297"/>
      <use xlink:href="#DejaVuSans-61" x="147.802734"/>
      <use xlink:href="#DejaVuSans-6e" x="209.082031"/>
      <use xlink:href="#DejaVuSans-20" x="272.460938"/>
      <use xlink:href="#DejaVuSans-53" x="304.248047"/>
      <use xlink:href="#DejaVuSans-70" x="367.724609"/>
      <use xlink:href="#DejaVuSans-61" x="431.201172"/>
      <use xlink:href="#DejaVuSans-74" x="492.480469"/>
      <use xlink:href="#DejaVuSans-69" x="531.689453"/>
      <use xlink:href="#DejaVuSans-61" x="559.472656"/>
      <use xlink:href="#DejaVuSans-6c" x="620.751953"/>
      <use xlink:href="#DejaVuSans-20" x="648.535156"/>
      <use xlink:href="#DejaVuSans-43" x="680.322266"/>
      <use xlink:href="#DejaVuSans-6f" x="750.146484"/>
      <use xlink:href="#DejaVuSans-6e" x="811.328125"/>
      <use xlink:href="#DejaVuSans-73" x="874.707031"/>
      <use xlink:href="#DejaVuSans-74" x="926.806641"/>
      <use xlink:href="#DejaVuSans-61" x="966.015625"/>
      <use xlink:href="#DejaVuSans-6e" x="1027.294922"/>
      <use xlink:href="#DejaVuSans-74" x="1090.673828"/>
     </g>
    </g>
   </g>
   <g id="line2d_7">
    <path d="M 69.218182 106.250186 
L 103.036364 93.088055 
L 136.854545 86.867451 
L 170.672727 79.010005 
L 204.490909 81.810565 
L 238.309091 73.611804 
L 272.127273 77.445517 
L 305.945455 76.718377 
L 339.763636 69.744167 
L 373.581818 50.22 
" clip-path="url(#pe2a72d8303)" style="fill: none; stroke: #1f77b4; stroke-linecap: square"/>
    <defs>
     <path id="me2fad99d20" d="M 0 1.5 
C 0.397805 1.5 0.77937 1.341951 1.06066 1.06066 
C 1.341951 0.77937 1.5 0.397805 1.5 0 
C 1.5 -0.397805 1.341951 -0.77937 1.06066 -1.06066 
C 0.77937 -1.341951 0.397805 -1.5 0 -1.5 
C -0.397805 -1.5 -0.77937 -1.341951 -1.06066 -1.06066 
C -1.341951 -0.77937 -1.5 -0.397805 -1.5 0 
C -1.5 0.397805 -1.341951 0.77937 -1.06066 1.06066 
C -0.77937 1.341951 -0.397805 1.5 0 1.5 
z
" style="stroke: #1f77b4"/>
    </defs>
    <g clip-path="url(#pe2a72d8303)">
     <use xlink:href="#me2fad99d20" x="69.218182" y="106.250186" style="fill: #1f77b4; stroke: #1f77b4"/>
     <use xlink:href="#me2fad99d20" x="103.036364" y="93.088055" style="fill: #1f77b4; stroke: #1f77b4"/>
     <use xlink:href="#me2fad99d20" x="136.854545" y="86.867451" style="fill: #1f77b4; stroke: #1f77b4"/>
     <use xlink:href="#me2fad99d20" x="170.672727" y="79.010005" style="fill: #1f77b4; stroke: #1f77b4"/>
     <use xlink:href="#me2fad99d20" x="204.490909" y="81.810565" style="fill: #1f77b4; stroke: #1f77b4"/>
     <use xlink:href="#me2fad99d20" x="238.309091" y="73.611804" style="fill: #1f77b4; stroke: #1f77b4"/>
     <use xlink:href="#me2fad99d20" x="272.127273" y="77.445517" style="fill: #1f77b4; stroke: #1f77b4"/>
     <use xlink:href="#me2fad99d20" x="305.945455" y="76.718377" style="fill: #1f77b4; stroke: #1f77b4"/>
     <use xlink:href="#me2fad99d20" x="339.763636" y="69.744167" style="fill: #1f77b4; stroke: #1f77b4"/>
     <use xlink:href="#me2fad99d20" x="373.581818" y="50.22" style="fill: #1f77b4; stroke: #1f77b4"/>
    </g>
   </g>
   <g id="line2d_8">
    <path d="M 69.218182 124.687149 
L 103.036364 146.709536 
L 136.854545 144.257795 
L 170.672727 150.878483 
L 204.490909 152.595953 
L 238.309091 184.038261 
L 272.127273 194.178337 
L 305.945455 206.580963 
L 339.763636 208.817821 
L 373.581818 211.357875 
" clip-path="url(#pe2a72d8303)" style="fill: none; stroke: #ff7f0e; stroke-linecap: square"/>
    <defs>
     <path id="m966ab3dda4" d="M 0 1.5 
C 0.397805 1.5 0.77937 1.341951 1.06066 1.06066 
C 1.341951 0.77937 1.5 0.397805 1.5 0 
C 1.5 -0.397805 1.341951 -0.77937 1.06066 -1.06066 
C 0.77937 -1.341951 0.397805 -1.5 0 -1.5 
C -0.397805 -1.5 -0.77937 -1.341951 -1.06066 -1.06066 
C -1.341951 -0.77937 -1.5 -0.397805 -1.5 0 
C -1.5 0.397805 -1.341951 0.77937 -1.06066 1.06066 
C -0.77937 1.341951 -0.397805 1.5 0 1.5 
z
" style="stroke: #ff7f0e"/>
    </defs>
    <g clip-path="url(#pe2a72d8303)">
     <use xlink:href="#m966ab3dda4" x="69.218182" y="124.687149" style="fill: #ff7f0e; stroke: #ff7f0e"/>
     <use xlink:href="#m966ab3dda4" x="103.036364" y="146.709536" style="fill: #ff7f0e; stroke: #ff7f0e"/>
     <use xlink:href="#m966ab3dda4" x="136.854545" y="144.257795" style="fill: #ff7f0e; stroke: #ff7f0e"/>
     <use xlink:href="#m966ab3dda4" x="170.672727" y="150.878483" style="fill: #ff7f0e; stroke: #ff7f0e"/>
     <use xlink:href="#m966ab3dda4" x="204.490909" y="152.595953" style="fill: #ff7f0e; stroke: #ff7f0e"/>
     <use xlink:href="#m966ab3dda4" x="238.309091" y="184.038261" style="fill: #ff7f0e; stroke: #ff7f0e"/>
     <use xlink:href="#m966ab3dda4" x="272.127273" y="194.178337" style="fill: #ff7f0e; stroke: #ff7f0e"/>
     <use xlink:href="#m966ab3dda4" x="305.945455" y="206.580963" style="fill: #ff7f0e; stroke: #ff7f0e"/>
     <use xlink:href="#m966ab3dda4" x="339.763636" y="208.817821" style="fill: #ff7f0e; stroke: #ff7f0e"/>
     <use xlink:href="#m966ab3dda4" x="373.581818" y="211.357875" style="fill: #ff7f0e; stroke: #ff7f0e"/>
    </g>
   </g>
   <g id="line2d_9">
    <path d="M 69.218182 132.150493 
L 103.036364 157.796453 
L 136.854545 174.023045 
L 170.672727 194.016364 
L 204.490909 210.801413 
L 238.309091 215.432159 
L 272.127273 223.117923 
L 305.945455 234.066513 
L 339.763636 240.165618 
L 373.581818 244.839597 
" clip-path="url(#pe2a72d8303)" style="fill: none; stroke: #2ca02c; stroke-linecap: square"/>
    <defs>
     <path id="mb22982809f" d="M 0 1.5 
C 0.397805 1.5 0.77937 1.341951 1.06066 1.06066 
C 1.341951 0.77937 1.5 0.397805 1.5 0 
C 1.5 -0.397805 1.341951 -0.77937 1.06066 -1.06066 
C 0.77937 -1.341951 0.397805 -1.5 0 -1.5 
C -0.397805 -1.5 -0.77937 -1.341951 -1.06066 -1.06066 
C -1.341951 -0.77937 -1.5 -0.397805 -1.5 0 
C -1.5 0.397805 -1.341951 0.77937 -1.06066 1.06066 
C -0.77937 1.341951 -0.397805 1.5 0 1.5 
z
" style="stroke: #2ca02c"/>
    </defs>
    <g clip-path="url(#pe2a72d8303)">
     <use xlink:href="#mb22982809f" x="69.218182" y="132.150493" style="fill: #2ca02c; stroke: #2ca02c"/>
     <use xlink:href="#mb22982809f" x="103.036364" y="157.796453" style="fill: #2ca02c; stroke: #2ca02c"/>
     <use xlink:href="#mb22982809f" x="136.854545" y="174.023045" style="fill: #2ca02c; stroke: #2ca02c"/>
     <use xlink:href="#mb22982809f" x="170.672727" y="194.016364" style="fill: #2ca02c; stroke: #2ca02c"/>
     <use xlink:href="#mb22982809f" x="204.490909" y="210.801413" style="fill: #2ca02c; stroke: #2ca02c"/>
     <use xlink:href="#mb22982809f" x="238.309091" y="215.432159" style="fill: #2ca02c; stroke: #2ca02c"/>
     <use xlink:href="#mb22982809f" x="272.127273" y="223.117923" style="fill: #2ca02c; stroke: #2ca02c"/>
     <use xlink:href="#mb22982809f" x="305.945455" y="234.066513" style="fill: #2ca02c; stroke: #2ca02c"/>
     <use xlink:href="#mb22982809f" x="339.763636" y="240.165618" style="fill: #2ca02c; stroke: #2ca02c"/>
     <use xlink:href="#mb22982809f" x="373.581818" y="244.839597" style="fill: #2ca02c; stroke: #2ca02c"/>
    </g>
   </g>
   <g id="line2d_10">
    <path d="M 69.218182 148.786623 
L 103.036364 167.589913 
L 136.854545 191.525766 
L 170.672727 198.645204 
L 204.490909 215.738029 
L 238.309091 233.48546 
L 272.127273 240.954724 
L 305.945455 249.33145 
L 339.763636 255.804199 
L 373.581818 259.949304 
" clip-path="url(#pe2a72d8303)" style="fill: none; stroke: #d62728; stroke-linecap: square"/>
    <defs>
     <path id="m3d6795fa49" d="M 0 1.5 
C 0.397805 1.5 0.77937 1.341951 1.06066 1.06066 
C 1.341951 0.77937 1.5 0.397805 1.5 0 
C 1.5 -0.397805 1.341951 -0.77937 1.06066 -1.06066 
C 0.77937 -1.341951 0.397805 -1.5 0 -1.5 
C -0.397805 -1.5 -0.77937 -1.341951 -1.06066 -1.06066 
C -1.341951 -0.77937 -1.5 -0.397805 -1.5 0 
C -1.5 0.397805 -1.341951 0.77937 -1.06066 1.06066 
C -0.77937 1.341951 -0.397805 1.5 0 1.5 
z
" style="stroke: #d62728"/>
    </defs>
    <g clip-path="url(#pe2a72d8303)">
     <use xlink:href="#m3d6795fa49" x="69.218182" y="148.786623" style="fill: #d62728; stroke: #d62728"/>
     <use xlink:href="#m3d6795fa49" x="103.036364" y="167.589913" style="fill: #d62728; stroke: #d62728"/>
     <use xlink:href="#m3d6795fa49" x="136.854545" y="191.525766" style="fill: #d62728; stroke: #d62728"/>
     <use xlink:href="#m3d6795fa49" x="170.672727" y="198.645204" style="fill: #d62728; stroke: #d62728"/>
     <use xlink:href="#m3d6795fa49" x="204.490909" y="215.738029" style="fill: #d62728; stroke: #d62728"/>
     <use xlink:href="#m3d6795fa49" x="238.309091" y="233.48546" style="fill: #d62728; stroke: #d62728"/>
     <use xlink:href="#m3d6795fa49" x="272.127273" y="240.954724" style="fill: #d62728; stroke: #d62728"/>
     <use xlink:href="#m3d6795fa49" x="305.945455" y="249.33145" style="fill: #d62728; stroke: #d62728"/>
     <use xlink:href="#m3d6795fa49" x="339.763636" y="255.804199" style="fill: #d62728; stroke: #d62728"/>
     <use xlink:href="#m3d6795fa49" x="373.581818" y="259.949304" style="fill: #d62728; stroke: #d62728"/>
    </g>
   </g>
   <g id="line2d_11">
    <path d="M 69.218182 163.271352 
L 103.036364 183.737897 
L 136.854545 197.515224 
L 170.672727 217.416571 
L 204.490909 230.291546 
L 238.309091 242.236067 
L 272.127273 254.636909 
L 305.945455 261.008126 
L 339.763636 267.374767 
L 373.581818 271.630521 
" clip-path="url(#pe2a72d8303)" style="fill: none; stroke: #9467bd; stroke-linecap: square"/>
    <defs>
     <path id="m4d457c69cd" d="M 0 1.5 
C 0.397805 1.5 0.77937 1.341951 1.06066 1.06066 
C 1.341951 0.77937 1.5 0.397805 1.5 0 
C 1.5 -0.397805 1.341951 -0.77937 1.06066 -1.06066 
C 0.77937 -1.341951 0.397805 -1.5 0 -1.5 
C -0.397805 -1.5 -0.77937 -1.341951 -1.06066 -1.06066 
C -1.341951 -0.77937 -1.5 -0.397805 -1.5 0 
C -1.5 0.397805 -1.341951 0.77937 -1.06066 1.06066 
C -0.77937 1.341951 -0.397805 1.5 0 1.5 
z
" style="stroke: #9467bd"/>
    </defs>
    <g clip-path="url(#pe2a72d8303)">
     <use xlink:href="#m4d457c69cd" x="69.218182" y="163.271352" style="fill: #9467bd; stroke: #9467bd"/>
     <use xlink:href="#m4d457c69cd" x="103.036364" y="183.737897" style="fill: #9467bd; stroke: #9467bd"/>
     <use xlink:href="#m4d457c69cd" x="136.854545" y="197.515224" style="fill: #9467bd; stroke: #9467bd"/>
     <use xlink:href="#m4d457c69cd" x="170.672727" y="217.416571" style="fill: #9467bd; stroke: #9467bd"/>
     <use xlink:href="#m4d457c69cd" x="204.490909" y="230.291546" style="fill: #9467bd; stroke: #9467bd"/>
     <use xlink:href="#m4d457c69cd" x="238.309091" y="242.236067" style="fill: #9467bd; stroke: #9467bd"/>
     <use xlink:href="#m4d457c69cd" x="272.127273" y="254.636909" style="fill: #9467bd; stroke: #9467bd"/>
     <use xlink:href="#m4d457c69cd" x="305.945455" y="261.008126" style="fill: #9467bd; stroke: #9467bd"/>
     <use xlink:href="#m4d457c69cd" x="339.763636" y="267.374767" style="fill: #9467bd; stroke: #9467bd"/>
     <use xlink:href="#m4d457c69cd" x="373.581818" y="271.630521" style="fill: #9467bd; stroke: #9467bd"/>
    </g>
   </g>
   <g id="line2d_12">
    <path d="M 69.218182 170.661891 
L 103.036364 185.874632 
L 136.854545 208.12749 
L 170.672727 227.805579 
L 204.490909 237.153194 
L 238.309091 250.044252 
L 272.127273 259.022723 
L 305.945455 266.237806 
L 339.763636 273.358571 
L 373.581818 277.02 
" clip-path="url(#pe2a72d8303)" style="fill: none; stroke: #8c564b; stroke-linecap: square"/>
    <defs>
     <path id="m066230a839" d="M 0 1.5 
C 0.397805 1.5 0.77937 1.341951 1.06066 1.06066 
C 1.341951 0.77937 1.5 0.397805 1.5 0 
C 1.5 -0.397805 1.341951 -0.77937 1.06066 -1.06066 
C 0.77937 -1.341951 0.397805 -1.5 0 -1.5 
C -0.397805 -1.5 -0.77937 -1.341951 -1.06066 -1.06066 
C -1.341951 -0.77937 -1.5 -0.397805 -1.5 0 
C -1.5 0.397805 -1.341951 0.77937 -1.06066 1.06066 
C -0.77937 1.341951 -0.397805 1.5 0 1.5 
z
" style="stroke: #8c564b"/>
    </defs>
    <g clip-path="url(#pe2a72d8303)">
     <use xlink:href="#m066230a839" x="69.218182" y="170.661891" style="fill: #8c564b; stroke: #8c564b"/>
     <use xlink:href="#m066230a839" x="103.036364" y="185.874632" style="fill: #8c564b; stroke: #8c564b"/>
     <use xlink:href="#m066230a839" x="136.854545" y="208.12749" style="fill: #8c564b; stroke: #8c564b"/>
     <use xlink:href="#m066230a839" x="170.672727" y="227.805579" style="fill: #8c564b; stroke: #8c564b"/>
     <use xlink:href="#m066230a839" x="204.490909" y="237.153194" style="fill: #8c564b; stroke: #8c564b"/>
     <use xlink:href="#m066230a839" x="238.309091" y="250.044252" style="fill: #8c564b; stroke: #8c564b"/>
     <use xlink:href="#m066230a839" x="272.127273" y="259.022723" style="fill: #8c564b; stroke: #8c564b"/>
     <use xlink:href="#m066230a839" x="305.945455" y="266.237806" style="fill: #8c564b; stroke: #8c564b"/>
     <use xlink:href="#m066230a839" x="339.763636" y="273.358571" style="fill: #8c564b; stroke: #8c564b"/>
     <use xlink:href="#m066230a839" x="373.581818" y="277.02" style="fill: #8c564b; stroke: #8c564b"/>
    </g>
   </g>
   <g id="patch_3">
    <path d="M 54 288.36 
L 54 38.88 
" style="fill: none; stroke: #000000; stroke-width: 0.5; stroke-linejoin: miter; stroke-linecap: square"/>
   </g>
   <g id="patch_4">
    <path d="M 388.8 288.36 
L 388.8 38.88 
" style="fill: none; stroke: #000000; stroke-width: 0.5; stroke-linejoin: miter; stroke-linecap: square"/>
   </g>
   <g id="patch_5">
    <path d="M 54 288.36 
L 388.8 288.36 
" style="fill: none; stroke: #000000; stroke-width: 0.5; stroke-linejoin: miter; stroke-linecap: square"/>
   </g>
   <g id="patch_6">
    <path d="M 54 38.88 
L 388.8 38.88 
" style="fill: none; stroke: #000000; stroke-width: 0.5; stroke-linejoin: miter; stroke-linecap: square"/>
   </g>
   <g id="legend_1">
    <g id="patch_7">
     <path d="M 216.182187 173.37625 
L 379 173.37625 
Q 381.8 173.37625 381.8 170.57625 
L 381.8 48.68 
Q 381.8 45.88 379 45.88 
L 216.182187 45.88 
Q 213.382187 45.88 213.382187 48.68 
L 213.382187 170.57625 
Q 213.382187 173.37625 216.182187 173.37625 
z
" style="fill: #ffffff; opacity: 0.8; stroke: #cccccc; stroke-linejoin: miter"/>
    </g>
    <g id="line2d_13">
     <path d="M 218.982187 57.217813 
L 232.982187 57.217813 
L 246.982187 57.217813 
" style="fill: none; stroke: #1f77b4; stroke-linecap: square"/>
     <g>
      <use xlink:href="#me2fad99d20" x="232.982187" y="57.217813" style="fill: #1f77b4; stroke: #1f77b4"/>
     </g>
    </g>
    <g id="text_9">
     <!-- False Edges: 0 -->
     <g transform="translate(258.182187 62.117813) scale(0.14 -0.14)">
      <defs>
       <path id="DejaVuSans-46" d="M 628 4666 
L 3309 4666 
L 3309 4134 
L 1259 4134 
L 1259 2759 
L 3109 2759 
L 3109 2228 
L 1259 2228 
L 1259 0 
L 628 0 
L 628 4666 
z
" transform="scale(0.015625)"/>
       <path id="DejaVuSans-45" d="M 628 4666 
L 3578 4666 
L 3578 4134 
L 1259 4134 
L 1259 2753 
L 3481 2753 
L 3481 2222 
L 1259 2222 
L 1259 531 
L 3634 531 
L 3634 0 
L 628 0 
L 628 4666 
z
" transform="scale(0.015625)"/>
       <path id="DejaVuSans-64" d="M 2906 2969 
L 2906 4863 
L 3481 4863 
L 3481 0 
L 2906 0 
L 2906 525 
Q 2725 213 2448 61 
Q 2172 -91 1784 -91 
Q 1150 -91 751 415 
Q 353 922 353 1747 
Q 353 2572 751 3078 
Q 1150 3584 1784 3584 
Q 2172 3584 2448 3432 
Q 2725 3281 2906 2969 
z
M 947 1747 
Q 947 1113 1208 752 
Q 1469 391 1925 391 
Q 2381 391 2643 752 
Q 2906 1113 2906 1747 
Q 2906 2381 2643 2742 
Q 2381 3103 1925 3103 
Q 1469 3103 1208 2742 
Q 947 2381 947 1747 
z
" transform="scale(0.015625)"/>
       <path id="DejaVuSans-3a" d="M 750 794 
L 1409 794 
L 1409 0 
L 750 0 
L 750 794 
z
M 750 3309 
L 1409 3309 
L 1409 2516 
L 750 2516 
L 750 3309 
z
" transform="scale(0.015625)"/>
      </defs>
      <use xlink:href="#DejaVuSans-46"/>
      <use xlink:href="#DejaVuSans-61" x="48.394531"/>
      <use xlink:href="#DejaVuSans-6c" x="109.673828"/>
      <use xlink:href="#DejaVuSans-73" x="137.457031"/>
      <use xlink:href="#DejaVuSans-65" x="189.556641"/>
      <use xlink:href="#DejaVuSans-20" x="251.080078"/>
      <use xlink:href="#DejaVuSans-45" x="282.867188"/>
      <use xlink:href="#DejaVuSans-64" x="346.050781"/>
      <use xlink:href="#DejaVuSans-67" x="409.527344"/>
      <use xlink:href="#DejaVuSans-65" x="473.003906"/>
      <use xlink:href="#DejaVuSans-73" x="534.527344"/>
      <use xlink:href="#DejaVuSans-3a" x="586.626953"/>
      <use xlink:href="#DejaVuSans-20" x="620.318359"/>
      <use xlink:href="#DejaVuSans-30" x="652.105469"/>
     </g>
    </g>
    <g id="line2d_14">
     <path d="M 218.982187 77.767188 
L 232.982187 77.767188 
L 246.982187 77.767188 
" style="fill: none; stroke: #ff7f0e; stroke-linecap: square"/>
     <g>
      <use xlink:href="#m966ab3dda4" x="232.982187" y="77.767188" style="fill: #ff7f0e; stroke: #ff7f0e"/>
     </g>
    </g>
    <g id="text_10">
     <!-- False Edges: 20 -->
     <g transform="translate(258.182187 82.667188) scale(0.14 -0.14)">
      <use xlink:href="#DejaVuSans-46"/>
      <use xlink:href="#DejaVuSans-61" x="48.394531"/>
      <use xlink:href="#DejaVuSans-6c" x="109.673828"/>
      <use xlink:href="#DejaVuSans-73" x="137.457031"/>
      <use xlink:href="#DejaVuSans-65" x="189.556641"/>
      <use xlink:href="#DejaVuSans-20" x="251.080078"/>
      <use xlink:href="#DejaVuSans-45" x="282.867188"/>
      <use xlink:href="#DejaVuSans-64" x="346.050781"/>
      <use xlink:href="#DejaVuSans-67" x="409.527344"/>
      <use xlink:href="#DejaVuSans-65" x="473.003906"/>
      <use xlink:href="#DejaVuSans-73" x="534.527344"/>
      <use xlink:href="#DejaVuSans-3a" x="586.626953"/>
      <use xlink:href="#DejaVuSans-20" x="620.318359"/>
      <use xlink:href="#DejaVuSans-32" x="652.105469"/>
      <use xlink:href="#DejaVuSans-30" x="715.728516"/>
     </g>
    </g>
    <g id="line2d_15">
     <path d="M 218.982187 98.316563 
L 232.982187 98.316563 
L 246.982187 98.316563 
" style="fill: none; stroke: #2ca02c; stroke-linecap: square"/>
     <g>
      <use xlink:href="#mb22982809f" x="232.982187" y="98.316563" style="fill: #2ca02c; stroke: #2ca02c"/>
     </g>
    </g>
    <g id="text_11">
     <!-- False Edges: 40 -->
     <g transform="translate(258.182187 103.216563) scale(0.14 -0.14)">
      <use xlink:href="#DejaVuSans-46"/>
      <use xlink:href="#DejaVuSans-61" x="48.394531"/>
      <use xlink:href="#DejaVuSans-6c" x="109.673828"/>
      <use xlink:href="#DejaVuSans-73" x="137.457031"/>
      <use xlink:href="#DejaVuSans-65" x="189.556641"/>
      <use xlink:href="#DejaVuSans-20" x="251.080078"/>
      <use xlink:href="#DejaVuSans-45" x="282.867188"/>
      <use xlink:href="#DejaVuSans-64" x="346.050781"/>
      <use xlink:href="#DejaVuSans-67" x="409.527344"/>
      <use xlink:href="#DejaVuSans-65" x="473.003906"/>
      <use xlink:href="#DejaVuSans-73" x="534.527344"/>
      <use xlink:href="#DejaVuSans-3a" x="586.626953"/>
      <use xlink:href="#DejaVuSans-20" x="620.318359"/>
      <use xlink:href="#DejaVuSans-34" x="652.105469"/>
      <use xlink:href="#DejaVuSans-30" x="715.728516"/>
     </g>
    </g>
    <g id="line2d_16">
     <path d="M 218.982187 118.865938 
L 232.982187 118.865938 
L 246.982187 118.865938 
" style="fill: none; stroke: #d62728; stroke-linecap: square"/>
     <g>
      <use xlink:href="#m3d6795fa49" x="232.982187" y="118.865938" style="fill: #d62728; stroke: #d62728"/>
     </g>
    </g>
    <g id="text_12">
     <!-- False Edges: 60 -->
     <g transform="translate(258.182187 123.765938) scale(0.14 -0.14)">
      <defs>
       <path id="DejaVuSans-36" d="M 2113 2584 
Q 1688 2584 1439 2293 
Q 1191 2003 1191 1497 
Q 1191 994 1439 701 
Q 1688 409 2113 409 
Q 2538 409 2786 701 
Q 3034 994 3034 1497 
Q 3034 2003 2786 2293 
Q 2538 2584 2113 2584 
z
M 3366 4563 
L 3366 3988 
Q 3128 4100 2886 4159 
Q 2644 4219 2406 4219 
Q 1781 4219 1451 3797 
Q 1122 3375 1075 2522 
Q 1259 2794 1537 2939 
Q 1816 3084 2150 3084 
Q 2853 3084 3261 2657 
Q 3669 2231 3669 1497 
Q 3669 778 3244 343 
Q 2819 -91 2113 -91 
Q 1303 -91 875 529 
Q 447 1150 447 2328 
Q 447 3434 972 4092 
Q 1497 4750 2381 4750 
Q 2619 4750 2861 4703 
Q 3103 4656 3366 4563 
z
" transform="scale(0.015625)"/>
      </defs>
      <use xlink:href="#DejaVuSans-46"/>
      <use xlink:href="#DejaVuSans-61" x="48.394531"/>
      <use xlink:href="#DejaVuSans-6c" x="109.673828"/>
      <use xlink:href="#DejaVuSans-73" x="137.457031"/>
      <use xlink:href="#DejaVuSans-65" x="189.556641"/>
      <use xlink:href="#DejaVuSans-20" x="251.080078"/>
      <use xlink:href="#DejaVuSans-45" x="282.867188"/>
      <use xlink:href="#DejaVuSans-64" x="346.050781"/>
      <use xlink:href="#DejaVuSans-67" x="409.527344"/>
      <use xlink:href="#DejaVuSans-65" x="473.003906"/>
      <use xlink:href="#DejaVuSans-73" x="534.527344"/>
      <use xlink:href="#DejaVuSans-3a" x="586.626953"/>
      <use xlink:href="#DejaVuSans-20" x="620.318359"/>
      <use xlink:href="#DejaVuSans-36" x="652.105469"/>
      <use xlink:href="#DejaVuSans-30" x="715.728516"/>
     </g>
    </g>
    <g id="line2d_17">
     <path d="M 218.982187 139.415312 
L 232.982187 139.415312 
L 246.982187 139.415312 
" style="fill: none; stroke: #9467bd; stroke-linecap: square"/>
     <g>
      <use xlink:href="#m4d457c69cd" x="232.982187" y="139.415312" style="fill: #9467bd; stroke: #9467bd"/>
     </g>
    </g>
    <g id="text_13">
     <!-- False Edges: 80 -->
     <g transform="translate(258.182187 144.315313) scale(0.14 -0.14)">
      <defs>
       <path id="DejaVuSans-38" d="M 2034 2216 
Q 1584 2216 1326 1975 
Q 1069 1734 1069 1313 
Q 1069 891 1326 650 
Q 1584 409 2034 409 
Q 2484 409 2743 651 
Q 3003 894 3003 1313 
Q 3003 1734 2745 1975 
Q 2488 2216 2034 2216 
z
M 1403 2484 
Q 997 2584 770 2862 
Q 544 3141 544 3541 
Q 544 4100 942 4425 
Q 1341 4750 2034 4750 
Q 2731 4750 3128 4425 
Q 3525 4100 3525 3541 
Q 3525 3141 3298 2862 
Q 3072 2584 2669 2484 
Q 3125 2378 3379 2068 
Q 3634 1759 3634 1313 
Q 3634 634 3220 271 
Q 2806 -91 2034 -91 
Q 1263 -91 848 271 
Q 434 634 434 1313 
Q 434 1759 690 2068 
Q 947 2378 1403 2484 
z
M 1172 3481 
Q 1172 3119 1398 2916 
Q 1625 2713 2034 2713 
Q 2441 2713 2670 2916 
Q 2900 3119 2900 3481 
Q 2900 3844 2670 4047 
Q 2441 4250 2034 4250 
Q 1625 4250 1398 4047 
Q 1172 3844 1172 3481 
z
" transform="scale(0.015625)"/>
      </defs>
      <use xlink:href="#DejaVuSans-46"/>
      <use xlink:href="#DejaVuSans-61" x="48.394531"/>
      <use xlink:href="#DejaVuSans-6c" x="109.673828"/>
      <use xlink:href="#DejaVuSans-73" x="137.457031"/>
      <use xlink:href="#DejaVuSans-65" x="189.556641"/>
      <use xlink:href="#DejaVuSans-20" x="251.080078"/>
      <use xlink:href="#DejaVuSans-45" x="282.867188"/>
      <use xlink:href="#DejaVuSans-64" x="346.050781"/>
      <use xlink:href="#DejaVuSans-67" x="409.527344"/>
      <use xlink:href="#DejaVuSans-65" x="473.003906"/>
      <use xlink:href="#DejaVuSans-73" x="534.527344"/>
      <use xlink:href="#DejaVuSans-3a" x="586.626953"/>
      <use xlink:href="#DejaVuSans-20" x="620.318359"/>
      <use xlink:href="#DejaVuSans-38" x="652.105469"/>
      <use xlink:href="#DejaVuSans-30" x="715.728516"/>
     </g>
    </g>
    <g id="line2d_18">
     <path d="M 218.982187 159.964687 
L 232.982187 159.964687 
L 246.982187 159.964687 
" style="fill: none; stroke: #8c564b; stroke-linecap: square"/>
     <g>
      <use xlink:href="#m066230a839" x="232.982187" y="159.964687" style="fill: #8c564b; stroke: #8c564b"/>
     </g>
    </g>
    <g id="text_14">
     <!-- False Edges: 100 -->
     <g transform="translate(258.182187 164.864688) scale(0.14 -0.14)">
      <use xlink:href="#DejaVuSans-46"/>
      <use xlink:href="#DejaVuSans-61" x="48.394531"/>
      <use xlink:href="#DejaVuSans-6c" x="109.673828"/>
      <use xlink:href="#DejaVuSans-73" x="137.457031"/>
      <use xlink:href="#DejaVuSans-65" x="189.556641"/>
      <use xlink:href="#DejaVuSans-20" x="251.080078"/>
      <use xlink:href="#DejaVuSans-45" x="282.867188"/>
      <use xlink:href="#DejaVuSans-64" x="346.050781"/>
      <use xlink:href="#DejaVuSans-67" x="409.527344"/>
      <use xlink:href="#DejaVuSans-65" x="473.003906"/>
      <use xlink:href="#DejaVuSans-73" x="534.527344"/>
      <use xlink:href="#DejaVuSans-3a" x="586.626953"/>
      <use xlink:href="#DejaVuSans-20" x="620.318359"/>
      <use xlink:href="#DejaVuSans-31" x="652.105469"/>
      <use xlink:href="#DejaVuSans-30" x="715.728516"/>
      <use xlink:href="#DejaVuSans-30" x="779.351562"/>
     </g>
    </g>
   </g>
  </g>
 </g>
 <defs>
  <clipPath id="pe2a72d8303">
   <rect x="54" y="38.88" width="334.8" height="249.48"/>
  </clipPath>
 </defs>
</svg>
