<?xml version="1.0" encoding="utf-8" standalone="no"?>
<!DOCTYPE svg PUBLIC "-//W3C//DTD SVG 1.1//EN"
  "http://www.w3.org/Graphics/SVG/1.1/DTD/svg11.dtd">
<svg xmlns:xlink="http://www.w3.org/1999/xlink" width="628.506062pt" height="420.253966pt" viewBox="0 0 628.506062 420.253966" xmlns="http://www.w3.org/2000/svg" version="1.1">
 <metadata>
  <rdf:RDF xmlns:dc="http://purl.org/dc/elements/1.1/" xmlns:cc="http://creativecommons.org/ns#" xmlns:rdf="http://www.w3.org/1999/02/22-rdf-syntax-ns#">
   <cc:Work>
    <dc:type rdf:resource="http://purl.org/dc/dcmitype/StillImage"/>
    <dc:date>2024-03-19T16:54:01.530691</dc:date>
    <dc:format>image/svg+xml</dc:format>
    <dc:creator>
     <cc:Agent>
      <dc:title>Matplotlib v3.8.3, https://matplotlib.org/</dc:title>
     </cc:Agent>
    </dc:creator>
   </cc:Work>
  </rdf:RDF>
 </metadata>
 <defs>
  <style type="text/css">*{stroke-linejoin: round; stroke-linecap: butt}</style>
 </defs>
 <g id="figure_1">
  <g id="patch_1">
   <path d="M 0 420.253966 
L 628.506062 420.253966 
L 628.506062 0 
L 0 0 
z
" style="fill: #ffffff"/>
  </g>
  <g id="axes_1">
   <g id="patch_2">
    <path d="M 66.906062 364.454022 
L 624.906062 364.454022 
L 624.906062 31.814022 
L 66.906062 31.814022 
z
" style="fill: #ffffff"/>
   </g>
   <g id="PolyCollection_1">
    <path d="M 92.269699 103.990815 
L 92.269699 130.929581 
L 145.392715 98.313864 
L 198.515732 103.22141 
L 251.638749 96.141071 
L 304.761765 92.170087 
L 357.884782 88.382026 
L 411.007798 82.7718 
L 464.130815 88.020002 
L 517.253832 84.931128 
L 570.376848 83.661422 
L 570.376848 80.543803 
L 570.376848 80.543803 
L 517.253832 71.423489 
L 464.130815 59.813641 
L 411.007798 53.60543 
L 357.884782 46.934022 
L 304.761765 62.101634 
L 251.638749 62.513691 
L 198.515732 64.151078 
L 145.392715 60.983667 
L 92.269699 103.990815 
z
" clip-path="url(#pd8a80980cb)" style="fill: #0c5da5; fill-opacity: 0.3"/>
   </g>
   <g id="PolyCollection_2">
    <path d="M 92.269699 103.298049 
L 92.269699 140.238324 
L 145.392715 163.61734 
L 198.515732 172.127011 
L 251.638749 194.853474 
L 304.761765 215.070132 
L 357.884782 228.697781 
L 411.007798 243.417597 
L 464.130815 253.717812 
L 517.253832 263.835945 
L 570.376848 269.146384 
L 570.376848 264.113422 
L 570.376848 264.113422 
L 517.253832 248.792634 
L 464.130815 240.67177 
L 411.007798 204.758889 
L 357.884782 192.384658 
L 304.761765 182.80389 
L 251.638749 155.062386 
L 198.515732 129.293356 
L 145.392715 128.348699 
L 92.269699 103.298049 
z
" clip-path="url(#pd8a80980cb)" style="fill: #00b945; fill-opacity: 0.3"/>
   </g>
   <g id="PolyCollection_3">
    <path d="M 92.269699 127.113582 
L 92.269699 159.343685 
L 145.392715 201.774127 
L 198.515732 220.876981 
L 251.638749 240.792412 
L 304.761765 250.861387 
L 357.884782 272.960933 
L 411.007798 282.501167 
L 464.130815 294.222665 
L 517.253832 298.943092 
L 570.376848 306.514994 
L 570.376848 302.965965 
L 570.376848 302.965965 
L 517.253832 293.258572 
L 464.130815 284.309966 
L 411.007798 267.830063 
L 357.884782 257.8688 
L 304.761765 223.586361 
L 251.638749 200.465236 
L 198.515732 177.11203 
L 145.392715 136.883496 
L 92.269699 127.113582 
z
" clip-path="url(#pd8a80980cb)" style="fill: #ff9500; fill-opacity: 0.3"/>
   </g>
   <g id="PolyCollection_4">
    <path d="M 92.269699 116.804212 
L 92.269699 165.253039 
L 145.392715 212.743872 
L 198.515732 244.807074 
L 251.638749 257.078876 
L 304.761765 288.27497 
L 357.884782 295.582846 
L 411.007798 310.6258 
L 464.130815 319.325052 
L 517.253832 325.279124 
L 570.376848 329.704627 
L 570.376848 326.655632 
L 570.376848 326.655632 
L 517.253832 321.020347 
L 464.130815 306.500707 
L 411.007798 292.100568 
L 357.884782 274.603478 
L 304.761765 264.262989 
L 251.638749 231.55081 
L 198.515732 199.147285 
L 145.392715 170.860836 
L 92.269699 116.804212 
z
" clip-path="url(#pd8a80980cb)" style="fill: #ff2c00; fill-opacity: 0.3"/>
   </g>
   <g id="PolyCollection_5">
    <path d="M 92.269699 134.213363 
L 92.269699 187.278921 
L 145.392715 231.246727 
L 198.515732 248.657305 
L 251.638749 274.411159 
L 304.761765 296.863085 
L 357.884782 308.719917 
L 411.007798 319.938641 
L 464.130815 326.118513 
L 517.253832 334.3394 
L 570.376848 338.436617 
L 570.376848 336.922163 
L 570.376848 336.922163 
L 517.253832 330.076148 
L 464.130815 320.139146 
L 411.007798 306.114467 
L 357.884782 294.785937 
L 304.761765 267.016069 
L 251.638749 237.599862 
L 198.515732 210.20214 
L 145.392715 189.666108 
L 92.269699 134.213363 
z
" clip-path="url(#pd8a80980cb)" style="fill: #845b97; fill-opacity: 0.3"/>
   </g>
   <g id="PolyCollection_6">
    <path d="M 92.269699 136.429278 
L 92.269699 178.21216 
L 145.392715 221.253241 
L 198.515732 266.951126 
L 251.638749 281.333465 
L 304.761765 298.79425 
L 357.884782 315.915576 
L 411.007798 328.421721 
L 464.130815 335.722409 
L 517.253832 341.153804 
L 570.376848 347.829642 
L 570.376848 346.374205 
L 570.376848 346.374205 
L 517.253832 337.786404 
L 464.130815 328.157634 
L 411.007798 315.612812 
L 357.884782 295.432895 
L 304.761765 274.927367 
L 251.638749 248.575661 
L 198.515732 233.687727 
L 145.392715 191.33214 
L 92.269699 136.429278 
z
" clip-path="url(#pd8a80980cb)" style="fill: #474747; fill-opacity: 0.3"/>
   </g>
   <g id="matplotlib.axis_1">
    <g id="xtick_1">
     <g id="line2d_1">
      <defs>
       <path id="m83f2ac42d3" d="M 0 0 
L 0 -3 
" style="stroke: #000000; stroke-width: 0.5"/>
      </defs>
      <g>
       <use xlink:href="#m83f2ac42d3" x="170.391782" y="364.454022" style="stroke: #000000; stroke-width: 0.5"/>
      </g>
     </g>
     <g id="line2d_2">
      <defs>
       <path id="mcd4951643e" d="M 0 0 
L 0 3 
" style="stroke: #000000; stroke-width: 0.5"/>
      </defs>
      <g>
       <use xlink:href="#mcd4951643e" x="170.391782" y="31.814022" style="stroke: #000000; stroke-width: 0.5"/>
      </g>
     </g>
     <g id="text_1">
      <!-- $\mathdefault{200}$ -->
      <g transform="translate(150.450776 384.98999) scale(0.24 -0.24)">
       <defs>
        <path id="NimbusSanL-Regu-32" d="M 3238 558 
L 851 558 
C 909 930 1114 1167 1670 1494 
L 2310 1840 
C 2944 2186 3270 2653 3270 3211 
C 3270 3589 3117 3942 2848 4185 
C 2579 4429 2246 4544 1818 4544 
C 1242 4544 813 4339 563 3955 
C 403 3711 333 3429 320 2967 
L 883 2967 
C 902 3275 941 3461 1018 3608 
C 1165 3884 1459 4051 1798 4051 
C 2310 4051 2694 3685 2694 3198 
C 2694 2839 2483 2531 2080 2301 
L 1491 1968 
C 544 1430 269 1000 218 0 
L 3238 0 
L 3238 558 
z
" transform="scale(0.015625)"/>
        <path id="NimbusSanL-Regu-30" d="M 1760 4544 
C 1338 4544 954 4360 717 4046 
C 422 3651 275 3044 275 2208 
C 275 683 787 -128 1760 -128 
C 2720 -128 3245 683 3245 2170 
C 3245 3050 3104 3638 2803 4046 
C 2566 4366 2189 4544 1760 4544 
z
M 1760 4044 
C 2368 4044 2669 3432 2669 2221 
C 2669 939 2374 340 1747 340 
C 1152 340 851 965 851 2202 
C 851 3438 1152 4044 1760 4044 
z
" transform="scale(0.015625)"/>
       </defs>
       <use xlink:href="#NimbusSanL-Regu-32" transform="scale(0.996264)"/>
       <use xlink:href="#NimbusSanL-Regu-30" transform="translate(55.391677 0) scale(0.996264)"/>
       <use xlink:href="#NimbusSanL-Regu-30" transform="translate(110.783354 0) scale(0.996264)"/>
      </g>
     </g>
    </g>
    <g id="xtick_2">
     <g id="line2d_3">
      <g>
       <use xlink:href="#m83f2ac42d3" x="274.55456" y="364.454022" style="stroke: #000000; stroke-width: 0.5"/>
      </g>
     </g>
     <g id="line2d_4">
      <g>
       <use xlink:href="#mcd4951643e" x="274.55456" y="31.814022" style="stroke: #000000; stroke-width: 0.5"/>
      </g>
     </g>
     <g id="text_2">
      <!-- $\mathdefault{400}$ -->
      <g transform="translate(254.613553 384.98999) scale(0.24 -0.24)">
       <defs>
        <path id="NimbusSanL-Regu-34" d="M 2093 1088 
L 2093 0 
L 2656 0 
L 2656 1088 
L 3328 1088 
L 3328 1594 
L 2656 1594 
L 2656 4545 
L 2240 4545 
L 179 1684 
L 179 1088 
L 2093 1088 
z
M 2093 1594 
L 672 1594 
L 2093 3583 
L 2093 1594 
z
" transform="scale(0.015625)"/>
       </defs>
       <use xlink:href="#NimbusSanL-Regu-34" transform="scale(0.996264)"/>
       <use xlink:href="#NimbusSanL-Regu-30" transform="translate(55.391677 0) scale(0.996264)"/>
       <use xlink:href="#NimbusSanL-Regu-30" transform="translate(110.783354 0) scale(0.996264)"/>
      </g>
     </g>
    </g>
    <g id="xtick_3">
     <g id="line2d_5">
      <g>
       <use xlink:href="#m83f2ac42d3" x="378.717337" y="364.454022" style="stroke: #000000; stroke-width: 0.5"/>
      </g>
     </g>
     <g id="line2d_6">
      <g>
       <use xlink:href="#mcd4951643e" x="378.717337" y="31.814022" style="stroke: #000000; stroke-width: 0.5"/>
      </g>
     </g>
     <g id="text_3">
      <!-- $\mathdefault{600}$ -->
      <g transform="translate(358.776331 384.98999) scale(0.24 -0.24)">
       <defs>
        <path id="NimbusSanL-Regu-36" d="M 3187 3382 
C 3078 4111 2592 4544 1901 4544 
C 1402 4544 954 4302 685 3900 
C 403 3460 275 2904 275 2081 
C 275 1321 390 836 659 434 
C 902 69 1299 -128 1798 -128 
C 2662 -128 3283 518 3283 1415 
C 3283 2268 2707 2868 1894 2868 
C 1446 2868 1094 2695 851 2362 
C 858 3444 1216 4044 1862 4044 
C 2259 4044 2534 3803 2624 3382 
L 3187 3382 
z
M 1824 2368 
C 2368 2368 2707 1986 2707 1370 
C 2707 793 2323 372 1805 372 
C 1280 372 883 813 883 1402 
C 883 1973 1267 2368 1824 2368 
z
" transform="scale(0.015625)"/>
       </defs>
       <use xlink:href="#NimbusSanL-Regu-36" transform="scale(0.996264)"/>
       <use xlink:href="#NimbusSanL-Regu-30" transform="translate(55.391677 0) scale(0.996264)"/>
       <use xlink:href="#NimbusSanL-Regu-30" transform="translate(110.783354 0) scale(0.996264)"/>
      </g>
     </g>
    </g>
    <g id="xtick_4">
     <g id="line2d_7">
      <g>
       <use xlink:href="#m83f2ac42d3" x="482.880115" y="364.454022" style="stroke: #000000; stroke-width: 0.5"/>
      </g>
     </g>
     <g id="line2d_8">
      <g>
       <use xlink:href="#mcd4951643e" x="482.880115" y="31.814022" style="stroke: #000000; stroke-width: 0.5"/>
      </g>
     </g>
     <g id="text_4">
      <!-- $\mathdefault{800}$ -->
      <g transform="translate(462.939109 384.98999) scale(0.24 -0.24)">
       <defs>
        <path id="NimbusSanL-Regu-38" d="M 2502 2399 
C 2970 2680 3123 2910 3123 3338 
C 3123 4046 2566 4544 1760 4544 
C 960 4544 397 4046 397 3338 
C 397 2917 550 2687 1011 2399 
C 493 2150 237 1774 237 1276 
C 237 446 864 -128 1760 -128 
C 2656 -128 3283 447 3283 1270 
C 3283 1774 3027 2150 2502 2399 
z
M 1760 4044 
C 2240 4044 2547 3764 2547 3325 
C 2547 2904 2234 2624 1760 2624 
C 1286 2624 973 2904 973 3331 
C 973 3764 1286 4044 1760 4044 
z
M 1760 2149 
C 2323 2149 2707 1792 2707 1263 
C 2707 729 2323 372 1747 372 
C 1197 372 813 735 813 1263 
C 813 1792 1197 2149 1760 2149 
z
" transform="scale(0.015625)"/>
       </defs>
       <use xlink:href="#NimbusSanL-Regu-38" transform="scale(0.996264)"/>
       <use xlink:href="#NimbusSanL-Regu-30" transform="translate(55.391677 0) scale(0.996264)"/>
       <use xlink:href="#NimbusSanL-Regu-30" transform="translate(110.783354 0) scale(0.996264)"/>
      </g>
     </g>
    </g>
    <g id="xtick_5">
     <g id="line2d_9">
      <g>
       <use xlink:href="#m83f2ac42d3" x="587.042893" y="364.454022" style="stroke: #000000; stroke-width: 0.5"/>
      </g>
     </g>
     <g id="line2d_10">
      <g>
       <use xlink:href="#mcd4951643e" x="587.042893" y="31.814022" style="stroke: #000000; stroke-width: 0.5"/>
      </g>
     </g>
     <g id="text_5">
      <!-- $\mathdefault{1000}$ -->
      <g transform="translate(560.454884 384.98999) scale(0.24 -0.24)">
       <defs>
        <path id="NimbusSanL-Regu-31" d="M 1658 3238 
L 1658 0 
L 2221 0 
L 2221 4545 
L 1850 4545 
C 1651 3847 1523 3751 653 3642 
L 653 3238 
L 1658 3238 
z
" transform="scale(0.015625)"/>
       </defs>
       <use xlink:href="#NimbusSanL-Regu-31" transform="scale(0.996264)"/>
       <use xlink:href="#NimbusSanL-Regu-30" transform="translate(55.391677 0) scale(0.996264)"/>
       <use xlink:href="#NimbusSanL-Regu-30" transform="translate(110.783354 0) scale(0.996264)"/>
       <use xlink:href="#NimbusSanL-Regu-30" transform="translate(166.175031 0) scale(0.996264)"/>
      </g>
     </g>
    </g>
    <g id="xtick_6">
     <g id="line2d_11">
      <defs>
       <path id="m42c77bd451" d="M 0 0 
L 0 -1.5 
" style="stroke: #000000; stroke-width: 0.5"/>
      </defs>
      <g>
       <use xlink:href="#m42c77bd451" x="92.269699" y="364.454022" style="stroke: #000000; stroke-width: 0.5"/>
      </g>
     </g>
     <g id="line2d_12">
      <defs>
       <path id="m5f801665d8" d="M 0 0 
L 0 1.5 
" style="stroke: #000000; stroke-width: 0.5"/>
      </defs>
      <g>
       <use xlink:href="#m5f801665d8" x="92.269699" y="31.814022" style="stroke: #000000; stroke-width: 0.5"/>
      </g>
     </g>
    </g>
    <g id="xtick_7">
     <g id="line2d_13">
      <g>
       <use xlink:href="#m42c77bd451" x="118.310393" y="364.454022" style="stroke: #000000; stroke-width: 0.5"/>
      </g>
     </g>
     <g id="line2d_14">
      <g>
       <use xlink:href="#m5f801665d8" x="118.310393" y="31.814022" style="stroke: #000000; stroke-width: 0.5"/>
      </g>
     </g>
    </g>
    <g id="xtick_8">
     <g id="line2d_15">
      <g>
       <use xlink:href="#m42c77bd451" x="144.351088" y="364.454022" style="stroke: #000000; stroke-width: 0.5"/>
      </g>
     </g>
     <g id="line2d_16">
      <g>
       <use xlink:href="#m5f801665d8" x="144.351088" y="31.814022" style="stroke: #000000; stroke-width: 0.5"/>
      </g>
     </g>
    </g>
    <g id="xtick_9">
     <g id="line2d_17">
      <g>
       <use xlink:href="#m42c77bd451" x="196.432476" y="364.454022" style="stroke: #000000; stroke-width: 0.5"/>
      </g>
     </g>
     <g id="line2d_18">
      <g>
       <use xlink:href="#m5f801665d8" x="196.432476" y="31.814022" style="stroke: #000000; stroke-width: 0.5"/>
      </g>
     </g>
    </g>
    <g id="xtick_10">
     <g id="line2d_19">
      <g>
       <use xlink:href="#m42c77bd451" x="222.473171" y="364.454022" style="stroke: #000000; stroke-width: 0.5"/>
      </g>
     </g>
     <g id="line2d_20">
      <g>
       <use xlink:href="#m5f801665d8" x="222.473171" y="31.814022" style="stroke: #000000; stroke-width: 0.5"/>
      </g>
     </g>
    </g>
    <g id="xtick_11">
     <g id="line2d_21">
      <g>
       <use xlink:href="#m42c77bd451" x="248.513865" y="364.454022" style="stroke: #000000; stroke-width: 0.5"/>
      </g>
     </g>
     <g id="line2d_22">
      <g>
       <use xlink:href="#m5f801665d8" x="248.513865" y="31.814022" style="stroke: #000000; stroke-width: 0.5"/>
      </g>
     </g>
    </g>
    <g id="xtick_12">
     <g id="line2d_23">
      <g>
       <use xlink:href="#m42c77bd451" x="300.595254" y="364.454022" style="stroke: #000000; stroke-width: 0.5"/>
      </g>
     </g>
     <g id="line2d_24">
      <g>
       <use xlink:href="#m5f801665d8" x="300.595254" y="31.814022" style="stroke: #000000; stroke-width: 0.5"/>
      </g>
     </g>
    </g>
    <g id="xtick_13">
     <g id="line2d_25">
      <g>
       <use xlink:href="#m42c77bd451" x="326.635948" y="364.454022" style="stroke: #000000; stroke-width: 0.5"/>
      </g>
     </g>
     <g id="line2d_26">
      <g>
       <use xlink:href="#m5f801665d8" x="326.635948" y="31.814022" style="stroke: #000000; stroke-width: 0.5"/>
      </g>
     </g>
    </g>
    <g id="xtick_14">
     <g id="line2d_27">
      <g>
       <use xlink:href="#m42c77bd451" x="352.676643" y="364.454022" style="stroke: #000000; stroke-width: 0.5"/>
      </g>
     </g>
     <g id="line2d_28">
      <g>
       <use xlink:href="#m5f801665d8" x="352.676643" y="31.814022" style="stroke: #000000; stroke-width: 0.5"/>
      </g>
     </g>
    </g>
    <g id="xtick_15">
     <g id="line2d_29">
      <g>
       <use xlink:href="#m42c77bd451" x="404.758032" y="364.454022" style="stroke: #000000; stroke-width: 0.5"/>
      </g>
     </g>
     <g id="line2d_30">
      <g>
       <use xlink:href="#m5f801665d8" x="404.758032" y="31.814022" style="stroke: #000000; stroke-width: 0.5"/>
      </g>
     </g>
    </g>
    <g id="xtick_16">
     <g id="line2d_31">
      <g>
       <use xlink:href="#m42c77bd451" x="430.798726" y="364.454022" style="stroke: #000000; stroke-width: 0.5"/>
      </g>
     </g>
     <g id="line2d_32">
      <g>
       <use xlink:href="#m5f801665d8" x="430.798726" y="31.814022" style="stroke: #000000; stroke-width: 0.5"/>
      </g>
     </g>
    </g>
    <g id="xtick_17">
     <g id="line2d_33">
      <g>
       <use xlink:href="#m42c77bd451" x="456.839421" y="364.454022" style="stroke: #000000; stroke-width: 0.5"/>
      </g>
     </g>
     <g id="line2d_34">
      <g>
       <use xlink:href="#m5f801665d8" x="456.839421" y="31.814022" style="stroke: #000000; stroke-width: 0.5"/>
      </g>
     </g>
    </g>
    <g id="xtick_18">
     <g id="line2d_35">
      <g>
       <use xlink:href="#m42c77bd451" x="508.920809" y="364.454022" style="stroke: #000000; stroke-width: 0.5"/>
      </g>
     </g>
     <g id="line2d_36">
      <g>
       <use xlink:href="#m5f801665d8" x="508.920809" y="31.814022" style="stroke: #000000; stroke-width: 0.5"/>
      </g>
     </g>
    </g>
    <g id="xtick_19">
     <g id="line2d_37">
      <g>
       <use xlink:href="#m42c77bd451" x="534.961504" y="364.454022" style="stroke: #000000; stroke-width: 0.5"/>
      </g>
     </g>
     <g id="line2d_38">
      <g>
       <use xlink:href="#m5f801665d8" x="534.961504" y="31.814022" style="stroke: #000000; stroke-width: 0.5"/>
      </g>
     </g>
    </g>
    <g id="xtick_20">
     <g id="line2d_39">
      <g>
       <use xlink:href="#m42c77bd451" x="561.002198" y="364.454022" style="stroke: #000000; stroke-width: 0.5"/>
      </g>
     </g>
     <g id="line2d_40">
      <g>
       <use xlink:href="#m5f801665d8" x="561.002198" y="31.814022" style="stroke: #000000; stroke-width: 0.5"/>
      </g>
     </g>
    </g>
    <g id="xtick_21">
     <g id="line2d_41">
      <g>
       <use xlink:href="#m42c77bd451" x="613.083587" y="364.454022" style="stroke: #000000; stroke-width: 0.5"/>
      </g>
     </g>
     <g id="line2d_42">
      <g>
       <use xlink:href="#m5f801665d8" x="613.083587" y="31.814022" style="stroke: #000000; stroke-width: 0.5"/>
      </g>
     </g>
    </g>
    <g id="text_6">
     <!-- Subgraph Size -->
     <g transform="translate(267.911266 411.561202) scale(0.24 -0.24)">
      <defs>
       <path id="NimbusSanL-Regu-53" d="M 3814 3335 
C 3808 4255 3181 4788 2106 4788 
C 1082 4788 448 4260 448 3410 
C 448 2837 749 2477 1363 2316 
L 2522 2007 
C 3110 1852 3379 1614 3379 1247 
C 3379 995 3245 738 3046 597 
C 2861 468 2566 397 2189 397 
C 1683 397 1338 520 1114 790 
C 941 996 864 1222 870 1511 
L 307 1511 
C 314 1081 397 798 582 540 
C 902 103 1440 -128 2150 -128 
C 2707 -128 3162 1 3462 232 
C 3776 483 3974 901 3974 1307 
C 3974 1886 3616 2311 2982 2485 
L 1811 2801 
C 1248 2955 1043 3135 1043 3496 
C 1043 3972 1459 4288 2086 4288 
C 2829 4288 3245 3947 3251 3335 
L 3814 3335 
z
" transform="scale(0.015625)"/>
       <path id="NimbusSanL-Regu-75" d="M 3085 33 
L 3085 3392 
L 2554 3392 
L 2554 1479 
C 2554 790 2195 340 1638 340 
C 1216 340 947 597 947 1003 
L 947 3392 
L 416 3392 
L 416 792 
C 416 232 832 -128 1485 -128 
C 1978 -128 2291 45 2605 488 
L 2605 33 
L 3085 33 
z
" transform="scale(0.015625)"/>
       <path id="NimbusSanL-Regu-62" d="M 346 4672 
L 346 -2 
L 826 -2 
L 826 448 
C 1082 57 1421 -128 1888 -128 
C 2771 -128 3347 592 3347 1702 
C 3347 2786 2797 3456 1914 3456 
C 1453 3456 1126 3282 877 2905 
L 877 4672 
L 346 4672 
z
M 1811 2956 
C 2406 2956 2790 2440 2790 1645 
C 2790 887 2394 372 1811 372 
C 1248 372 877 881 877 1664 
C 877 2447 1248 2956 1811 2956 
z
" transform="scale(0.015625)"/>
       <path id="NimbusSanL-Regu-67" d="M 2637 3341 
L 2637 2854 
C 2368 3252 2042 3438 1613 3438 
C 762 3438 186 2692 186 1600 
C 186 1048 333 598 608 276 
C 858 -7 1216 -173 1568 -173 
C 1990 -173 2285 6 2586 429 
L 2586 258 
C 2586 -192 2528 -465 2394 -649 
C 2253 -844 1978 -959 1651 -959 
C 1408 -959 1190 -896 1043 -783 
C 922 -688 870 -600 838 -406 
L 294 -406 
C 352 -1033 845 -1408 1632 -1408 
C 2131 -1408 2560 -1247 2778 -979 
C 3034 -671 3130 -249 3130 538 
L 3130 3341 
L 2637 3341 
z
M 1670 2944 
C 2246 2944 2586 2455 2586 1613 
C 2586 808 2240 320 1677 320 
C 1094 320 742 816 742 1632 
C 742 2442 1101 2944 1670 2944 
z
" transform="scale(0.015625)"/>
       <path id="NimbusSanL-Regu-72" d="M 442 3359 
L 442 0 
L 979 0 
L 979 1741 
C 979 2221 1101 2535 1357 2720 
C 1523 2842 1683 2880 2054 2880 
L 2054 3432 
C 1965 3444 1920 3444 1850 3444 
C 1504 3444 1242 3240 934 2746 
L 934 3359 
L 442 3359 
z
" transform="scale(0.015625)"/>
       <path id="NimbusSanL-Regu-61" d="M 3424 333 
C 3366 320 3341 320 3309 320 
C 3123 320 3021 415 3021 581 
L 3021 2545 
C 3021 3137 2586 3456 1760 3456 
C 1274 3456 870 3316 646 3066 
C 493 2893 429 2702 416 2370 
L 954 2370 
C 998 2777 1242 2962 1741 2962 
C 2221 2962 2490 2783 2490 2465 
L 2490 2325 
C 2490 2101 2355 2006 1933 1955 
C 1178 1860 1062 1834 858 1751 
C 467 1592 269 1292 269 859 
C 269 254 691 -128 1370 -128 
C 1792 -128 2131 19 2509 365 
C 2547 25 2714 -128 3059 -128 
C 3168 -128 3251 -116 3424 -70 
L 3424 333 
z
M 2490 1072 
C 2490 893 2438 785 2278 639 
C 2061 441 1798 340 1485 340 
C 1069 340 826 537 826 874 
C 826 1225 1062 1403 1632 1486 
C 2195 1562 2310 1588 2490 1670 
L 2490 1072 
z
" transform="scale(0.015625)"/>
       <path id="NimbusSanL-Regu-70" d="M 346 -1408 
L 883 -1408 
L 883 320 
C 1165 -27 1478 -180 1914 -180 
C 2778 -180 3347 522 3347 1599 
C 3347 2734 2797 3444 1907 3444 
C 1453 3444 1088 3238 838 2841 
L 838 3349 
L 346 3349 
L 346 -1408 
z
M 1818 2944 
C 2406 2944 2790 2420 2790 1612 
C 2790 843 2400 320 1818 320 
C 1254 320 883 837 883 1632 
C 883 2427 1254 2944 1818 2944 
z
" transform="scale(0.015625)"/>
       <path id="NimbusSanL-Regu-68" d="M 448 4672 
L 448 -2 
L 979 -2 
L 979 1852 
C 979 2539 1338 2988 1888 2988 
C 2061 2988 2234 2930 2362 2834 
C 2515 2725 2579 2564 2579 2327 
L 2579 -2 
L 3110 -2 
L 3110 2538 
C 3110 3103 2707 3456 2054 3456 
C 1581 3456 1293 3308 979 2898 
L 979 4672 
L 448 4672 
z
" transform="scale(0.015625)"/>
       <path id="NimbusSanL-Regu-69" d="M 960 3359 
L 429 3359 
L 429 0 
L 960 0 
L 960 3359 
z
M 960 4672 
L 422 4672 
L 422 3999 
L 960 3999 
L 960 4672 
z
" transform="scale(0.015625)"/>
       <path id="NimbusSanL-Regu-7a" d="M 2835 3348 
L 333 3348 
L 333 2880 
L 2202 2880 
L 198 481 
L 198 0 
L 2925 0 
L 2925 468 
L 845 468 
L 2835 2874 
L 2835 3348 
z
" transform="scale(0.015625)"/>
       <path id="NimbusSanL-Regu-65" d="M 3283 1529 
C 3283 2034 3245 2338 3149 2584 
C 2931 3127 2419 3456 1792 3456 
C 858 3456 256 2742 256 1645 
C 256 547 838 -128 1779 -128 
C 2547 -128 3078 310 3213 1044 
L 2675 1044 
C 2528 598 2227 365 1798 365 
C 1459 365 1171 520 992 805 
C 864 998 819 1193 813 1529 
L 3283 1529 
z
M 826 1984 
C 870 2577 1248 2962 1786 2962 
C 2310 2962 2714 2530 2714 1984 
C 2714 1984 2714 1984 2707 1984 
L 826 1984 
z
" transform="scale(0.015625)"/>
      </defs>
      <use xlink:href="#NimbusSanL-Regu-53" transform="scale(0.996264)"/>
      <use xlink:href="#NimbusSanL-Regu-75" transform="translate(66.450031 0) scale(0.996264)"/>
      <use xlink:href="#NimbusSanL-Regu-62" transform="translate(121.841708 0) scale(0.996264)"/>
      <use xlink:href="#NimbusSanL-Regu-67" transform="translate(177.233385 0) scale(0.996264)"/>
      <use xlink:href="#NimbusSanL-Regu-72" transform="translate(231.628965 0) scale(0.996264)"/>
      <use xlink:href="#NimbusSanL-Regu-61" transform="translate(263.808098 0) scale(0.996264)"/>
      <use xlink:href="#NimbusSanL-Regu-70" transform="translate(319.199775 0) scale(0.996264)"/>
      <use xlink:href="#NimbusSanL-Regu-68" transform="translate(374.591452 0) scale(0.996264)"/>
      <use xlink:href="#NimbusSanL-Regu-53" transform="translate(457.678299 0) scale(0.996264)"/>
      <use xlink:href="#NimbusSanL-Regu-69" transform="translate(524.12833 0) scale(0.996264)"/>
      <use xlink:href="#NimbusSanL-Regu-7a" transform="translate(546.245114 0) scale(0.996264)"/>
      <use xlink:href="#NimbusSanL-Regu-65" transform="translate(594.564922 0) scale(0.996264)"/>
     </g>
    </g>
   </g>
   <g id="matplotlib.axis_2">
    <g id="ytick_1">
     <g id="line2d_43">
      <defs>
       <path id="m165a3f5be1" d="M 0 0 
L 3 0 
" style="stroke: #000000; stroke-width: 0.5"/>
      </defs>
      <g>
       <use xlink:href="#m165a3f5be1" x="66.906062" y="323.074994" style="stroke: #000000; stroke-width: 0.5"/>
      </g>
     </g>
     <g id="line2d_44">
      <defs>
       <path id="md54d26c82d" d="M 0 0 
L -3 0 
" style="stroke: #000000; stroke-width: 0.5"/>
      </defs>
      <g>
       <use xlink:href="#md54d26c82d" x="624.906062" y="323.074994" style="stroke: #000000; stroke-width: 0.5"/>
      </g>
     </g>
     <g id="text_7">
      <!-- $\mathdefault{0.6}$ -->
      <g transform="translate(30.171211 331.592978) scale(0.24 -0.24)">
       <defs>
        <path id="NimbusSanL-Regu-2e" d="M 1222 667 
L 557 667 
L 557 0 
L 1222 0 
L 1222 667 
z
" transform="scale(0.015625)"/>
       </defs>
       <use xlink:href="#NimbusSanL-Regu-30" transform="scale(0.996264)"/>
       <use xlink:href="#NimbusSanL-Regu-2e" transform="translate(55.391677 0) scale(0.996264)"/>
       <use xlink:href="#NimbusSanL-Regu-36" transform="translate(83.086847 0) scale(0.996264)"/>
      </g>
     </g>
    </g>
    <g id="ytick_2">
     <g id="line2d_45">
      <g>
       <use xlink:href="#m165a3f5be1" x="66.906062" y="256.714313" style="stroke: #000000; stroke-width: 0.5"/>
      </g>
     </g>
     <g id="line2d_46">
      <g>
       <use xlink:href="#md54d26c82d" x="624.906062" y="256.714313" style="stroke: #000000; stroke-width: 0.5"/>
      </g>
     </g>
     <g id="text_8">
      <!-- $\mathdefault{0.8}$ -->
      <g transform="translate(30.171211 265.232298) scale(0.24 -0.24)">
       <use xlink:href="#NimbusSanL-Regu-30" transform="scale(0.996264)"/>
       <use xlink:href="#NimbusSanL-Regu-2e" transform="translate(55.391677 0) scale(0.996264)"/>
       <use xlink:href="#NimbusSanL-Regu-38" transform="translate(83.086847 0) scale(0.996264)"/>
      </g>
     </g>
    </g>
    <g id="ytick_3">
     <g id="line2d_47">
      <g>
       <use xlink:href="#m165a3f5be1" x="66.906062" y="190.353633" style="stroke: #000000; stroke-width: 0.5"/>
      </g>
     </g>
     <g id="line2d_48">
      <g>
       <use xlink:href="#md54d26c82d" x="624.906062" y="190.353633" style="stroke: #000000; stroke-width: 0.5"/>
      </g>
     </g>
     <g id="text_9">
      <!-- $\mathdefault{1.0}$ -->
      <g transform="translate(30.171211 198.871617) scale(0.24 -0.24)">
       <use xlink:href="#NimbusSanL-Regu-31" transform="scale(0.996264)"/>
       <use xlink:href="#NimbusSanL-Regu-2e" transform="translate(55.391677 0) scale(0.996264)"/>
       <use xlink:href="#NimbusSanL-Regu-30" transform="translate(83.086847 0) scale(0.996264)"/>
      </g>
     </g>
    </g>
    <g id="ytick_4">
     <g id="line2d_49">
      <g>
       <use xlink:href="#m165a3f5be1" x="66.906062" y="123.992953" style="stroke: #000000; stroke-width: 0.5"/>
      </g>
     </g>
     <g id="line2d_50">
      <g>
       <use xlink:href="#md54d26c82d" x="624.906062" y="123.992953" style="stroke: #000000; stroke-width: 0.5"/>
      </g>
     </g>
     <g id="text_10">
      <!-- $\mathdefault{1.2}$ -->
      <g transform="translate(30.171211 132.510937) scale(0.24 -0.24)">
       <use xlink:href="#NimbusSanL-Regu-31" transform="scale(0.996264)"/>
       <use xlink:href="#NimbusSanL-Regu-2e" transform="translate(55.391677 0) scale(0.996264)"/>
       <use xlink:href="#NimbusSanL-Regu-32" transform="translate(83.086847 0) scale(0.996264)"/>
      </g>
     </g>
    </g>
    <g id="ytick_5">
     <g id="line2d_51">
      <g>
       <use xlink:href="#m165a3f5be1" x="66.906062" y="57.632272" style="stroke: #000000; stroke-width: 0.5"/>
      </g>
     </g>
     <g id="line2d_52">
      <g>
       <use xlink:href="#md54d26c82d" x="624.906062" y="57.632272" style="stroke: #000000; stroke-width: 0.5"/>
      </g>
     </g>
     <g id="text_11">
      <!-- $\mathdefault{1.4}$ -->
      <g transform="translate(30.171211 66.150257) scale(0.24 -0.24)">
       <use xlink:href="#NimbusSanL-Regu-31" transform="scale(0.996264)"/>
       <use xlink:href="#NimbusSanL-Regu-2e" transform="translate(55.391677 0) scale(0.996264)"/>
       <use xlink:href="#NimbusSanL-Regu-34" transform="translate(83.086847 0) scale(0.996264)"/>
      </g>
     </g>
    </g>
    <g id="ytick_6">
     <g id="line2d_53">
      <defs>
       <path id="m836c378413" d="M 0 0 
L 1.5 0 
" style="stroke: #000000; stroke-width: 0.5"/>
      </defs>
      <g>
       <use xlink:href="#m836c378413" x="66.906062" y="356.255334" style="stroke: #000000; stroke-width: 0.5"/>
      </g>
     </g>
     <g id="line2d_54">
      <defs>
       <path id="m9d132754cd" d="M 0 0 
L -1.5 0 
" style="stroke: #000000; stroke-width: 0.5"/>
      </defs>
      <g>
       <use xlink:href="#m9d132754cd" x="624.906062" y="356.255334" style="stroke: #000000; stroke-width: 0.5"/>
      </g>
     </g>
    </g>
    <g id="ytick_7">
     <g id="line2d_55">
      <g>
       <use xlink:href="#m836c378413" x="66.906062" y="339.665164" style="stroke: #000000; stroke-width: 0.5"/>
      </g>
     </g>
     <g id="line2d_56">
      <g>
       <use xlink:href="#m9d132754cd" x="624.906062" y="339.665164" style="stroke: #000000; stroke-width: 0.5"/>
      </g>
     </g>
    </g>
    <g id="ytick_8">
     <g id="line2d_57">
      <g>
       <use xlink:href="#m836c378413" x="66.906062" y="306.484823" style="stroke: #000000; stroke-width: 0.5"/>
      </g>
     </g>
     <g id="line2d_58">
      <g>
       <use xlink:href="#m9d132754cd" x="624.906062" y="306.484823" style="stroke: #000000; stroke-width: 0.5"/>
      </g>
     </g>
    </g>
    <g id="ytick_9">
     <g id="line2d_59">
      <g>
       <use xlink:href="#m836c378413" x="66.906062" y="289.894653" style="stroke: #000000; stroke-width: 0.5"/>
      </g>
     </g>
     <g id="line2d_60">
      <g>
       <use xlink:href="#m9d132754cd" x="624.906062" y="289.894653" style="stroke: #000000; stroke-width: 0.5"/>
      </g>
     </g>
    </g>
    <g id="ytick_10">
     <g id="line2d_61">
      <g>
       <use xlink:href="#m836c378413" x="66.906062" y="273.304483" style="stroke: #000000; stroke-width: 0.5"/>
      </g>
     </g>
     <g id="line2d_62">
      <g>
       <use xlink:href="#m9d132754cd" x="624.906062" y="273.304483" style="stroke: #000000; stroke-width: 0.5"/>
      </g>
     </g>
    </g>
    <g id="ytick_11">
     <g id="line2d_63">
      <g>
       <use xlink:href="#m836c378413" x="66.906062" y="240.124143" style="stroke: #000000; stroke-width: 0.5"/>
      </g>
     </g>
     <g id="line2d_64">
      <g>
       <use xlink:href="#m9d132754cd" x="624.906062" y="240.124143" style="stroke: #000000; stroke-width: 0.5"/>
      </g>
     </g>
    </g>
    <g id="ytick_12">
     <g id="line2d_65">
      <g>
       <use xlink:href="#m836c378413" x="66.906062" y="223.533973" style="stroke: #000000; stroke-width: 0.5"/>
      </g>
     </g>
     <g id="line2d_66">
      <g>
       <use xlink:href="#m9d132754cd" x="624.906062" y="223.533973" style="stroke: #000000; stroke-width: 0.5"/>
      </g>
     </g>
    </g>
    <g id="ytick_13">
     <g id="line2d_67">
      <g>
       <use xlink:href="#m836c378413" x="66.906062" y="206.943803" style="stroke: #000000; stroke-width: 0.5"/>
      </g>
     </g>
     <g id="line2d_68">
      <g>
       <use xlink:href="#m9d132754cd" x="624.906062" y="206.943803" style="stroke: #000000; stroke-width: 0.5"/>
      </g>
     </g>
    </g>
    <g id="ytick_14">
     <g id="line2d_69">
      <g>
       <use xlink:href="#m836c378413" x="66.906062" y="173.763463" style="stroke: #000000; stroke-width: 0.5"/>
      </g>
     </g>
     <g id="line2d_70">
      <g>
       <use xlink:href="#m9d132754cd" x="624.906062" y="173.763463" style="stroke: #000000; stroke-width: 0.5"/>
      </g>
     </g>
    </g>
    <g id="ytick_15">
     <g id="line2d_71">
      <g>
       <use xlink:href="#m836c378413" x="66.906062" y="157.173293" style="stroke: #000000; stroke-width: 0.5"/>
      </g>
     </g>
     <g id="line2d_72">
      <g>
       <use xlink:href="#m9d132754cd" x="624.906062" y="157.173293" style="stroke: #000000; stroke-width: 0.5"/>
      </g>
     </g>
    </g>
    <g id="ytick_16">
     <g id="line2d_73">
      <g>
       <use xlink:href="#m836c378413" x="66.906062" y="140.583123" style="stroke: #000000; stroke-width: 0.5"/>
      </g>
     </g>
     <g id="line2d_74">
      <g>
       <use xlink:href="#m9d132754cd" x="624.906062" y="140.583123" style="stroke: #000000; stroke-width: 0.5"/>
      </g>
     </g>
    </g>
    <g id="ytick_17">
     <g id="line2d_75">
      <g>
       <use xlink:href="#m836c378413" x="66.906062" y="107.402783" style="stroke: #000000; stroke-width: 0.5"/>
      </g>
     </g>
     <g id="line2d_76">
      <g>
       <use xlink:href="#m9d132754cd" x="624.906062" y="107.402783" style="stroke: #000000; stroke-width: 0.5"/>
      </g>
     </g>
    </g>
    <g id="ytick_18">
     <g id="line2d_77">
      <g>
       <use xlink:href="#m836c378413" x="66.906062" y="90.812612" style="stroke: #000000; stroke-width: 0.5"/>
      </g>
     </g>
     <g id="line2d_78">
      <g>
       <use xlink:href="#m9d132754cd" x="624.906062" y="90.812612" style="stroke: #000000; stroke-width: 0.5"/>
      </g>
     </g>
    </g>
    <g id="ytick_19">
     <g id="line2d_79">
      <g>
       <use xlink:href="#m836c378413" x="66.906062" y="74.222442" style="stroke: #000000; stroke-width: 0.5"/>
      </g>
     </g>
     <g id="line2d_80">
      <g>
       <use xlink:href="#m9d132754cd" x="624.906062" y="74.222442" style="stroke: #000000; stroke-width: 0.5"/>
      </g>
     </g>
    </g>
    <g id="ytick_20">
     <g id="line2d_81">
      <g>
       <use xlink:href="#m836c378413" x="66.906062" y="41.042102" style="stroke: #000000; stroke-width: 0.5"/>
      </g>
     </g>
     <g id="line2d_82">
      <g>
       <use xlink:href="#m9d132754cd" x="624.906062" y="41.042102" style="stroke: #000000; stroke-width: 0.5"/>
      </g>
     </g>
    </g>
    <g id="text_12">
     <!-- Mean Spatial Constant -->
     <g transform="translate(21.078447 319.070965) rotate(-90) scale(0.24 -0.24)">
      <defs>
       <path id="NimbusSanL-Regu-4d" d="M 2995 -2 
L 4307 3915 
L 4307 -2 
L 4870 -2 
L 4870 4672 
L 4045 4672 
L 2688 601 
L 1306 4672 
L 480 4672 
L 480 -2 
L 1043 -2 
L 1043 3915 
L 2368 -2 
L 2995 -2 
z
" transform="scale(0.015625)"/>
       <path id="NimbusSanL-Regu-6e" d="M 448 3359 
L 448 0 
L 986 0 
L 986 1853 
C 986 2539 1344 2988 1894 2988 
C 2317 2988 2586 2731 2586 2327 
L 2586 0 
L 3117 0 
L 3117 2539 
C 3117 3097 2701 3456 2054 3456 
C 1555 3456 1235 3263 941 2796 
L 941 3359 
L 448 3359 
z
" transform="scale(0.015625)"/>
       <path id="NimbusSanL-Regu-74" d="M 1626 3380 
L 1075 3380 
L 1075 4288 
L 544 4288 
L 544 3380 
L 90 3380 
L 90 2944 
L 544 2944 
L 544 404 
C 544 64 774 -128 1190 -128 
C 1318 -128 1446 -116 1626 -83 
L 1626 366 
C 1555 346 1472 340 1370 340 
C 1139 340 1075 404 1075 641 
L 1075 2944 
L 1626 2944 
L 1626 3380 
z
" transform="scale(0.015625)"/>
       <path id="NimbusSanL-Regu-6c" d="M 973 4672 
L 435 4672 
L 435 -2 
L 973 -2 
L 973 4672 
z
" transform="scale(0.015625)"/>
       <path id="NimbusSanL-Regu-43" d="M 4237 3229 
C 4051 4252 3462 4750 2438 4750 
C 1811 4750 1306 4552 960 4168 
C 538 3709 307 3045 307 2291 
C 307 1525 544 868 986 414 
C 1344 44 1805 -128 2413 -128 
C 3552 -128 4192 485 4333 1717 
L 3718 1717 
C 3667 1399 3603 1182 3507 997 
C 3315 614 2918 397 2419 397 
C 1491 397 902 1137 902 2298 
C 902 3491 1466 4224 2368 4224 
C 2746 4224 3098 4110 3290 3930 
C 3462 3771 3558 3573 3629 3229 
L 4237 3229 
z
" transform="scale(0.015625)"/>
       <path id="NimbusSanL-Regu-6f" d="M 1741 3456 
C 800 3456 230 2786 230 1663 
C 230 541 794 -128 1747 -128 
C 2688 -128 3264 541 3264 1638 
C 3264 2792 2707 3456 1741 3456 
z
M 1747 2962 
C 2349 2962 2707 2472 2707 1645 
C 2707 861 2336 365 1747 365 
C 1152 365 787 855 787 1663 
C 787 2466 1152 2962 1747 2962 
z
" transform="scale(0.015625)"/>
       <path id="NimbusSanL-Regu-73" d="M 2803 2427 
C 2797 3085 2362 3456 1587 3456 
C 806 3456 301 3054 301 2436 
C 301 1913 570 1665 1363 1474 
L 1862 1353 
C 2234 1263 2381 1130 2381 888 
C 2381 576 2067 365 1600 365 
C 1312 365 1069 448 934 588 
C 851 684 813 779 781 1014 
L 218 1014 
C 243 241 678 -128 1555 -128 
C 2400 -128 2938 285 2938 929 
C 2938 1426 2656 1701 1990 1860 
L 1478 1981 
C 1043 2082 858 2223 858 2458 
C 858 2764 1133 2962 1568 2962 
C 1997 2962 2227 2777 2240 2427 
L 2803 2427 
z
" transform="scale(0.015625)"/>
      </defs>
      <use xlink:href="#NimbusSanL-Regu-4d" transform="scale(0.996264)"/>
      <use xlink:href="#NimbusSanL-Regu-65" transform="translate(82.98843 0) scale(0.996264)"/>
      <use xlink:href="#NimbusSanL-Regu-61" transform="translate(138.380107 0) scale(0.996264)"/>
      <use xlink:href="#NimbusSanL-Regu-6e" transform="translate(193.771784 0) scale(0.996264)"/>
      <use xlink:href="#NimbusSanL-Regu-53" transform="translate(276.858631 0) scale(0.996264)"/>
      <use xlink:href="#NimbusSanL-Regu-70" transform="translate(343.308662 0) scale(0.996264)"/>
      <use xlink:href="#NimbusSanL-Regu-61" transform="translate(398.700339 0) scale(0.996264)"/>
      <use xlink:href="#NimbusSanL-Regu-74" transform="translate(454.092016 0) scale(0.996264)"/>
      <use xlink:href="#NimbusSanL-Regu-69" transform="translate(481.787185 0) scale(0.996264)"/>
      <use xlink:href="#NimbusSanL-Regu-61" transform="translate(503.90397 0) scale(0.996264)"/>
      <use xlink:href="#NimbusSanL-Regu-6c" transform="translate(559.295647 0) scale(0.996264)"/>
      <use xlink:href="#NimbusSanL-Regu-43" transform="translate(609.107601 0) scale(0.996264)"/>
      <use xlink:href="#NimbusSanL-Regu-6f" transform="translate(681.037585 0) scale(0.996264)"/>
      <use xlink:href="#NimbusSanL-Regu-6e" transform="translate(736.429262 0) scale(0.996264)"/>
      <use xlink:href="#NimbusSanL-Regu-73" transform="translate(791.820939 0) scale(0.996264)"/>
      <use xlink:href="#NimbusSanL-Regu-74" transform="translate(841.63414 0) scale(0.996264)"/>
      <use xlink:href="#NimbusSanL-Regu-61" transform="translate(869.32931 0) scale(0.996264)"/>
      <use xlink:href="#NimbusSanL-Regu-6e" transform="translate(924.720986 0) scale(0.996264)"/>
      <use xlink:href="#NimbusSanL-Regu-74" transform="translate(980.112663 0) scale(0.996264)"/>
     </g>
    </g>
   </g>
   <g id="line2d_83">
    <path d="M 92.269699 117.460198 
L 145.392715 79.648766 
L 198.515732 83.686244 
L 251.638749 79.327381 
L 304.761765 77.135861 
L 357.884782 67.658024 
L 411.007798 68.188615 
L 464.130815 73.916822 
L 517.253832 78.177308 
L 570.376848 82.102613 
L 599.542426 78.003959 
" clip-path="url(#pd8a80980cb)" style="fill: none; stroke: #0c5da5; stroke-linecap: square"/>
    <defs>
     <path id="m9101715ec9" d="M 0 1.5 
C 0.397805 1.5 0.77937 1.341951 1.06066 1.06066 
C 1.341951 0.77937 1.5 0.397805 1.5 0 
C 1.5 -0.397805 1.341951 -0.77937 1.06066 -1.06066 
C 0.77937 -1.341951 0.397805 -1.5 0 -1.5 
C -0.397805 -1.5 -0.77937 -1.341951 -1.06066 -1.06066 
C -1.341951 -0.77937 -1.5 -0.397805 -1.5 0 
C -1.5 0.397805 -1.341951 0.77937 -1.06066 1.06066 
C -0.77937 1.341951 -0.397805 1.5 0 1.5 
z
" style="stroke: #0c5da5"/>
    </defs>
    <g clip-path="url(#pd8a80980cb)">
     <use xlink:href="#m9101715ec9" x="92.269699" y="117.460198" style="fill: #0c5da5; stroke: #0c5da5"/>
     <use xlink:href="#m9101715ec9" x="145.392715" y="79.648766" style="fill: #0c5da5; stroke: #0c5da5"/>
     <use xlink:href="#m9101715ec9" x="198.515732" y="83.686244" style="fill: #0c5da5; stroke: #0c5da5"/>
     <use xlink:href="#m9101715ec9" x="251.638749" y="79.327381" style="fill: #0c5da5; stroke: #0c5da5"/>
     <use xlink:href="#m9101715ec9" x="304.761765" y="77.135861" style="fill: #0c5da5; stroke: #0c5da5"/>
     <use xlink:href="#m9101715ec9" x="357.884782" y="67.658024" style="fill: #0c5da5; stroke: #0c5da5"/>
     <use xlink:href="#m9101715ec9" x="411.007798" y="68.188615" style="fill: #0c5da5; stroke: #0c5da5"/>
     <use xlink:href="#m9101715ec9" x="464.130815" y="73.916822" style="fill: #0c5da5; stroke: #0c5da5"/>
     <use xlink:href="#m9101715ec9" x="517.253832" y="78.177308" style="fill: #0c5da5; stroke: #0c5da5"/>
     <use xlink:href="#m9101715ec9" x="570.376848" y="82.102613" style="fill: #0c5da5; stroke: #0c5da5"/>
     <use xlink:href="#m9101715ec9" x="599.542426" y="78.003959" style="fill: #0c5da5; stroke: #0c5da5"/>
    </g>
   </g>
   <g id="line2d_84">
    <path d="M 92.269699 121.768186 
L 145.392715 145.983019 
L 198.515732 150.710184 
L 251.638749 174.95793 
L 304.761765 198.937011 
L 357.884782 210.541219 
L 411.007798 224.088243 
L 464.130815 247.194791 
L 517.253832 256.314289 
L 570.376848 266.629903 
L 599.542426 268.39366 
" clip-path="url(#pd8a80980cb)" style="fill: none; stroke: #00b945; stroke-linecap: square"/>
    <defs>
     <path id="mae71190ee6" d="M 0 1.5 
C 0.397805 1.5 0.77937 1.341951 1.06066 1.06066 
C 1.341951 0.77937 1.5 0.397805 1.5 0 
C 1.5 -0.397805 1.341951 -0.77937 1.06066 -1.06066 
C 0.77937 -1.341951 0.397805 -1.5 0 -1.5 
C -0.397805 -1.5 -0.77937 -1.341951 -1.06066 -1.06066 
C -1.341951 -0.77937 -1.5 -0.397805 -1.5 0 
C -1.5 0.397805 -1.341951 0.77937 -1.06066 1.06066 
C -0.77937 1.341951 -0.397805 1.5 0 1.5 
z
" style="stroke: #00b945"/>
    </defs>
    <g clip-path="url(#pd8a80980cb)">
     <use xlink:href="#mae71190ee6" x="92.269699" y="121.768186" style="fill: #00b945; stroke: #00b945"/>
     <use xlink:href="#mae71190ee6" x="145.392715" y="145.983019" style="fill: #00b945; stroke: #00b945"/>
     <use xlink:href="#mae71190ee6" x="198.515732" y="150.710184" style="fill: #00b945; stroke: #00b945"/>
     <use xlink:href="#mae71190ee6" x="251.638749" y="174.95793" style="fill: #00b945; stroke: #00b945"/>
     <use xlink:href="#mae71190ee6" x="304.761765" y="198.937011" style="fill: #00b945; stroke: #00b945"/>
     <use xlink:href="#mae71190ee6" x="357.884782" y="210.541219" style="fill: #00b945; stroke: #00b945"/>
     <use xlink:href="#mae71190ee6" x="411.007798" y="224.088243" style="fill: #00b945; stroke: #00b945"/>
     <use xlink:href="#mae71190ee6" x="464.130815" y="247.194791" style="fill: #00b945; stroke: #00b945"/>
     <use xlink:href="#mae71190ee6" x="517.253832" y="256.314289" style="fill: #00b945; stroke: #00b945"/>
     <use xlink:href="#mae71190ee6" x="570.376848" y="266.629903" style="fill: #00b945; stroke: #00b945"/>
     <use xlink:href="#mae71190ee6" x="599.542426" y="268.39366" style="fill: #00b945; stroke: #00b945"/>
    </g>
   </g>
   <g id="line2d_85">
    <path d="M 92.269699 143.228633 
L 145.392715 169.328812 
L 198.515732 198.994506 
L 251.638749 220.628824 
L 304.761765 237.223874 
L 357.884782 265.414867 
L 411.007798 275.165615 
L 464.130815 289.266316 
L 517.253832 296.100832 
L 570.376848 304.74048 
L 599.542426 305.179451 
" clip-path="url(#pd8a80980cb)" style="fill: none; stroke: #ff9500; stroke-linecap: square"/>
    <defs>
     <path id="mb4e78d55fc" d="M 0 1.5 
C 0.397805 1.5 0.77937 1.341951 1.06066 1.06066 
C 1.341951 0.77937 1.5 0.397805 1.5 0 
C 1.5 -0.397805 1.341951 -0.77937 1.06066 -1.06066 
C 0.77937 -1.341951 0.397805 -1.5 0 -1.5 
C -0.397805 -1.5 -0.77937 -1.341951 -1.06066 -1.06066 
C -1.341951 -0.77937 -1.5 -0.397805 -1.5 0 
C -1.5 0.397805 -1.341951 0.77937 -1.06066 1.06066 
C -0.77937 1.341951 -0.397805 1.5 0 1.5 
z
" style="stroke: #ff9500"/>
    </defs>
    <g clip-path="url(#pd8a80980cb)">
     <use xlink:href="#mb4e78d55fc" x="92.269699" y="143.228633" style="fill: #ff9500; stroke: #ff9500"/>
     <use xlink:href="#mb4e78d55fc" x="145.392715" y="169.328812" style="fill: #ff9500; stroke: #ff9500"/>
     <use xlink:href="#mb4e78d55fc" x="198.515732" y="198.994506" style="fill: #ff9500; stroke: #ff9500"/>
     <use xlink:href="#mb4e78d55fc" x="251.638749" y="220.628824" style="fill: #ff9500; stroke: #ff9500"/>
     <use xlink:href="#mb4e78d55fc" x="304.761765" y="237.223874" style="fill: #ff9500; stroke: #ff9500"/>
     <use xlink:href="#mb4e78d55fc" x="357.884782" y="265.414867" style="fill: #ff9500; stroke: #ff9500"/>
     <use xlink:href="#mb4e78d55fc" x="411.007798" y="275.165615" style="fill: #ff9500; stroke: #ff9500"/>
     <use xlink:href="#mb4e78d55fc" x="464.130815" y="289.266316" style="fill: #ff9500; stroke: #ff9500"/>
     <use xlink:href="#mb4e78d55fc" x="517.253832" y="296.100832" style="fill: #ff9500; stroke: #ff9500"/>
     <use xlink:href="#mb4e78d55fc" x="570.376848" y="304.74048" style="fill: #ff9500; stroke: #ff9500"/>
     <use xlink:href="#mb4e78d55fc" x="599.542426" y="305.179451" style="fill: #ff9500; stroke: #ff9500"/>
    </g>
   </g>
   <g id="line2d_86">
    <path d="M 92.269699 141.028625 
L 145.392715 191.802354 
L 198.515732 221.977179 
L 251.638749 244.314843 
L 304.761765 276.26898 
L 357.884782 285.093162 
L 411.007798 301.363184 
L 464.130815 312.91288 
L 517.253832 323.149736 
L 570.376848 328.18013 
L 599.542426 328.297227 
" clip-path="url(#pd8a80980cb)" style="fill: none; stroke: #ff2c00; stroke-linecap: square"/>
    <defs>
     <path id="m2f1a5657e2" d="M 0 1.5 
C 0.397805 1.5 0.77937 1.341951 1.06066 1.06066 
C 1.341951 0.77937 1.5 0.397805 1.5 0 
C 1.5 -0.397805 1.341951 -0.77937 1.06066 -1.06066 
C 0.77937 -1.341951 0.397805 -1.5 0 -1.5 
C -0.397805 -1.5 -0.77937 -1.341951 -1.06066 -1.06066 
C -1.341951 -0.77937 -1.5 -0.397805 -1.5 0 
C -1.5 0.397805 -1.341951 0.77937 -1.06066 1.06066 
C -0.77937 1.341951 -0.397805 1.5 0 1.5 
z
" style="stroke: #ff2c00"/>
    </defs>
    <g clip-path="url(#pd8a80980cb)">
     <use xlink:href="#m2f1a5657e2" x="92.269699" y="141.028625" style="fill: #ff2c00; stroke: #ff2c00"/>
     <use xlink:href="#m2f1a5657e2" x="145.392715" y="191.802354" style="fill: #ff2c00; stroke: #ff2c00"/>
     <use xlink:href="#m2f1a5657e2" x="198.515732" y="221.977179" style="fill: #ff2c00; stroke: #ff2c00"/>
     <use xlink:href="#m2f1a5657e2" x="251.638749" y="244.314843" style="fill: #ff2c00; stroke: #ff2c00"/>
     <use xlink:href="#m2f1a5657e2" x="304.761765" y="276.26898" style="fill: #ff2c00; stroke: #ff2c00"/>
     <use xlink:href="#m2f1a5657e2" x="357.884782" y="285.093162" style="fill: #ff2c00; stroke: #ff2c00"/>
     <use xlink:href="#m2f1a5657e2" x="411.007798" y="301.363184" style="fill: #ff2c00; stroke: #ff2c00"/>
     <use xlink:href="#m2f1a5657e2" x="464.130815" y="312.91288" style="fill: #ff2c00; stroke: #ff2c00"/>
     <use xlink:href="#m2f1a5657e2" x="517.253832" y="323.149736" style="fill: #ff2c00; stroke: #ff2c00"/>
     <use xlink:href="#m2f1a5657e2" x="570.376848" y="328.18013" style="fill: #ff2c00; stroke: #ff2c00"/>
     <use xlink:href="#m2f1a5657e2" x="599.542426" y="328.297227" style="fill: #ff2c00; stroke: #ff2c00"/>
    </g>
   </g>
   <g id="line2d_87">
    <path d="M 92.269699 160.746142 
L 145.392715 210.456417 
L 198.515732 229.429722 
L 251.638749 256.00551 
L 304.761765 281.939577 
L 357.884782 301.752927 
L 411.007798 313.026554 
L 464.130815 323.128829 
L 517.253832 332.207774 
L 570.376848 337.67939 
L 599.542426 340.034037 
" clip-path="url(#pd8a80980cb)" style="fill: none; stroke: #845b97; stroke-linecap: square"/>
    <defs>
     <path id="mcd274b6851" d="M 0 1.5 
C 0.397805 1.5 0.77937 1.341951 1.06066 1.06066 
C 1.341951 0.77937 1.5 0.397805 1.5 0 
C 1.5 -0.397805 1.341951 -0.77937 1.06066 -1.06066 
C 0.77937 -1.341951 0.397805 -1.5 0 -1.5 
C -0.397805 -1.5 -0.77937 -1.341951 -1.06066 -1.06066 
C -1.341951 -0.77937 -1.5 -0.397805 -1.5 0 
C -1.5 0.397805 -1.341951 0.77937 -1.06066 1.06066 
C -0.77937 1.341951 -0.397805 1.5 0 1.5 
z
" style="stroke: #845b97"/>
    </defs>
    <g clip-path="url(#pd8a80980cb)">
     <use xlink:href="#mcd274b6851" x="92.269699" y="160.746142" style="fill: #845b97; stroke: #845b97"/>
     <use xlink:href="#mcd274b6851" x="145.392715" y="210.456417" style="fill: #845b97; stroke: #845b97"/>
     <use xlink:href="#mcd274b6851" x="198.515732" y="229.429722" style="fill: #845b97; stroke: #845b97"/>
     <use xlink:href="#mcd274b6851" x="251.638749" y="256.00551" style="fill: #845b97; stroke: #845b97"/>
     <use xlink:href="#mcd274b6851" x="304.761765" y="281.939577" style="fill: #845b97; stroke: #845b97"/>
     <use xlink:href="#mcd274b6851" x="357.884782" y="301.752927" style="fill: #845b97; stroke: #845b97"/>
     <use xlink:href="#mcd274b6851" x="411.007798" y="313.026554" style="fill: #845b97; stroke: #845b97"/>
     <use xlink:href="#mcd274b6851" x="464.130815" y="323.128829" style="fill: #845b97; stroke: #845b97"/>
     <use xlink:href="#mcd274b6851" x="517.253832" y="332.207774" style="fill: #845b97; stroke: #845b97"/>
     <use xlink:href="#mcd274b6851" x="570.376848" y="337.67939" style="fill: #845b97; stroke: #845b97"/>
     <use xlink:href="#mcd274b6851" x="599.542426" y="340.034037" style="fill: #845b97; stroke: #845b97"/>
    </g>
   </g>
   <g id="line2d_88">
    <path d="M 92.269699 157.320719 
L 145.392715 206.292691 
L 198.515732 250.319427 
L 251.638749 264.954563 
L 304.761765 286.860809 
L 357.884782 305.674235 
L 411.007798 322.017267 
L 464.130815 331.940021 
L 517.253832 339.470104 
L 570.376848 347.101924 
L 599.542426 349.334022 
" clip-path="url(#pd8a80980cb)" style="fill: none; stroke: #474747; stroke-linecap: square"/>
    <defs>
     <path id="m9d6715a327" d="M 0 1.5 
C 0.397805 1.5 0.77937 1.341951 1.06066 1.06066 
C 1.341951 0.77937 1.5 0.397805 1.5 0 
C 1.5 -0.397805 1.341951 -0.77937 1.06066 -1.06066 
C 0.77937 -1.341951 0.397805 -1.5 0 -1.5 
C -0.397805 -1.5 -0.77937 -1.341951 -1.06066 -1.06066 
C -1.341951 -0.77937 -1.5 -0.397805 -1.5 0 
C -1.5 0.397805 -1.341951 0.77937 -1.06066 1.06066 
C -0.77937 1.341951 -0.397805 1.5 0 1.5 
z
" style="stroke: #474747"/>
    </defs>
    <g clip-path="url(#pd8a80980cb)">
     <use xlink:href="#m9d6715a327" x="92.269699" y="157.320719" style="fill: #474747; stroke: #474747"/>
     <use xlink:href="#m9d6715a327" x="145.392715" y="206.292691" style="fill: #474747; stroke: #474747"/>
     <use xlink:href="#m9d6715a327" x="198.515732" y="250.319427" style="fill: #474747; stroke: #474747"/>
     <use xlink:href="#m9d6715a327" x="251.638749" y="264.954563" style="fill: #474747; stroke: #474747"/>
     <use xlink:href="#m9d6715a327" x="304.761765" y="286.860809" style="fill: #474747; stroke: #474747"/>
     <use xlink:href="#m9d6715a327" x="357.884782" y="305.674235" style="fill: #474747; stroke: #474747"/>
     <use xlink:href="#m9d6715a327" x="411.007798" y="322.017267" style="fill: #474747; stroke: #474747"/>
     <use xlink:href="#m9d6715a327" x="464.130815" y="331.940021" style="fill: #474747; stroke: #474747"/>
     <use xlink:href="#m9d6715a327" x="517.253832" y="339.470104" style="fill: #474747; stroke: #474747"/>
     <use xlink:href="#m9d6715a327" x="570.376848" y="347.101924" style="fill: #474747; stroke: #474747"/>
     <use xlink:href="#m9d6715a327" x="599.542426" y="349.334022" style="fill: #474747; stroke: #474747"/>
    </g>
   </g>
   <g id="patch_3">
    <path d="M 66.906062 364.454022 
L 66.906062 31.814022 
" style="fill: none; stroke: #000000; stroke-width: 0.5; stroke-linejoin: miter; stroke-linecap: square"/>
   </g>
   <g id="patch_4">
    <path d="M 624.906062 364.454022 
L 624.906062 31.814022 
" style="fill: none; stroke: #000000; stroke-width: 0.5; stroke-linejoin: miter; stroke-linecap: square"/>
   </g>
   <g id="patch_5">
    <path d="M 66.906062 364.454022 
L 624.906062 364.454022 
" style="fill: none; stroke: #000000; stroke-width: 0.5; stroke-linejoin: miter; stroke-linecap: square"/>
   </g>
   <g id="patch_6">
    <path d="M 66.906062 31.814022 
L 624.906062 31.814022 
" style="fill: none; stroke: #000000; stroke-width: 0.5; stroke-linejoin: miter; stroke-linecap: square"/>
   </g>
   <g id="text_13">
    <!-- Mean Spatial Constant vs. Subgraph Size -->
    <g transform="translate(69.072568 25.448062) scale(0.3 -0.3)">
     <defs>
      <path id="NimbusSanL-Regu-76" d="M 1824 0 
L 3110 3360 
L 2509 3360 
L 1562 635 
L 666 3360 
L 64 3360 
L 1242 0 
L 1824 0 
z
" transform="scale(0.015625)"/>
     </defs>
     <use xlink:href="#NimbusSanL-Regu-4d" transform="scale(0.996264)"/>
     <use xlink:href="#NimbusSanL-Regu-65" transform="translate(82.98843 0) scale(0.996264)"/>
     <use xlink:href="#NimbusSanL-Regu-61" transform="translate(138.380107 0) scale(0.996264)"/>
     <use xlink:href="#NimbusSanL-Regu-6e" transform="translate(193.771784 0) scale(0.996264)"/>
     <use xlink:href="#NimbusSanL-Regu-53" transform="translate(276.858631 0) scale(0.996264)"/>
     <use xlink:href="#NimbusSanL-Regu-70" transform="translate(343.308662 0) scale(0.996264)"/>
     <use xlink:href="#NimbusSanL-Regu-61" transform="translate(398.700339 0) scale(0.996264)"/>
     <use xlink:href="#NimbusSanL-Regu-74" transform="translate(454.092016 0) scale(0.996264)"/>
     <use xlink:href="#NimbusSanL-Regu-69" transform="translate(481.787185 0) scale(0.996264)"/>
     <use xlink:href="#NimbusSanL-Regu-61" transform="translate(503.90397 0) scale(0.996264)"/>
     <use xlink:href="#NimbusSanL-Regu-6c" transform="translate(559.295647 0) scale(0.996264)"/>
     <use xlink:href="#NimbusSanL-Regu-43" transform="translate(609.107601 0) scale(0.996264)"/>
     <use xlink:href="#NimbusSanL-Regu-6f" transform="translate(681.037585 0) scale(0.996264)"/>
     <use xlink:href="#NimbusSanL-Regu-6e" transform="translate(736.429262 0) scale(0.996264)"/>
     <use xlink:href="#NimbusSanL-Regu-73" transform="translate(791.820939 0) scale(0.996264)"/>
     <use xlink:href="#NimbusSanL-Regu-74" transform="translate(841.63414 0) scale(0.996264)"/>
     <use xlink:href="#NimbusSanL-Regu-61" transform="translate(869.32931 0) scale(0.996264)"/>
     <use xlink:href="#NimbusSanL-Regu-6e" transform="translate(924.720986 0) scale(0.996264)"/>
     <use xlink:href="#NimbusSanL-Regu-74" transform="translate(980.112663 0) scale(0.996264)"/>
     <use xlink:href="#NimbusSanL-Regu-76" transform="translate(1035.503003 0) scale(0.996264)"/>
     <use xlink:href="#NimbusSanL-Regu-73" transform="translate(1085.316203 0) scale(0.996264)"/>
     <use xlink:href="#NimbusSanL-Regu-2e" transform="translate(1133.636011 0) scale(0.996264)"/>
     <use xlink:href="#NimbusSanL-Regu-53" transform="translate(1195.600832 0) scale(0.996264)"/>
     <use xlink:href="#NimbusSanL-Regu-75" transform="translate(1262.050863 0) scale(0.996264)"/>
     <use xlink:href="#NimbusSanL-Regu-62" transform="translate(1317.44254 0) scale(0.996264)"/>
     <use xlink:href="#NimbusSanL-Regu-67" transform="translate(1372.834217 0) scale(0.996264)"/>
     <use xlink:href="#NimbusSanL-Regu-72" transform="translate(1427.229797 0) scale(0.996264)"/>
     <use xlink:href="#NimbusSanL-Regu-61" transform="translate(1459.40893 0) scale(0.996264)"/>
     <use xlink:href="#NimbusSanL-Regu-70" transform="translate(1514.800607 0) scale(0.996264)"/>
     <use xlink:href="#NimbusSanL-Regu-68" transform="translate(1570.192284 0) scale(0.996264)"/>
     <use xlink:href="#NimbusSanL-Regu-53" transform="translate(1653.279131 0) scale(0.996264)"/>
     <use xlink:href="#NimbusSanL-Regu-69" transform="translate(1719.729162 0) scale(0.996264)"/>
     <use xlink:href="#NimbusSanL-Regu-7a" transform="translate(1741.845946 0) scale(0.996264)"/>
     <use xlink:href="#NimbusSanL-Regu-65" transform="translate(1790.165754 0) scale(0.996264)"/>
    </g>
   </g>
   <g id="legend_1">
    <g id="line2d_89">
     <path d="M 464.343405 146.946391 
L 478.343405 146.946391 
L 492.343405 146.946391 
" style="fill: none; stroke: #0c5da5; stroke-linecap: square"/>
     <g>
      <use xlink:href="#m9101715ec9" x="478.343405" y="146.946391" style="fill: #0c5da5; stroke: #0c5da5"/>
     </g>
    </g>
    <g id="text_14">
     <!-- False Edges: 0 -->
     <g transform="translate(503.543405 151.846391) scale(0.14 -0.14)">
      <defs>
       <path id="NimbusSanL-Regu-46" d="M 1171 2112 
L 3398 2112 
L 3398 2638 
L 1171 2638 
L 1171 4146 
L 3706 4146 
L 3706 4672 
L 576 4672 
L 576 -14 
L 1171 -14 
L 1171 2112 
z
" transform="scale(0.015625)"/>
       <path id="NimbusSanL-Regu-45" d="M 1171 2112 
L 3712 2112 
L 3712 2638 
L 1171 2638 
L 1171 4146 
L 3808 4146 
L 3808 4672 
L 576 4672 
L 576 0 
L 3923 0 
L 3923 526 
L 1171 526 
L 1171 2112 
z
" transform="scale(0.015625)"/>
       <path id="NimbusSanL-Regu-64" d="M 3168 4672 
L 2637 4672 
L 2637 2937 
C 2413 3276 2054 3456 1606 3456 
C 736 3456 166 2761 166 1695 
C 166 566 723 -128 1626 -128 
C 2086 -128 2406 45 2694 461 
L 2694 -2 
L 3168 -2 
L 3168 4672 
z
M 1696 2956 
C 2272 2956 2637 2447 2637 1651 
C 2637 881 2266 372 1702 372 
C 1114 372 723 887 723 1664 
C 723 2440 1114 2956 1696 2956 
z
" transform="scale(0.015625)"/>
       <path id="NimbusSanL-Regu-3a" d="M 1370 667 
L 704 667 
L 704 0 
L 1370 0 
L 1370 667 
z
M 1370 3354 
L 704 3354 
L 704 2688 
L 1370 2688 
L 1370 3354 
z
" transform="scale(0.015625)"/>
      </defs>
      <use xlink:href="#NimbusSanL-Regu-46" transform="scale(0.996264)"/>
      <use xlink:href="#NimbusSanL-Regu-61" transform="translate(55.89028 0) scale(0.996264)"/>
      <use xlink:href="#NimbusSanL-Regu-6c" transform="translate(111.281957 0) scale(0.996264)"/>
      <use xlink:href="#NimbusSanL-Regu-73" transform="translate(133.398742 0) scale(0.996264)"/>
      <use xlink:href="#NimbusSanL-Regu-65" transform="translate(183.211942 0) scale(0.996264)"/>
      <use xlink:href="#NimbusSanL-Regu-45" transform="translate(266.298789 0) scale(0.996264)"/>
      <use xlink:href="#NimbusSanL-Regu-64" transform="translate(332.74882 0) scale(0.996264)"/>
      <use xlink:href="#NimbusSanL-Regu-67" transform="translate(388.140497 0) scale(0.996264)"/>
      <use xlink:href="#NimbusSanL-Regu-65" transform="translate(443.532174 0) scale(0.996264)"/>
      <use xlink:href="#NimbusSanL-Regu-73" transform="translate(498.923851 0) scale(0.996264)"/>
      <use xlink:href="#NimbusSanL-Regu-3a" transform="translate(548.737051 0) scale(0.996264)"/>
      <use xlink:href="#NimbusSanL-Regu-30" transform="translate(610.701872 0) scale(0.996264)"/>
     </g>
    </g>
    <g id="line2d_90">
     <path d="M 464.343405 166.854817 
L 478.343405 166.854817 
L 492.343405 166.854817 
" style="fill: none; stroke: #00b945; stroke-linecap: square"/>
     <g>
      <use xlink:href="#mae71190ee6" x="478.343405" y="166.854817" style="fill: #00b945; stroke: #00b945"/>
     </g>
    </g>
    <g id="text_15">
     <!-- False Edges: 20 -->
     <g transform="translate(503.543405 171.754817) scale(0.14 -0.14)">
      <use xlink:href="#NimbusSanL-Regu-46" transform="scale(0.996264)"/>
      <use xlink:href="#NimbusSanL-Regu-61" transform="translate(55.89028 0) scale(0.996264)"/>
      <use xlink:href="#NimbusSanL-Regu-6c" transform="translate(111.281957 0) scale(0.996264)"/>
      <use xlink:href="#NimbusSanL-Regu-73" transform="translate(133.398742 0) scale(0.996264)"/>
      <use xlink:href="#NimbusSanL-Regu-65" transform="translate(183.211942 0) scale(0.996264)"/>
      <use xlink:href="#NimbusSanL-Regu-45" transform="translate(266.298789 0) scale(0.996264)"/>
      <use xlink:href="#NimbusSanL-Regu-64" transform="translate(332.74882 0) scale(0.996264)"/>
      <use xlink:href="#NimbusSanL-Regu-67" transform="translate(388.140497 0) scale(0.996264)"/>
      <use xlink:href="#NimbusSanL-Regu-65" transform="translate(443.532174 0) scale(0.996264)"/>
      <use xlink:href="#NimbusSanL-Regu-73" transform="translate(498.923851 0) scale(0.996264)"/>
      <use xlink:href="#NimbusSanL-Regu-3a" transform="translate(548.737051 0) scale(0.996264)"/>
      <use xlink:href="#NimbusSanL-Regu-32" transform="translate(610.701872 0) scale(0.996264)"/>
      <use xlink:href="#NimbusSanL-Regu-30" transform="translate(666.093549 0) scale(0.996264)"/>
     </g>
    </g>
    <g id="line2d_91">
     <path d="M 464.343405 186.763244 
L 478.343405 186.763244 
L 492.343405 186.763244 
" style="fill: none; stroke: #ff9500; stroke-linecap: square"/>
     <g>
      <use xlink:href="#mb4e78d55fc" x="478.343405" y="186.763244" style="fill: #ff9500; stroke: #ff9500"/>
     </g>
    </g>
    <g id="text_16">
     <!-- False Edges: 40 -->
     <g transform="translate(503.543405 191.663244) scale(0.14 -0.14)">
      <use xlink:href="#NimbusSanL-Regu-46" transform="scale(0.996264)"/>
      <use xlink:href="#NimbusSanL-Regu-61" transform="translate(55.89028 0) scale(0.996264)"/>
      <use xlink:href="#NimbusSanL-Regu-6c" transform="translate(111.281957 0) scale(0.996264)"/>
      <use xlink:href="#NimbusSanL-Regu-73" transform="translate(133.398742 0) scale(0.996264)"/>
      <use xlink:href="#NimbusSanL-Regu-65" transform="translate(183.211942 0) scale(0.996264)"/>
      <use xlink:href="#NimbusSanL-Regu-45" transform="translate(266.298789 0) scale(0.996264)"/>
      <use xlink:href="#NimbusSanL-Regu-64" transform="translate(332.74882 0) scale(0.996264)"/>
      <use xlink:href="#NimbusSanL-Regu-67" transform="translate(388.140497 0) scale(0.996264)"/>
      <use xlink:href="#NimbusSanL-Regu-65" transform="translate(443.532174 0) scale(0.996264)"/>
      <use xlink:href="#NimbusSanL-Regu-73" transform="translate(498.923851 0) scale(0.996264)"/>
      <use xlink:href="#NimbusSanL-Regu-3a" transform="translate(548.737051 0) scale(0.996264)"/>
      <use xlink:href="#NimbusSanL-Regu-34" transform="translate(610.701872 0) scale(0.996264)"/>
      <use xlink:href="#NimbusSanL-Regu-30" transform="translate(666.093549 0) scale(0.996264)"/>
     </g>
    </g>
    <g id="line2d_92">
     <path d="M 464.343405 206.67167 
L 478.343405 206.67167 
L 492.343405 206.67167 
" style="fill: none; stroke: #ff2c00; stroke-linecap: square"/>
     <g>
      <use xlink:href="#m2f1a5657e2" x="478.343405" y="206.67167" style="fill: #ff2c00; stroke: #ff2c00"/>
     </g>
    </g>
    <g id="text_17">
     <!-- False Edges: 60 -->
     <g transform="translate(503.543405 211.57167) scale(0.14 -0.14)">
      <use xlink:href="#NimbusSanL-Regu-46" transform="scale(0.996264)"/>
      <use xlink:href="#NimbusSanL-Regu-61" transform="translate(55.89028 0) scale(0.996264)"/>
      <use xlink:href="#NimbusSanL-Regu-6c" transform="translate(111.281957 0) scale(0.996264)"/>
      <use xlink:href="#NimbusSanL-Regu-73" transform="translate(133.398742 0) scale(0.996264)"/>
      <use xlink:href="#NimbusSanL-Regu-65" transform="translate(183.211942 0) scale(0.996264)"/>
      <use xlink:href="#NimbusSanL-Regu-45" transform="translate(266.298789 0) scale(0.996264)"/>
      <use xlink:href="#NimbusSanL-Regu-64" transform="translate(332.74882 0) scale(0.996264)"/>
      <use xlink:href="#NimbusSanL-Regu-67" transform="translate(388.140497 0) scale(0.996264)"/>
      <use xlink:href="#NimbusSanL-Regu-65" transform="translate(443.532174 0) scale(0.996264)"/>
      <use xlink:href="#NimbusSanL-Regu-73" transform="translate(498.923851 0) scale(0.996264)"/>
      <use xlink:href="#NimbusSanL-Regu-3a" transform="translate(548.737051 0) scale(0.996264)"/>
      <use xlink:href="#NimbusSanL-Regu-36" transform="translate(610.701872 0) scale(0.996264)"/>
      <use xlink:href="#NimbusSanL-Regu-30" transform="translate(666.093549 0) scale(0.996264)"/>
     </g>
    </g>
    <g id="line2d_93">
     <path d="M 464.343405 226.580096 
L 478.343405 226.580096 
L 492.343405 226.580096 
" style="fill: none; stroke: #845b97; stroke-linecap: square"/>
     <g>
      <use xlink:href="#mcd274b6851" x="478.343405" y="226.580096" style="fill: #845b97; stroke: #845b97"/>
     </g>
    </g>
    <g id="text_18">
     <!-- False Edges: 80 -->
     <g transform="translate(503.543405 231.480096) scale(0.14 -0.14)">
      <use xlink:href="#NimbusSanL-Regu-46" transform="scale(0.996264)"/>
      <use xlink:href="#NimbusSanL-Regu-61" transform="translate(55.89028 0) scale(0.996264)"/>
      <use xlink:href="#NimbusSanL-Regu-6c" transform="translate(111.281957 0) scale(0.996264)"/>
      <use xlink:href="#NimbusSanL-Regu-73" transform="translate(133.398742 0) scale(0.996264)"/>
      <use xlink:href="#NimbusSanL-Regu-65" transform="translate(183.211942 0) scale(0.996264)"/>
      <use xlink:href="#NimbusSanL-Regu-45" transform="translate(266.298789 0) scale(0.996264)"/>
      <use xlink:href="#NimbusSanL-Regu-64" transform="translate(332.74882 0) scale(0.996264)"/>
      <use xlink:href="#NimbusSanL-Regu-67" transform="translate(388.140497 0) scale(0.996264)"/>
      <use xlink:href="#NimbusSanL-Regu-65" transform="translate(443.532174 0) scale(0.996264)"/>
      <use xlink:href="#NimbusSanL-Regu-73" transform="translate(498.923851 0) scale(0.996264)"/>
      <use xlink:href="#NimbusSanL-Regu-3a" transform="translate(548.737051 0) scale(0.996264)"/>
      <use xlink:href="#NimbusSanL-Regu-38" transform="translate(610.701872 0) scale(0.996264)"/>
      <use xlink:href="#NimbusSanL-Regu-30" transform="translate(666.093549 0) scale(0.996264)"/>
     </g>
    </g>
    <g id="line2d_94">
     <path d="M 464.343405 246.488523 
L 478.343405 246.488523 
L 492.343405 246.488523 
" style="fill: none; stroke: #474747; stroke-linecap: square"/>
     <g>
      <use xlink:href="#m9d6715a327" x="478.343405" y="246.488523" style="fill: #474747; stroke: #474747"/>
     </g>
    </g>
    <g id="text_19">
     <!-- False Edges: 100 -->
     <g transform="translate(503.543405 251.388523) scale(0.14 -0.14)">
      <use xlink:href="#NimbusSanL-Regu-46" transform="scale(0.996264)"/>
      <use xlink:href="#NimbusSanL-Regu-61" transform="translate(55.89028 0) scale(0.996264)"/>
      <use xlink:href="#NimbusSanL-Regu-6c" transform="translate(111.281957 0) scale(0.996264)"/>
      <use xlink:href="#NimbusSanL-Regu-73" transform="translate(133.398742 0) scale(0.996264)"/>
      <use xlink:href="#NimbusSanL-Regu-65" transform="translate(183.211942 0) scale(0.996264)"/>
      <use xlink:href="#NimbusSanL-Regu-45" transform="translate(266.298789 0) scale(0.996264)"/>
      <use xlink:href="#NimbusSanL-Regu-64" transform="translate(332.74882 0) scale(0.996264)"/>
      <use xlink:href="#NimbusSanL-Regu-67" transform="translate(388.140497 0) scale(0.996264)"/>
      <use xlink:href="#NimbusSanL-Regu-65" transform="translate(443.532174 0) scale(0.996264)"/>
      <use xlink:href="#NimbusSanL-Regu-73" transform="translate(498.923851 0) scale(0.996264)"/>
      <use xlink:href="#NimbusSanL-Regu-3a" transform="translate(548.737051 0) scale(0.996264)"/>
      <use xlink:href="#NimbusSanL-Regu-31" transform="translate(610.701872 0) scale(0.996264)"/>
      <use xlink:href="#NimbusSanL-Regu-30" transform="translate(666.093549 0) scale(0.996264)"/>
      <use xlink:href="#NimbusSanL-Regu-30" transform="translate(721.485226 0) scale(0.996264)"/>
     </g>
    </g>
   </g>
  </g>
 </g>
 <defs>
  <clipPath id="pd8a80980cb">
   <rect x="66.906062" y="31.814022" width="558" height="332.64"/>
  </clipPath>
 </defs>
</svg>
