<?xml version="1.0" encoding="utf-8" standalone="no"?>
<!DOCTYPE svg PUBLIC "-//W3C//DTD SVG 1.1//EN"
  "http://www.w3.org/Graphics/SVG/1.1/DTD/svg11.dtd">
<svg xmlns:xlink="http://www.w3.org/1999/xlink" width="833.068477pt" height="265.280625pt" viewBox="0 0 833.068477 265.280625" xmlns="http://www.w3.org/2000/svg" version="1.1">
 <metadata>
  <rdf:RDF xmlns:dc="http://purl.org/dc/elements/1.1/" xmlns:cc="http://creativecommons.org/ns#" xmlns:rdf="http://www.w3.org/1999/02/22-rdf-syntax-ns#">
   <cc:Work>
    <dc:type rdf:resource="http://purl.org/dc/dcmitype/StillImage"/>
    <dc:date>2024-03-28T10:58:28.606523</dc:date>
    <dc:format>image/svg+xml</dc:format>
    <dc:creator>
     <cc:Agent>
      <dc:title>Matplotlib v3.8.3, https://matplotlib.org/</dc:title>
     </cc:Agent>
    </dc:creator>
   </cc:Work>
  </rdf:RDF>
 </metadata>
 <defs>
  <style type="text/css">*{stroke-linejoin: round; stroke-linecap: butt}</style>
 </defs>
 <g id="figure_1">
  <g id="patch_1">
   <path d="M 0 265.280625 
L 833.068477 265.280625 
L 833.068477 0 
L 0 0 
z
" style="fill: #ffffff"/>
  </g>
  <g id="axes_1">
   <g id="patch_2">
    <path d="M 51.560625 219.3 
L 412.337051 219.3 
L 412.337051 3.6 
L 51.560625 3.6 
z
" style="fill: #ffffff"/>
   </g>
   <g id="PolyCollection_1">
    <defs>
     <path id="m82ba8db205" d="M 67.959553 -46.562784 
L 67.959553 -45.980625 
L 69.607687 -45.980625 
L 71.25582 -45.980625 
L 72.903954 -45.980625 
L 74.552087 -45.980625 
L 76.200221 -45.980625 
L 77.848355 -45.980625 
L 79.496488 -45.980625 
L 81.144622 -45.980625 
L 82.792755 -45.980625 
L 84.440889 -45.980625 
L 86.089022 -45.980625 
L 87.737156 -45.980625 
L 89.385289 -45.980625 
L 91.033423 -45.980625 
L 92.681556 -45.980625 
L 94.32969 -45.980625 
L 95.977823 -45.980625 
L 97.625957 -45.980625 
L 99.27409 -45.980625 
L 100.922224 -45.980625 
L 102.570357 -45.980625 
L 104.218491 -45.980625 
L 105.866624 -45.980625 
L 107.514758 -45.980625 
L 109.162891 -45.980625 
L 110.811025 -45.980625 
L 112.459158 -45.980625 
L 114.107292 -45.980625 
L 115.755425 -45.980625 
L 117.403559 -45.980625 
L 119.051692 -45.980625 
L 120.699826 -45.980625 
L 122.347959 -45.980625 
L 123.996093 -45.980625 
L 125.644226 -45.980625 
L 127.29236 -45.980625 
L 128.940493 -45.980625 
L 130.588627 -45.980625 
L 132.23676 -45.980625 
L 133.884894 -45.980625 
L 135.533027 -45.980625 
L 137.181161 -45.980625 
L 138.829294 -45.980625 
L 140.477428 -45.980625 
L 142.125561 -45.980625 
L 143.773695 -45.980625 
L 145.421829 -45.980625 
L 147.069962 -45.980625 
L 148.718096 -45.980625 
L 150.366229 -45.980625 
L 152.014363 -45.980625 
L 153.662496 -45.980625 
L 155.31063 -45.980625 
L 156.958763 -45.980625 
L 158.606897 -45.980625 
L 160.25503 -45.980625 
L 161.903164 -45.980625 
L 163.551297 -45.980625 
L 165.199431 -45.980625 
L 166.847564 -45.980625 
L 168.495698 -45.980625 
L 170.143831 -45.980625 
L 171.791965 -45.980625 
L 173.440098 -45.980625 
L 175.088232 -45.980625 
L 176.736365 -45.980625 
L 178.384499 -45.980625 
L 180.032632 -45.980625 
L 181.680766 -45.980625 
L 183.328899 -45.980625 
L 184.977033 -45.980625 
L 186.625166 -45.980625 
L 188.2733 -45.980625 
L 189.921433 -45.980625 
L 191.569567 -45.980625 
L 193.2177 -45.980625 
L 194.865834 -45.980625 
L 196.513967 -45.980625 
L 198.162101 -45.980625 
L 199.810234 -45.980625 
L 201.458368 -45.980625 
L 203.106501 -45.980625 
L 204.754635 -45.980625 
L 206.402768 -45.980625 
L 208.050902 -45.980625 
L 209.699035 -45.980625 
L 211.347169 -45.980625 
L 212.995303 -45.980625 
L 214.643436 -45.980625 
L 216.29157 -45.980625 
L 217.939703 -45.980625 
L 219.587837 -45.980625 
L 221.23597 -45.980625 
L 222.884104 -45.980625 
L 224.532237 -45.980625 
L 226.180371 -45.980625 
L 227.828504 -45.980625 
L 229.476638 -45.980625 
L 231.124771 -45.980625 
L 232.772905 -45.980625 
L 234.421038 -45.980625 
L 236.069172 -45.980625 
L 237.717305 -45.980625 
L 239.365439 -45.980625 
L 241.013572 -45.980625 
L 242.661706 -45.980625 
L 244.309839 -45.980625 
L 245.957973 -45.980625 
L 247.606106 -45.980625 
L 249.25424 -45.980625 
L 250.902373 -45.980625 
L 252.550507 -45.980625 
L 254.19864 -45.980625 
L 255.846774 -45.980625 
L 257.494907 -45.980625 
L 259.143041 -45.980625 
L 260.791174 -45.980625 
L 262.439308 -45.980625 
L 264.087441 -45.980625 
L 265.735575 -45.980625 
L 267.383708 -45.980625 
L 269.031842 -45.980625 
L 270.679975 -45.980625 
L 272.328109 -45.980625 
L 273.976242 -45.980625 
L 275.624376 -45.980625 
L 277.272509 -45.980625 
L 278.920643 -45.980625 
L 280.568776 -45.980625 
L 282.21691 -45.980625 
L 283.865044 -45.980625 
L 285.513177 -45.980625 
L 287.161311 -45.980625 
L 288.809444 -45.980625 
L 290.457578 -45.980625 
L 292.105711 -45.980625 
L 293.753845 -45.980625 
L 295.401978 -45.980625 
L 297.050112 -45.980625 
L 298.698245 -45.980625 
L 300.346379 -45.980625 
L 301.994512 -45.980625 
L 303.642646 -45.980625 
L 305.290779 -45.980625 
L 306.938913 -45.980625 
L 308.587046 -45.980625 
L 310.23518 -45.980625 
L 311.883313 -45.980625 
L 313.531447 -45.980625 
L 315.17958 -45.980625 
L 316.827714 -45.980625 
L 318.475847 -45.980625 
L 320.123981 -45.980625 
L 321.772114 -45.980625 
L 323.420248 -45.980625 
L 325.068381 -45.980625 
L 326.716515 -45.980625 
L 328.364648 -45.980625 
L 330.012782 -45.980625 
L 331.660915 -45.980625 
L 333.309049 -45.980625 
L 334.957182 -45.980625 
L 336.605316 -45.980625 
L 338.253449 -45.980625 
L 339.901583 -45.980625 
L 341.549716 -45.980625 
L 343.19785 -45.980625 
L 344.845983 -45.980625 
L 346.494117 -45.980625 
L 348.14225 -45.980625 
L 349.790384 -45.980625 
L 351.438518 -45.980625 
L 353.086651 -45.980625 
L 354.734785 -45.980625 
L 356.382918 -45.980625 
L 358.031052 -45.980625 
L 359.679185 -45.980625 
L 361.327319 -45.980625 
L 362.975452 -45.980625 
L 364.623586 -45.980625 
L 366.271719 -45.980625 
L 367.919853 -45.980625 
L 369.567986 -45.980625 
L 371.21612 -45.980625 
L 372.864253 -45.980625 
L 374.512387 -45.980625 
L 376.16052 -45.980625 
L 377.808654 -45.980625 
L 379.456787 -45.980625 
L 381.104921 -45.980625 
L 382.753054 -45.980625 
L 384.401188 -45.980625 
L 386.049321 -45.980625 
L 387.697455 -45.980625 
L 389.345588 -45.980625 
L 390.993722 -45.980625 
L 392.641855 -45.980625 
L 394.289989 -45.980625 
L 395.938122 -45.980625 
L 395.938122 -46.415639 
L 395.938122 -46.415639 
L 394.289989 -46.554375 
L 392.641855 -46.730737 
L 390.993722 -46.952731 
L 389.345588 -47.229404 
L 387.697455 -47.570786 
L 386.049321 -47.987781 
L 384.401188 -48.491962 
L 382.753054 -49.095302 
L 381.104921 -49.809799 
L 379.456787 -50.647017 
L 377.808654 -51.617539 
L 376.16052 -52.730345 
L 374.512387 -53.99213 
L 372.864253 -55.406607 
L 371.21612 -56.9738 
L 369.567986 -58.689402 
L 367.919853 -60.544216 
L 366.271719 -62.523738 
L 364.623586 -64.607933 
L 362.975452 -66.771225 
L 361.327319 -68.982754 
L 359.679185 -71.2069 
L 358.031052 -73.404088 
L 356.382918 -75.531854 
L 354.734785 -77.546139 
L 353.086651 -79.402766 
L 351.438518 -81.059023 
L 349.790384 -82.475284 
L 348.14225 -83.616581 
L 346.494117 -84.454034 
L 344.845983 -84.966067 
L 343.19785 -85.139331 
L 341.549716 -84.969283 
L 339.901583 -84.460381 
L 338.253449 -83.625895 
L 336.605316 -82.487327 
L 334.957182 -81.073493 
L 333.309049 -79.419311 
L 331.660915 -77.56437 
L 330.012782 -75.55136 
L 328.364648 -73.424454 
L 326.716515 -71.227717 
L 325.068381 -69.003634 
L 323.420248 -66.791814 
L 321.772114 -64.627918 
L 320.123981 -62.542853 
L 318.475847 -60.562247 
L 316.827714 -58.706187 
L 315.17958 -56.989228 
L 313.531447 -55.420616 
L 311.883313 -54.004703 
L 310.23518 -52.741501 
L 308.587046 -51.627331 
L 306.938913 -50.655525 
L 305.290779 -49.817124 
L 303.642646 -49.101562 
L 301.994512 -48.49729 
L 300.346379 -47.992322 
L 298.698245 -47.574703 
L 297.050112 -47.23288 
L 295.401978 -46.955985 
L 293.753845 -46.734038 
L 292.105711 -46.558071 
L 290.457578 -46.420199 
L 288.809444 -46.313632 
L 287.161311 -46.232663 
L 285.513177 -46.172628 
L 283.865044 -46.129859 
L 282.21691 -46.101638 
L 280.568776 -46.086159 
L 278.920643 -46.082515 
L 277.272509 -46.090704 
L 275.624376 -46.111662 
L 273.976242 -46.14734 
L 272.328109 -46.200806 
L 270.679975 -46.276385 
L 269.031842 -46.379831 
L 267.383708 -46.518531 
L 265.735575 -46.701724 
L 264.087441 -46.940735 
L 262.439308 -47.24921 
L 260.791174 -47.643319 
L 259.143041 -48.141938 
L 257.494907 -48.766746 
L 255.846774 -49.542255 
L 254.19864 -50.495709 
L 252.550507 -51.65685 
L 250.902373 -53.057526 
L 249.25424 -54.731111 
L 247.606106 -56.711746 
L 245.957973 -59.033388 
L 244.309839 -61.728689 
L 242.661706 -64.827736 
L 241.013572 -68.356681 
L 239.365439 -72.336336 
L 237.717305 -76.780793 
L 236.069172 -81.696145 
L 234.421038 -87.07941 
L 232.772905 -92.917713 
L 231.124771 -99.187836 
L 229.476638 -105.856165 
L 227.828504 -112.879102 
L 226.180371 -120.203939 
L 224.532237 -127.770188 
L 222.884104 -135.511315 
L 221.23597 -143.356799 
L 219.587837 -151.234411 
L 217.939703 -159.072579 
L 216.29157 -166.802703 
L 214.643436 -174.36127 
L 212.995303 -181.691637 
L 211.347169 -188.745366 
L 209.699035 -195.483024 
L 208.050902 -201.874413 
L 206.402768 -207.898213 
L 204.754635 -213.541099 
L 203.106501 -218.796408 
L 201.458368 -223.662489 
L 199.810234 -228.140873 
L 198.162101 -232.234438 
L 196.513967 -235.945727 
L 194.865834 -239.275565 
L 193.2177 -242.22209 
L 191.569567 -244.780281 
L 189.921433 -246.942025 
L 188.2733 -248.696681 
L 186.625166 -250.032109 
L 184.977033 -250.936037 
L 183.328899 -251.397642 
L 181.680766 -251.409196 
L 180.032632 -250.967613 
L 178.384499 -250.075762 
L 176.736365 -248.743431 
L 175.088232 -246.987852 
L 173.440098 -244.833752 
L 171.791965 -242.312934 
L 170.143831 -239.463431 
L 168.495698 -236.328306 
L 166.847564 -232.954213 
L 165.199431 -229.389816 
L 163.551297 -225.684203 
L 161.903164 -221.885371 
L 160.25503 -218.038882 
L 158.606897 -214.18673 
L 156.958763 -210.366451 
L 155.31063 -206.610467 
L 153.662496 -202.94563 
L 152.014363 -199.392936 
L 150.366229 -195.967353 
L 148.718096 -192.677732 
L 147.069962 -189.526751 
L 145.421829 -186.510906 
L 143.773695 -183.620545 
L 142.125561 -180.83997 
L 140.477428 -178.147667 
L 138.829294 -175.516695 
L 137.181161 -172.915306 
L 135.533027 -170.307814 
L 133.884894 -167.655742 
L 132.23676 -164.919236 
L 130.588627 -162.058708 
L 128.940493 -159.03664 
L 127.29236 -155.819458 
L 125.644226 -152.379354 
L 123.996093 -148.695955 
L 122.347959 -144.757699 
L 120.699826 -140.562831 
L 119.051692 -136.119929 
L 117.403559 -131.447916 
L 115.755425 -126.575544 
L 114.107292 -121.540374 
L 112.459158 -116.387312 
L 110.811025 -111.166802 
L 109.162891 -105.932774 
L 107.514758 -100.740481 
L 105.866624 -95.644354 
L 104.218491 -90.695986 
L 102.570357 -85.942365 
L 100.922224 -81.42442 
L 99.27409 -77.17595 
L 97.625957 -73.222945 
L 95.977823 -69.583321 
L 94.32969 -66.267024 
L 92.681556 -63.276462 
L 91.033423 -60.607211 
L 89.385289 -58.248918 
L 87.737156 -56.186335 
L 86.089022 -54.400413 
L 84.440889 -52.869385 
L 82.792755 -51.569808 
L 81.144622 -50.477491 
L 79.496488 -49.568313 
L 77.848355 -48.818887 
L 76.200221 -48.207083 
L 74.552087 -47.712405 
L 72.903954 -47.316238 
L 71.25582 -47.001968 
L 69.607687 -46.755016 
L 67.959553 -46.562784 
z
" style="stroke: #009ade"/>
    </defs>
    <g clip-path="url(#pd7ff4233c7)">
     <use xlink:href="#m82ba8db205" x="0" y="265.280625" style="fill: #009ade; fill-opacity: 0.7; stroke: #009ade"/>
    </g>
   </g>
   <g id="matplotlib.axis_1">
    <g id="xtick_1">
     <g id="line2d_1">
      <defs>
       <path id="m16990b7c4b" d="M 0 0 
L 0 -3 
" style="stroke: #000000; stroke-width: 0.5"/>
      </defs>
      <g>
       <use xlink:href="#m16990b7c4b" x="76.233066" y="219.3" style="stroke: #000000; stroke-width: 0.5"/>
      </g>
     </g>
     <g id="line2d_2">
      <defs>
       <path id="m3d08ae9258" d="M 0 0 
L 0 3 
" style="stroke: #000000; stroke-width: 0.5"/>
      </defs>
      <g>
       <use xlink:href="#m3d08ae9258" x="76.233066" y="3.6" style="stroke: #000000; stroke-width: 0.5"/>
      </g>
     </g>
     <g id="text_1">
      <!-- $\mathdefault{1.72}$ -->
      <g transform="translate(56.883066 236.477187) scale(0.18 -0.18)">
       <defs>
        <path id="DejaVuSans-31" d="M 794 531 
L 1825 531 
L 1825 4091 
L 703 3866 
L 703 4441 
L 1819 4666 
L 2450 4666 
L 2450 531 
L 3481 531 
L 3481 0 
L 794 0 
L 794 531 
z
" transform="scale(0.015625)"/>
        <path id="DejaVuSans-2e" d="M 684 794 
L 1344 794 
L 1344 0 
L 684 0 
L 684 794 
z
" transform="scale(0.015625)"/>
        <path id="DejaVuSans-37" d="M 525 4666 
L 3525 4666 
L 3525 4397 
L 1831 0 
L 1172 0 
L 2766 4134 
L 525 4134 
L 525 4666 
z
" transform="scale(0.015625)"/>
        <path id="DejaVuSans-32" d="M 1228 531 
L 3431 531 
L 3431 0 
L 469 0 
L 469 531 
Q 828 903 1448 1529 
Q 2069 2156 2228 2338 
Q 2531 2678 2651 2914 
Q 2772 3150 2772 3378 
Q 2772 3750 2511 3984 
Q 2250 4219 1831 4219 
Q 1534 4219 1204 4116 
Q 875 4013 500 3803 
L 500 4441 
Q 881 4594 1212 4672 
Q 1544 4750 1819 4750 
Q 2544 4750 2975 4387 
Q 3406 4025 3406 3419 
Q 3406 3131 3298 2873 
Q 3191 2616 2906 2266 
Q 2828 2175 2409 1742 
Q 1991 1309 1228 531 
z
" transform="scale(0.015625)"/>
       </defs>
       <use xlink:href="#DejaVuSans-31" transform="translate(0 0.78125)"/>
       <use xlink:href="#DejaVuSans-2e" transform="translate(63.623047 0.78125)"/>
       <use xlink:href="#DejaVuSans-37" transform="translate(87.660156 0.78125)"/>
       <use xlink:href="#DejaVuSans-32" transform="translate(151.283203 0.78125)"/>
      </g>
     </g>
    </g>
    <g id="xtick_2">
     <g id="line2d_3">
      <g>
       <use xlink:href="#m16990b7c4b" x="149.453439" y="219.3" style="stroke: #000000; stroke-width: 0.5"/>
      </g>
     </g>
     <g id="line2d_4">
      <g>
       <use xlink:href="#m3d08ae9258" x="149.453439" y="3.6" style="stroke: #000000; stroke-width: 0.5"/>
      </g>
     </g>
     <g id="text_2">
      <!-- $\mathdefault{1.74}$ -->
      <g transform="translate(130.103439 236.477187) scale(0.18 -0.18)">
       <defs>
        <path id="DejaVuSans-34" d="M 2419 4116 
L 825 1625 
L 2419 1625 
L 2419 4116 
z
M 2253 4666 
L 3047 4666 
L 3047 1625 
L 3713 1625 
L 3713 1100 
L 3047 1100 
L 3047 0 
L 2419 0 
L 2419 1100 
L 313 1100 
L 313 1709 
L 2253 4666 
z
" transform="scale(0.015625)"/>
       </defs>
       <use xlink:href="#DejaVuSans-31" transform="translate(0 0.09375)"/>
       <use xlink:href="#DejaVuSans-2e" transform="translate(63.623047 0.09375)"/>
       <use xlink:href="#DejaVuSans-37" transform="translate(87.660156 0.09375)"/>
       <use xlink:href="#DejaVuSans-34" transform="translate(151.283203 0.09375)"/>
      </g>
     </g>
    </g>
    <g id="xtick_3">
     <g id="line2d_5">
      <g>
       <use xlink:href="#m16990b7c4b" x="222.673812" y="219.3" style="stroke: #000000; stroke-width: 0.5"/>
      </g>
     </g>
     <g id="line2d_6">
      <g>
       <use xlink:href="#m3d08ae9258" x="222.673812" y="3.6" style="stroke: #000000; stroke-width: 0.5"/>
      </g>
     </g>
     <g id="text_3">
      <!-- $\mathdefault{1.76}$ -->
      <g transform="translate(203.323812 236.477187) scale(0.18 -0.18)">
       <defs>
        <path id="DejaVuSans-36" d="M 2113 2584 
Q 1688 2584 1439 2293 
Q 1191 2003 1191 1497 
Q 1191 994 1439 701 
Q 1688 409 2113 409 
Q 2538 409 2786 701 
Q 3034 994 3034 1497 
Q 3034 2003 2786 2293 
Q 2538 2584 2113 2584 
z
M 3366 4563 
L 3366 3988 
Q 3128 4100 2886 4159 
Q 2644 4219 2406 4219 
Q 1781 4219 1451 3797 
Q 1122 3375 1075 2522 
Q 1259 2794 1537 2939 
Q 1816 3084 2150 3084 
Q 2853 3084 3261 2657 
Q 3669 2231 3669 1497 
Q 3669 778 3244 343 
Q 2819 -91 2113 -91 
Q 1303 -91 875 529 
Q 447 1150 447 2328 
Q 447 3434 972 4092 
Q 1497 4750 2381 4750 
Q 2619 4750 2861 4703 
Q 3103 4656 3366 4563 
z
" transform="scale(0.015625)"/>
       </defs>
       <use xlink:href="#DejaVuSans-31" transform="translate(0 0.78125)"/>
       <use xlink:href="#DejaVuSans-2e" transform="translate(63.623047 0.78125)"/>
       <use xlink:href="#DejaVuSans-37" transform="translate(87.660156 0.78125)"/>
       <use xlink:href="#DejaVuSans-36" transform="translate(151.283203 0.78125)"/>
      </g>
     </g>
    </g>
    <g id="xtick_4">
     <g id="line2d_7">
      <g>
       <use xlink:href="#m16990b7c4b" x="295.894185" y="219.3" style="stroke: #000000; stroke-width: 0.5"/>
      </g>
     </g>
     <g id="line2d_8">
      <g>
       <use xlink:href="#m3d08ae9258" x="295.894185" y="3.6" style="stroke: #000000; stroke-width: 0.5"/>
      </g>
     </g>
     <g id="text_4">
      <!-- $\mathdefault{1.78}$ -->
      <g transform="translate(276.544185 236.477187) scale(0.18 -0.18)">
       <defs>
        <path id="DejaVuSans-38" d="M 2034 2216 
Q 1584 2216 1326 1975 
Q 1069 1734 1069 1313 
Q 1069 891 1326 650 
Q 1584 409 2034 409 
Q 2484 409 2743 651 
Q 3003 894 3003 1313 
Q 3003 1734 2745 1975 
Q 2488 2216 2034 2216 
z
M 1403 2484 
Q 997 2584 770 2862 
Q 544 3141 544 3541 
Q 544 4100 942 4425 
Q 1341 4750 2034 4750 
Q 2731 4750 3128 4425 
Q 3525 4100 3525 3541 
Q 3525 3141 3298 2862 
Q 3072 2584 2669 2484 
Q 3125 2378 3379 2068 
Q 3634 1759 3634 1313 
Q 3634 634 3220 271 
Q 2806 -91 2034 -91 
Q 1263 -91 848 271 
Q 434 634 434 1313 
Q 434 1759 690 2068 
Q 947 2378 1403 2484 
z
M 1172 3481 
Q 1172 3119 1398 2916 
Q 1625 2713 2034 2713 
Q 2441 2713 2670 2916 
Q 2900 3119 2900 3481 
Q 2900 3844 2670 4047 
Q 2441 4250 2034 4250 
Q 1625 4250 1398 4047 
Q 1172 3844 1172 3481 
z
" transform="scale(0.015625)"/>
       </defs>
       <use xlink:href="#DejaVuSans-31" transform="translate(0 0.78125)"/>
       <use xlink:href="#DejaVuSans-2e" transform="translate(63.623047 0.78125)"/>
       <use xlink:href="#DejaVuSans-37" transform="translate(87.660156 0.78125)"/>
       <use xlink:href="#DejaVuSans-38" transform="translate(151.283203 0.78125)"/>
      </g>
     </g>
    </g>
    <g id="xtick_5">
     <g id="line2d_9">
      <g>
       <use xlink:href="#m16990b7c4b" x="369.114558" y="219.3" style="stroke: #000000; stroke-width: 0.5"/>
      </g>
     </g>
     <g id="line2d_10">
      <g>
       <use xlink:href="#m3d08ae9258" x="369.114558" y="3.6" style="stroke: #000000; stroke-width: 0.5"/>
      </g>
     </g>
     <g id="text_5">
      <!-- $\mathdefault{1.80}$ -->
      <g transform="translate(349.224558 236.477187) scale(0.18 -0.18)">
       <defs>
        <path id="DejaVuSans-30" d="M 2034 4250 
Q 1547 4250 1301 3770 
Q 1056 3291 1056 2328 
Q 1056 1369 1301 889 
Q 1547 409 2034 409 
Q 2525 409 2770 889 
Q 3016 1369 3016 2328 
Q 3016 3291 2770 3770 
Q 2525 4250 2034 4250 
z
M 2034 4750 
Q 2819 4750 3233 4129 
Q 3647 3509 3647 2328 
Q 3647 1150 3233 529 
Q 2819 -91 2034 -91 
Q 1250 -91 836 529 
Q 422 1150 422 2328 
Q 422 3509 836 4129 
Q 1250 4750 2034 4750 
z
" transform="scale(0.015625)"/>
       </defs>
       <use xlink:href="#DejaVuSans-31" transform="translate(0 0.78125)"/>
       <use xlink:href="#DejaVuSans-2e" transform="translate(63.623047 0.78125)"/>
       <use xlink:href="#DejaVuSans-38" transform="translate(92.785156 0.78125)"/>
       <use xlink:href="#DejaVuSans-30" transform="translate(156.408203 0.78125)"/>
      </g>
     </g>
    </g>
    <g id="xtick_6">
     <g id="line2d_11">
      <defs>
       <path id="m9a72160977" d="M 0 0 
L 0 -1.5 
" style="stroke: #000000; stroke-width: 0.5"/>
      </defs>
      <g>
       <use xlink:href="#m9a72160977" x="57.927973" y="219.3" style="stroke: #000000; stroke-width: 0.5"/>
      </g>
     </g>
     <g id="line2d_12">
      <defs>
       <path id="m56d1da1049" d="M 0 0 
L 0 1.5 
" style="stroke: #000000; stroke-width: 0.5"/>
      </defs>
      <g>
       <use xlink:href="#m56d1da1049" x="57.927973" y="3.6" style="stroke: #000000; stroke-width: 0.5"/>
      </g>
     </g>
    </g>
    <g id="xtick_7">
     <g id="line2d_13">
      <g>
       <use xlink:href="#m9a72160977" x="94.538159" y="219.3" style="stroke: #000000; stroke-width: 0.5"/>
      </g>
     </g>
     <g id="line2d_14">
      <g>
       <use xlink:href="#m56d1da1049" x="94.538159" y="3.6" style="stroke: #000000; stroke-width: 0.5"/>
      </g>
     </g>
    </g>
    <g id="xtick_8">
     <g id="line2d_15">
      <g>
       <use xlink:href="#m9a72160977" x="112.843253" y="219.3" style="stroke: #000000; stroke-width: 0.5"/>
      </g>
     </g>
     <g id="line2d_16">
      <g>
       <use xlink:href="#m56d1da1049" x="112.843253" y="3.6" style="stroke: #000000; stroke-width: 0.5"/>
      </g>
     </g>
    </g>
    <g id="xtick_9">
     <g id="line2d_17">
      <g>
       <use xlink:href="#m9a72160977" x="131.148346" y="219.3" style="stroke: #000000; stroke-width: 0.5"/>
      </g>
     </g>
     <g id="line2d_18">
      <g>
       <use xlink:href="#m56d1da1049" x="131.148346" y="3.6" style="stroke: #000000; stroke-width: 0.5"/>
      </g>
     </g>
    </g>
    <g id="xtick_10">
     <g id="line2d_19">
      <g>
       <use xlink:href="#m9a72160977" x="167.758532" y="219.3" style="stroke: #000000; stroke-width: 0.5"/>
      </g>
     </g>
     <g id="line2d_20">
      <g>
       <use xlink:href="#m56d1da1049" x="167.758532" y="3.6" style="stroke: #000000; stroke-width: 0.5"/>
      </g>
     </g>
    </g>
    <g id="xtick_11">
     <g id="line2d_21">
      <g>
       <use xlink:href="#m9a72160977" x="186.063625" y="219.3" style="stroke: #000000; stroke-width: 0.5"/>
      </g>
     </g>
     <g id="line2d_22">
      <g>
       <use xlink:href="#m56d1da1049" x="186.063625" y="3.6" style="stroke: #000000; stroke-width: 0.5"/>
      </g>
     </g>
    </g>
    <g id="xtick_12">
     <g id="line2d_23">
      <g>
       <use xlink:href="#m9a72160977" x="204.368719" y="219.3" style="stroke: #000000; stroke-width: 0.5"/>
      </g>
     </g>
     <g id="line2d_24">
      <g>
       <use xlink:href="#m56d1da1049" x="204.368719" y="3.6" style="stroke: #000000; stroke-width: 0.5"/>
      </g>
     </g>
    </g>
    <g id="xtick_13">
     <g id="line2d_25">
      <g>
       <use xlink:href="#m9a72160977" x="240.978905" y="219.3" style="stroke: #000000; stroke-width: 0.5"/>
      </g>
     </g>
     <g id="line2d_26">
      <g>
       <use xlink:href="#m56d1da1049" x="240.978905" y="3.6" style="stroke: #000000; stroke-width: 0.5"/>
      </g>
     </g>
    </g>
    <g id="xtick_14">
     <g id="line2d_27">
      <g>
       <use xlink:href="#m9a72160977" x="259.283998" y="219.3" style="stroke: #000000; stroke-width: 0.5"/>
      </g>
     </g>
     <g id="line2d_28">
      <g>
       <use xlink:href="#m56d1da1049" x="259.283998" y="3.6" style="stroke: #000000; stroke-width: 0.5"/>
      </g>
     </g>
    </g>
    <g id="xtick_15">
     <g id="line2d_29">
      <g>
       <use xlink:href="#m9a72160977" x="277.589091" y="219.3" style="stroke: #000000; stroke-width: 0.5"/>
      </g>
     </g>
     <g id="line2d_30">
      <g>
       <use xlink:href="#m56d1da1049" x="277.589091" y="3.6" style="stroke: #000000; stroke-width: 0.5"/>
      </g>
     </g>
    </g>
    <g id="xtick_16">
     <g id="line2d_31">
      <g>
       <use xlink:href="#m9a72160977" x="314.199278" y="219.3" style="stroke: #000000; stroke-width: 0.5"/>
      </g>
     </g>
     <g id="line2d_32">
      <g>
       <use xlink:href="#m56d1da1049" x="314.199278" y="3.6" style="stroke: #000000; stroke-width: 0.5"/>
      </g>
     </g>
    </g>
    <g id="xtick_17">
     <g id="line2d_33">
      <g>
       <use xlink:href="#m9a72160977" x="332.504371" y="219.3" style="stroke: #000000; stroke-width: 0.5"/>
      </g>
     </g>
     <g id="line2d_34">
      <g>
       <use xlink:href="#m56d1da1049" x="332.504371" y="3.6" style="stroke: #000000; stroke-width: 0.5"/>
      </g>
     </g>
    </g>
    <g id="xtick_18">
     <g id="line2d_35">
      <g>
       <use xlink:href="#m9a72160977" x="350.809464" y="219.3" style="stroke: #000000; stroke-width: 0.5"/>
      </g>
     </g>
     <g id="line2d_36">
      <g>
       <use xlink:href="#m56d1da1049" x="350.809464" y="3.6" style="stroke: #000000; stroke-width: 0.5"/>
      </g>
     </g>
    </g>
    <g id="xtick_19">
     <g id="line2d_37">
      <g>
       <use xlink:href="#m9a72160977" x="387.419651" y="219.3" style="stroke: #000000; stroke-width: 0.5"/>
      </g>
     </g>
     <g id="line2d_38">
      <g>
       <use xlink:href="#m56d1da1049" x="387.419651" y="3.6" style="stroke: #000000; stroke-width: 0.5"/>
      </g>
     </g>
    </g>
    <g id="xtick_20">
     <g id="line2d_39">
      <g>
       <use xlink:href="#m9a72160977" x="405.724744" y="219.3" style="stroke: #000000; stroke-width: 0.5"/>
      </g>
     </g>
     <g id="line2d_40">
      <g>
       <use xlink:href="#m56d1da1049" x="405.724744" y="3.6" style="stroke: #000000; stroke-width: 0.5"/>
      </g>
     </g>
    </g>
    <g id="text_6">
     <!-- Predicted Dimension -->
     <g transform="translate(139.00415 257.897812) scale(0.18 -0.18)">
      <defs>
       <path id="DejaVuSans-50" d="M 1259 4147 
L 1259 2394 
L 2053 2394 
Q 2494 2394 2734 2622 
Q 2975 2850 2975 3272 
Q 2975 3691 2734 3919 
Q 2494 4147 2053 4147 
L 1259 4147 
z
M 628 4666 
L 2053 4666 
Q 2838 4666 3239 4311 
Q 3641 3956 3641 3272 
Q 3641 2581 3239 2228 
Q 2838 1875 2053 1875 
L 1259 1875 
L 1259 0 
L 628 0 
L 628 4666 
z
" transform="scale(0.015625)"/>
       <path id="DejaVuSans-72" d="M 2631 2963 
Q 2534 3019 2420 3045 
Q 2306 3072 2169 3072 
Q 1681 3072 1420 2755 
Q 1159 2438 1159 1844 
L 1159 0 
L 581 0 
L 581 3500 
L 1159 3500 
L 1159 2956 
Q 1341 3275 1631 3429 
Q 1922 3584 2338 3584 
Q 2397 3584 2469 3576 
Q 2541 3569 2628 3553 
L 2631 2963 
z
" transform="scale(0.015625)"/>
       <path id="DejaVuSans-65" d="M 3597 1894 
L 3597 1613 
L 953 1613 
Q 991 1019 1311 708 
Q 1631 397 2203 397 
Q 2534 397 2845 478 
Q 3156 559 3463 722 
L 3463 178 
Q 3153 47 2828 -22 
Q 2503 -91 2169 -91 
Q 1331 -91 842 396 
Q 353 884 353 1716 
Q 353 2575 817 3079 
Q 1281 3584 2069 3584 
Q 2775 3584 3186 3129 
Q 3597 2675 3597 1894 
z
M 3022 2063 
Q 3016 2534 2758 2815 
Q 2500 3097 2075 3097 
Q 1594 3097 1305 2825 
Q 1016 2553 972 2059 
L 3022 2063 
z
" transform="scale(0.015625)"/>
       <path id="DejaVuSans-64" d="M 2906 2969 
L 2906 4863 
L 3481 4863 
L 3481 0 
L 2906 0 
L 2906 525 
Q 2725 213 2448 61 
Q 2172 -91 1784 -91 
Q 1150 -91 751 415 
Q 353 922 353 1747 
Q 353 2572 751 3078 
Q 1150 3584 1784 3584 
Q 2172 3584 2448 3432 
Q 2725 3281 2906 2969 
z
M 947 1747 
Q 947 1113 1208 752 
Q 1469 391 1925 391 
Q 2381 391 2643 752 
Q 2906 1113 2906 1747 
Q 2906 2381 2643 2742 
Q 2381 3103 1925 3103 
Q 1469 3103 1208 2742 
Q 947 2381 947 1747 
z
" transform="scale(0.015625)"/>
       <path id="DejaVuSans-69" d="M 603 3500 
L 1178 3500 
L 1178 0 
L 603 0 
L 603 3500 
z
M 603 4863 
L 1178 4863 
L 1178 4134 
L 603 4134 
L 603 4863 
z
" transform="scale(0.015625)"/>
       <path id="DejaVuSans-63" d="M 3122 3366 
L 3122 2828 
Q 2878 2963 2633 3030 
Q 2388 3097 2138 3097 
Q 1578 3097 1268 2742 
Q 959 2388 959 1747 
Q 959 1106 1268 751 
Q 1578 397 2138 397 
Q 2388 397 2633 464 
Q 2878 531 3122 666 
L 3122 134 
Q 2881 22 2623 -34 
Q 2366 -91 2075 -91 
Q 1284 -91 818 406 
Q 353 903 353 1747 
Q 353 2603 823 3093 
Q 1294 3584 2113 3584 
Q 2378 3584 2631 3529 
Q 2884 3475 3122 3366 
z
" transform="scale(0.015625)"/>
       <path id="DejaVuSans-74" d="M 1172 4494 
L 1172 3500 
L 2356 3500 
L 2356 3053 
L 1172 3053 
L 1172 1153 
Q 1172 725 1289 603 
Q 1406 481 1766 481 
L 2356 481 
L 2356 0 
L 1766 0 
Q 1100 0 847 248 
Q 594 497 594 1153 
L 594 3053 
L 172 3053 
L 172 3500 
L 594 3500 
L 594 4494 
L 1172 4494 
z
" transform="scale(0.015625)"/>
       <path id="DejaVuSans-20" transform="scale(0.015625)"/>
       <path id="DejaVuSans-44" d="M 1259 4147 
L 1259 519 
L 2022 519 
Q 2988 519 3436 956 
Q 3884 1394 3884 2338 
Q 3884 3275 3436 3711 
Q 2988 4147 2022 4147 
L 1259 4147 
z
M 628 4666 
L 1925 4666 
Q 3281 4666 3915 4102 
Q 4550 3538 4550 2338 
Q 4550 1131 3912 565 
Q 3275 0 1925 0 
L 628 0 
L 628 4666 
z
" transform="scale(0.015625)"/>
       <path id="DejaVuSans-6d" d="M 3328 2828 
Q 3544 3216 3844 3400 
Q 4144 3584 4550 3584 
Q 5097 3584 5394 3201 
Q 5691 2819 5691 2113 
L 5691 0 
L 5113 0 
L 5113 2094 
Q 5113 2597 4934 2840 
Q 4756 3084 4391 3084 
Q 3944 3084 3684 2787 
Q 3425 2491 3425 1978 
L 3425 0 
L 2847 0 
L 2847 2094 
Q 2847 2600 2669 2842 
Q 2491 3084 2119 3084 
Q 1678 3084 1418 2786 
Q 1159 2488 1159 1978 
L 1159 0 
L 581 0 
L 581 3500 
L 1159 3500 
L 1159 2956 
Q 1356 3278 1631 3431 
Q 1906 3584 2284 3584 
Q 2666 3584 2933 3390 
Q 3200 3197 3328 2828 
z
" transform="scale(0.015625)"/>
       <path id="DejaVuSans-6e" d="M 3513 2113 
L 3513 0 
L 2938 0 
L 2938 2094 
Q 2938 2591 2744 2837 
Q 2550 3084 2163 3084 
Q 1697 3084 1428 2787 
Q 1159 2491 1159 1978 
L 1159 0 
L 581 0 
L 581 3500 
L 1159 3500 
L 1159 2956 
Q 1366 3272 1645 3428 
Q 1925 3584 2291 3584 
Q 2894 3584 3203 3211 
Q 3513 2838 3513 2113 
z
" transform="scale(0.015625)"/>
       <path id="DejaVuSans-73" d="M 2834 3397 
L 2834 2853 
Q 2591 2978 2328 3040 
Q 2066 3103 1784 3103 
Q 1356 3103 1142 2972 
Q 928 2841 928 2578 
Q 928 2378 1081 2264 
Q 1234 2150 1697 2047 
L 1894 2003 
Q 2506 1872 2764 1633 
Q 3022 1394 3022 966 
Q 3022 478 2636 193 
Q 2250 -91 1575 -91 
Q 1294 -91 989 -36 
Q 684 19 347 128 
L 347 722 
Q 666 556 975 473 
Q 1284 391 1588 391 
Q 1994 391 2212 530 
Q 2431 669 2431 922 
Q 2431 1156 2273 1281 
Q 2116 1406 1581 1522 
L 1381 1569 
Q 847 1681 609 1914 
Q 372 2147 372 2553 
Q 372 3047 722 3315 
Q 1072 3584 1716 3584 
Q 2034 3584 2315 3537 
Q 2597 3491 2834 3397 
z
" transform="scale(0.015625)"/>
       <path id="DejaVuSans-6f" d="M 1959 3097 
Q 1497 3097 1228 2736 
Q 959 2375 959 1747 
Q 959 1119 1226 758 
Q 1494 397 1959 397 
Q 2419 397 2687 759 
Q 2956 1122 2956 1747 
Q 2956 2369 2687 2733 
Q 2419 3097 1959 3097 
z
M 1959 3584 
Q 2709 3584 3137 3096 
Q 3566 2609 3566 1747 
Q 3566 888 3137 398 
Q 2709 -91 1959 -91 
Q 1206 -91 779 398 
Q 353 888 353 1747 
Q 353 2609 779 3096 
Q 1206 3584 1959 3584 
z
" transform="scale(0.015625)"/>
      </defs>
      <use xlink:href="#DejaVuSans-50"/>
      <use xlink:href="#DejaVuSans-72" x="58.552734"/>
      <use xlink:href="#DejaVuSans-65" x="97.416016"/>
      <use xlink:href="#DejaVuSans-64" x="158.939453"/>
      <use xlink:href="#DejaVuSans-69" x="222.416016"/>
      <use xlink:href="#DejaVuSans-63" x="250.199219"/>
      <use xlink:href="#DejaVuSans-74" x="305.179688"/>
      <use xlink:href="#DejaVuSans-65" x="344.388672"/>
      <use xlink:href="#DejaVuSans-64" x="405.912109"/>
      <use xlink:href="#DejaVuSans-20" x="469.388672"/>
      <use xlink:href="#DejaVuSans-44" x="501.175781"/>
      <use xlink:href="#DejaVuSans-69" x="578.177734"/>
      <use xlink:href="#DejaVuSans-6d" x="605.960938"/>
      <use xlink:href="#DejaVuSans-65" x="703.373047"/>
      <use xlink:href="#DejaVuSans-6e" x="764.896484"/>
      <use xlink:href="#DejaVuSans-73" x="828.275391"/>
      <use xlink:href="#DejaVuSans-69" x="880.375"/>
      <use xlink:href="#DejaVuSans-6f" x="908.158203"/>
      <use xlink:href="#DejaVuSans-6e" x="969.339844"/>
     </g>
    </g>
   </g>
   <g id="matplotlib.axis_2">
    <g id="ytick_1">
     <g id="line2d_41">
      <defs>
       <path id="m0c018dfacd" d="M 0 0 
L 3 0 
" style="stroke: #000000; stroke-width: 0.5"/>
      </defs>
      <g>
       <use xlink:href="#m0c018dfacd" x="51.560625" y="219.3" style="stroke: #000000; stroke-width: 0.5"/>
      </g>
     </g>
     <g id="line2d_42">
      <defs>
       <path id="mf3cac76d1b" d="M 0 0 
L -3 0 
" style="stroke: #000000; stroke-width: 0.5"/>
      </defs>
      <g>
       <use xlink:href="#mf3cac76d1b" x="412.337051" y="219.3" style="stroke: #000000; stroke-width: 0.5"/>
      </g>
     </g>
     <g id="text_7">
      <!-- $\mathdefault{0}$ -->
      <g transform="translate(36.540625 226.138594) scale(0.18 -0.18)">
       <use xlink:href="#DejaVuSans-30" transform="translate(0 0.78125)"/>
      </g>
     </g>
    </g>
    <g id="ytick_2">
     <g id="line2d_43">
      <g>
       <use xlink:href="#m0c018dfacd" x="51.560625" y="162.730489" style="stroke: #000000; stroke-width: 0.5"/>
      </g>
     </g>
     <g id="line2d_44">
      <g>
       <use xlink:href="#mf3cac76d1b" x="412.337051" y="162.730489" style="stroke: #000000; stroke-width: 0.5"/>
      </g>
     </g>
     <g id="text_8">
      <!-- $\mathdefault{10}$ -->
      <g transform="translate(25.020625 169.569082) scale(0.18 -0.18)">
       <use xlink:href="#DejaVuSans-31" transform="translate(0 0.78125)"/>
       <use xlink:href="#DejaVuSans-30" transform="translate(63.623047 0.78125)"/>
      </g>
     </g>
    </g>
    <g id="ytick_3">
     <g id="line2d_45">
      <g>
       <use xlink:href="#m0c018dfacd" x="51.560625" y="106.160977" style="stroke: #000000; stroke-width: 0.5"/>
      </g>
     </g>
     <g id="line2d_46">
      <g>
       <use xlink:href="#mf3cac76d1b" x="412.337051" y="106.160977" style="stroke: #000000; stroke-width: 0.5"/>
      </g>
     </g>
     <g id="text_9">
      <!-- $\mathdefault{20}$ -->
      <g transform="translate(25.020625 112.999571) scale(0.18 -0.18)">
       <use xlink:href="#DejaVuSans-32" transform="translate(0 0.78125)"/>
       <use xlink:href="#DejaVuSans-30" transform="translate(63.623047 0.78125)"/>
      </g>
     </g>
    </g>
    <g id="ytick_4">
     <g id="line2d_47">
      <g>
       <use xlink:href="#m0c018dfacd" x="51.560625" y="49.591466" style="stroke: #000000; stroke-width: 0.5"/>
      </g>
     </g>
     <g id="line2d_48">
      <g>
       <use xlink:href="#mf3cac76d1b" x="412.337051" y="49.591466" style="stroke: #000000; stroke-width: 0.5"/>
      </g>
     </g>
     <g id="text_10">
      <!-- $\mathdefault{30}$ -->
      <g transform="translate(25.020625 56.43006) scale(0.18 -0.18)">
       <defs>
        <path id="DejaVuSans-33" d="M 2597 2516 
Q 3050 2419 3304 2112 
Q 3559 1806 3559 1356 
Q 3559 666 3084 287 
Q 2609 -91 1734 -91 
Q 1441 -91 1130 -33 
Q 819 25 488 141 
L 488 750 
Q 750 597 1062 519 
Q 1375 441 1716 441 
Q 2309 441 2620 675 
Q 2931 909 2931 1356 
Q 2931 1769 2642 2001 
Q 2353 2234 1838 2234 
L 1294 2234 
L 1294 2753 
L 1863 2753 
Q 2328 2753 2575 2939 
Q 2822 3125 2822 3475 
Q 2822 3834 2567 4026 
Q 2313 4219 1838 4219 
Q 1578 4219 1281 4162 
Q 984 4106 628 3988 
L 628 4550 
Q 988 4650 1302 4700 
Q 1616 4750 1894 4750 
Q 2613 4750 3031 4423 
Q 3450 4097 3450 3541 
Q 3450 3153 3228 2886 
Q 3006 2619 2597 2516 
z
" transform="scale(0.015625)"/>
       </defs>
       <use xlink:href="#DejaVuSans-33" transform="translate(0 0.78125)"/>
       <use xlink:href="#DejaVuSans-30" transform="translate(63.623047 0.78125)"/>
      </g>
     </g>
    </g>
    <g id="ytick_5">
     <g id="line2d_49">
      <defs>
       <path id="m0b6aec7857" d="M 0 0 
L 1.5 0 
" style="stroke: #000000; stroke-width: 0.5"/>
      </defs>
      <g>
       <use xlink:href="#m0b6aec7857" x="51.560625" y="207.986098" style="stroke: #000000; stroke-width: 0.5"/>
      </g>
     </g>
     <g id="line2d_50">
      <defs>
       <path id="mb81434b758" d="M 0 0 
L -1.5 0 
" style="stroke: #000000; stroke-width: 0.5"/>
      </defs>
      <g>
       <use xlink:href="#mb81434b758" x="412.337051" y="207.986098" style="stroke: #000000; stroke-width: 0.5"/>
      </g>
     </g>
    </g>
    <g id="ytick_6">
     <g id="line2d_51">
      <g>
       <use xlink:href="#m0b6aec7857" x="51.560625" y="196.672195" style="stroke: #000000; stroke-width: 0.5"/>
      </g>
     </g>
     <g id="line2d_52">
      <g>
       <use xlink:href="#mb81434b758" x="412.337051" y="196.672195" style="stroke: #000000; stroke-width: 0.5"/>
      </g>
     </g>
    </g>
    <g id="ytick_7">
     <g id="line2d_53">
      <g>
       <use xlink:href="#m0b6aec7857" x="51.560625" y="185.358293" style="stroke: #000000; stroke-width: 0.5"/>
      </g>
     </g>
     <g id="line2d_54">
      <g>
       <use xlink:href="#mb81434b758" x="412.337051" y="185.358293" style="stroke: #000000; stroke-width: 0.5"/>
      </g>
     </g>
    </g>
    <g id="ytick_8">
     <g id="line2d_55">
      <g>
       <use xlink:href="#m0b6aec7857" x="51.560625" y="174.044391" style="stroke: #000000; stroke-width: 0.5"/>
      </g>
     </g>
     <g id="line2d_56">
      <g>
       <use xlink:href="#mb81434b758" x="412.337051" y="174.044391" style="stroke: #000000; stroke-width: 0.5"/>
      </g>
     </g>
    </g>
    <g id="ytick_9">
     <g id="line2d_57">
      <g>
       <use xlink:href="#m0b6aec7857" x="51.560625" y="151.416586" style="stroke: #000000; stroke-width: 0.5"/>
      </g>
     </g>
     <g id="line2d_58">
      <g>
       <use xlink:href="#mb81434b758" x="412.337051" y="151.416586" style="stroke: #000000; stroke-width: 0.5"/>
      </g>
     </g>
    </g>
    <g id="ytick_10">
     <g id="line2d_59">
      <g>
       <use xlink:href="#m0b6aec7857" x="51.560625" y="140.102684" style="stroke: #000000; stroke-width: 0.5"/>
      </g>
     </g>
     <g id="line2d_60">
      <g>
       <use xlink:href="#mb81434b758" x="412.337051" y="140.102684" style="stroke: #000000; stroke-width: 0.5"/>
      </g>
     </g>
    </g>
    <g id="ytick_11">
     <g id="line2d_61">
      <g>
       <use xlink:href="#m0b6aec7857" x="51.560625" y="128.788782" style="stroke: #000000; stroke-width: 0.5"/>
      </g>
     </g>
     <g id="line2d_62">
      <g>
       <use xlink:href="#mb81434b758" x="412.337051" y="128.788782" style="stroke: #000000; stroke-width: 0.5"/>
      </g>
     </g>
    </g>
    <g id="ytick_12">
     <g id="line2d_63">
      <g>
       <use xlink:href="#m0b6aec7857" x="51.560625" y="117.47488" style="stroke: #000000; stroke-width: 0.5"/>
      </g>
     </g>
     <g id="line2d_64">
      <g>
       <use xlink:href="#mb81434b758" x="412.337051" y="117.47488" style="stroke: #000000; stroke-width: 0.5"/>
      </g>
     </g>
    </g>
    <g id="ytick_13">
     <g id="line2d_65">
      <g>
       <use xlink:href="#m0b6aec7857" x="51.560625" y="94.847075" style="stroke: #000000; stroke-width: 0.5"/>
      </g>
     </g>
     <g id="line2d_66">
      <g>
       <use xlink:href="#mb81434b758" x="412.337051" y="94.847075" style="stroke: #000000; stroke-width: 0.5"/>
      </g>
     </g>
    </g>
    <g id="ytick_14">
     <g id="line2d_67">
      <g>
       <use xlink:href="#m0b6aec7857" x="51.560625" y="83.533173" style="stroke: #000000; stroke-width: 0.5"/>
      </g>
     </g>
     <g id="line2d_68">
      <g>
       <use xlink:href="#mb81434b758" x="412.337051" y="83.533173" style="stroke: #000000; stroke-width: 0.5"/>
      </g>
     </g>
    </g>
    <g id="ytick_15">
     <g id="line2d_69">
      <g>
       <use xlink:href="#m0b6aec7857" x="51.560625" y="72.219271" style="stroke: #000000; stroke-width: 0.5"/>
      </g>
     </g>
     <g id="line2d_70">
      <g>
       <use xlink:href="#mb81434b758" x="412.337051" y="72.219271" style="stroke: #000000; stroke-width: 0.5"/>
      </g>
     </g>
    </g>
    <g id="ytick_16">
     <g id="line2d_71">
      <g>
       <use xlink:href="#m0b6aec7857" x="51.560625" y="60.905368" style="stroke: #000000; stroke-width: 0.5"/>
      </g>
     </g>
     <g id="line2d_72">
      <g>
       <use xlink:href="#mb81434b758" x="412.337051" y="60.905368" style="stroke: #000000; stroke-width: 0.5"/>
      </g>
     </g>
    </g>
    <g id="ytick_17">
     <g id="line2d_73">
      <g>
       <use xlink:href="#m0b6aec7857" x="51.560625" y="38.277564" style="stroke: #000000; stroke-width: 0.5"/>
      </g>
     </g>
     <g id="line2d_74">
      <g>
       <use xlink:href="#mb81434b758" x="412.337051" y="38.277564" style="stroke: #000000; stroke-width: 0.5"/>
      </g>
     </g>
    </g>
    <g id="ytick_18">
     <g id="line2d_75">
      <g>
       <use xlink:href="#m0b6aec7857" x="51.560625" y="26.963662" style="stroke: #000000; stroke-width: 0.5"/>
      </g>
     </g>
     <g id="line2d_76">
      <g>
       <use xlink:href="#mb81434b758" x="412.337051" y="26.963662" style="stroke: #000000; stroke-width: 0.5"/>
      </g>
     </g>
    </g>
    <g id="ytick_19">
     <g id="line2d_77">
      <g>
       <use xlink:href="#m0b6aec7857" x="51.560625" y="15.649759" style="stroke: #000000; stroke-width: 0.5"/>
      </g>
     </g>
     <g id="line2d_78">
      <g>
       <use xlink:href="#mb81434b758" x="412.337051" y="15.649759" style="stroke: #000000; stroke-width: 0.5"/>
      </g>
     </g>
    </g>
    <g id="ytick_20">
     <g id="line2d_79">
      <g>
       <use xlink:href="#m0b6aec7857" x="51.560625" y="4.335857" style="stroke: #000000; stroke-width: 0.5"/>
      </g>
     </g>
     <g id="line2d_80">
      <g>
       <use xlink:href="#mb81434b758" x="412.337051" y="4.335857" style="stroke: #000000; stroke-width: 0.5"/>
      </g>
     </g>
    </g>
    <g id="text_11">
     <!-- Density -->
     <g transform="translate(17.277188 145.665469) rotate(-90) scale(0.18 -0.18)">
      <defs>
       <path id="DejaVuSans-79" d="M 2059 -325 
Q 1816 -950 1584 -1140 
Q 1353 -1331 966 -1331 
L 506 -1331 
L 506 -850 
L 844 -850 
Q 1081 -850 1212 -737 
Q 1344 -625 1503 -206 
L 1606 56 
L 191 3500 
L 800 3500 
L 1894 763 
L 2988 3500 
L 3597 3500 
L 2059 -325 
z
" transform="scale(0.015625)"/>
      </defs>
      <use xlink:href="#DejaVuSans-44"/>
      <use xlink:href="#DejaVuSans-65" x="77.001953"/>
      <use xlink:href="#DejaVuSans-6e" x="138.525391"/>
      <use xlink:href="#DejaVuSans-73" x="201.904297"/>
      <use xlink:href="#DejaVuSans-69" x="254.003906"/>
      <use xlink:href="#DejaVuSans-74" x="281.787109"/>
      <use xlink:href="#DejaVuSans-79" x="320.996094"/>
     </g>
    </g>
   </g>
   <g id="patch_3">
    <path d="M 51.560625 219.3 
L 51.560625 3.6 
" style="fill: none; stroke: #000000; stroke-width: 0.5; stroke-linejoin: miter; stroke-linecap: square"/>
   </g>
   <g id="patch_4">
    <path d="M 412.337051 219.3 
L 412.337051 3.6 
" style="fill: none; stroke: #000000; stroke-width: 0.5; stroke-linejoin: miter; stroke-linecap: square"/>
   </g>
   <g id="patch_5">
    <path d="M 51.560625 219.3 
L 412.337051 219.3 
" style="fill: none; stroke: #000000; stroke-width: 0.5; stroke-linejoin: miter; stroke-linecap: square"/>
   </g>
   <g id="patch_6">
    <path d="M 51.560625 3.6 
L 412.337051 3.6 
" style="fill: none; stroke: #000000; stroke-width: 0.5; stroke-linejoin: miter; stroke-linecap: square"/>
   </g>
   <g id="PathCollection_1">
    <defs>
     <path id="m15c00fd35c" d="M 0 2.236068 
C 0.593012 2.236068 1.161816 2.000462 1.581139 1.581139 
C 2.000462 1.161816 2.236068 0.593012 2.236068 0 
C 2.236068 -0.593012 2.000462 -1.161816 1.581139 -1.581139 
C 1.161816 -2.000462 0.593012 -2.236068 0 -2.236068 
C -0.593012 -2.236068 -1.161816 -2.000462 -1.581139 -1.581139 
C -2.000462 -1.161816 -2.236068 -0.593012 -2.236068 0 
C -2.236068 0.593012 -2.000462 1.161816 -1.581139 1.581139 
C -1.161816 2.000462 -0.593012 2.236068 0 2.236068 
z
" style="stroke: #000000; stroke-opacity: 0.5"/>
    </defs>
    <g>
     <use xlink:href="#m15c00fd35c" x="343.190114" y="219.3" style="fill: #1e90ff; fill-opacity: 0.5; stroke: #000000; stroke-opacity: 0.5"/>
     <use xlink:href="#m15c00fd35c" x="212.155545" y="219.3" style="fill: #1e90ff; fill-opacity: 0.5; stroke: #000000; stroke-opacity: 0.5"/>
     <use xlink:href="#m15c00fd35c" x="187.864086" y="219.3" style="fill: #1e90ff; fill-opacity: 0.5; stroke: #000000; stroke-opacity: 0.5"/>
     <use xlink:href="#m15c00fd35c" x="200.039655" y="219.3" style="fill: #1e90ff; fill-opacity: 0.5; stroke: #000000; stroke-opacity: 0.5"/>
     <use xlink:href="#m15c00fd35c" x="210.903586" y="219.3" style="fill: #1e90ff; fill-opacity: 0.5; stroke: #000000; stroke-opacity: 0.5"/>
     <use xlink:href="#m15c00fd35c" x="174.701229" y="219.3" style="fill: #1e90ff; fill-opacity: 0.5; stroke: #000000; stroke-opacity: 0.5"/>
     <use xlink:href="#m15c00fd35c" x="151.582704" y="219.3" style="fill: #1e90ff; fill-opacity: 0.5; stroke: #000000; stroke-opacity: 0.5"/>
     <use xlink:href="#m15c00fd35c" x="180.521267" y="219.3" style="fill: #1e90ff; fill-opacity: 0.5; stroke: #000000; stroke-opacity: 0.5"/>
     <use xlink:href="#m15c00fd35c" x="172.706906" y="219.3" style="fill: #1e90ff; fill-opacity: 0.5; stroke: #000000; stroke-opacity: 0.5"/>
     <use xlink:href="#m15c00fd35c" x="126.757299" y="219.3" style="fill: #1e90ff; fill-opacity: 0.5; stroke: #000000; stroke-opacity: 0.5"/>
     <use xlink:href="#m15c00fd35c" x="120.707562" y="219.3" style="fill: #1e90ff; fill-opacity: 0.5; stroke: #000000; stroke-opacity: 0.5"/>
     <use xlink:href="#m15c00fd35c" x="150.675538" y="219.3" style="fill: #1e90ff; fill-opacity: 0.5; stroke: #000000; stroke-opacity: 0.5"/>
    </g>
   </g>
  </g>
  <g id="axes_2">
   <g id="patch_7">
    <path d="M 468.692051 219.3 
L 829.468477 219.3 
L 829.468477 3.6 
L 468.692051 3.6 
z
" style="fill: #ffffff"/>
   </g>
   <g id="PathCollection_2">
    <defs>
     <path id="m90a5fbd4a8" d="M 0 3 
C 0.795609 3 1.55874 2.683901 2.12132 2.12132 
C 2.683901 1.55874 3 0.795609 3 0 
C 3 -0.795609 2.683901 -1.55874 2.12132 -2.12132 
C 1.55874 -2.683901 0.795609 -3 0 -3 
C -0.795609 -3 -1.55874 -2.683901 -2.12132 -2.12132 
C -2.683901 -1.55874 -3 -0.795609 -3 0 
C -3 0.795609 -2.683901 1.55874 -2.12132 2.12132 
C -1.55874 2.683901 -0.795609 3 0 3 
z
" style="stroke: #009ade"/>
    </defs>
    <g clip-path="url(#p274fc1a96d)">
     <use xlink:href="#m90a5fbd4a8" x="485.090979" y="209.495455" style="fill: #009ade; stroke: #009ade"/>
     <use xlink:href="#m90a5fbd4a8" x="517.329434" y="189.993227" style="fill: #009ade; stroke: #009ade"/>
     <use xlink:href="#m90a5fbd4a8" x="542.335521" y="174.513438" style="fill: #009ade; stroke: #009ade"/>
     <use xlink:href="#m90a5fbd4a8" x="562.766983" y="161.667649" style="fill: #009ade; stroke: #009ade"/>
     <use xlink:href="#m90a5fbd4a8" x="580.041537" y="150.684564" style="fill: #009ade; stroke: #009ade"/>
     <use xlink:href="#m90a5fbd4a8" x="595.005437" y="141.089917" style="fill: #009ade; stroke: #009ade"/>
     <use xlink:href="#m90a5fbd4a8" x="608.204532" y="132.570775" style="fill: #009ade; stroke: #009ade"/>
     <use xlink:href="#m90a5fbd4a8" x="620.011525" y="125.258256" style="fill: #009ade; stroke: #009ade"/>
     <use xlink:href="#m90a5fbd4a8" x="630.692249" y="118.826642" style="fill: #009ade; stroke: #009ade"/>
     <use xlink:href="#m90a5fbd4a8" x="640.442986" y="114.362836" style="fill: #009ade; stroke: #009ade"/>
     <use xlink:href="#m90a5fbd4a8" x="649.412795" y="111.084836" style="fill: #009ade; stroke: #009ade"/>
     <use xlink:href="#m90a5fbd4a8" x="657.717541" y="108.177964" style="fill: #009ade; stroke: #009ade"/>
     <use xlink:href="#m90a5fbd4a8" x="665.449074" y="105.79107" style="fill: #009ade; stroke: #009ade"/>
     <use xlink:href="#m90a5fbd4a8" x="672.681441" y="103.74351" style="fill: #009ade; stroke: #009ade"/>
     <use xlink:href="#m90a5fbd4a8" x="679.475205" y="101.895048" style="fill: #009ade; stroke: #009ade"/>
     <use xlink:href="#m90a5fbd4a8" x="685.880536" y="100.588099" style="fill: #009ade; stroke: #009ade"/>
     <use xlink:href="#m90a5fbd4a8" x="691.939459" y="99.413303" style="fill: #009ade; stroke: #009ade"/>
     <use xlink:href="#m90a5fbd4a8" x="697.687529" y="98.360054" style="fill: #009ade; stroke: #009ade"/>
     <use xlink:href="#m90a5fbd4a8" x="703.15509" y="97.504013" style="fill: #009ade; stroke: #009ade"/>
     <use xlink:href="#m90a5fbd4a8" x="708.368253" y="96.666745" style="fill: #009ade; stroke: #009ade"/>
     <use xlink:href="#m90a5fbd4a8" x="713.349641" y="96.009906" style="fill: #009ade; stroke: #009ade"/>
     <use xlink:href="#m90a5fbd4a8" x="718.11899" y="95.364176" style="fill: #009ade; stroke: #009ade"/>
     <use xlink:href="#m90a5fbd4a8" x="722.693616" y="94.886947" style="fill: #009ade; stroke: #009ade"/>
     <use xlink:href="#m90a5fbd4a8" x="727.088799" y="94.415609" style="fill: #009ade; stroke: #009ade"/>
     <use xlink:href="#m90a5fbd4a8" x="731.318085" y="94.182105" style="fill: #009ade; stroke: #009ade"/>
     <use xlink:href="#m90a5fbd4a8" x="735.393545" y="93.95002" style="fill: #009ade; stroke: #009ade"/>
     <use xlink:href="#m90a5fbd4a8" x="739.325976" y="93.796077" style="fill: #009ade; stroke: #009ade"/>
     <use xlink:href="#m90a5fbd4a8" x="743.125078" y="93.642752" style="fill: #009ade; stroke: #009ade"/>
     <use xlink:href="#m90a5fbd4a8" x="746.799597" y="93.642752" style="fill: #009ade; stroke: #009ade"/>
     <use xlink:href="#m90a5fbd4a8" x="750.357444" y="93.642752" style="fill: #009ade; stroke: #009ade"/>
     <use xlink:href="#m90a5fbd4a8" x="753.805802" y="93.642752" style="fill: #009ade; stroke: #009ade"/>
     <use xlink:href="#m90a5fbd4a8" x="757.151208" y="93.642752" style="fill: #009ade; stroke: #009ade"/>
     <use xlink:href="#m90a5fbd4a8" x="760.399632" y="93.642752" style="fill: #009ade; stroke: #009ade"/>
     <use xlink:href="#m90a5fbd4a8" x="763.556539" y="93.642752" style="fill: #009ade; stroke: #009ade"/>
     <use xlink:href="#m90a5fbd4a8" x="766.626945" y="93.642752" style="fill: #009ade; stroke: #009ade"/>
     <use xlink:href="#m90a5fbd4a8" x="769.615463" y="93.642752" style="fill: #009ade; stroke: #009ade"/>
     <use xlink:href="#m90a5fbd4a8" x="772.526348" y="93.642752" style="fill: #009ade; stroke: #009ade"/>
     <use xlink:href="#m90a5fbd4a8" x="775.363532" y="93.642752" style="fill: #009ade; stroke: #009ade"/>
     <use xlink:href="#m90a5fbd4a8" x="778.130655" y="93.642752" style="fill: #009ade; stroke: #009ade"/>
     <use xlink:href="#m90a5fbd4a8" x="780.831094" y="93.642752" style="fill: #009ade; stroke: #009ade"/>
     <use xlink:href="#m90a5fbd4a8" x="783.467987" y="93.642752" style="fill: #009ade; stroke: #009ade"/>
     <use xlink:href="#m90a5fbd4a8" x="786.044256" y="93.642752" style="fill: #009ade; stroke: #009ade"/>
     <use xlink:href="#m90a5fbd4a8" x="788.562627" y="93.642752" style="fill: #009ade; stroke: #009ade"/>
     <use xlink:href="#m90a5fbd4a8" x="791.025645" y="93.642752" style="fill: #009ade; stroke: #009ade"/>
     <use xlink:href="#m90a5fbd4a8" x="793.43569" y="93.642752" style="fill: #009ade; stroke: #009ade"/>
     <use xlink:href="#m90a5fbd4a8" x="795.794994" y="93.642752" style="fill: #009ade; stroke: #009ade"/>
     <use xlink:href="#m90a5fbd4a8" x="798.105648" y="93.642752" style="fill: #009ade; stroke: #009ade"/>
     <use xlink:href="#m90a5fbd4a8" x="800.36962" y="93.642752" style="fill: #009ade; stroke: #009ade"/>
     <use xlink:href="#m90a5fbd4a8" x="802.588758" y="93.642752" style="fill: #009ade; stroke: #009ade"/>
     <use xlink:href="#m90a5fbd4a8" x="804.764802" y="93.642752" style="fill: #009ade; stroke: #009ade"/>
     <use xlink:href="#m90a5fbd4a8" x="806.899396" y="93.642752" style="fill: #009ade; stroke: #009ade"/>
     <use xlink:href="#m90a5fbd4a8" x="808.994089" y="93.642752" style="fill: #009ade; stroke: #009ade"/>
     <use xlink:href="#m90a5fbd4a8" x="811.050344" y="93.642752" style="fill: #009ade; stroke: #009ade"/>
     <use xlink:href="#m90a5fbd4a8" x="813.069548" y="93.642752" style="fill: #009ade; stroke: #009ade"/>
    </g>
   </g>
   <g id="matplotlib.axis_3">
    <g id="xtick_21">
     <g id="line2d_81">
      <g>
       <use xlink:href="#m16990b7c4b" x="474.040212" y="219.3" style="stroke: #000000; stroke-width: 0.5"/>
      </g>
     </g>
     <g id="line2d_82">
      <g>
       <use xlink:href="#m3d08ae9258" x="474.040212" y="3.6" style="stroke: #000000; stroke-width: 0.5"/>
      </g>
     </g>
     <g id="text_12">
      <!-- $\mathdefault{1}$ -->
      <g transform="translate(468.280212 236.477187) scale(0.18 -0.18)">
       <use xlink:href="#DejaVuSans-31" transform="translate(0 0.09375)"/>
      </g>
     </g>
    </g>
    <g id="xtick_22">
     <g id="line2d_83">
      <g>
       <use xlink:href="#m16990b7c4b" x="586.102997" y="219.3" style="stroke: #000000; stroke-width: 0.5"/>
      </g>
     </g>
     <g id="line2d_84">
      <g>
       <use xlink:href="#m3d08ae9258" x="586.102997" y="3.6" style="stroke: #000000; stroke-width: 0.5"/>
      </g>
     </g>
     <g id="text_13">
      <!-- $\mathdefault{2}$ -->
      <g transform="translate(580.342997 236.477187) scale(0.18 -0.18)">
       <use xlink:href="#DejaVuSans-32" transform="translate(0 0.78125)"/>
      </g>
     </g>
    </g>
    <g id="xtick_23">
     <g id="line2d_85">
      <g>
       <use xlink:href="#m16990b7c4b" x="698.165782" y="219.3" style="stroke: #000000; stroke-width: 0.5"/>
      </g>
     </g>
     <g id="line2d_86">
      <g>
       <use xlink:href="#m3d08ae9258" x="698.165782" y="3.6" style="stroke: #000000; stroke-width: 0.5"/>
      </g>
     </g>
     <g id="text_14">
      <!-- $\mathdefault{3}$ -->
      <g transform="translate(692.405782 236.477187) scale(0.18 -0.18)">
       <use xlink:href="#DejaVuSans-33" transform="translate(0 0.78125)"/>
      </g>
     </g>
    </g>
    <g id="xtick_24">
     <g id="line2d_87">
      <g>
       <use xlink:href="#m16990b7c4b" x="810.228567" y="219.3" style="stroke: #000000; stroke-width: 0.5"/>
      </g>
     </g>
     <g id="line2d_88">
      <g>
       <use xlink:href="#m3d08ae9258" x="810.228567" y="3.6" style="stroke: #000000; stroke-width: 0.5"/>
      </g>
     </g>
     <g id="text_15">
      <!-- $\mathdefault{4}$ -->
      <g transform="translate(804.468567 236.477187) scale(0.18 -0.18)">
       <use xlink:href="#DejaVuSans-34" transform="translate(0 0.09375)"/>
      </g>
     </g>
    </g>
    <g id="xtick_25">
     <g id="line2d_89">
      <g>
       <use xlink:href="#m9a72160977" x="496.452769" y="219.3" style="stroke: #000000; stroke-width: 0.5"/>
      </g>
     </g>
     <g id="line2d_90">
      <g>
       <use xlink:href="#m56d1da1049" x="496.452769" y="3.6" style="stroke: #000000; stroke-width: 0.5"/>
      </g>
     </g>
    </g>
    <g id="xtick_26">
     <g id="line2d_91">
      <g>
       <use xlink:href="#m9a72160977" x="518.865326" y="219.3" style="stroke: #000000; stroke-width: 0.5"/>
      </g>
     </g>
     <g id="line2d_92">
      <g>
       <use xlink:href="#m56d1da1049" x="518.865326" y="3.6" style="stroke: #000000; stroke-width: 0.5"/>
      </g>
     </g>
    </g>
    <g id="xtick_27">
     <g id="line2d_93">
      <g>
       <use xlink:href="#m9a72160977" x="541.277883" y="219.3" style="stroke: #000000; stroke-width: 0.5"/>
      </g>
     </g>
     <g id="line2d_94">
      <g>
       <use xlink:href="#m56d1da1049" x="541.277883" y="3.6" style="stroke: #000000; stroke-width: 0.5"/>
      </g>
     </g>
    </g>
    <g id="xtick_28">
     <g id="line2d_95">
      <g>
       <use xlink:href="#m9a72160977" x="563.69044" y="219.3" style="stroke: #000000; stroke-width: 0.5"/>
      </g>
     </g>
     <g id="line2d_96">
      <g>
       <use xlink:href="#m56d1da1049" x="563.69044" y="3.6" style="stroke: #000000; stroke-width: 0.5"/>
      </g>
     </g>
    </g>
    <g id="xtick_29">
     <g id="line2d_97">
      <g>
       <use xlink:href="#m9a72160977" x="608.515554" y="219.3" style="stroke: #000000; stroke-width: 0.5"/>
      </g>
     </g>
     <g id="line2d_98">
      <g>
       <use xlink:href="#m56d1da1049" x="608.515554" y="3.6" style="stroke: #000000; stroke-width: 0.5"/>
      </g>
     </g>
    </g>
    <g id="xtick_30">
     <g id="line2d_99">
      <g>
       <use xlink:href="#m9a72160977" x="630.928111" y="219.3" style="stroke: #000000; stroke-width: 0.5"/>
      </g>
     </g>
     <g id="line2d_100">
      <g>
       <use xlink:href="#m56d1da1049" x="630.928111" y="3.6" style="stroke: #000000; stroke-width: 0.5"/>
      </g>
     </g>
    </g>
    <g id="xtick_31">
     <g id="line2d_101">
      <g>
       <use xlink:href="#m9a72160977" x="653.340668" y="219.3" style="stroke: #000000; stroke-width: 0.5"/>
      </g>
     </g>
     <g id="line2d_102">
      <g>
       <use xlink:href="#m56d1da1049" x="653.340668" y="3.6" style="stroke: #000000; stroke-width: 0.5"/>
      </g>
     </g>
    </g>
    <g id="xtick_32">
     <g id="line2d_103">
      <g>
       <use xlink:href="#m9a72160977" x="675.753225" y="219.3" style="stroke: #000000; stroke-width: 0.5"/>
      </g>
     </g>
     <g id="line2d_104">
      <g>
       <use xlink:href="#m56d1da1049" x="675.753225" y="3.6" style="stroke: #000000; stroke-width: 0.5"/>
      </g>
     </g>
    </g>
    <g id="xtick_33">
     <g id="line2d_105">
      <g>
       <use xlink:href="#m9a72160977" x="720.578339" y="219.3" style="stroke: #000000; stroke-width: 0.5"/>
      </g>
     </g>
     <g id="line2d_106">
      <g>
       <use xlink:href="#m56d1da1049" x="720.578339" y="3.6" style="stroke: #000000; stroke-width: 0.5"/>
      </g>
     </g>
    </g>
    <g id="xtick_34">
     <g id="line2d_107">
      <g>
       <use xlink:href="#m9a72160977" x="742.990896" y="219.3" style="stroke: #000000; stroke-width: 0.5"/>
      </g>
     </g>
     <g id="line2d_108">
      <g>
       <use xlink:href="#m56d1da1049" x="742.990896" y="3.6" style="stroke: #000000; stroke-width: 0.5"/>
      </g>
     </g>
    </g>
    <g id="xtick_35">
     <g id="line2d_109">
      <g>
       <use xlink:href="#m9a72160977" x="765.403453" y="219.3" style="stroke: #000000; stroke-width: 0.5"/>
      </g>
     </g>
     <g id="line2d_110">
      <g>
       <use xlink:href="#m56d1da1049" x="765.403453" y="3.6" style="stroke: #000000; stroke-width: 0.5"/>
      </g>
     </g>
    </g>
    <g id="xtick_36">
     <g id="line2d_111">
      <g>
       <use xlink:href="#m9a72160977" x="787.81601" y="219.3" style="stroke: #000000; stroke-width: 0.5"/>
      </g>
     </g>
     <g id="line2d_112">
      <g>
       <use xlink:href="#m56d1da1049" x="787.81601" y="3.6" style="stroke: #000000; stroke-width: 0.5"/>
      </g>
     </g>
    </g>
    <g id="text_16">
     <!-- $\log(r)$ -->
     <g transform="translate(624.600264 257.900625) scale(0.18 -0.18)">
      <defs>
       <path id="DejaVuSans-6c" d="M 603 4863 
L 1178 4863 
L 1178 0 
L 603 0 
L 603 4863 
z
" transform="scale(0.015625)"/>
       <path id="DejaVuSans-67" d="M 2906 1791 
Q 2906 2416 2648 2759 
Q 2391 3103 1925 3103 
Q 1463 3103 1205 2759 
Q 947 2416 947 1791 
Q 947 1169 1205 825 
Q 1463 481 1925 481 
Q 2391 481 2648 825 
Q 2906 1169 2906 1791 
z
M 3481 434 
Q 3481 -459 3084 -895 
Q 2688 -1331 1869 -1331 
Q 1566 -1331 1297 -1286 
Q 1028 -1241 775 -1147 
L 775 -588 
Q 1028 -725 1275 -790 
Q 1522 -856 1778 -856 
Q 2344 -856 2625 -561 
Q 2906 -266 2906 331 
L 2906 616 
Q 2728 306 2450 153 
Q 2172 0 1784 0 
Q 1141 0 747 490 
Q 353 981 353 1791 
Q 353 2603 747 3093 
Q 1141 3584 1784 3584 
Q 2172 3584 2450 3431 
Q 2728 3278 2906 2969 
L 2906 3500 
L 3481 3500 
L 3481 434 
z
" transform="scale(0.015625)"/>
       <path id="DejaVuSans-28" d="M 1984 4856 
Q 1566 4138 1362 3434 
Q 1159 2731 1159 2009 
Q 1159 1288 1364 580 
Q 1569 -128 1984 -844 
L 1484 -844 
Q 1016 -109 783 600 
Q 550 1309 550 2009 
Q 550 2706 781 3412 
Q 1013 4119 1484 4856 
L 1984 4856 
z
" transform="scale(0.015625)"/>
       <path id="DejaVuSans-Oblique-72" d="M 2853 2969 
Q 2766 3016 2653 3041 
Q 2541 3066 2413 3066 
Q 1953 3066 1609 2717 
Q 1266 2369 1153 1784 
L 800 0 
L 225 0 
L 909 3500 
L 1484 3500 
L 1375 2956 
Q 1603 3259 1920 3421 
Q 2238 3584 2597 3584 
Q 2691 3584 2781 3573 
Q 2872 3563 2963 3538 
L 2853 2969 
z
" transform="scale(0.015625)"/>
       <path id="DejaVuSans-29" d="M 513 4856 
L 1013 4856 
Q 1481 4119 1714 3412 
Q 1947 2706 1947 2009 
Q 1947 1309 1714 600 
Q 1481 -109 1013 -844 
L 513 -844 
Q 928 -128 1133 580 
Q 1338 1288 1338 2009 
Q 1338 2731 1133 3434 
Q 928 4138 513 4856 
z
" transform="scale(0.015625)"/>
      </defs>
      <use xlink:href="#DejaVuSans-6c" transform="translate(0 0.015625)"/>
      <use xlink:href="#DejaVuSans-6f" transform="translate(27.783203 0.015625)"/>
      <use xlink:href="#DejaVuSans-67" transform="translate(88.964844 0.015625)"/>
      <use xlink:href="#DejaVuSans-28" transform="translate(152.441406 0.015625)"/>
      <use xlink:href="#DejaVuSans-Oblique-72" transform="translate(191.455078 0.015625)"/>
      <use xlink:href="#DejaVuSans-29" transform="translate(232.568359 0.015625)"/>
     </g>
    </g>
   </g>
   <g id="matplotlib.axis_4">
    <g id="ytick_21">
     <g id="line2d_113">
      <g>
       <use xlink:href="#m0c018dfacd" x="468.692051" y="178.115311" style="stroke: #000000; stroke-width: 0.5"/>
      </g>
     </g>
     <g id="line2d_114">
      <g>
       <use xlink:href="#mf3cac76d1b" x="829.468477" y="178.115311" style="stroke: #000000; stroke-width: 0.5"/>
      </g>
     </g>
     <g id="text_17">
      <!-- $\mathdefault{4}$ -->
      <g transform="translate(453.672051 184.953905) scale(0.18 -0.18)">
       <use xlink:href="#DejaVuSans-34" transform="translate(0 0.09375)"/>
      </g>
     </g>
    </g>
    <g id="ytick_22">
     <g id="line2d_115">
      <g>
       <use xlink:href="#m0c018dfacd" x="468.692051" y="101.759597" style="stroke: #000000; stroke-width: 0.5"/>
      </g>
     </g>
     <g id="line2d_116">
      <g>
       <use xlink:href="#mf3cac76d1b" x="829.468477" y="101.759597" style="stroke: #000000; stroke-width: 0.5"/>
      </g>
     </g>
     <g id="text_18">
      <!-- $\mathdefault{6}$ -->
      <g transform="translate(453.672051 108.598191) scale(0.18 -0.18)">
       <use xlink:href="#DejaVuSans-36" transform="translate(0 0.78125)"/>
      </g>
     </g>
    </g>
    <g id="ytick_23">
     <g id="line2d_117">
      <g>
       <use xlink:href="#m0c018dfacd" x="468.692051" y="25.403883" style="stroke: #000000; stroke-width: 0.5"/>
      </g>
     </g>
     <g id="line2d_118">
      <g>
       <use xlink:href="#mf3cac76d1b" x="829.468477" y="25.403883" style="stroke: #000000; stroke-width: 0.5"/>
      </g>
     </g>
     <g id="text_19">
      <!-- $\mathdefault{8}$ -->
      <g transform="translate(453.672051 32.242476) scale(0.18 -0.18)">
       <use xlink:href="#DejaVuSans-38" transform="translate(0 0.78125)"/>
      </g>
     </g>
    </g>
    <g id="ytick_24">
     <g id="line2d_119">
      <g>
       <use xlink:href="#m0b6aec7857" x="468.692051" y="216.293168" style="stroke: #000000; stroke-width: 0.5"/>
      </g>
     </g>
     <g id="line2d_120">
      <g>
       <use xlink:href="#mb81434b758" x="829.468477" y="216.293168" style="stroke: #000000; stroke-width: 0.5"/>
      </g>
     </g>
    </g>
    <g id="ytick_25">
     <g id="line2d_121">
      <g>
       <use xlink:href="#m0b6aec7857" x="468.692051" y="197.20424" style="stroke: #000000; stroke-width: 0.5"/>
      </g>
     </g>
     <g id="line2d_122">
      <g>
       <use xlink:href="#mb81434b758" x="829.468477" y="197.20424" style="stroke: #000000; stroke-width: 0.5"/>
      </g>
     </g>
    </g>
    <g id="ytick_26">
     <g id="line2d_123">
      <g>
       <use xlink:href="#m0b6aec7857" x="468.692051" y="159.026383" style="stroke: #000000; stroke-width: 0.5"/>
      </g>
     </g>
     <g id="line2d_124">
      <g>
       <use xlink:href="#mb81434b758" x="829.468477" y="159.026383" style="stroke: #000000; stroke-width: 0.5"/>
      </g>
     </g>
    </g>
    <g id="ytick_27">
     <g id="line2d_125">
      <g>
       <use xlink:href="#m0b6aec7857" x="468.692051" y="139.937454" style="stroke: #000000; stroke-width: 0.5"/>
      </g>
     </g>
     <g id="line2d_126">
      <g>
       <use xlink:href="#mb81434b758" x="829.468477" y="139.937454" style="stroke: #000000; stroke-width: 0.5"/>
      </g>
     </g>
    </g>
    <g id="ytick_28">
     <g id="line2d_127">
      <g>
       <use xlink:href="#m0b6aec7857" x="468.692051" y="120.848525" style="stroke: #000000; stroke-width: 0.5"/>
      </g>
     </g>
     <g id="line2d_128">
      <g>
       <use xlink:href="#mb81434b758" x="829.468477" y="120.848525" style="stroke: #000000; stroke-width: 0.5"/>
      </g>
     </g>
    </g>
    <g id="ytick_29">
     <g id="line2d_129">
      <g>
       <use xlink:href="#m0b6aec7857" x="468.692051" y="82.670668" style="stroke: #000000; stroke-width: 0.5"/>
      </g>
     </g>
     <g id="line2d_130">
      <g>
       <use xlink:href="#mb81434b758" x="829.468477" y="82.670668" style="stroke: #000000; stroke-width: 0.5"/>
      </g>
     </g>
    </g>
    <g id="ytick_30">
     <g id="line2d_131">
      <g>
       <use xlink:href="#m0b6aec7857" x="468.692051" y="63.58174" style="stroke: #000000; stroke-width: 0.5"/>
      </g>
     </g>
     <g id="line2d_132">
      <g>
       <use xlink:href="#mb81434b758" x="829.468477" y="63.58174" style="stroke: #000000; stroke-width: 0.5"/>
      </g>
     </g>
    </g>
    <g id="ytick_31">
     <g id="line2d_133">
      <g>
       <use xlink:href="#m0b6aec7857" x="468.692051" y="44.492811" style="stroke: #000000; stroke-width: 0.5"/>
      </g>
     </g>
     <g id="line2d_134">
      <g>
       <use xlink:href="#mb81434b758" x="829.468477" y="44.492811" style="stroke: #000000; stroke-width: 0.5"/>
      </g>
     </g>
    </g>
    <g id="ytick_32">
     <g id="line2d_135">
      <g>
       <use xlink:href="#m0b6aec7857" x="468.692051" y="6.314954" style="stroke: #000000; stroke-width: 0.5"/>
      </g>
     </g>
     <g id="line2d_136">
      <g>
       <use xlink:href="#mb81434b758" x="829.468477" y="6.314954" style="stroke: #000000; stroke-width: 0.5"/>
      </g>
     </g>
    </g>
    <g id="text_20">
     <!-- $\log(N_v)$ -->
     <g transform="translate(445.892051 142.95) rotate(-90) scale(0.18 -0.18)">
      <defs>
       <path id="DejaVuSans-Oblique-4e" d="M 1081 4666 
L 1931 4666 
L 3219 666 
L 4000 4666 
L 4616 4666 
L 3706 0 
L 2853 0 
L 1569 4025 
L 788 0 
L 172 0 
L 1081 4666 
z
" transform="scale(0.015625)"/>
       <path id="DejaVuSans-Oblique-76" d="M 459 3500 
L 1069 3500 
L 1581 525 
L 3256 3500 
L 3866 3500 
L 1875 0 
L 1100 0 
L 459 3500 
z
" transform="scale(0.015625)"/>
      </defs>
      <use xlink:href="#DejaVuSans-6c" transform="translate(0 0.015625)"/>
      <use xlink:href="#DejaVuSans-6f" transform="translate(27.783203 0.015625)"/>
      <use xlink:href="#DejaVuSans-67" transform="translate(88.964844 0.015625)"/>
      <use xlink:href="#DejaVuSans-28" transform="translate(152.441406 0.015625)"/>
      <use xlink:href="#DejaVuSans-Oblique-4e" transform="translate(191.455078 0.015625)"/>
      <use xlink:href="#DejaVuSans-Oblique-76" transform="translate(266.259766 -16.390625) scale(0.7)"/>
      <use xlink:href="#DejaVuSans-29" transform="translate(310.419922 0.015625)"/>
     </g>
    </g>
   </g>
   <g id="line2d_137">
    <path d="M 485.090979 207.863596 
L 517.329434 188.749362 
L 542.335521 173.92321 
L 562.766983 161.809362 
L 580.041537 151.567249 
L 595.005437 142.695127 
L 608.204532 134.869362 
L 620.011525 127.868975 
L 630.692249 121.536356 
L 640.442986 115.755127 
L 649.412795 110.436912 
L 657.717541 105.513014 
L 665.449074 100.928975 
L 672.681441 96.640893 
L 679.475205 92.612859 
L 685.880536 88.815127 
L 691.939459 85.222781 
L 697.687529 81.814741 
L 703.15509 78.573014 
L 708.368253 75.482121 
L 713.349641 72.528648 
L 718.11899 69.700893 
L 722.693616 66.988589 
L 727.088799 64.382678 
L 731.318085 61.875127 
L 735.393545 59.45878 
L 739.325976 57.127235 
L 743.125078 54.874741 
L 746.799597 52.696112 
L 750.357444 50.586658 
L 753.805802 48.542121 
L 757.151208 46.558624 
L 760.399632 44.632628 
L 763.556539 42.760892 
L 766.626945 40.940444 
L 769.615463 39.168547 
L 772.526348 37.442678 
L 775.363532 35.760506 
L 778.130655 34.119874 
L 780.831094 32.51878 
L 783.467987 30.955361 
L 786.044256 29.427887 
L 788.562627 27.934741 
L 791.025645 26.474413 
L 793.43569 25.045493 
L 795.794994 23.646658 
L 798.105648 22.276667 
L 800.36962 20.934354 
L 802.588758 19.618624 
L 804.764802 18.328443 
L 806.899396 17.062839 
L 808.994089 15.820892 
L 811.050344 14.601735 
L 813.069548 13.404545 
" clip-path="url(#p274fc1a96d)" style="fill: none; stroke-dasharray: 7.4,3.2; stroke-dashoffset: 0; stroke: #ff0000; stroke-width: 2"/>
   </g>
   <g id="patch_8">
    <path d="M 468.692051 219.3 
L 468.692051 3.6 
" style="fill: none; stroke: #000000; stroke-width: 0.5; stroke-linejoin: miter; stroke-linecap: square"/>
   </g>
   <g id="patch_9">
    <path d="M 829.468477 219.3 
L 829.468477 3.6 
" style="fill: none; stroke: #000000; stroke-width: 0.5; stroke-linejoin: miter; stroke-linecap: square"/>
   </g>
   <g id="patch_10">
    <path d="M 468.692051 219.3 
L 829.468477 219.3 
" style="fill: none; stroke: #000000; stroke-width: 0.5; stroke-linejoin: miter; stroke-linecap: square"/>
   </g>
   <g id="patch_11">
    <path d="M 468.692051 3.6 
L 829.468477 3.6 
" style="fill: none; stroke: #000000; stroke-width: 0.5; stroke-linejoin: miter; stroke-linecap: square"/>
   </g>
   <g id="legend_1">
    <g id="line2d_138">
     <path d="M 483.092051 24.5575 
L 499.092051 24.5575 
L 515.092051 24.5575 
" style="fill: none; stroke-dasharray: 7.4,3.2; stroke-dashoffset: 0; stroke: #ff0000; stroke-width: 2"/>
    </g>
    <g id="text_21">
     <!-- Fit: dim=1.74 -->
     <g transform="translate(527.892051 30.1575) scale(0.16 -0.16)">
      <defs>
       <path id="DejaVuSans-46" d="M 628 4666 
L 3309 4666 
L 3309 4134 
L 1259 4134 
L 1259 2759 
L 3109 2759 
L 3109 2228 
L 1259 2228 
L 1259 0 
L 628 0 
L 628 4666 
z
" transform="scale(0.015625)"/>
       <path id="DejaVuSans-3a" d="M 750 794 
L 1409 794 
L 1409 0 
L 750 0 
L 750 794 
z
M 750 3309 
L 1409 3309 
L 1409 2516 
L 750 2516 
L 750 3309 
z
" transform="scale(0.015625)"/>
       <path id="DejaVuSans-3d" d="M 678 2906 
L 4684 2906 
L 4684 2381 
L 678 2381 
L 678 2906 
z
M 678 1631 
L 4684 1631 
L 4684 1100 
L 678 1100 
L 678 1631 
z
" transform="scale(0.015625)"/>
      </defs>
      <use xlink:href="#DejaVuSans-46"/>
      <use xlink:href="#DejaVuSans-69" x="50.269531"/>
      <use xlink:href="#DejaVuSans-74" x="78.052734"/>
      <use xlink:href="#DejaVuSans-3a" x="117.261719"/>
      <use xlink:href="#DejaVuSans-20" x="150.953125"/>
      <use xlink:href="#DejaVuSans-64" x="182.740234"/>
      <use xlink:href="#DejaVuSans-69" x="246.216797"/>
      <use xlink:href="#DejaVuSans-6d" x="274"/>
      <use xlink:href="#DejaVuSans-3d" x="371.412109"/>
      <use xlink:href="#DejaVuSans-31" x="455.201172"/>
      <use xlink:href="#DejaVuSans-2e" x="518.824219"/>
      <use xlink:href="#DejaVuSans-37" x="550.611328"/>
      <use xlink:href="#DejaVuSans-34" x="614.234375"/>
     </g>
    </g>
   </g>
  </g>
 </g>
 <defs>
  <clipPath id="pd7ff4233c7">
   <rect x="51.560625" y="3.6" width="360.776426" height="215.7"/>
  </clipPath>
  <clipPath id="p274fc1a96d">
   <rect x="468.692051" y="3.6" width="360.776426" height="215.7"/>
  </clipPath>
 </defs>
</svg>
