<?xml version="1.0" encoding="utf-8" standalone="no"?>
<!DOCTYPE svg PUBLIC "-//W3C//DTD SVG 1.1//EN"
  "http://www.w3.org/Graphics/SVG/1.1/DTD/svg11.dtd">
<svg xmlns:xlink="http://www.w3.org/1999/xlink" width="400.200566pt" height="292.32pt" viewBox="0 0 400.200566 292.32" xmlns="http://www.w3.org/2000/svg" version="1.1">
 <metadata>
  <rdf:RDF xmlns:dc="http://purl.org/dc/elements/1.1/" xmlns:cc="http://creativecommons.org/ns#" xmlns:rdf="http://www.w3.org/1999/02/22-rdf-syntax-ns#">
   <cc:Work>
    <dc:type rdf:resource="http://purl.org/dc/dcmitype/StillImage"/>
    <dc:date>2024-03-27T11:10:53.039001</dc:date>
    <dc:format>image/svg+xml</dc:format>
    <dc:creator>
     <cc:Agent>
      <dc:title>Matplotlib v3.8.3, https://matplotlib.org/</dc:title>
     </cc:Agent>
    </dc:creator>
   </cc:Work>
  </rdf:RDF>
 </metadata>
 <defs>
  <style type="text/css">*{stroke-linejoin: round; stroke-linecap: butt}</style>
 </defs>
 <g id="figure_1">
  <g id="patch_1">
   <path d="M -0 292.32 
L 400.200566 292.32 
L 400.200566 0 
L -0 0 
z
" style="fill: #ffffff"/>
  </g>
  <g id="axes_1">
   <g id="patch_2">
    <path d="M 57.320625 246.37875 
L 394.748182 246.37875 
L 394.748182 3.6 
L 57.320625 3.6 
z
" style="fill: #ffffff"/>
   </g>
   <g id="PolyCollection_1">
    <path d="M 72.658241 64.077995 
L 72.658241 83.595938 
L 106.741833 70.118846 
L 140.825424 64.9851 
L 174.909016 66.049345 
L 208.992608 45.482282 
L 243.076199 48.569737 
L 277.159791 47.209891 
L 311.243382 45.562597 
L 345.326974 34.601094 
L 345.326974 25.960477 
L 345.326974 25.960477 
L 311.243382 33.502003 
L 277.159791 34.003203 
L 243.076199 32.681743 
L 208.992608 31.204619 
L 174.909016 41.351643 
L 140.825424 38.155687 
L 106.741833 42.928124 
L 72.658241 64.077995 
z
" clip-path="url(#pee3ac5d758)" style="fill: #0c5da5; fill-opacity: 0.3"/>
   </g>
   <g id="PolyCollection_2">
    <path d="M 72.658241 77.756314 
L 72.658241 101.953375 
L 106.741833 115.413792 
L 140.825424 124.346353 
L 174.909016 133.408087 
L 208.992608 149.091822 
L 243.076199 154.648649 
L 277.159791 160.807999 
L 311.243382 166.230239 
L 345.326974 173.800127 
L 345.326974 168.148225 
L 345.326974 168.148225 
L 311.243382 158.891283 
L 277.159791 150.883676 
L 243.076199 142.742292 
L 208.992608 133.251108 
L 174.909016 119.303284 
L 140.825424 107.984006 
L 106.741833 88.233608 
L 72.658241 77.756314 
z
" clip-path="url(#pee3ac5d758)" style="fill: #00b945; fill-opacity: 0.3"/>
   </g>
   <g id="PolyCollection_3">
    <path d="M 72.658241 85.584696 
L 72.658241 116.712387 
L 106.741833 136.934111 
L 140.825424 141.282684 
L 174.909016 161.81009 
L 208.992608 167.55357 
L 243.076199 181.47707 
L 277.159791 189.177195 
L 311.243382 196.945573 
L 345.326974 202.856169 
L 345.326974 199.606133 
L 345.326974 199.606133 
L 311.243382 190.679981 
L 277.159791 180.357051 
L 243.076199 171.99116 
L 208.992608 150.330616 
L 174.909016 135.346488 
L 140.825424 122.197115 
L 106.741833 118.761099 
L 72.658241 85.584696 
z
" clip-path="url(#pee3ac5d758)" style="fill: #ff9500; fill-opacity: 0.3"/>
   </g>
   <g id="PolyCollection_4">
    <path d="M 72.658241 92.301393 
L 72.658241 122.078212 
L 106.741833 144.185648 
L 140.825424 164.35518 
L 174.909016 174.717666 
L 208.992608 183.696174 
L 243.076199 195.75085 
L 277.159791 205.132272 
L 311.243382 212.923668 
L 345.326974 218.488786 
L 345.326974 216.989849 
L 345.326974 216.989849 
L 311.243382 210.639872 
L 277.159791 200.417267 
L 243.076199 188.510374 
L 208.992608 176.7279 
L 174.909016 164.455283 
L 140.825424 146.515148 
L 106.741833 124.961063 
L 72.658241 92.301393 
z
" clip-path="url(#pee3ac5d758)" style="fill: #ff2c00; fill-opacity: 0.3"/>
   </g>
   <g id="PolyCollection_5">
    <path d="M 72.658241 113.542693 
L 72.658241 131.834716 
L 106.741833 154.190196 
L 140.825424 168.006409 
L 174.909016 181.550548 
L 208.992608 193.400092 
L 243.076199 204.073652 
L 277.159791 213.414317 
L 311.243382 220.565182 
L 345.326974 225.809783 
L 345.326974 223.59728 
L 345.326974 223.59728 
L 311.243382 218.305699 
L 277.159791 208.523369 
L 243.076199 196.171241 
L 208.992608 183.924563 
L 174.909016 173.479604 
L 140.825424 155.174945 
L 106.741833 132.857215 
L 72.658241 113.542693 
z
" clip-path="url(#pee3ac5d758)" style="fill: #845b97; fill-opacity: 0.3"/>
   </g>
   <g id="PolyCollection_6">
    <path d="M 72.658241 118.778335 
L 72.658241 140.743832 
L 106.741833 158.72967 
L 140.825424 176.81081 
L 174.909016 187.015899 
L 208.992608 201.614965 
L 243.076199 211.157521 
L 277.159791 221.32414 
L 311.243382 227.428432 
L 345.326974 232.575374 
L 345.326974 231.641268 
L 345.326974 231.641268 
L 311.243382 224.340666 
L 277.159791 216.743055 
L 243.076199 204.57018 
L 208.992608 191.664981 
L 174.909016 181.057909 
L 140.825424 159.708816 
L 106.741833 129.509655 
L 72.658241 118.778335 
z
" clip-path="url(#pee3ac5d758)" style="fill: #474747; fill-opacity: 0.3"/>
   </g>
   <g id="matplotlib.axis_1">
    <g id="xtick_1">
     <g id="line2d_1">
      <defs>
       <path id="maa2991cb38" d="M 0 0 
L 0 -3 
" style="stroke: #000000; stroke-width: 0.5"/>
      </defs>
      <g>
       <use xlink:href="#maa2991cb38" x="106.741833" y="246.37875" style="stroke: #000000; stroke-width: 0.5"/>
      </g>
     </g>
     <g id="line2d_2">
      <defs>
       <path id="m3643b0daa5" d="M 0 0 
L 0 3 
" style="stroke: #000000; stroke-width: 0.5"/>
      </defs>
      <g>
       <use xlink:href="#m3643b0daa5" x="106.741833" y="3.6" style="stroke: #000000; stroke-width: 0.5"/>
      </g>
     </g>
     <g id="text_1">
      <!-- $\mathdefault{100}$ -->
      <g transform="translate(89.551833 263.555938) scale(0.18 -0.18)">
       <defs>
        <path id="DejaVuSans-31" d="M 794 531 
L 1825 531 
L 1825 4091 
L 703 3866 
L 703 4441 
L 1819 4666 
L 2450 4666 
L 2450 531 
L 3481 531 
L 3481 0 
L 794 0 
L 794 531 
z
" transform="scale(0.015625)"/>
        <path id="DejaVuSans-30" d="M 2034 4250 
Q 1547 4250 1301 3770 
Q 1056 3291 1056 2328 
Q 1056 1369 1301 889 
Q 1547 409 2034 409 
Q 2525 409 2770 889 
Q 3016 1369 3016 2328 
Q 3016 3291 2770 3770 
Q 2525 4250 2034 4250 
z
M 2034 4750 
Q 2819 4750 3233 4129 
Q 3647 3509 3647 2328 
Q 3647 1150 3233 529 
Q 2819 -91 2034 -91 
Q 1250 -91 836 529 
Q 422 1150 422 2328 
Q 422 3509 836 4129 
Q 1250 4750 2034 4750 
z
" transform="scale(0.015625)"/>
       </defs>
       <use xlink:href="#DejaVuSans-31" transform="translate(0 0.78125)"/>
       <use xlink:href="#DejaVuSans-30" transform="translate(63.623047 0.78125)"/>
       <use xlink:href="#DejaVuSans-30" transform="translate(127.246094 0.78125)"/>
      </g>
     </g>
    </g>
    <g id="xtick_2">
     <g id="line2d_3">
      <g>
       <use xlink:href="#maa2991cb38" x="174.909016" y="246.37875" style="stroke: #000000; stroke-width: 0.5"/>
      </g>
     </g>
     <g id="line2d_4">
      <g>
       <use xlink:href="#m3643b0daa5" x="174.909016" y="3.6" style="stroke: #000000; stroke-width: 0.5"/>
      </g>
     </g>
     <g id="text_2">
      <!-- $\mathdefault{200}$ -->
      <g transform="translate(157.719016 263.555938) scale(0.18 -0.18)">
       <defs>
        <path id="DejaVuSans-32" d="M 1228 531 
L 3431 531 
L 3431 0 
L 469 0 
L 469 531 
Q 828 903 1448 1529 
Q 2069 2156 2228 2338 
Q 2531 2678 2651 2914 
Q 2772 3150 2772 3378 
Q 2772 3750 2511 3984 
Q 2250 4219 1831 4219 
Q 1534 4219 1204 4116 
Q 875 4013 500 3803 
L 500 4441 
Q 881 4594 1212 4672 
Q 1544 4750 1819 4750 
Q 2544 4750 2975 4387 
Q 3406 4025 3406 3419 
Q 3406 3131 3298 2873 
Q 3191 2616 2906 2266 
Q 2828 2175 2409 1742 
Q 1991 1309 1228 531 
z
" transform="scale(0.015625)"/>
       </defs>
       <use xlink:href="#DejaVuSans-32" transform="translate(0 0.78125)"/>
       <use xlink:href="#DejaVuSans-30" transform="translate(63.623047 0.78125)"/>
       <use xlink:href="#DejaVuSans-30" transform="translate(127.246094 0.78125)"/>
      </g>
     </g>
    </g>
    <g id="xtick_3">
     <g id="line2d_5">
      <g>
       <use xlink:href="#maa2991cb38" x="243.076199" y="246.37875" style="stroke: #000000; stroke-width: 0.5"/>
      </g>
     </g>
     <g id="line2d_6">
      <g>
       <use xlink:href="#m3643b0daa5" x="243.076199" y="3.6" style="stroke: #000000; stroke-width: 0.5"/>
      </g>
     </g>
     <g id="text_3">
      <!-- $\mathdefault{300}$ -->
      <g transform="translate(225.886199 263.555938) scale(0.18 -0.18)">
       <defs>
        <path id="DejaVuSans-33" d="M 2597 2516 
Q 3050 2419 3304 2112 
Q 3559 1806 3559 1356 
Q 3559 666 3084 287 
Q 2609 -91 1734 -91 
Q 1441 -91 1130 -33 
Q 819 25 488 141 
L 488 750 
Q 750 597 1062 519 
Q 1375 441 1716 441 
Q 2309 441 2620 675 
Q 2931 909 2931 1356 
Q 2931 1769 2642 2001 
Q 2353 2234 1838 2234 
L 1294 2234 
L 1294 2753 
L 1863 2753 
Q 2328 2753 2575 2939 
Q 2822 3125 2822 3475 
Q 2822 3834 2567 4026 
Q 2313 4219 1838 4219 
Q 1578 4219 1281 4162 
Q 984 4106 628 3988 
L 628 4550 
Q 988 4650 1302 4700 
Q 1616 4750 1894 4750 
Q 2613 4750 3031 4423 
Q 3450 4097 3450 3541 
Q 3450 3153 3228 2886 
Q 3006 2619 2597 2516 
z
" transform="scale(0.015625)"/>
       </defs>
       <use xlink:href="#DejaVuSans-33" transform="translate(0 0.78125)"/>
       <use xlink:href="#DejaVuSans-30" transform="translate(63.623047 0.78125)"/>
       <use xlink:href="#DejaVuSans-30" transform="translate(127.246094 0.78125)"/>
      </g>
     </g>
    </g>
    <g id="xtick_4">
     <g id="line2d_7">
      <g>
       <use xlink:href="#maa2991cb38" x="311.243382" y="246.37875" style="stroke: #000000; stroke-width: 0.5"/>
      </g>
     </g>
     <g id="line2d_8">
      <g>
       <use xlink:href="#m3643b0daa5" x="311.243382" y="3.6" style="stroke: #000000; stroke-width: 0.5"/>
      </g>
     </g>
     <g id="text_4">
      <!-- $\mathdefault{400}$ -->
      <g transform="translate(294.053382 263.555938) scale(0.18 -0.18)">
       <defs>
        <path id="DejaVuSans-34" d="M 2419 4116 
L 825 1625 
L 2419 1625 
L 2419 4116 
z
M 2253 4666 
L 3047 4666 
L 3047 1625 
L 3713 1625 
L 3713 1100 
L 3047 1100 
L 3047 0 
L 2419 0 
L 2419 1100 
L 313 1100 
L 313 1709 
L 2253 4666 
z
" transform="scale(0.015625)"/>
       </defs>
       <use xlink:href="#DejaVuSans-34" transform="translate(0 0.78125)"/>
       <use xlink:href="#DejaVuSans-30" transform="translate(63.623047 0.78125)"/>
       <use xlink:href="#DejaVuSans-30" transform="translate(127.246094 0.78125)"/>
      </g>
     </g>
    </g>
    <g id="xtick_5">
     <g id="line2d_9">
      <g>
       <use xlink:href="#maa2991cb38" x="379.410566" y="246.37875" style="stroke: #000000; stroke-width: 0.5"/>
      </g>
     </g>
     <g id="line2d_10">
      <g>
       <use xlink:href="#m3643b0daa5" x="379.410566" y="3.6" style="stroke: #000000; stroke-width: 0.5"/>
      </g>
     </g>
     <g id="text_5">
      <!-- $\mathdefault{500}$ -->
      <g transform="translate(362.220566 263.555938) scale(0.18 -0.18)">
       <defs>
        <path id="DejaVuSans-35" d="M 691 4666 
L 3169 4666 
L 3169 4134 
L 1269 4134 
L 1269 2991 
Q 1406 3038 1543 3061 
Q 1681 3084 1819 3084 
Q 2600 3084 3056 2656 
Q 3513 2228 3513 1497 
Q 3513 744 3044 326 
Q 2575 -91 1722 -91 
Q 1428 -91 1123 -41 
Q 819 9 494 109 
L 494 744 
Q 775 591 1075 516 
Q 1375 441 1709 441 
Q 2250 441 2565 725 
Q 2881 1009 2881 1497 
Q 2881 1984 2565 2268 
Q 2250 2553 1709 2553 
Q 1456 2553 1204 2497 
Q 953 2441 691 2322 
L 691 4666 
z
" transform="scale(0.015625)"/>
       </defs>
       <use xlink:href="#DejaVuSans-35" transform="translate(0 0.78125)"/>
       <use xlink:href="#DejaVuSans-30" transform="translate(63.623047 0.78125)"/>
       <use xlink:href="#DejaVuSans-30" transform="translate(127.246094 0.78125)"/>
      </g>
     </g>
    </g>
    <g id="xtick_6">
     <g id="line2d_11">
      <defs>
       <path id="m1f30e87da1" d="M 0 0 
L 0 -1.5 
" style="stroke: #000000; stroke-width: 0.5"/>
      </defs>
      <g>
       <use xlink:href="#m1f30e87da1" x="65.841523" y="246.37875" style="stroke: #000000; stroke-width: 0.5"/>
      </g>
     </g>
     <g id="line2d_12">
      <defs>
       <path id="m235cbc1e42" d="M 0 0 
L 0 1.5 
" style="stroke: #000000; stroke-width: 0.5"/>
      </defs>
      <g>
       <use xlink:href="#m235cbc1e42" x="65.841523" y="3.6" style="stroke: #000000; stroke-width: 0.5"/>
      </g>
     </g>
    </g>
    <g id="xtick_7">
     <g id="line2d_13">
      <g>
       <use xlink:href="#m1f30e87da1" x="79.47496" y="246.37875" style="stroke: #000000; stroke-width: 0.5"/>
      </g>
     </g>
     <g id="line2d_14">
      <g>
       <use xlink:href="#m235cbc1e42" x="79.47496" y="3.6" style="stroke: #000000; stroke-width: 0.5"/>
      </g>
     </g>
    </g>
    <g id="xtick_8">
     <g id="line2d_15">
      <g>
       <use xlink:href="#m1f30e87da1" x="93.108396" y="246.37875" style="stroke: #000000; stroke-width: 0.5"/>
      </g>
     </g>
     <g id="line2d_16">
      <g>
       <use xlink:href="#m235cbc1e42" x="93.108396" y="3.6" style="stroke: #000000; stroke-width: 0.5"/>
      </g>
     </g>
    </g>
    <g id="xtick_9">
     <g id="line2d_17">
      <g>
       <use xlink:href="#m1f30e87da1" x="120.375269" y="246.37875" style="stroke: #000000; stroke-width: 0.5"/>
      </g>
     </g>
     <g id="line2d_18">
      <g>
       <use xlink:href="#m235cbc1e42" x="120.375269" y="3.6" style="stroke: #000000; stroke-width: 0.5"/>
      </g>
     </g>
    </g>
    <g id="xtick_10">
     <g id="line2d_19">
      <g>
       <use xlink:href="#m1f30e87da1" x="134.008706" y="246.37875" style="stroke: #000000; stroke-width: 0.5"/>
      </g>
     </g>
     <g id="line2d_20">
      <g>
       <use xlink:href="#m235cbc1e42" x="134.008706" y="3.6" style="stroke: #000000; stroke-width: 0.5"/>
      </g>
     </g>
    </g>
    <g id="xtick_11">
     <g id="line2d_21">
      <g>
       <use xlink:href="#m1f30e87da1" x="147.642143" y="246.37875" style="stroke: #000000; stroke-width: 0.5"/>
      </g>
     </g>
     <g id="line2d_22">
      <g>
       <use xlink:href="#m235cbc1e42" x="147.642143" y="3.6" style="stroke: #000000; stroke-width: 0.5"/>
      </g>
     </g>
    </g>
    <g id="xtick_12">
     <g id="line2d_23">
      <g>
       <use xlink:href="#m1f30e87da1" x="161.275579" y="246.37875" style="stroke: #000000; stroke-width: 0.5"/>
      </g>
     </g>
     <g id="line2d_24">
      <g>
       <use xlink:href="#m235cbc1e42" x="161.275579" y="3.6" style="stroke: #000000; stroke-width: 0.5"/>
      </g>
     </g>
    </g>
    <g id="xtick_13">
     <g id="line2d_25">
      <g>
       <use xlink:href="#m1f30e87da1" x="188.542453" y="246.37875" style="stroke: #000000; stroke-width: 0.5"/>
      </g>
     </g>
     <g id="line2d_26">
      <g>
       <use xlink:href="#m235cbc1e42" x="188.542453" y="3.6" style="stroke: #000000; stroke-width: 0.5"/>
      </g>
     </g>
    </g>
    <g id="xtick_14">
     <g id="line2d_27">
      <g>
       <use xlink:href="#m1f30e87da1" x="202.175889" y="246.37875" style="stroke: #000000; stroke-width: 0.5"/>
      </g>
     </g>
     <g id="line2d_28">
      <g>
       <use xlink:href="#m235cbc1e42" x="202.175889" y="3.6" style="stroke: #000000; stroke-width: 0.5"/>
      </g>
     </g>
    </g>
    <g id="xtick_15">
     <g id="line2d_29">
      <g>
       <use xlink:href="#m1f30e87da1" x="215.809326" y="246.37875" style="stroke: #000000; stroke-width: 0.5"/>
      </g>
     </g>
     <g id="line2d_30">
      <g>
       <use xlink:href="#m235cbc1e42" x="215.809326" y="3.6" style="stroke: #000000; stroke-width: 0.5"/>
      </g>
     </g>
    </g>
    <g id="xtick_16">
     <g id="line2d_31">
      <g>
       <use xlink:href="#m1f30e87da1" x="229.442763" y="246.37875" style="stroke: #000000; stroke-width: 0.5"/>
      </g>
     </g>
     <g id="line2d_32">
      <g>
       <use xlink:href="#m235cbc1e42" x="229.442763" y="3.6" style="stroke: #000000; stroke-width: 0.5"/>
      </g>
     </g>
    </g>
    <g id="xtick_17">
     <g id="line2d_33">
      <g>
       <use xlink:href="#m1f30e87da1" x="256.709636" y="246.37875" style="stroke: #000000; stroke-width: 0.5"/>
      </g>
     </g>
     <g id="line2d_34">
      <g>
       <use xlink:href="#m235cbc1e42" x="256.709636" y="3.6" style="stroke: #000000; stroke-width: 0.5"/>
      </g>
     </g>
    </g>
    <g id="xtick_18">
     <g id="line2d_35">
      <g>
       <use xlink:href="#m1f30e87da1" x="270.343072" y="246.37875" style="stroke: #000000; stroke-width: 0.5"/>
      </g>
     </g>
     <g id="line2d_36">
      <g>
       <use xlink:href="#m235cbc1e42" x="270.343072" y="3.6" style="stroke: #000000; stroke-width: 0.5"/>
      </g>
     </g>
    </g>
    <g id="xtick_19">
     <g id="line2d_37">
      <g>
       <use xlink:href="#m1f30e87da1" x="283.976509" y="246.37875" style="stroke: #000000; stroke-width: 0.5"/>
      </g>
     </g>
     <g id="line2d_38">
      <g>
       <use xlink:href="#m235cbc1e42" x="283.976509" y="3.6" style="stroke: #000000; stroke-width: 0.5"/>
      </g>
     </g>
    </g>
    <g id="xtick_20">
     <g id="line2d_39">
      <g>
       <use xlink:href="#m1f30e87da1" x="297.609946" y="246.37875" style="stroke: #000000; stroke-width: 0.5"/>
      </g>
     </g>
     <g id="line2d_40">
      <g>
       <use xlink:href="#m235cbc1e42" x="297.609946" y="3.6" style="stroke: #000000; stroke-width: 0.5"/>
      </g>
     </g>
    </g>
    <g id="xtick_21">
     <g id="line2d_41">
      <g>
       <use xlink:href="#m1f30e87da1" x="324.876819" y="246.37875" style="stroke: #000000; stroke-width: 0.5"/>
      </g>
     </g>
     <g id="line2d_42">
      <g>
       <use xlink:href="#m235cbc1e42" x="324.876819" y="3.6" style="stroke: #000000; stroke-width: 0.5"/>
      </g>
     </g>
    </g>
    <g id="xtick_22">
     <g id="line2d_43">
      <g>
       <use xlink:href="#m1f30e87da1" x="338.510256" y="246.37875" style="stroke: #000000; stroke-width: 0.5"/>
      </g>
     </g>
     <g id="line2d_44">
      <g>
       <use xlink:href="#m235cbc1e42" x="338.510256" y="3.6" style="stroke: #000000; stroke-width: 0.5"/>
      </g>
     </g>
    </g>
    <g id="xtick_23">
     <g id="line2d_45">
      <g>
       <use xlink:href="#m1f30e87da1" x="352.143692" y="246.37875" style="stroke: #000000; stroke-width: 0.5"/>
      </g>
     </g>
     <g id="line2d_46">
      <g>
       <use xlink:href="#m235cbc1e42" x="352.143692" y="3.6" style="stroke: #000000; stroke-width: 0.5"/>
      </g>
     </g>
    </g>
    <g id="xtick_24">
     <g id="line2d_47">
      <g>
       <use xlink:href="#m1f30e87da1" x="365.777129" y="246.37875" style="stroke: #000000; stroke-width: 0.5"/>
      </g>
     </g>
     <g id="line2d_48">
      <g>
       <use xlink:href="#m235cbc1e42" x="365.777129" y="3.6" style="stroke: #000000; stroke-width: 0.5"/>
      </g>
     </g>
    </g>
    <g id="xtick_25">
     <g id="line2d_49">
      <g>
       <use xlink:href="#m1f30e87da1" x="393.044002" y="246.37875" style="stroke: #000000; stroke-width: 0.5"/>
      </g>
     </g>
     <g id="line2d_50">
      <g>
       <use xlink:href="#m235cbc1e42" x="393.044002" y="3.6" style="stroke: #000000; stroke-width: 0.5"/>
      </g>
     </g>
    </g>
    <g id="text_6">
     <!-- Subgraph Size -->
     <g transform="translate(161.221747 284.976562) scale(0.18 -0.18)">
      <defs>
       <path id="DejaVuSans-53" d="M 3425 4513 
L 3425 3897 
Q 3066 4069 2747 4153 
Q 2428 4238 2131 4238 
Q 1616 4238 1336 4038 
Q 1056 3838 1056 3469 
Q 1056 3159 1242 3001 
Q 1428 2844 1947 2747 
L 2328 2669 
Q 3034 2534 3370 2195 
Q 3706 1856 3706 1288 
Q 3706 609 3251 259 
Q 2797 -91 1919 -91 
Q 1588 -91 1214 -16 
Q 841 59 441 206 
L 441 856 
Q 825 641 1194 531 
Q 1563 422 1919 422 
Q 2459 422 2753 634 
Q 3047 847 3047 1241 
Q 3047 1584 2836 1778 
Q 2625 1972 2144 2069 
L 1759 2144 
Q 1053 2284 737 2584 
Q 422 2884 422 3419 
Q 422 4038 858 4394 
Q 1294 4750 2059 4750 
Q 2388 4750 2728 4690 
Q 3069 4631 3425 4513 
z
" transform="scale(0.015625)"/>
       <path id="DejaVuSans-75" d="M 544 1381 
L 544 3500 
L 1119 3500 
L 1119 1403 
Q 1119 906 1312 657 
Q 1506 409 1894 409 
Q 2359 409 2629 706 
Q 2900 1003 2900 1516 
L 2900 3500 
L 3475 3500 
L 3475 0 
L 2900 0 
L 2900 538 
Q 2691 219 2414 64 
Q 2138 -91 1772 -91 
Q 1169 -91 856 284 
Q 544 659 544 1381 
z
M 1991 3584 
L 1991 3584 
z
" transform="scale(0.015625)"/>
       <path id="DejaVuSans-62" d="M 3116 1747 
Q 3116 2381 2855 2742 
Q 2594 3103 2138 3103 
Q 1681 3103 1420 2742 
Q 1159 2381 1159 1747 
Q 1159 1113 1420 752 
Q 1681 391 2138 391 
Q 2594 391 2855 752 
Q 3116 1113 3116 1747 
z
M 1159 2969 
Q 1341 3281 1617 3432 
Q 1894 3584 2278 3584 
Q 2916 3584 3314 3078 
Q 3713 2572 3713 1747 
Q 3713 922 3314 415 
Q 2916 -91 2278 -91 
Q 1894 -91 1617 61 
Q 1341 213 1159 525 
L 1159 0 
L 581 0 
L 581 4863 
L 1159 4863 
L 1159 2969 
z
" transform="scale(0.015625)"/>
       <path id="DejaVuSans-67" d="M 2906 1791 
Q 2906 2416 2648 2759 
Q 2391 3103 1925 3103 
Q 1463 3103 1205 2759 
Q 947 2416 947 1791 
Q 947 1169 1205 825 
Q 1463 481 1925 481 
Q 2391 481 2648 825 
Q 2906 1169 2906 1791 
z
M 3481 434 
Q 3481 -459 3084 -895 
Q 2688 -1331 1869 -1331 
Q 1566 -1331 1297 -1286 
Q 1028 -1241 775 -1147 
L 775 -588 
Q 1028 -725 1275 -790 
Q 1522 -856 1778 -856 
Q 2344 -856 2625 -561 
Q 2906 -266 2906 331 
L 2906 616 
Q 2728 306 2450 153 
Q 2172 0 1784 0 
Q 1141 0 747 490 
Q 353 981 353 1791 
Q 353 2603 747 3093 
Q 1141 3584 1784 3584 
Q 2172 3584 2450 3431 
Q 2728 3278 2906 2969 
L 2906 3500 
L 3481 3500 
L 3481 434 
z
" transform="scale(0.015625)"/>
       <path id="DejaVuSans-72" d="M 2631 2963 
Q 2534 3019 2420 3045 
Q 2306 3072 2169 3072 
Q 1681 3072 1420 2755 
Q 1159 2438 1159 1844 
L 1159 0 
L 581 0 
L 581 3500 
L 1159 3500 
L 1159 2956 
Q 1341 3275 1631 3429 
Q 1922 3584 2338 3584 
Q 2397 3584 2469 3576 
Q 2541 3569 2628 3553 
L 2631 2963 
z
" transform="scale(0.015625)"/>
       <path id="DejaVuSans-61" d="M 2194 1759 
Q 1497 1759 1228 1600 
Q 959 1441 959 1056 
Q 959 750 1161 570 
Q 1363 391 1709 391 
Q 2188 391 2477 730 
Q 2766 1069 2766 1631 
L 2766 1759 
L 2194 1759 
z
M 3341 1997 
L 3341 0 
L 2766 0 
L 2766 531 
Q 2569 213 2275 61 
Q 1981 -91 1556 -91 
Q 1019 -91 701 211 
Q 384 513 384 1019 
Q 384 1609 779 1909 
Q 1175 2209 1959 2209 
L 2766 2209 
L 2766 2266 
Q 2766 2663 2505 2880 
Q 2244 3097 1772 3097 
Q 1472 3097 1187 3025 
Q 903 2953 641 2809 
L 641 3341 
Q 956 3463 1253 3523 
Q 1550 3584 1831 3584 
Q 2591 3584 2966 3190 
Q 3341 2797 3341 1997 
z
" transform="scale(0.015625)"/>
       <path id="DejaVuSans-70" d="M 1159 525 
L 1159 -1331 
L 581 -1331 
L 581 3500 
L 1159 3500 
L 1159 2969 
Q 1341 3281 1617 3432 
Q 1894 3584 2278 3584 
Q 2916 3584 3314 3078 
Q 3713 2572 3713 1747 
Q 3713 922 3314 415 
Q 2916 -91 2278 -91 
Q 1894 -91 1617 61 
Q 1341 213 1159 525 
z
M 3116 1747 
Q 3116 2381 2855 2742 
Q 2594 3103 2138 3103 
Q 1681 3103 1420 2742 
Q 1159 2381 1159 1747 
Q 1159 1113 1420 752 
Q 1681 391 2138 391 
Q 2594 391 2855 752 
Q 3116 1113 3116 1747 
z
" transform="scale(0.015625)"/>
       <path id="DejaVuSans-68" d="M 3513 2113 
L 3513 0 
L 2938 0 
L 2938 2094 
Q 2938 2591 2744 2837 
Q 2550 3084 2163 3084 
Q 1697 3084 1428 2787 
Q 1159 2491 1159 1978 
L 1159 0 
L 581 0 
L 581 4863 
L 1159 4863 
L 1159 2956 
Q 1366 3272 1645 3428 
Q 1925 3584 2291 3584 
Q 2894 3584 3203 3211 
Q 3513 2838 3513 2113 
z
" transform="scale(0.015625)"/>
       <path id="DejaVuSans-20" transform="scale(0.015625)"/>
       <path id="DejaVuSans-69" d="M 603 3500 
L 1178 3500 
L 1178 0 
L 603 0 
L 603 3500 
z
M 603 4863 
L 1178 4863 
L 1178 4134 
L 603 4134 
L 603 4863 
z
" transform="scale(0.015625)"/>
       <path id="DejaVuSans-7a" d="M 353 3500 
L 3084 3500 
L 3084 2975 
L 922 459 
L 3084 459 
L 3084 0 
L 275 0 
L 275 525 
L 2438 3041 
L 353 3041 
L 353 3500 
z
" transform="scale(0.015625)"/>
       <path id="DejaVuSans-65" d="M 3597 1894 
L 3597 1613 
L 953 1613 
Q 991 1019 1311 708 
Q 1631 397 2203 397 
Q 2534 397 2845 478 
Q 3156 559 3463 722 
L 3463 178 
Q 3153 47 2828 -22 
Q 2503 -91 2169 -91 
Q 1331 -91 842 396 
Q 353 884 353 1716 
Q 353 2575 817 3079 
Q 1281 3584 2069 3584 
Q 2775 3584 3186 3129 
Q 3597 2675 3597 1894 
z
M 3022 2063 
Q 3016 2534 2758 2815 
Q 2500 3097 2075 3097 
Q 1594 3097 1305 2825 
Q 1016 2553 972 2059 
L 3022 2063 
z
" transform="scale(0.015625)"/>
      </defs>
      <use xlink:href="#DejaVuSans-53"/>
      <use xlink:href="#DejaVuSans-75" x="63.476562"/>
      <use xlink:href="#DejaVuSans-62" x="126.855469"/>
      <use xlink:href="#DejaVuSans-67" x="190.332031"/>
      <use xlink:href="#DejaVuSans-72" x="253.808594"/>
      <use xlink:href="#DejaVuSans-61" x="294.921875"/>
      <use xlink:href="#DejaVuSans-70" x="356.201172"/>
      <use xlink:href="#DejaVuSans-68" x="419.677734"/>
      <use xlink:href="#DejaVuSans-20" x="483.056641"/>
      <use xlink:href="#DejaVuSans-53" x="514.84375"/>
      <use xlink:href="#DejaVuSans-69" x="578.320312"/>
      <use xlink:href="#DejaVuSans-7a" x="606.103516"/>
      <use xlink:href="#DejaVuSans-65" x="658.59375"/>
     </g>
    </g>
   </g>
   <g id="matplotlib.axis_2">
    <g id="ytick_1">
     <g id="line2d_51">
      <defs>
       <path id="md58c7aa936" d="M 0 0 
L 3 0 
" style="stroke: #000000; stroke-width: 0.5"/>
      </defs>
      <g>
       <use xlink:href="#md58c7aa936" x="57.320625" y="224.142997" style="stroke: #000000; stroke-width: 0.5"/>
      </g>
     </g>
     <g id="line2d_52">
      <defs>
       <path id="m9669cc03d5" d="M 0 0 
L -3 0 
" style="stroke: #000000; stroke-width: 0.5"/>
      </defs>
      <g>
       <use xlink:href="#m9669cc03d5" x="394.748182" y="224.142997" style="stroke: #000000; stroke-width: 0.5"/>
      </g>
     </g>
     <g id="text_7">
      <!-- $\mathdefault{0.6}$ -->
      <g transform="translate(25.020625 230.981591) scale(0.18 -0.18)">
       <defs>
        <path id="DejaVuSans-2e" d="M 684 794 
L 1344 794 
L 1344 0 
L 684 0 
L 684 794 
z
" transform="scale(0.015625)"/>
        <path id="DejaVuSans-36" d="M 2113 2584 
Q 1688 2584 1439 2293 
Q 1191 2003 1191 1497 
Q 1191 994 1439 701 
Q 1688 409 2113 409 
Q 2538 409 2786 701 
Q 3034 994 3034 1497 
Q 3034 2003 2786 2293 
Q 2538 2584 2113 2584 
z
M 3366 4563 
L 3366 3988 
Q 3128 4100 2886 4159 
Q 2644 4219 2406 4219 
Q 1781 4219 1451 3797 
Q 1122 3375 1075 2522 
Q 1259 2794 1537 2939 
Q 1816 3084 2150 3084 
Q 2853 3084 3261 2657 
Q 3669 2231 3669 1497 
Q 3669 778 3244 343 
Q 2819 -91 2113 -91 
Q 1303 -91 875 529 
Q 447 1150 447 2328 
Q 447 3434 972 4092 
Q 1497 4750 2381 4750 
Q 2619 4750 2861 4703 
Q 3103 4656 3366 4563 
z
" transform="scale(0.015625)"/>
       </defs>
       <use xlink:href="#DejaVuSans-30" transform="translate(0 0.78125)"/>
       <use xlink:href="#DejaVuSans-2e" transform="translate(63.623047 0.78125)"/>
       <use xlink:href="#DejaVuSans-36" transform="translate(95.410156 0.78125)"/>
      </g>
     </g>
    </g>
    <g id="ytick_2">
     <g id="line2d_53">
      <g>
       <use xlink:href="#md58c7aa936" x="57.320625" y="176.313101" style="stroke: #000000; stroke-width: 0.5"/>
      </g>
     </g>
     <g id="line2d_54">
      <g>
       <use xlink:href="#m9669cc03d5" x="394.748182" y="176.313101" style="stroke: #000000; stroke-width: 0.5"/>
      </g>
     </g>
     <g id="text_8">
      <!-- $\mathdefault{0.8}$ -->
      <g transform="translate(25.560625 183.151694) scale(0.18 -0.18)">
       <defs>
        <path id="DejaVuSans-38" d="M 2034 2216 
Q 1584 2216 1326 1975 
Q 1069 1734 1069 1313 
Q 1069 891 1326 650 
Q 1584 409 2034 409 
Q 2484 409 2743 651 
Q 3003 894 3003 1313 
Q 3003 1734 2745 1975 
Q 2488 2216 2034 2216 
z
M 1403 2484 
Q 997 2584 770 2862 
Q 544 3141 544 3541 
Q 544 4100 942 4425 
Q 1341 4750 2034 4750 
Q 2731 4750 3128 4425 
Q 3525 4100 3525 3541 
Q 3525 3141 3298 2862 
Q 3072 2584 2669 2484 
Q 3125 2378 3379 2068 
Q 3634 1759 3634 1313 
Q 3634 634 3220 271 
Q 2806 -91 2034 -91 
Q 1263 -91 848 271 
Q 434 634 434 1313 
Q 434 1759 690 2068 
Q 947 2378 1403 2484 
z
M 1172 3481 
Q 1172 3119 1398 2916 
Q 1625 2713 2034 2713 
Q 2441 2713 2670 2916 
Q 2900 3119 2900 3481 
Q 2900 3844 2670 4047 
Q 2441 4250 2034 4250 
Q 1625 4250 1398 4047 
Q 1172 3844 1172 3481 
z
" transform="scale(0.015625)"/>
       </defs>
       <use xlink:href="#DejaVuSans-30" transform="translate(0 0.78125)"/>
       <use xlink:href="#DejaVuSans-2e" transform="translate(63.623047 0.78125)"/>
       <use xlink:href="#DejaVuSans-38" transform="translate(92.785156 0.78125)"/>
      </g>
     </g>
    </g>
    <g id="ytick_3">
     <g id="line2d_55">
      <g>
       <use xlink:href="#md58c7aa936" x="57.320625" y="128.483204" style="stroke: #000000; stroke-width: 0.5"/>
      </g>
     </g>
     <g id="line2d_56">
      <g>
       <use xlink:href="#m9669cc03d5" x="394.748182" y="128.483204" style="stroke: #000000; stroke-width: 0.5"/>
      </g>
     </g>
     <g id="text_9">
      <!-- $\mathdefault{1.0}$ -->
      <g transform="translate(25.020625 135.321798) scale(0.18 -0.18)">
       <use xlink:href="#DejaVuSans-31" transform="translate(0 0.78125)"/>
       <use xlink:href="#DejaVuSans-2e" transform="translate(63.623047 0.78125)"/>
       <use xlink:href="#DejaVuSans-30" transform="translate(95.410156 0.78125)"/>
      </g>
     </g>
    </g>
    <g id="ytick_4">
     <g id="line2d_57">
      <g>
       <use xlink:href="#md58c7aa936" x="57.320625" y="80.653307" style="stroke: #000000; stroke-width: 0.5"/>
      </g>
     </g>
     <g id="line2d_58">
      <g>
       <use xlink:href="#m9669cc03d5" x="394.748182" y="80.653307" style="stroke: #000000; stroke-width: 0.5"/>
      </g>
     </g>
     <g id="text_10">
      <!-- $\mathdefault{1.2}$ -->
      <g transform="translate(26.100625 87.491901) scale(0.18 -0.18)">
       <use xlink:href="#DejaVuSans-31" transform="translate(0 0.78125)"/>
       <use xlink:href="#DejaVuSans-2e" transform="translate(63.623047 0.78125)"/>
       <use xlink:href="#DejaVuSans-32" transform="translate(89.910156 0.78125)"/>
      </g>
     </g>
    </g>
    <g id="ytick_5">
     <g id="line2d_59">
      <g>
       <use xlink:href="#md58c7aa936" x="57.320625" y="32.823411" style="stroke: #000000; stroke-width: 0.5"/>
      </g>
     </g>
     <g id="line2d_60">
      <g>
       <use xlink:href="#m9669cc03d5" x="394.748182" y="32.823411" style="stroke: #000000; stroke-width: 0.5"/>
      </g>
     </g>
     <g id="text_11">
      <!-- $\mathdefault{1.4}$ -->
      <g transform="translate(25.020625 39.662004) scale(0.18 -0.18)">
       <use xlink:href="#DejaVuSans-31" transform="translate(0 0.09375)"/>
       <use xlink:href="#DejaVuSans-2e" transform="translate(63.623047 0.09375)"/>
       <use xlink:href="#DejaVuSans-34" transform="translate(95.410156 0.09375)"/>
      </g>
     </g>
    </g>
    <g id="ytick_6">
     <g id="line2d_61">
      <defs>
       <path id="m6b7b063352" d="M 0 0 
L 1.5 0 
" style="stroke: #000000; stroke-width: 0.5"/>
      </defs>
      <g>
       <use xlink:href="#m6b7b063352" x="57.320625" y="236.100471" style="stroke: #000000; stroke-width: 0.5"/>
      </g>
     </g>
     <g id="line2d_62">
      <defs>
       <path id="mf184499af5" d="M 0 0 
L -1.5 0 
" style="stroke: #000000; stroke-width: 0.5"/>
      </defs>
      <g>
       <use xlink:href="#mf184499af5" x="394.748182" y="236.100471" style="stroke: #000000; stroke-width: 0.5"/>
      </g>
     </g>
    </g>
    <g id="ytick_7">
     <g id="line2d_63">
      <g>
       <use xlink:href="#m6b7b063352" x="57.320625" y="212.185523" style="stroke: #000000; stroke-width: 0.5"/>
      </g>
     </g>
     <g id="line2d_64">
      <g>
       <use xlink:href="#mf184499af5" x="394.748182" y="212.185523" style="stroke: #000000; stroke-width: 0.5"/>
      </g>
     </g>
    </g>
    <g id="ytick_8">
     <g id="line2d_65">
      <g>
       <use xlink:href="#m6b7b063352" x="57.320625" y="200.228049" style="stroke: #000000; stroke-width: 0.5"/>
      </g>
     </g>
     <g id="line2d_66">
      <g>
       <use xlink:href="#mf184499af5" x="394.748182" y="200.228049" style="stroke: #000000; stroke-width: 0.5"/>
      </g>
     </g>
    </g>
    <g id="ytick_9">
     <g id="line2d_67">
      <g>
       <use xlink:href="#m6b7b063352" x="57.320625" y="188.270575" style="stroke: #000000; stroke-width: 0.5"/>
      </g>
     </g>
     <g id="line2d_68">
      <g>
       <use xlink:href="#mf184499af5" x="394.748182" y="188.270575" style="stroke: #000000; stroke-width: 0.5"/>
      </g>
     </g>
    </g>
    <g id="ytick_10">
     <g id="line2d_69">
      <g>
       <use xlink:href="#m6b7b063352" x="57.320625" y="164.355626" style="stroke: #000000; stroke-width: 0.5"/>
      </g>
     </g>
     <g id="line2d_70">
      <g>
       <use xlink:href="#mf184499af5" x="394.748182" y="164.355626" style="stroke: #000000; stroke-width: 0.5"/>
      </g>
     </g>
    </g>
    <g id="ytick_11">
     <g id="line2d_71">
      <g>
       <use xlink:href="#m6b7b063352" x="57.320625" y="152.398152" style="stroke: #000000; stroke-width: 0.5"/>
      </g>
     </g>
     <g id="line2d_72">
      <g>
       <use xlink:href="#mf184499af5" x="394.748182" y="152.398152" style="stroke: #000000; stroke-width: 0.5"/>
      </g>
     </g>
    </g>
    <g id="ytick_12">
     <g id="line2d_73">
      <g>
       <use xlink:href="#m6b7b063352" x="57.320625" y="140.440678" style="stroke: #000000; stroke-width: 0.5"/>
      </g>
     </g>
     <g id="line2d_74">
      <g>
       <use xlink:href="#mf184499af5" x="394.748182" y="140.440678" style="stroke: #000000; stroke-width: 0.5"/>
      </g>
     </g>
    </g>
    <g id="ytick_13">
     <g id="line2d_75">
      <g>
       <use xlink:href="#m6b7b063352" x="57.320625" y="116.52573" style="stroke: #000000; stroke-width: 0.5"/>
      </g>
     </g>
     <g id="line2d_76">
      <g>
       <use xlink:href="#mf184499af5" x="394.748182" y="116.52573" style="stroke: #000000; stroke-width: 0.5"/>
      </g>
     </g>
    </g>
    <g id="ytick_14">
     <g id="line2d_77">
      <g>
       <use xlink:href="#m6b7b063352" x="57.320625" y="104.568256" style="stroke: #000000; stroke-width: 0.5"/>
      </g>
     </g>
     <g id="line2d_78">
      <g>
       <use xlink:href="#mf184499af5" x="394.748182" y="104.568256" style="stroke: #000000; stroke-width: 0.5"/>
      </g>
     </g>
    </g>
    <g id="ytick_15">
     <g id="line2d_79">
      <g>
       <use xlink:href="#m6b7b063352" x="57.320625" y="92.610781" style="stroke: #000000; stroke-width: 0.5"/>
      </g>
     </g>
     <g id="line2d_80">
      <g>
       <use xlink:href="#mf184499af5" x="394.748182" y="92.610781" style="stroke: #000000; stroke-width: 0.5"/>
      </g>
     </g>
    </g>
    <g id="ytick_16">
     <g id="line2d_81">
      <g>
       <use xlink:href="#m6b7b063352" x="57.320625" y="68.695833" style="stroke: #000000; stroke-width: 0.5"/>
      </g>
     </g>
     <g id="line2d_82">
      <g>
       <use xlink:href="#mf184499af5" x="394.748182" y="68.695833" style="stroke: #000000; stroke-width: 0.5"/>
      </g>
     </g>
    </g>
    <g id="ytick_17">
     <g id="line2d_83">
      <g>
       <use xlink:href="#m6b7b063352" x="57.320625" y="56.738359" style="stroke: #000000; stroke-width: 0.5"/>
      </g>
     </g>
     <g id="line2d_84">
      <g>
       <use xlink:href="#mf184499af5" x="394.748182" y="56.738359" style="stroke: #000000; stroke-width: 0.5"/>
      </g>
     </g>
    </g>
    <g id="ytick_18">
     <g id="line2d_85">
      <g>
       <use xlink:href="#m6b7b063352" x="57.320625" y="44.780885" style="stroke: #000000; stroke-width: 0.5"/>
      </g>
     </g>
     <g id="line2d_86">
      <g>
       <use xlink:href="#mf184499af5" x="394.748182" y="44.780885" style="stroke: #000000; stroke-width: 0.5"/>
      </g>
     </g>
    </g>
    <g id="ytick_19">
     <g id="line2d_87">
      <g>
       <use xlink:href="#m6b7b063352" x="57.320625" y="20.865937" style="stroke: #000000; stroke-width: 0.5"/>
      </g>
     </g>
     <g id="line2d_88">
      <g>
       <use xlink:href="#mf184499af5" x="394.748182" y="20.865937" style="stroke: #000000; stroke-width: 0.5"/>
      </g>
     </g>
    </g>
    <g id="ytick_20">
     <g id="line2d_89">
      <g>
       <use xlink:href="#m6b7b063352" x="57.320625" y="8.908462" style="stroke: #000000; stroke-width: 0.5"/>
      </g>
     </g>
     <g id="line2d_90">
      <g>
       <use xlink:href="#mf184499af5" x="394.748182" y="8.908462" style="stroke: #000000; stroke-width: 0.5"/>
      </g>
     </g>
    </g>
    <g id="text_12">
     <!-- Mean Spatial Constant -->
     <g transform="translate(17.277187 226.678125) rotate(-90) scale(0.18 -0.18)">
      <defs>
       <path id="DejaVuSans-4d" d="M 628 4666 
L 1569 4666 
L 2759 1491 
L 3956 4666 
L 4897 4666 
L 4897 0 
L 4281 0 
L 4281 4097 
L 3078 897 
L 2444 897 
L 1241 4097 
L 1241 0 
L 628 0 
L 628 4666 
z
" transform="scale(0.015625)"/>
       <path id="DejaVuSans-6e" d="M 3513 2113 
L 3513 0 
L 2938 0 
L 2938 2094 
Q 2938 2591 2744 2837 
Q 2550 3084 2163 3084 
Q 1697 3084 1428 2787 
Q 1159 2491 1159 1978 
L 1159 0 
L 581 0 
L 581 3500 
L 1159 3500 
L 1159 2956 
Q 1366 3272 1645 3428 
Q 1925 3584 2291 3584 
Q 2894 3584 3203 3211 
Q 3513 2838 3513 2113 
z
" transform="scale(0.015625)"/>
       <path id="DejaVuSans-74" d="M 1172 4494 
L 1172 3500 
L 2356 3500 
L 2356 3053 
L 1172 3053 
L 1172 1153 
Q 1172 725 1289 603 
Q 1406 481 1766 481 
L 2356 481 
L 2356 0 
L 1766 0 
Q 1100 0 847 248 
Q 594 497 594 1153 
L 594 3053 
L 172 3053 
L 172 3500 
L 594 3500 
L 594 4494 
L 1172 4494 
z
" transform="scale(0.015625)"/>
       <path id="DejaVuSans-6c" d="M 603 4863 
L 1178 4863 
L 1178 0 
L 603 0 
L 603 4863 
z
" transform="scale(0.015625)"/>
       <path id="DejaVuSans-43" d="M 4122 4306 
L 4122 3641 
Q 3803 3938 3442 4084 
Q 3081 4231 2675 4231 
Q 1875 4231 1450 3742 
Q 1025 3253 1025 2328 
Q 1025 1406 1450 917 
Q 1875 428 2675 428 
Q 3081 428 3442 575 
Q 3803 722 4122 1019 
L 4122 359 
Q 3791 134 3420 21 
Q 3050 -91 2638 -91 
Q 1578 -91 968 557 
Q 359 1206 359 2328 
Q 359 3453 968 4101 
Q 1578 4750 2638 4750 
Q 3056 4750 3426 4639 
Q 3797 4528 4122 4306 
z
" transform="scale(0.015625)"/>
       <path id="DejaVuSans-6f" d="M 1959 3097 
Q 1497 3097 1228 2736 
Q 959 2375 959 1747 
Q 959 1119 1226 758 
Q 1494 397 1959 397 
Q 2419 397 2687 759 
Q 2956 1122 2956 1747 
Q 2956 2369 2687 2733 
Q 2419 3097 1959 3097 
z
M 1959 3584 
Q 2709 3584 3137 3096 
Q 3566 2609 3566 1747 
Q 3566 888 3137 398 
Q 2709 -91 1959 -91 
Q 1206 -91 779 398 
Q 353 888 353 1747 
Q 353 2609 779 3096 
Q 1206 3584 1959 3584 
z
" transform="scale(0.015625)"/>
       <path id="DejaVuSans-73" d="M 2834 3397 
L 2834 2853 
Q 2591 2978 2328 3040 
Q 2066 3103 1784 3103 
Q 1356 3103 1142 2972 
Q 928 2841 928 2578 
Q 928 2378 1081 2264 
Q 1234 2150 1697 2047 
L 1894 2003 
Q 2506 1872 2764 1633 
Q 3022 1394 3022 966 
Q 3022 478 2636 193 
Q 2250 -91 1575 -91 
Q 1294 -91 989 -36 
Q 684 19 347 128 
L 347 722 
Q 666 556 975 473 
Q 1284 391 1588 391 
Q 1994 391 2212 530 
Q 2431 669 2431 922 
Q 2431 1156 2273 1281 
Q 2116 1406 1581 1522 
L 1381 1569 
Q 847 1681 609 1914 
Q 372 2147 372 2553 
Q 372 3047 722 3315 
Q 1072 3584 1716 3584 
Q 2034 3584 2315 3537 
Q 2597 3491 2834 3397 
z
" transform="scale(0.015625)"/>
      </defs>
      <use xlink:href="#DejaVuSans-4d"/>
      <use xlink:href="#DejaVuSans-65" x="86.279297"/>
      <use xlink:href="#DejaVuSans-61" x="147.802734"/>
      <use xlink:href="#DejaVuSans-6e" x="209.082031"/>
      <use xlink:href="#DejaVuSans-20" x="272.460938"/>
      <use xlink:href="#DejaVuSans-53" x="304.248047"/>
      <use xlink:href="#DejaVuSans-70" x="367.724609"/>
      <use xlink:href="#DejaVuSans-61" x="431.201172"/>
      <use xlink:href="#DejaVuSans-74" x="492.480469"/>
      <use xlink:href="#DejaVuSans-69" x="531.689453"/>
      <use xlink:href="#DejaVuSans-61" x="559.472656"/>
      <use xlink:href="#DejaVuSans-6c" x="620.751953"/>
      <use xlink:href="#DejaVuSans-20" x="648.535156"/>
      <use xlink:href="#DejaVuSans-43" x="680.322266"/>
      <use xlink:href="#DejaVuSans-6f" x="750.146484"/>
      <use xlink:href="#DejaVuSans-6e" x="811.328125"/>
      <use xlink:href="#DejaVuSans-73" x="874.707031"/>
      <use xlink:href="#DejaVuSans-74" x="926.806641"/>
      <use xlink:href="#DejaVuSans-61" x="966.015625"/>
      <use xlink:href="#DejaVuSans-6e" x="1027.294922"/>
      <use xlink:href="#DejaVuSans-74" x="1090.673828"/>
     </g>
    </g>
   </g>
   <g id="line2d_91">
    <path d="M 72.658241 73.836967 
L 106.741833 56.523485 
L 140.825424 51.570393 
L 174.909016 53.700494 
L 208.992608 38.343451 
L 243.076199 40.62574 
L 277.159791 40.606547 
L 311.243382 39.5323 
L 345.326974 30.280785 
L 379.410566 14.635398 
" clip-path="url(#pee3ac5d758)" style="fill: none; stroke: #0c5da5; stroke-width: 2; stroke-linecap: square"/>
    <defs>
     <path id="ma9ee706654" d="M 0 3 
C 0.795609 3 1.55874 2.683901 2.12132 2.12132 
C 2.683901 1.55874 3 0.795609 3 0 
C 3 -0.795609 2.683901 -1.55874 2.12132 -2.12132 
C 1.55874 -2.683901 0.795609 -3 0 -3 
C -0.795609 -3 -1.55874 -2.683901 -2.12132 -2.12132 
C -2.683901 -1.55874 -3 -0.795609 -3 0 
C -3 0.795609 -2.683901 1.55874 -2.12132 2.12132 
C -1.55874 2.683901 -0.795609 3 0 3 
z
" style="stroke: #0c5da5"/>
    </defs>
    <g clip-path="url(#pee3ac5d758)">
     <use xlink:href="#ma9ee706654" x="72.658241" y="73.836967" style="fill: #0c5da5; stroke: #0c5da5"/>
     <use xlink:href="#ma9ee706654" x="106.741833" y="56.523485" style="fill: #0c5da5; stroke: #0c5da5"/>
     <use xlink:href="#ma9ee706654" x="140.825424" y="51.570393" style="fill: #0c5da5; stroke: #0c5da5"/>
     <use xlink:href="#ma9ee706654" x="174.909016" y="53.700494" style="fill: #0c5da5; stroke: #0c5da5"/>
     <use xlink:href="#ma9ee706654" x="208.992608" y="38.343451" style="fill: #0c5da5; stroke: #0c5da5"/>
     <use xlink:href="#ma9ee706654" x="243.076199" y="40.62574" style="fill: #0c5da5; stroke: #0c5da5"/>
     <use xlink:href="#ma9ee706654" x="277.159791" y="40.606547" style="fill: #0c5da5; stroke: #0c5da5"/>
     <use xlink:href="#ma9ee706654" x="311.243382" y="39.5323" style="fill: #0c5da5; stroke: #0c5da5"/>
     <use xlink:href="#ma9ee706654" x="345.326974" y="30.280785" style="fill: #0c5da5; stroke: #0c5da5"/>
     <use xlink:href="#ma9ee706654" x="379.410566" y="14.635398" style="fill: #0c5da5; stroke: #0c5da5"/>
    </g>
   </g>
   <g id="line2d_92">
    <path d="M 72.658241 89.854844 
L 106.741833 101.8237 
L 140.825424 116.16518 
L 174.909016 126.355685 
L 208.992608 141.171465 
L 243.076199 148.695471 
L 277.159791 155.845838 
L 311.243382 162.560761 
L 345.326974 170.974176 
L 379.410566 175.746261 
" clip-path="url(#pee3ac5d758)" style="fill: none; stroke: #00b945; stroke-width: 2; stroke-linecap: square"/>
    <defs>
     <path id="m2af192a3db" d="M 0 3 
C 0.795609 3 1.55874 2.683901 2.12132 2.12132 
C 2.683901 1.55874 3 0.795609 3 0 
C 3 -0.795609 2.683901 -1.55874 2.12132 -2.12132 
C 1.55874 -2.683901 0.795609 -3 0 -3 
C -0.795609 -3 -1.55874 -2.683901 -2.12132 -2.12132 
C -2.683901 -1.55874 -3 -0.795609 -3 0 
C -3 0.795609 -2.683901 1.55874 -2.12132 2.12132 
C -1.55874 2.683901 -0.795609 3 0 3 
z
" style="stroke: #00b945"/>
    </defs>
    <g clip-path="url(#pee3ac5d758)">
     <use xlink:href="#m2af192a3db" x="72.658241" y="89.854844" style="fill: #00b945; stroke: #00b945"/>
     <use xlink:href="#m2af192a3db" x="106.741833" y="101.8237" style="fill: #00b945; stroke: #00b945"/>
     <use xlink:href="#m2af192a3db" x="140.825424" y="116.16518" style="fill: #00b945; stroke: #00b945"/>
     <use xlink:href="#m2af192a3db" x="174.909016" y="126.355685" style="fill: #00b945; stroke: #00b945"/>
     <use xlink:href="#m2af192a3db" x="208.992608" y="141.171465" style="fill: #00b945; stroke: #00b945"/>
     <use xlink:href="#m2af192a3db" x="243.076199" y="148.695471" style="fill: #00b945; stroke: #00b945"/>
     <use xlink:href="#m2af192a3db" x="277.159791" y="155.845838" style="fill: #00b945; stroke: #00b945"/>
     <use xlink:href="#m2af192a3db" x="311.243382" y="162.560761" style="fill: #00b945; stroke: #00b945"/>
     <use xlink:href="#m2af192a3db" x="345.326974" y="170.974176" style="fill: #00b945; stroke: #00b945"/>
     <use xlink:href="#m2af192a3db" x="379.410566" y="175.746261" style="fill: #00b945; stroke: #00b945"/>
    </g>
   </g>
   <g id="line2d_93">
    <path d="M 72.658241 101.148542 
L 106.741833 127.847605 
L 140.825424 131.739899 
L 174.909016 148.578289 
L 208.992608 158.942093 
L 243.076199 176.734115 
L 277.159791 184.767123 
L 311.243382 193.812777 
L 345.326974 201.231151 
L 379.410566 206.011832 
" clip-path="url(#pee3ac5d758)" style="fill: none; stroke: #ff9500; stroke-width: 2; stroke-linecap: square"/>
    <defs>
     <path id="m4bf1210b57" d="M 0 3 
C 0.795609 3 1.55874 2.683901 2.12132 2.12132 
C 2.683901 1.55874 3 0.795609 3 0 
C 3 -0.795609 2.683901 -1.55874 2.12132 -2.12132 
C 1.55874 -2.683901 0.795609 -3 0 -3 
C -0.795609 -3 -1.55874 -2.683901 -2.12132 -2.12132 
C -2.683901 -1.55874 -3 -0.795609 -3 0 
C -3 0.795609 -2.683901 1.55874 -2.12132 2.12132 
C -1.55874 2.683901 -0.795609 3 0 3 
z
" style="stroke: #ff9500"/>
    </defs>
    <g clip-path="url(#pee3ac5d758)">
     <use xlink:href="#m4bf1210b57" x="72.658241" y="101.148542" style="fill: #ff9500; stroke: #ff9500"/>
     <use xlink:href="#m4bf1210b57" x="106.741833" y="127.847605" style="fill: #ff9500; stroke: #ff9500"/>
     <use xlink:href="#m4bf1210b57" x="140.825424" y="131.739899" style="fill: #ff9500; stroke: #ff9500"/>
     <use xlink:href="#m4bf1210b57" x="174.909016" y="148.578289" style="fill: #ff9500; stroke: #ff9500"/>
     <use xlink:href="#m4bf1210b57" x="208.992608" y="158.942093" style="fill: #ff9500; stroke: #ff9500"/>
     <use xlink:href="#m4bf1210b57" x="243.076199" y="176.734115" style="fill: #ff9500; stroke: #ff9500"/>
     <use xlink:href="#m4bf1210b57" x="277.159791" y="184.767123" style="fill: #ff9500; stroke: #ff9500"/>
     <use xlink:href="#m4bf1210b57" x="311.243382" y="193.812777" style="fill: #ff9500; stroke: #ff9500"/>
     <use xlink:href="#m4bf1210b57" x="345.326974" y="201.231151" style="fill: #ff9500; stroke: #ff9500"/>
     <use xlink:href="#m4bf1210b57" x="379.410566" y="206.011832" style="fill: #ff9500; stroke: #ff9500"/>
    </g>
   </g>
   <g id="line2d_94">
    <path d="M 72.658241 107.189802 
L 106.741833 134.573355 
L 140.825424 155.435164 
L 174.909016 169.586475 
L 208.992608 180.212037 
L 243.076199 192.130612 
L 277.159791 202.77477 
L 311.243382 211.78177 
L 345.326974 217.739318 
L 379.410566 221.856376 
" clip-path="url(#pee3ac5d758)" style="fill: none; stroke: #ff2c00; stroke-width: 2; stroke-linecap: square"/>
    <defs>
     <path id="m35f7d6aff5" d="M 0 3 
C 0.795609 3 1.55874 2.683901 2.12132 2.12132 
C 2.683901 1.55874 3 0.795609 3 0 
C 3 -0.795609 2.683901 -1.55874 2.12132 -2.12132 
C 1.55874 -2.683901 0.795609 -3 0 -3 
C -0.795609 -3 -1.55874 -2.683901 -2.12132 -2.12132 
C -2.683901 -1.55874 -3 -0.795609 -3 0 
C -3 0.795609 -2.683901 1.55874 -2.12132 2.12132 
C -1.55874 2.683901 -0.795609 3 0 3 
z
" style="stroke: #ff2c00"/>
    </defs>
    <g clip-path="url(#pee3ac5d758)">
     <use xlink:href="#m35f7d6aff5" x="72.658241" y="107.189802" style="fill: #ff2c00; stroke: #ff2c00"/>
     <use xlink:href="#m35f7d6aff5" x="106.741833" y="134.573355" style="fill: #ff2c00; stroke: #ff2c00"/>
     <use xlink:href="#m35f7d6aff5" x="140.825424" y="155.435164" style="fill: #ff2c00; stroke: #ff2c00"/>
     <use xlink:href="#m35f7d6aff5" x="174.909016" y="169.586475" style="fill: #ff2c00; stroke: #ff2c00"/>
     <use xlink:href="#m35f7d6aff5" x="208.992608" y="180.212037" style="fill: #ff2c00; stroke: #ff2c00"/>
     <use xlink:href="#m35f7d6aff5" x="243.076199" y="192.130612" style="fill: #ff2c00; stroke: #ff2c00"/>
     <use xlink:href="#m35f7d6aff5" x="277.159791" y="202.77477" style="fill: #ff2c00; stroke: #ff2c00"/>
     <use xlink:href="#m35f7d6aff5" x="311.243382" y="211.78177" style="fill: #ff2c00; stroke: #ff2c00"/>
     <use xlink:href="#m35f7d6aff5" x="345.326974" y="217.739318" style="fill: #ff2c00; stroke: #ff2c00"/>
     <use xlink:href="#m35f7d6aff5" x="379.410566" y="221.856376" style="fill: #ff2c00; stroke: #ff2c00"/>
    </g>
   </g>
   <g id="line2d_95">
    <path d="M 72.658241 122.688705 
L 106.741833 143.523706 
L 140.825424 161.590677 
L 174.909016 177.515076 
L 208.992608 188.662328 
L 243.076199 200.122447 
L 277.159791 210.968843 
L 311.243382 219.435441 
L 345.326974 224.703531 
L 379.410566 229.157002 
" clip-path="url(#pee3ac5d758)" style="fill: none; stroke: #845b97; stroke-width: 2; stroke-linecap: square"/>
    <defs>
     <path id="m27d09f0270" d="M 0 3 
C 0.795609 3 1.55874 2.683901 2.12132 2.12132 
C 2.683901 1.55874 3 0.795609 3 0 
C 3 -0.795609 2.683901 -1.55874 2.12132 -2.12132 
C 1.55874 -2.683901 0.795609 -3 0 -3 
C -0.795609 -3 -1.55874 -2.683901 -2.12132 -2.12132 
C -2.683901 -1.55874 -3 -0.795609 -3 0 
C -3 0.795609 -2.683901 1.55874 -2.12132 2.12132 
C -1.55874 2.683901 -0.795609 3 0 3 
z
" style="stroke: #845b97"/>
    </defs>
    <g clip-path="url(#pee3ac5d758)">
     <use xlink:href="#m27d09f0270" x="72.658241" y="122.688705" style="fill: #845b97; stroke: #845b97"/>
     <use xlink:href="#m27d09f0270" x="106.741833" y="143.523706" style="fill: #845b97; stroke: #845b97"/>
     <use xlink:href="#m27d09f0270" x="140.825424" y="161.590677" style="fill: #845b97; stroke: #845b97"/>
     <use xlink:href="#m27d09f0270" x="174.909016" y="177.515076" style="fill: #845b97; stroke: #845b97"/>
     <use xlink:href="#m27d09f0270" x="208.992608" y="188.662328" style="fill: #845b97; stroke: #845b97"/>
     <use xlink:href="#m27d09f0270" x="243.076199" y="200.122447" style="fill: #845b97; stroke: #845b97"/>
     <use xlink:href="#m27d09f0270" x="277.159791" y="210.968843" style="fill: #845b97; stroke: #845b97"/>
     <use xlink:href="#m27d09f0270" x="311.243382" y="219.435441" style="fill: #845b97; stroke: #845b97"/>
     <use xlink:href="#m27d09f0270" x="345.326974" y="224.703531" style="fill: #845b97; stroke: #845b97"/>
     <use xlink:href="#m27d09f0270" x="379.410566" y="229.157002" style="fill: #845b97; stroke: #845b97"/>
    </g>
   </g>
   <g id="line2d_96">
    <path d="M 72.658241 129.761083 
L 106.741833 144.119663 
L 140.825424 168.259813 
L 174.909016 184.036904 
L 208.992608 196.639973 
L 243.076199 207.863851 
L 277.159791 219.033598 
L 311.243382 225.884549 
L 345.326974 232.108321 
L 379.410566 235.343352 
" clip-path="url(#pee3ac5d758)" style="fill: none; stroke: #474747; stroke-width: 2; stroke-linecap: square"/>
    <defs>
     <path id="mc22d10c983" d="M 0 3 
C 0.795609 3 1.55874 2.683901 2.12132 2.12132 
C 2.683901 1.55874 3 0.795609 3 0 
C 3 -0.795609 2.683901 -1.55874 2.12132 -2.12132 
C 1.55874 -2.683901 0.795609 -3 0 -3 
C -0.795609 -3 -1.55874 -2.683901 -2.12132 -2.12132 
C -2.683901 -1.55874 -3 -0.795609 -3 0 
C -3 0.795609 -2.683901 1.55874 -2.12132 2.12132 
C -1.55874 2.683901 -0.795609 3 0 3 
z
" style="stroke: #474747"/>
    </defs>
    <g clip-path="url(#pee3ac5d758)">
     <use xlink:href="#mc22d10c983" x="72.658241" y="129.761083" style="fill: #474747; stroke: #474747"/>
     <use xlink:href="#mc22d10c983" x="106.741833" y="144.119663" style="fill: #474747; stroke: #474747"/>
     <use xlink:href="#mc22d10c983" x="140.825424" y="168.259813" style="fill: #474747; stroke: #474747"/>
     <use xlink:href="#mc22d10c983" x="174.909016" y="184.036904" style="fill: #474747; stroke: #474747"/>
     <use xlink:href="#mc22d10c983" x="208.992608" y="196.639973" style="fill: #474747; stroke: #474747"/>
     <use xlink:href="#mc22d10c983" x="243.076199" y="207.863851" style="fill: #474747; stroke: #474747"/>
     <use xlink:href="#mc22d10c983" x="277.159791" y="219.033598" style="fill: #474747; stroke: #474747"/>
     <use xlink:href="#mc22d10c983" x="311.243382" y="225.884549" style="fill: #474747; stroke: #474747"/>
     <use xlink:href="#mc22d10c983" x="345.326974" y="232.108321" style="fill: #474747; stroke: #474747"/>
     <use xlink:href="#mc22d10c983" x="379.410566" y="235.343352" style="fill: #474747; stroke: #474747"/>
    </g>
   </g>
   <g id="patch_3">
    <path d="M 57.320625 246.37875 
L 57.320625 3.6 
" style="fill: none; stroke: #000000; stroke-width: 0.5; stroke-linejoin: miter; stroke-linecap: square"/>
   </g>
   <g id="patch_4">
    <path d="M 394.748182 246.37875 
L 394.748182 3.6 
" style="fill: none; stroke: #000000; stroke-width: 0.5; stroke-linejoin: miter; stroke-linecap: square"/>
   </g>
   <g id="patch_5">
    <path d="M 57.320625 246.37875 
L 394.748182 246.37875 
" style="fill: none; stroke: #000000; stroke-width: 0.5; stroke-linejoin: miter; stroke-linecap: square"/>
   </g>
   <g id="patch_6">
    <path d="M 57.320625 3.6 
L 394.748182 3.6 
" style="fill: none; stroke: #000000; stroke-width: 0.5; stroke-linejoin: miter; stroke-linecap: square"/>
   </g>
   <g id="legend_1">
    <g id="line2d_97">
     <path d="M 249.190057 19.318125 
L 261.190057 19.318125 
L 273.190057 19.318125 
" style="fill: none; stroke: #0c5da5; stroke-width: 2; stroke-linecap: square"/>
     <g>
      <use xlink:href="#ma9ee706654" x="261.190057" y="19.318125" style="fill: #0c5da5; stroke: #0c5da5"/>
     </g>
    </g>
    <g id="text_13">
     <!-- False Edges: 0 -->
     <g transform="translate(282.790057 23.518125) scale(0.12 -0.12)">
      <defs>
       <path id="DejaVuSans-46" d="M 628 4666 
L 3309 4666 
L 3309 4134 
L 1259 4134 
L 1259 2759 
L 3109 2759 
L 3109 2228 
L 1259 2228 
L 1259 0 
L 628 0 
L 628 4666 
z
" transform="scale(0.015625)"/>
       <path id="DejaVuSans-45" d="M 628 4666 
L 3578 4666 
L 3578 4134 
L 1259 4134 
L 1259 2753 
L 3481 2753 
L 3481 2222 
L 1259 2222 
L 1259 531 
L 3634 531 
L 3634 0 
L 628 0 
L 628 4666 
z
" transform="scale(0.015625)"/>
       <path id="DejaVuSans-64" d="M 2906 2969 
L 2906 4863 
L 3481 4863 
L 3481 0 
L 2906 0 
L 2906 525 
Q 2725 213 2448 61 
Q 2172 -91 1784 -91 
Q 1150 -91 751 415 
Q 353 922 353 1747 
Q 353 2572 751 3078 
Q 1150 3584 1784 3584 
Q 2172 3584 2448 3432 
Q 2725 3281 2906 2969 
z
M 947 1747 
Q 947 1113 1208 752 
Q 1469 391 1925 391 
Q 2381 391 2643 752 
Q 2906 1113 2906 1747 
Q 2906 2381 2643 2742 
Q 2381 3103 1925 3103 
Q 1469 3103 1208 2742 
Q 947 2381 947 1747 
z
" transform="scale(0.015625)"/>
       <path id="DejaVuSans-3a" d="M 750 794 
L 1409 794 
L 1409 0 
L 750 0 
L 750 794 
z
M 750 3309 
L 1409 3309 
L 1409 2516 
L 750 2516 
L 750 3309 
z
" transform="scale(0.015625)"/>
      </defs>
      <use xlink:href="#DejaVuSans-46"/>
      <use xlink:href="#DejaVuSans-61" x="48.394531"/>
      <use xlink:href="#DejaVuSans-6c" x="109.673828"/>
      <use xlink:href="#DejaVuSans-73" x="137.457031"/>
      <use xlink:href="#DejaVuSans-65" x="189.556641"/>
      <use xlink:href="#DejaVuSans-20" x="251.080078"/>
      <use xlink:href="#DejaVuSans-45" x="282.867188"/>
      <use xlink:href="#DejaVuSans-64" x="346.050781"/>
      <use xlink:href="#DejaVuSans-67" x="409.527344"/>
      <use xlink:href="#DejaVuSans-65" x="473.003906"/>
      <use xlink:href="#DejaVuSans-73" x="534.527344"/>
      <use xlink:href="#DejaVuSans-3a" x="586.626953"/>
      <use xlink:href="#DejaVuSans-20" x="620.318359"/>
      <use xlink:href="#DejaVuSans-30" x="652.105469"/>
     </g>
    </g>
    <g id="line2d_98">
     <path d="M 249.190057 36.931875 
L 261.190057 36.931875 
L 273.190057 36.931875 
" style="fill: none; stroke: #00b945; stroke-width: 2; stroke-linecap: square"/>
     <g>
      <use xlink:href="#m2af192a3db" x="261.190057" y="36.931875" style="fill: #00b945; stroke: #00b945"/>
     </g>
    </g>
    <g id="text_14">
     <!-- False Edges: 20 -->
     <g transform="translate(282.790057 41.131875) scale(0.12 -0.12)">
      <use xlink:href="#DejaVuSans-46"/>
      <use xlink:href="#DejaVuSans-61" x="48.394531"/>
      <use xlink:href="#DejaVuSans-6c" x="109.673828"/>
      <use xlink:href="#DejaVuSans-73" x="137.457031"/>
      <use xlink:href="#DejaVuSans-65" x="189.556641"/>
      <use xlink:href="#DejaVuSans-20" x="251.080078"/>
      <use xlink:href="#DejaVuSans-45" x="282.867188"/>
      <use xlink:href="#DejaVuSans-64" x="346.050781"/>
      <use xlink:href="#DejaVuSans-67" x="409.527344"/>
      <use xlink:href="#DejaVuSans-65" x="473.003906"/>
      <use xlink:href="#DejaVuSans-73" x="534.527344"/>
      <use xlink:href="#DejaVuSans-3a" x="586.626953"/>
      <use xlink:href="#DejaVuSans-20" x="620.318359"/>
      <use xlink:href="#DejaVuSans-32" x="652.105469"/>
      <use xlink:href="#DejaVuSans-30" x="715.728516"/>
     </g>
    </g>
    <g id="line2d_99">
     <path d="M 249.190057 54.545625 
L 261.190057 54.545625 
L 273.190057 54.545625 
" style="fill: none; stroke: #ff9500; stroke-width: 2; stroke-linecap: square"/>
     <g>
      <use xlink:href="#m4bf1210b57" x="261.190057" y="54.545625" style="fill: #ff9500; stroke: #ff9500"/>
     </g>
    </g>
    <g id="text_15">
     <!-- False Edges: 40 -->
     <g transform="translate(282.790057 58.745625) scale(0.12 -0.12)">
      <use xlink:href="#DejaVuSans-46"/>
      <use xlink:href="#DejaVuSans-61" x="48.394531"/>
      <use xlink:href="#DejaVuSans-6c" x="109.673828"/>
      <use xlink:href="#DejaVuSans-73" x="137.457031"/>
      <use xlink:href="#DejaVuSans-65" x="189.556641"/>
      <use xlink:href="#DejaVuSans-20" x="251.080078"/>
      <use xlink:href="#DejaVuSans-45" x="282.867188"/>
      <use xlink:href="#DejaVuSans-64" x="346.050781"/>
      <use xlink:href="#DejaVuSans-67" x="409.527344"/>
      <use xlink:href="#DejaVuSans-65" x="473.003906"/>
      <use xlink:href="#DejaVuSans-73" x="534.527344"/>
      <use xlink:href="#DejaVuSans-3a" x="586.626953"/>
      <use xlink:href="#DejaVuSans-20" x="620.318359"/>
      <use xlink:href="#DejaVuSans-34" x="652.105469"/>
      <use xlink:href="#DejaVuSans-30" x="715.728516"/>
     </g>
    </g>
    <g id="line2d_100">
     <path d="M 249.190057 72.159375 
L 261.190057 72.159375 
L 273.190057 72.159375 
" style="fill: none; stroke: #ff2c00; stroke-width: 2; stroke-linecap: square"/>
     <g>
      <use xlink:href="#m35f7d6aff5" x="261.190057" y="72.159375" style="fill: #ff2c00; stroke: #ff2c00"/>
     </g>
    </g>
    <g id="text_16">
     <!-- False Edges: 60 -->
     <g transform="translate(282.790057 76.359375) scale(0.12 -0.12)">
      <use xlink:href="#DejaVuSans-46"/>
      <use xlink:href="#DejaVuSans-61" x="48.394531"/>
      <use xlink:href="#DejaVuSans-6c" x="109.673828"/>
      <use xlink:href="#DejaVuSans-73" x="137.457031"/>
      <use xlink:href="#DejaVuSans-65" x="189.556641"/>
      <use xlink:href="#DejaVuSans-20" x="251.080078"/>
      <use xlink:href="#DejaVuSans-45" x="282.867188"/>
      <use xlink:href="#DejaVuSans-64" x="346.050781"/>
      <use xlink:href="#DejaVuSans-67" x="409.527344"/>
      <use xlink:href="#DejaVuSans-65" x="473.003906"/>
      <use xlink:href="#DejaVuSans-73" x="534.527344"/>
      <use xlink:href="#DejaVuSans-3a" x="586.626953"/>
      <use xlink:href="#DejaVuSans-20" x="620.318359"/>
      <use xlink:href="#DejaVuSans-36" x="652.105469"/>
      <use xlink:href="#DejaVuSans-30" x="715.728516"/>
     </g>
    </g>
    <g id="line2d_101">
     <path d="M 249.190057 89.773125 
L 261.190057 89.773125 
L 273.190057 89.773125 
" style="fill: none; stroke: #845b97; stroke-width: 2; stroke-linecap: square"/>
     <g>
      <use xlink:href="#m27d09f0270" x="261.190057" y="89.773125" style="fill: #845b97; stroke: #845b97"/>
     </g>
    </g>
    <g id="text_17">
     <!-- False Edges: 80 -->
     <g transform="translate(282.790057 93.973125) scale(0.12 -0.12)">
      <use xlink:href="#DejaVuSans-46"/>
      <use xlink:href="#DejaVuSans-61" x="48.394531"/>
      <use xlink:href="#DejaVuSans-6c" x="109.673828"/>
      <use xlink:href="#DejaVuSans-73" x="137.457031"/>
      <use xlink:href="#DejaVuSans-65" x="189.556641"/>
      <use xlink:href="#DejaVuSans-20" x="251.080078"/>
      <use xlink:href="#DejaVuSans-45" x="282.867188"/>
      <use xlink:href="#DejaVuSans-64" x="346.050781"/>
      <use xlink:href="#DejaVuSans-67" x="409.527344"/>
      <use xlink:href="#DejaVuSans-65" x="473.003906"/>
      <use xlink:href="#DejaVuSans-73" x="534.527344"/>
      <use xlink:href="#DejaVuSans-3a" x="586.626953"/>
      <use xlink:href="#DejaVuSans-20" x="620.318359"/>
      <use xlink:href="#DejaVuSans-38" x="652.105469"/>
      <use xlink:href="#DejaVuSans-30" x="715.728516"/>
     </g>
    </g>
    <g id="line2d_102">
     <path d="M 249.190057 107.386875 
L 261.190057 107.386875 
L 273.190057 107.386875 
" style="fill: none; stroke: #474747; stroke-width: 2; stroke-linecap: square"/>
     <g>
      <use xlink:href="#mc22d10c983" x="261.190057" y="107.386875" style="fill: #474747; stroke: #474747"/>
     </g>
    </g>
    <g id="text_18">
     <!-- False Edges: 100 -->
     <g transform="translate(282.790057 111.586875) scale(0.12 -0.12)">
      <use xlink:href="#DejaVuSans-46"/>
      <use xlink:href="#DejaVuSans-61" x="48.394531"/>
      <use xlink:href="#DejaVuSans-6c" x="109.673828"/>
      <use xlink:href="#DejaVuSans-73" x="137.457031"/>
      <use xlink:href="#DejaVuSans-65" x="189.556641"/>
      <use xlink:href="#DejaVuSans-20" x="251.080078"/>
      <use xlink:href="#DejaVuSans-45" x="282.867188"/>
      <use xlink:href="#DejaVuSans-64" x="346.050781"/>
      <use xlink:href="#DejaVuSans-67" x="409.527344"/>
      <use xlink:href="#DejaVuSans-65" x="473.003906"/>
      <use xlink:href="#DejaVuSans-73" x="534.527344"/>
      <use xlink:href="#DejaVuSans-3a" x="586.626953"/>
      <use xlink:href="#DejaVuSans-20" x="620.318359"/>
      <use xlink:href="#DejaVuSans-31" x="652.105469"/>
      <use xlink:href="#DejaVuSans-30" x="715.728516"/>
      <use xlink:href="#DejaVuSans-30" x="779.351562"/>
     </g>
    </g>
   </g>
  </g>
 </g>
 <defs>
  <clipPath id="pee3ac5d758">
   <rect x="57.320625" y="3.6" width="337.427557" height="242.77875"/>
  </clipPath>
 </defs>
</svg>
