<?xml version="1.0" encoding="utf-8" standalone="no"?>
<!DOCTYPE svg PUBLIC "-//W3C//DTD SVG 1.1//EN"
  "http://www.w3.org/Graphics/SVG/1.1/DTD/svg11.dtd">
<svg xmlns:xlink="http://www.w3.org/1999/xlink" width="839.300847pt" height="675.36pt" viewBox="0 0 839.300847 675.36" xmlns="http://www.w3.org/2000/svg" version="1.1">
 <metadata>
  <rdf:RDF xmlns:dc="http://purl.org/dc/elements/1.1/" xmlns:cc="http://creativecommons.org/ns#" xmlns:rdf="http://www.w3.org/1999/02/22-rdf-syntax-ns#">
   <cc:Work>
    <dc:type rdf:resource="http://purl.org/dc/dcmitype/StillImage"/>
    <dc:date>2024-03-08T12:57:22.383829</dc:date>
    <dc:format>image/svg+xml</dc:format>
    <dc:creator>
     <cc:Agent>
      <dc:title>Matplotlib v3.8.3, https://matplotlib.org/</dc:title>
     </cc:Agent>
    </dc:creator>
   </cc:Work>
  </rdf:RDF>
 </metadata>
 <defs>
  <style type="text/css">*{stroke-linejoin: round; stroke-linecap: butt}</style>
 </defs>
 <g id="figure_1">
  <g id="patch_1">
   <path d="M 0 675.36 
L 839.300847 675.36 
L 839.300847 0 
L 0 0 
z
" style="fill: #ffffff"/>
  </g>
  <g id="axes_1">
   <g id="patch_2">
    <path d="M 80.200067 404.496 
L 779.041627 404.496 
L 779.041627 3.6 
L 80.200067 3.6 
z
" style="fill: #ffffff"/>
   </g>
   <g id="matplotlib.axis_1">
    <g id="xtick_1">
     <g id="line2d_1">
      <defs>
       <path id="m3f8c307421" d="M 0 0 
L 0 3 
" style="stroke: #262626; stroke-width: 0.5"/>
      </defs>
      <g>
       <use xlink:href="#m3f8c307421" x="111.965592" y="3.6" style="fill: #262626; stroke: #262626; stroke-width: 0.5"/>
      </g>
     </g>
     <g id="text_1">
      <!-- 1 -->
      <g style="fill: #262626" transform="translate(105.31859 425.031969) scale(0.24 -0.24)">
       <defs>
        <path id="NimbusSanL-Regu-31" d="M 1658 3238 
L 1658 0 
L 2221 0 
L 2221 4545 
L 1850 4545 
C 1651 3847 1523 3751 653 3642 
L 653 3238 
L 1658 3238 
z
" transform="scale(0.015625)"/>
       </defs>
       <use xlink:href="#NimbusSanL-Regu-31" transform="scale(0.996264)"/>
      </g>
     </g>
    </g>
    <g id="xtick_2">
     <g id="line2d_2">
      <g>
       <use xlink:href="#m3f8c307421" x="270.793219" y="3.6" style="fill: #262626; stroke: #262626; stroke-width: 0.5"/>
      </g>
     </g>
     <g id="text_2">
      <!-- 2 -->
      <g style="fill: #262626" transform="translate(264.146217 425.031969) scale(0.24 -0.24)">
       <defs>
        <path id="NimbusSanL-Regu-32" d="M 3238 558 
L 851 558 
C 909 930 1114 1167 1670 1494 
L 2310 1840 
C 2944 2186 3270 2653 3270 3211 
C 3270 3589 3117 3942 2848 4185 
C 2579 4429 2246 4544 1818 4544 
C 1242 4544 813 4339 563 3955 
C 403 3711 333 3429 320 2967 
L 883 2967 
C 902 3275 941 3461 1018 3608 
C 1165 3884 1459 4051 1798 4051 
C 2310 4051 2694 3685 2694 3198 
C 2694 2839 2483 2531 2080 2301 
L 1491 1968 
C 544 1430 269 1000 218 0 
L 3238 0 
L 3238 558 
z
" transform="scale(0.015625)"/>
       </defs>
       <use xlink:href="#NimbusSanL-Regu-32" transform="scale(0.996264)"/>
      </g>
     </g>
    </g>
    <g id="xtick_3">
     <g id="line2d_3">
      <g>
       <use xlink:href="#m3f8c307421" x="429.620847" y="3.6" style="fill: #262626; stroke: #262626; stroke-width: 0.5"/>
      </g>
     </g>
     <g id="text_3">
      <!-- 3 -->
      <g style="fill: #262626" transform="translate(422.973845 425.031969) scale(0.24 -0.24)">
       <defs>
        <path id="NimbusSanL-Regu-33" d="M 1414 2112 
L 1485 2112 
L 1722 2112 
C 2342 2112 2662 1830 2662 1284 
C 2662 712 2310 372 1722 372 
C 1107 372 806 681 768 1345 
L 205 1345 
C 230 978 294 740 403 534 
C 634 97 1082 -128 1702 -128 
C 2637 -128 3238 431 3238 1293 
C 3238 1872 3014 2194 2470 2381 
C 2893 2546 3104 2862 3104 3311 
C 3104 4082 2586 4544 1722 4544 
C 806 4544 320 4050 301 3095 
L 864 3095 
C 870 3366 896 3517 966 3655 
C 1094 3900 1376 4051 1728 4051 
C 2227 4051 2528 3760 2528 3287 
C 2528 2971 2413 2781 2163 2681 
C 2010 2618 1811 2592 1414 2592 
L 1414 2112 
z
" transform="scale(0.015625)"/>
       </defs>
       <use xlink:href="#NimbusSanL-Regu-33" transform="scale(0.996264)"/>
      </g>
     </g>
    </g>
    <g id="xtick_4">
     <g id="line2d_4">
      <g>
       <use xlink:href="#m3f8c307421" x="588.448474" y="3.6" style="fill: #262626; stroke: #262626; stroke-width: 0.5"/>
      </g>
     </g>
     <g id="text_4">
      <!-- 4 -->
      <g style="fill: #262626" transform="translate(581.801472 425.031969) scale(0.24 -0.24)">
       <defs>
        <path id="NimbusSanL-Regu-34" d="M 2093 1088 
L 2093 0 
L 2656 0 
L 2656 1088 
L 3328 1088 
L 3328 1594 
L 2656 1594 
L 2656 4545 
L 2240 4545 
L 179 1684 
L 179 1088 
L 2093 1088 
z
M 2093 1594 
L 672 1594 
L 2093 3583 
L 2093 1594 
z
" transform="scale(0.015625)"/>
       </defs>
       <use xlink:href="#NimbusSanL-Regu-34" transform="scale(0.996264)"/>
      </g>
     </g>
    </g>
    <g id="xtick_5">
     <g id="line2d_5">
      <g>
       <use xlink:href="#m3f8c307421" x="747.276102" y="3.6" style="fill: #262626; stroke: #262626; stroke-width: 0.5"/>
      </g>
     </g>
     <g id="text_5">
      <!-- 5 -->
      <g style="fill: #262626" transform="translate(740.629099 425.031969) scale(0.24 -0.24)">
       <defs>
        <path id="NimbusSanL-Regu-35" d="M 3046 4544 
L 704 4544 
L 365 2086 
L 883 2086 
C 1146 2399 1363 2508 1715 2508 
C 2323 2508 2707 2092 2707 1421 
C 2707 768 2330 372 1715 372 
C 1222 372 922 621 787 1133 
L 224 1133 
C 301 762 365 582 499 415 
C 755 70 1216 -128 1728 -128 
C 2643 -128 3283 537 3283 1497 
C 3283 2394 2688 3008 1818 3008 
C 1498 3008 1242 2925 979 2732 
L 1158 3987 
L 3046 3987 
L 3046 4544 
z
" transform="scale(0.015625)"/>
       </defs>
       <use xlink:href="#NimbusSanL-Regu-35" transform="scale(0.996264)"/>
      </g>
     </g>
    </g>
    <g id="xtick_6">
     <g id="line2d_6">
      <defs>
       <path id="m13ead21069" d="M 0 0 
L 0 1.5 
" style="stroke: #262626; stroke-width: 0.5"/>
      </defs>
      <g>
       <use xlink:href="#m13ead21069" x="80.200067" y="3.6" style="fill: #262626; stroke: #262626; stroke-width: 0.5"/>
      </g>
     </g>
    </g>
    <g id="xtick_7">
     <g id="line2d_7">
      <g>
       <use xlink:href="#m13ead21069" x="143.731118" y="3.6" style="fill: #262626; stroke: #262626; stroke-width: 0.5"/>
      </g>
     </g>
    </g>
    <g id="xtick_8">
     <g id="line2d_8">
      <g>
       <use xlink:href="#m13ead21069" x="175.496643" y="3.6" style="fill: #262626; stroke: #262626; stroke-width: 0.5"/>
      </g>
     </g>
    </g>
    <g id="xtick_9">
     <g id="line2d_9">
      <g>
       <use xlink:href="#m13ead21069" x="207.262169" y="3.6" style="fill: #262626; stroke: #262626; stroke-width: 0.5"/>
      </g>
     </g>
    </g>
    <g id="xtick_10">
     <g id="line2d_10">
      <g>
       <use xlink:href="#m13ead21069" x="239.027694" y="3.6" style="fill: #262626; stroke: #262626; stroke-width: 0.5"/>
      </g>
     </g>
    </g>
    <g id="xtick_11">
     <g id="line2d_11">
      <g>
       <use xlink:href="#m13ead21069" x="302.558745" y="3.6" style="fill: #262626; stroke: #262626; stroke-width: 0.5"/>
      </g>
     </g>
    </g>
    <g id="xtick_12">
     <g id="line2d_12">
      <g>
       <use xlink:href="#m13ead21069" x="334.32427" y="3.6" style="fill: #262626; stroke: #262626; stroke-width: 0.5"/>
      </g>
     </g>
    </g>
    <g id="xtick_13">
     <g id="line2d_13">
      <g>
       <use xlink:href="#m13ead21069" x="366.089796" y="3.6" style="fill: #262626; stroke: #262626; stroke-width: 0.5"/>
      </g>
     </g>
    </g>
    <g id="xtick_14">
     <g id="line2d_14">
      <g>
       <use xlink:href="#m13ead21069" x="397.855321" y="3.6" style="fill: #262626; stroke: #262626; stroke-width: 0.5"/>
      </g>
     </g>
    </g>
    <g id="xtick_15">
     <g id="line2d_15">
      <g>
       <use xlink:href="#m13ead21069" x="461.386372" y="3.6" style="fill: #262626; stroke: #262626; stroke-width: 0.5"/>
      </g>
     </g>
    </g>
    <g id="xtick_16">
     <g id="line2d_16">
      <g>
       <use xlink:href="#m13ead21069" x="493.151898" y="3.6" style="fill: #262626; stroke: #262626; stroke-width: 0.5"/>
      </g>
     </g>
    </g>
    <g id="xtick_17">
     <g id="line2d_17">
      <g>
       <use xlink:href="#m13ead21069" x="524.917423" y="3.6" style="fill: #262626; stroke: #262626; stroke-width: 0.5"/>
      </g>
     </g>
    </g>
    <g id="xtick_18">
     <g id="line2d_18">
      <g>
       <use xlink:href="#m13ead21069" x="556.682949" y="3.6" style="fill: #262626; stroke: #262626; stroke-width: 0.5"/>
      </g>
     </g>
    </g>
    <g id="xtick_19">
     <g id="line2d_19">
      <g>
       <use xlink:href="#m13ead21069" x="620.214" y="3.6" style="fill: #262626; stroke: #262626; stroke-width: 0.5"/>
      </g>
     </g>
    </g>
    <g id="xtick_20">
     <g id="line2d_20">
      <g>
       <use xlink:href="#m13ead21069" x="651.979525" y="3.6" style="fill: #262626; stroke: #262626; stroke-width: 0.5"/>
      </g>
     </g>
    </g>
    <g id="xtick_21">
     <g id="line2d_21">
      <g>
       <use xlink:href="#m13ead21069" x="683.745051" y="3.6" style="fill: #262626; stroke: #262626; stroke-width: 0.5"/>
      </g>
     </g>
    </g>
    <g id="xtick_22">
     <g id="line2d_22">
      <g>
       <use xlink:href="#m13ead21069" x="715.510576" y="3.6" style="fill: #262626; stroke: #262626; stroke-width: 0.5"/>
      </g>
     </g>
    </g>
    <g id="xtick_23">
     <g id="line2d_23">
      <g>
       <use xlink:href="#m13ead21069" x="779.041627" y="3.6" style="fill: #262626; stroke: #262626; stroke-width: 0.5"/>
      </g>
     </g>
    </g>
   </g>
   <g id="matplotlib.axis_2">
    <g id="ytick_1">
     <g id="line2d_24">
      <defs>
       <path id="m2fae2c8d64" d="M 0 0 
L 3 0 
" style="stroke: #262626; stroke-width: 0.5"/>
      </defs>
      <g>
       <use xlink:href="#m2fae2c8d64" x="80.200067" y="390.801453" style="fill: #262626; stroke: #262626; stroke-width: 0.5"/>
      </g>
     </g>
     <g id="text_6">
      <!-- $\mathdefault{0.0}$ -->
      <g style="fill: #d62728" transform="translate(43.465216 399.319437) scale(0.24 -0.24)">
       <defs>
        <path id="NimbusSanL-Regu-30" d="M 1760 4544 
C 1338 4544 954 4360 717 4046 
C 422 3651 275 3044 275 2208 
C 275 683 787 -128 1760 -128 
C 2720 -128 3245 683 3245 2170 
C 3245 3050 3104 3638 2803 4046 
C 2566 4366 2189 4544 1760 4544 
z
M 1760 4044 
C 2368 4044 2669 3432 2669 2221 
C 2669 939 2374 340 1747 340 
C 1152 340 851 965 851 2202 
C 851 3438 1152 4044 1760 4044 
z
" transform="scale(0.015625)"/>
        <path id="NimbusSanL-Regu-2e" d="M 1222 667 
L 557 667 
L 557 0 
L 1222 0 
L 1222 667 
z
" transform="scale(0.015625)"/>
       </defs>
       <use xlink:href="#NimbusSanL-Regu-30" transform="scale(0.996264)"/>
       <use xlink:href="#NimbusSanL-Regu-2e" transform="translate(55.391677 0) scale(0.996264)"/>
       <use xlink:href="#NimbusSanL-Regu-30" transform="translate(83.086847 0) scale(0.996264)"/>
      </g>
     </g>
    </g>
    <g id="ytick_2">
     <g id="line2d_25">
      <g>
       <use xlink:href="#m2fae2c8d64" x="80.200067" y="334.436124" style="fill: #262626; stroke: #262626; stroke-width: 0.5"/>
      </g>
     </g>
     <g id="text_7">
      <!-- $\mathdefault{2.5}$ -->
      <g style="fill: #d62728" transform="translate(43.465216 342.954109) scale(0.24 -0.24)">
       <use xlink:href="#NimbusSanL-Regu-32" transform="scale(0.996264)"/>
       <use xlink:href="#NimbusSanL-Regu-2e" transform="translate(55.391677 0) scale(0.996264)"/>
       <use xlink:href="#NimbusSanL-Regu-35" transform="translate(83.086847 0) scale(0.996264)"/>
      </g>
     </g>
    </g>
    <g id="ytick_3">
     <g id="line2d_26">
      <g>
       <use xlink:href="#m2fae2c8d64" x="80.200067" y="278.070796" style="fill: #262626; stroke: #262626; stroke-width: 0.5"/>
      </g>
     </g>
     <g id="text_8">
      <!-- $\mathdefault{5.0}$ -->
      <g style="fill: #d62728" transform="translate(43.465216 286.58878) scale(0.24 -0.24)">
       <use xlink:href="#NimbusSanL-Regu-35" transform="scale(0.996264)"/>
       <use xlink:href="#NimbusSanL-Regu-2e" transform="translate(55.391677 0) scale(0.996264)"/>
       <use xlink:href="#NimbusSanL-Regu-30" transform="translate(83.086847 0) scale(0.996264)"/>
      </g>
     </g>
    </g>
    <g id="ytick_4">
     <g id="line2d_27">
      <g>
       <use xlink:href="#m2fae2c8d64" x="80.200067" y="221.705467" style="fill: #262626; stroke: #262626; stroke-width: 0.5"/>
      </g>
     </g>
     <g id="text_9">
      <!-- $\mathdefault{7.5}$ -->
      <g style="fill: #d62728" transform="translate(43.465216 230.223451) scale(0.24 -0.24)">
       <defs>
        <path id="NimbusSanL-Regu-37" d="M 3328 4525 
L 294 4525 
L 294 3968 
L 2746 3968 
C 1664 2418 1222 1466 883 -32 
L 1485 -32 
C 1734 1427 2304 2681 3328 4051 
L 3328 4525 
z
" transform="scale(0.015625)"/>
       </defs>
       <use xlink:href="#NimbusSanL-Regu-37" transform="scale(0.996264)"/>
       <use xlink:href="#NimbusSanL-Regu-2e" transform="translate(55.391677 0) scale(0.996264)"/>
       <use xlink:href="#NimbusSanL-Regu-35" transform="translate(83.086847 0) scale(0.996264)"/>
      </g>
     </g>
    </g>
    <g id="ytick_5">
     <g id="line2d_28">
      <g>
       <use xlink:href="#m2fae2c8d64" x="80.200067" y="165.340138" style="fill: #262626; stroke: #262626; stroke-width: 0.5"/>
      </g>
     </g>
     <g id="text_10">
      <!-- $\mathdefault{10.0}$ -->
      <g style="fill: #d62728" transform="translate(30.171211 173.858123) scale(0.24 -0.24)">
       <use xlink:href="#NimbusSanL-Regu-31" transform="scale(0.996264)"/>
       <use xlink:href="#NimbusSanL-Regu-30" transform="translate(55.391677 0) scale(0.996264)"/>
       <use xlink:href="#NimbusSanL-Regu-2e" transform="translate(110.783354 0) scale(0.996264)"/>
       <use xlink:href="#NimbusSanL-Regu-30" transform="translate(138.478524 0) scale(0.996264)"/>
      </g>
     </g>
    </g>
    <g id="ytick_6">
     <g id="line2d_29">
      <g>
       <use xlink:href="#m2fae2c8d64" x="80.200067" y="108.97481" style="fill: #262626; stroke: #262626; stroke-width: 0.5"/>
      </g>
     </g>
     <g id="text_11">
      <!-- $\mathdefault{12.5}$ -->
      <g style="fill: #d62728" transform="translate(30.171211 117.492794) scale(0.24 -0.24)">
       <use xlink:href="#NimbusSanL-Regu-31" transform="scale(0.996264)"/>
       <use xlink:href="#NimbusSanL-Regu-32" transform="translate(55.391677 0) scale(0.996264)"/>
       <use xlink:href="#NimbusSanL-Regu-2e" transform="translate(110.783354 0) scale(0.996264)"/>
       <use xlink:href="#NimbusSanL-Regu-35" transform="translate(138.478524 0) scale(0.996264)"/>
      </g>
     </g>
    </g>
    <g id="ytick_7">
     <g id="line2d_30">
      <g>
       <use xlink:href="#m2fae2c8d64" x="80.200067" y="52.609481" style="fill: #262626; stroke: #262626; stroke-width: 0.5"/>
      </g>
     </g>
     <g id="text_12">
      <!-- $\mathdefault{15.0}$ -->
      <g style="fill: #d62728" transform="translate(30.171211 61.127465) scale(0.24 -0.24)">
       <use xlink:href="#NimbusSanL-Regu-31" transform="scale(0.996264)"/>
       <use xlink:href="#NimbusSanL-Regu-35" transform="translate(55.391677 0) scale(0.996264)"/>
       <use xlink:href="#NimbusSanL-Regu-2e" transform="translate(110.783354 0) scale(0.996264)"/>
       <use xlink:href="#NimbusSanL-Regu-30" transform="translate(138.478524 0) scale(0.996264)"/>
      </g>
     </g>
    </g>
    <g id="ytick_8">
     <g id="line2d_31">
      <defs>
       <path id="m4e2f6bda42" d="M 0 0 
L 1.5 0 
" style="stroke: #262626; stroke-width: 0.5"/>
      </defs>
      <g>
       <use xlink:href="#m4e2f6bda42" x="80.200067" y="402.074519" style="fill: #262626; stroke: #262626; stroke-width: 0.5"/>
      </g>
     </g>
    </g>
    <g id="ytick_9">
     <g id="line2d_32">
      <g>
       <use xlink:href="#m4e2f6bda42" x="80.200067" y="379.528387" style="fill: #262626; stroke: #262626; stroke-width: 0.5"/>
      </g>
     </g>
    </g>
    <g id="ytick_10">
     <g id="line2d_33">
      <g>
       <use xlink:href="#m4e2f6bda42" x="80.200067" y="368.255321" style="fill: #262626; stroke: #262626; stroke-width: 0.5"/>
      </g>
     </g>
    </g>
    <g id="ytick_11">
     <g id="line2d_34">
      <g>
       <use xlink:href="#m4e2f6bda42" x="80.200067" y="356.982256" style="fill: #262626; stroke: #262626; stroke-width: 0.5"/>
      </g>
     </g>
    </g>
    <g id="ytick_12">
     <g id="line2d_35">
      <g>
       <use xlink:href="#m4e2f6bda42" x="80.200067" y="345.70919" style="fill: #262626; stroke: #262626; stroke-width: 0.5"/>
      </g>
     </g>
    </g>
    <g id="ytick_13">
     <g id="line2d_36">
      <g>
       <use xlink:href="#m4e2f6bda42" x="80.200067" y="323.163058" style="fill: #262626; stroke: #262626; stroke-width: 0.5"/>
      </g>
     </g>
    </g>
    <g id="ytick_14">
     <g id="line2d_37">
      <g>
       <use xlink:href="#m4e2f6bda42" x="80.200067" y="311.889993" style="fill: #262626; stroke: #262626; stroke-width: 0.5"/>
      </g>
     </g>
    </g>
    <g id="ytick_15">
     <g id="line2d_38">
      <g>
       <use xlink:href="#m4e2f6bda42" x="80.200067" y="300.616927" style="fill: #262626; stroke: #262626; stroke-width: 0.5"/>
      </g>
     </g>
    </g>
    <g id="ytick_16">
     <g id="line2d_39">
      <g>
       <use xlink:href="#m4e2f6bda42" x="80.200067" y="289.343861" style="fill: #262626; stroke: #262626; stroke-width: 0.5"/>
      </g>
     </g>
    </g>
    <g id="ytick_17">
     <g id="line2d_40">
      <g>
       <use xlink:href="#m4e2f6bda42" x="80.200067" y="266.79773" style="fill: #262626; stroke: #262626; stroke-width: 0.5"/>
      </g>
     </g>
    </g>
    <g id="ytick_18">
     <g id="line2d_41">
      <g>
       <use xlink:href="#m4e2f6bda42" x="80.200067" y="255.524664" style="fill: #262626; stroke: #262626; stroke-width: 0.5"/>
      </g>
     </g>
    </g>
    <g id="ytick_19">
     <g id="line2d_42">
      <g>
       <use xlink:href="#m4e2f6bda42" x="80.200067" y="244.251598" style="fill: #262626; stroke: #262626; stroke-width: 0.5"/>
      </g>
     </g>
    </g>
    <g id="ytick_20">
     <g id="line2d_43">
      <g>
       <use xlink:href="#m4e2f6bda42" x="80.200067" y="232.978533" style="fill: #262626; stroke: #262626; stroke-width: 0.5"/>
      </g>
     </g>
    </g>
    <g id="ytick_21">
     <g id="line2d_44">
      <g>
       <use xlink:href="#m4e2f6bda42" x="80.200067" y="210.432401" style="fill: #262626; stroke: #262626; stroke-width: 0.5"/>
      </g>
     </g>
    </g>
    <g id="ytick_22">
     <g id="line2d_45">
      <g>
       <use xlink:href="#m4e2f6bda42" x="80.200067" y="199.159335" style="fill: #262626; stroke: #262626; stroke-width: 0.5"/>
      </g>
     </g>
    </g>
    <g id="ytick_23">
     <g id="line2d_46">
      <g>
       <use xlink:href="#m4e2f6bda42" x="80.200067" y="187.88627" style="fill: #262626; stroke: #262626; stroke-width: 0.5"/>
      </g>
     </g>
    </g>
    <g id="ytick_24">
     <g id="line2d_47">
      <g>
       <use xlink:href="#m4e2f6bda42" x="80.200067" y="176.613204" style="fill: #262626; stroke: #262626; stroke-width: 0.5"/>
      </g>
     </g>
    </g>
    <g id="ytick_25">
     <g id="line2d_48">
      <g>
       <use xlink:href="#m4e2f6bda42" x="80.200067" y="154.067072" style="fill: #262626; stroke: #262626; stroke-width: 0.5"/>
      </g>
     </g>
    </g>
    <g id="ytick_26">
     <g id="line2d_49">
      <g>
       <use xlink:href="#m4e2f6bda42" x="80.200067" y="142.794007" style="fill: #262626; stroke: #262626; stroke-width: 0.5"/>
      </g>
     </g>
    </g>
    <g id="ytick_27">
     <g id="line2d_50">
      <g>
       <use xlink:href="#m4e2f6bda42" x="80.200067" y="131.520941" style="fill: #262626; stroke: #262626; stroke-width: 0.5"/>
      </g>
     </g>
    </g>
    <g id="ytick_28">
     <g id="line2d_51">
      <g>
       <use xlink:href="#m4e2f6bda42" x="80.200067" y="120.247875" style="fill: #262626; stroke: #262626; stroke-width: 0.5"/>
      </g>
     </g>
    </g>
    <g id="ytick_29">
     <g id="line2d_52">
      <g>
       <use xlink:href="#m4e2f6bda42" x="80.200067" y="97.701744" style="fill: #262626; stroke: #262626; stroke-width: 0.5"/>
      </g>
     </g>
    </g>
    <g id="ytick_30">
     <g id="line2d_53">
      <g>
       <use xlink:href="#m4e2f6bda42" x="80.200067" y="86.428678" style="fill: #262626; stroke: #262626; stroke-width: 0.5"/>
      </g>
     </g>
    </g>
    <g id="ytick_31">
     <g id="line2d_54">
      <g>
       <use xlink:href="#m4e2f6bda42" x="80.200067" y="75.155612" style="fill: #262626; stroke: #262626; stroke-width: 0.5"/>
      </g>
     </g>
    </g>
    <g id="ytick_32">
     <g id="line2d_55">
      <g>
       <use xlink:href="#m4e2f6bda42" x="80.200067" y="63.882547" style="fill: #262626; stroke: #262626; stroke-width: 0.5"/>
      </g>
     </g>
    </g>
    <g id="ytick_33">
     <g id="line2d_56">
      <g>
       <use xlink:href="#m4e2f6bda42" x="80.200067" y="41.336415" style="fill: #262626; stroke: #262626; stroke-width: 0.5"/>
      </g>
     </g>
    </g>
    <g id="ytick_34">
     <g id="line2d_57">
      <g>
       <use xlink:href="#m4e2f6bda42" x="80.200067" y="30.063349" style="fill: #262626; stroke: #262626; stroke-width: 0.5"/>
      </g>
     </g>
    </g>
    <g id="ytick_35">
     <g id="line2d_58">
      <g>
       <use xlink:href="#m4e2f6bda42" x="80.200067" y="18.790284" style="fill: #262626; stroke: #262626; stroke-width: 0.5"/>
      </g>
     </g>
    </g>
    <g id="ytick_36">
     <g id="line2d_59">
      <g>
       <use xlink:href="#m4e2f6bda42" x="80.200067" y="7.517218" style="fill: #262626; stroke: #262626; stroke-width: 0.5"/>
      </g>
     </g>
    </g>
    <g id="text_13">
     <!-- Time (seconds) -->
     <g style="fill: #d62728" transform="translate(21.078447 286.418455) rotate(-90) scale(0.24 -0.24)">
      <defs>
       <path id="NimbusSanL-Regu-54" d="M 2266 4146 
L 3795 4146 
L 3795 4672 
L 134 4672 
L 134 4146 
L 1670 4146 
L 1670 -14 
L 2266 -14 
L 2266 4146 
z
" transform="scale(0.015625)"/>
       <path id="NimbusSanL-Regu-69" d="M 960 3359 
L 429 3359 
L 429 0 
L 960 0 
L 960 3359 
z
M 960 4672 
L 422 4672 
L 422 3999 
L 960 3999 
L 960 4672 
z
" transform="scale(0.015625)"/>
       <path id="NimbusSanL-Regu-6d" d="M 448 3359 
L 448 0 
L 986 0 
L 986 2109 
C 986 2597 1338 2988 1773 2988 
C 2170 2988 2394 2744 2394 2314 
L 2394 0 
L 2931 0 
L 2931 2109 
C 2931 2597 3283 2988 3718 2988 
C 4109 2988 4339 2738 4339 2314 
L 4339 0 
L 4877 0 
L 4877 2520 
C 4877 3122 4531 3456 3904 3456 
C 3456 3456 3187 3321 2874 2943 
C 2675 3302 2406 3456 1971 3456 
C 1523 3456 1229 3289 941 2885 
L 941 3359 
L 448 3359 
z
" transform="scale(0.015625)"/>
       <path id="NimbusSanL-Regu-65" d="M 3283 1529 
C 3283 2034 3245 2338 3149 2584 
C 2931 3127 2419 3456 1792 3456 
C 858 3456 256 2742 256 1645 
C 256 547 838 -128 1779 -128 
C 2547 -128 3078 310 3213 1044 
L 2675 1044 
C 2528 598 2227 365 1798 365 
C 1459 365 1171 520 992 805 
C 864 998 819 1193 813 1529 
L 3283 1529 
z
M 826 1984 
C 870 2577 1248 2962 1786 2962 
C 2310 2962 2714 2530 2714 1984 
C 2714 1984 2714 1984 2707 1984 
L 826 1984 
z
" transform="scale(0.015625)"/>
       <path id="NimbusSanL-Regu-28" d="M 1510 4672 
C 870 3830 467 2660 467 1651 
C 467 636 870 -534 1510 -1376 
L 1862 -1376 
C 1299 -457 986 623 986 1651 
C 986 2673 1299 3759 1862 4672 
L 1510 4672 
z
" transform="scale(0.015625)"/>
       <path id="NimbusSanL-Regu-73" d="M 2803 2427 
C 2797 3085 2362 3456 1587 3456 
C 806 3456 301 3054 301 2436 
C 301 1913 570 1665 1363 1474 
L 1862 1353 
C 2234 1263 2381 1130 2381 888 
C 2381 576 2067 365 1600 365 
C 1312 365 1069 448 934 588 
C 851 684 813 779 781 1014 
L 218 1014 
C 243 241 678 -128 1555 -128 
C 2400 -128 2938 285 2938 929 
C 2938 1426 2656 1701 1990 1860 
L 1478 1981 
C 1043 2082 858 2223 858 2458 
C 858 2764 1133 2962 1568 2962 
C 1997 2962 2227 2777 2240 2427 
L 2803 2427 
z
" transform="scale(0.015625)"/>
       <path id="NimbusSanL-Regu-63" d="M 3014 2236 
C 2989 2562 2918 2773 2790 2958 
C 2560 3271 2157 3456 1690 3456 
C 787 3456 198 2742 198 1632 
C 198 554 774 -128 1683 -128 
C 2483 -128 2989 350 3053 1167 
L 2515 1167 
C 2426 632 2150 365 1696 365 
C 1107 365 755 843 755 1632 
C 755 2466 1101 2962 1683 2962 
C 2131 2962 2413 2701 2477 2236 
L 3014 2236 
z
" transform="scale(0.015625)"/>
       <path id="NimbusSanL-Regu-6f" d="M 1741 3456 
C 800 3456 230 2786 230 1663 
C 230 541 794 -128 1747 -128 
C 2688 -128 3264 541 3264 1638 
C 3264 2792 2707 3456 1741 3456 
z
M 1747 2962 
C 2349 2962 2707 2472 2707 1645 
C 2707 861 2336 365 1747 365 
C 1152 365 787 855 787 1663 
C 787 2466 1152 2962 1747 2962 
z
" transform="scale(0.015625)"/>
       <path id="NimbusSanL-Regu-6e" d="M 448 3359 
L 448 0 
L 986 0 
L 986 1853 
C 986 2539 1344 2988 1894 2988 
C 2317 2988 2586 2731 2586 2327 
L 2586 0 
L 3117 0 
L 3117 2539 
C 3117 3097 2701 3456 2054 3456 
C 1555 3456 1235 3263 941 2796 
L 941 3359 
L 448 3359 
z
" transform="scale(0.015625)"/>
       <path id="NimbusSanL-Regu-64" d="M 3168 4672 
L 2637 4672 
L 2637 2937 
C 2413 3276 2054 3456 1606 3456 
C 736 3456 166 2761 166 1695 
C 166 566 723 -128 1626 -128 
C 2086 -128 2406 45 2694 461 
L 2694 -2 
L 3168 -2 
L 3168 4672 
z
M 1696 2956 
C 2272 2956 2637 2447 2637 1651 
C 2637 881 2266 372 1702 372 
C 1114 372 723 887 723 1664 
C 723 2440 1114 2956 1696 2956 
z
" transform="scale(0.015625)"/>
       <path id="NimbusSanL-Regu-29" d="M 595 -1376 
C 1235 -534 1638 636 1638 1644 
C 1638 2660 1235 3830 595 4672 
L 243 4672 
C 806 3753 1120 2673 1120 1644 
C 1120 623 806 -464 243 -1376 
L 595 -1376 
z
" transform="scale(0.015625)"/>
      </defs>
      <use xlink:href="#NimbusSanL-Regu-54" transform="scale(0.996264)"/>
      <use xlink:href="#NimbusSanL-Regu-69" transform="translate(60.871631 0) scale(0.996264)"/>
      <use xlink:href="#NimbusSanL-Regu-6d" transform="translate(82.988415 0) scale(0.996264)"/>
      <use xlink:href="#NimbusSanL-Regu-65" transform="translate(165.976845 0) scale(0.996264)"/>
      <use xlink:href="#NimbusSanL-Regu-28" transform="translate(249.063692 0) scale(0.996264)"/>
      <use xlink:href="#NimbusSanL-Regu-73" transform="translate(282.238922 0) scale(0.996264)"/>
      <use xlink:href="#NimbusSanL-Regu-65" transform="translate(332.052122 0) scale(0.996264)"/>
      <use xlink:href="#NimbusSanL-Regu-63" transform="translate(387.443799 0) scale(0.996264)"/>
      <use xlink:href="#NimbusSanL-Regu-6f" transform="translate(437.257 0) scale(0.996264)"/>
      <use xlink:href="#NimbusSanL-Regu-6e" transform="translate(492.648676 0) scale(0.996264)"/>
      <use xlink:href="#NimbusSanL-Regu-64" transform="translate(548.040353 0) scale(0.996264)"/>
      <use xlink:href="#NimbusSanL-Regu-73" transform="translate(603.43203 0) scale(0.996264)"/>
      <use xlink:href="#NimbusSanL-Regu-29" transform="translate(653.245231 0) scale(0.996264)"/>
     </g>
    </g>
   </g>
   <g id="line2d_60">
    <path d="M 111.965592 385.827623 
L 270.793219 386.273455 
L 429.620847 295.517656 
L 588.448474 384.226711 
L 747.276102 21.822545 
" clip-path="url(#pf1943df840)" style="fill: none; stroke-dasharray: 3.7,1.6; stroke-dashoffset: 0; stroke: #d62728"/>
    <defs>
     <path id="m5798cdfd39" d="M 0 1.5 
C 0.397805 1.5 0.77937 1.341951 1.06066 1.06066 
C 1.341951 0.77937 1.5 0.397805 1.5 0 
C 1.5 -0.397805 1.341951 -0.77937 1.06066 -1.06066 
C 0.77937 -1.341951 0.397805 -1.5 0 -1.5 
C -0.397805 -1.5 -0.77937 -1.341951 -1.06066 -1.06066 
C -1.341951 -0.77937 -1.5 -0.397805 -1.5 0 
C -1.5 0.397805 -1.341951 0.77937 -1.06066 1.06066 
C -0.77937 1.341951 -0.397805 1.5 0 1.5 
z
" style="stroke: #d62728"/>
    </defs>
    <g clip-path="url(#pf1943df840)">
     <use xlink:href="#m5798cdfd39" x="111.965592" y="385.827623" style="fill: #d62728; stroke: #d62728"/>
     <use xlink:href="#m5798cdfd39" x="270.793219" y="386.273455" style="fill: #d62728; stroke: #d62728"/>
     <use xlink:href="#m5798cdfd39" x="429.620847" y="295.517656" style="fill: #d62728; stroke: #d62728"/>
     <use xlink:href="#m5798cdfd39" x="588.448474" y="384.226711" style="fill: #d62728; stroke: #d62728"/>
     <use xlink:href="#m5798cdfd39" x="747.276102" y="21.822545" style="fill: #d62728; stroke: #d62728"/>
    </g>
   </g>
   <g id="patch_3">
    <path d="M 80.200067 404.496 
L 80.200067 3.6 
" style="fill: none; stroke: #262626; stroke-width: 0.5; stroke-linejoin: miter; stroke-linecap: square"/>
   </g>
   <g id="patch_4">
    <path d="M 779.041627 404.496 
L 779.041627 3.6 
" style="fill: none; stroke: #262626; stroke-width: 0.5; stroke-linejoin: miter; stroke-linecap: square"/>
   </g>
   <g id="patch_5">
    <path d="M 80.200067 404.496 
L 779.041627 404.496 
" style="fill: none; stroke: #262626; stroke-width: 0.5; stroke-linejoin: miter; stroke-linecap: square"/>
   </g>
   <g id="patch_6">
    <path d="M 80.200067 3.6 
L 779.041627 3.6 
" style="fill: none; stroke: #262626; stroke-width: 0.5; stroke-linejoin: miter; stroke-linecap: square"/>
   </g>
  </g>
  <g id="axes_2">
   <g id="text_14">
    <!-- 1: load_and_initialize_graph -->
    <g style="fill: #262626" transform="translate(376.298482 587.931854) scale(0.09 -0.09)">
     <defs>
      <path id="NimbusSanL-Regu-3a" d="M 1370 667 
L 704 667 
L 704 0 
L 1370 0 
L 1370 667 
z
M 1370 3354 
L 704 3354 
L 704 2688 
L 1370 2688 
L 1370 3354 
z
" transform="scale(0.015625)"/>
      <path id="NimbusSanL-Regu-6c" d="M 973 4672 
L 435 4672 
L 435 -2 
L 973 -2 
L 973 4672 
z
" transform="scale(0.015625)"/>
      <path id="NimbusSanL-Regu-61" d="M 3424 333 
C 3366 320 3341 320 3309 320 
C 3123 320 3021 415 3021 581 
L 3021 2545 
C 3021 3137 2586 3456 1760 3456 
C 1274 3456 870 3316 646 3066 
C 493 2893 429 2702 416 2370 
L 954 2370 
C 998 2777 1242 2962 1741 2962 
C 2221 2962 2490 2783 2490 2465 
L 2490 2325 
C 2490 2101 2355 2006 1933 1955 
C 1178 1860 1062 1834 858 1751 
C 467 1592 269 1292 269 859 
C 269 254 691 -128 1370 -128 
C 1792 -128 2131 19 2509 365 
C 2547 25 2714 -128 3059 -128 
C 3168 -128 3251 -116 3424 -70 
L 3424 333 
z
M 2490 1072 
C 2490 893 2438 785 2278 639 
C 2061 441 1798 340 1485 340 
C 1069 340 826 537 826 874 
C 826 1225 1062 1403 1632 1486 
C 2195 1562 2310 1588 2490 1670 
L 2490 1072 
z
" transform="scale(0.015625)"/>
      <path id="NimbusSanL-Regu-74" d="M 1626 3380 
L 1075 3380 
L 1075 4288 
L 544 4288 
L 544 3380 
L 90 3380 
L 90 2944 
L 544 2944 
L 544 404 
C 544 64 774 -128 1190 -128 
C 1318 -128 1446 -116 1626 -83 
L 1626 366 
C 1555 346 1472 340 1370 340 
C 1139 340 1075 404 1075 641 
L 1075 2944 
L 1626 2944 
L 1626 3380 
z
" transform="scale(0.015625)"/>
      <path id="NimbusSanL-Regu-7a" d="M 2835 3348 
L 333 3348 
L 333 2880 
L 2202 2880 
L 198 481 
L 198 0 
L 2925 0 
L 2925 468 
L 845 468 
L 2835 2874 
L 2835 3348 
z
" transform="scale(0.015625)"/>
      <path id="NimbusSanL-Regu-67" d="M 2637 3341 
L 2637 2854 
C 2368 3252 2042 3438 1613 3438 
C 762 3438 186 2692 186 1600 
C 186 1048 333 598 608 276 
C 858 -7 1216 -173 1568 -173 
C 1990 -173 2285 6 2586 429 
L 2586 258 
C 2586 -192 2528 -465 2394 -649 
C 2253 -844 1978 -959 1651 -959 
C 1408 -959 1190 -896 1043 -783 
C 922 -688 870 -600 838 -406 
L 294 -406 
C 352 -1033 845 -1408 1632 -1408 
C 2131 -1408 2560 -1247 2778 -979 
C 3034 -671 3130 -249 3130 538 
L 3130 3341 
L 2637 3341 
z
M 1670 2944 
C 2246 2944 2586 2455 2586 1613 
C 2586 808 2240 320 1677 320 
C 1094 320 742 816 742 1632 
C 742 2442 1101 2944 1670 2944 
z
" transform="scale(0.015625)"/>
      <path id="NimbusSanL-Regu-72" d="M 442 3359 
L 442 0 
L 979 0 
L 979 1741 
C 979 2221 1101 2535 1357 2720 
C 1523 2842 1683 2880 2054 2880 
L 2054 3432 
C 1965 3444 1920 3444 1850 3444 
C 1504 3444 1242 3240 934 2746 
L 934 3359 
L 442 3359 
z
" transform="scale(0.015625)"/>
      <path id="NimbusSanL-Regu-70" d="M 346 -1408 
L 883 -1408 
L 883 320 
C 1165 -27 1478 -180 1914 -180 
C 2778 -180 3347 522 3347 1599 
C 3347 2734 2797 3444 1907 3444 
C 1453 3444 1088 3238 838 2841 
L 838 3349 
L 346 3349 
L 346 -1408 
z
M 1818 2944 
C 2406 2944 2790 2420 2790 1612 
C 2790 843 2400 320 1818 320 
C 1254 320 883 837 883 1632 
C 883 2427 1254 2944 1818 2944 
z
" transform="scale(0.015625)"/>
      <path id="NimbusSanL-Regu-68" d="M 448 4672 
L 448 -2 
L 979 -2 
L 979 1852 
C 979 2539 1338 2988 1888 2988 
C 2061 2988 2234 2930 2362 2834 
C 2515 2725 2579 2564 2579 2327 
L 2579 -2 
L 3110 -2 
L 3110 2538 
C 3110 3103 2707 3456 2054 3456 
C 1581 3456 1293 3308 979 2898 
L 979 4672 
L 448 4672 
z
" transform="scale(0.015625)"/>
     </defs>
     <use xlink:href="#NimbusSanL-Regu-31" transform="scale(0.996264)"/>
     <use xlink:href="#NimbusSanL-Regu-3a" transform="translate(55.391677 0) scale(0.996264)"/>
     <use xlink:href="#NimbusSanL-Regu-6c" transform="translate(117.356498 0) scale(0.996264)"/>
     <use xlink:href="#NimbusSanL-Regu-6f" transform="translate(139.473283 0) scale(0.996264)"/>
     <use xlink:href="#NimbusSanL-Regu-61" transform="translate(194.86496 0) scale(0.996264)"/>
     <use xlink:href="#NimbusSanL-Regu-64" transform="translate(250.256636 0) scale(0.996264)"/>
     <use xlink:href="#NimbusSanL-Regu-61" transform="translate(341.513879 0) scale(0.996264)"/>
     <use xlink:href="#NimbusSanL-Regu-6e" transform="translate(396.905556 0) scale(0.996264)"/>
     <use xlink:href="#NimbusSanL-Regu-64" transform="translate(452.297233 0) scale(0.996264)"/>
     <use xlink:href="#NimbusSanL-Regu-69" transform="translate(543.554475 0) scale(0.996264)"/>
     <use xlink:href="#NimbusSanL-Regu-6e" transform="translate(565.671259 0) scale(0.996264)"/>
     <use xlink:href="#NimbusSanL-Regu-69" transform="translate(621.062936 0) scale(0.996264)"/>
     <use xlink:href="#NimbusSanL-Regu-74" transform="translate(643.17972 0) scale(0.996264)"/>
     <use xlink:href="#NimbusSanL-Regu-69" transform="translate(670.87489 0) scale(0.996264)"/>
     <use xlink:href="#NimbusSanL-Regu-61" transform="translate(692.991674 0) scale(0.996264)"/>
     <use xlink:href="#NimbusSanL-Regu-6c" transform="translate(748.383351 0) scale(0.996264)"/>
     <use xlink:href="#NimbusSanL-Regu-69" transform="translate(770.500136 0) scale(0.996264)"/>
     <use xlink:href="#NimbusSanL-Regu-7a" transform="translate(792.61692 0) scale(0.996264)"/>
     <use xlink:href="#NimbusSanL-Regu-65" transform="translate(840.936728 0) scale(0.996264)"/>
     <use xlink:href="#NimbusSanL-Regu-67" transform="translate(932.19397 0) scale(0.996264)"/>
     <use xlink:href="#NimbusSanL-Regu-72" transform="translate(986.58955 0) scale(0.996264)"/>
     <use xlink:href="#NimbusSanL-Regu-61" transform="translate(1018.768683 0) scale(0.996264)"/>
     <use xlink:href="#NimbusSanL-Regu-70" transform="translate(1074.16036 0) scale(0.996264)"/>
     <use xlink:href="#NimbusSanL-Regu-68" transform="translate(1129.552037 0) scale(0.996264)"/>
     <path d="M 311.625654 0 
L 341.513879 0 
L 341.513879 0.3985 
L 311.625654 0.3985 
L 311.625654 0 
z
"/>
     <path d="M 513.66625 0 
L 543.554475 0 
L 543.554475 0.3985 
L 513.66625 0.3985 
L 513.66625 0 
z
"/>
     <path d="M 902.305746 0 
L 932.19397 0 
L 932.19397 0.3985 
L 902.305746 0.3985 
L 902.305746 0 
z
"/>
    </g>
    <!-- 2: subsample_graph_if_necessary -->
    <g style="fill: #262626" transform="translate(363.642497 597.706938) scale(0.09 -0.09)">
     <defs>
      <path id="NimbusSanL-Regu-75" d="M 3085 33 
L 3085 3392 
L 2554 3392 
L 2554 1479 
C 2554 790 2195 340 1638 340 
C 1216 340 947 597 947 1003 
L 947 3392 
L 416 3392 
L 416 792 
C 416 232 832 -128 1485 -128 
C 1978 -128 2291 45 2605 488 
L 2605 33 
L 3085 33 
z
" transform="scale(0.015625)"/>
      <path id="NimbusSanL-Regu-62" d="M 346 4672 
L 346 -2 
L 826 -2 
L 826 448 
C 1082 57 1421 -128 1888 -128 
C 2771 -128 3347 592 3347 1702 
C 3347 2786 2797 3456 1914 3456 
C 1453 3456 1126 3282 877 2905 
L 877 4672 
L 346 4672 
z
M 1811 2956 
C 2406 2956 2790 2440 2790 1645 
C 2790 887 2394 372 1811 372 
C 1248 372 877 881 877 1664 
C 877 2447 1248 2956 1811 2956 
z
" transform="scale(0.015625)"/>
      <path id="NimbusSanL-Regu-66" d="M 1651 3328 
L 1094 3328 
L 1094 3856 
C 1094 4082 1222 4198 1466 4198 
C 1510 4198 1530 4198 1651 4198 
L 1651 4640 
C 1530 4666 1459 4672 1350 4672 
C 858 4672 563 4388 563 3903 
L 563 3328 
L 115 3328 
L 115 2892 
L 563 2892 
L 563 -26 
L 1094 -26 
L 1094 2892 
L 1651 2892 
L 1651 3328 
z
" transform="scale(0.015625)"/>
      <path id="NimbusSanL-Regu-79" d="M 2483 3360 
L 1555 738 
L 698 3360 
L 128 3360 
L 1261 -21 
L 1056 -554 
C 973 -792 851 -882 627 -882 
C 550 -882 461 -869 346 -843 
L 346 -1325 
C 454 -1382 563 -1408 704 -1408 
C 877 -1408 1062 -1350 1203 -1247 
C 1370 -1125 1466 -983 1568 -713 
L 3059 3360 
L 2483 3360 
z
" transform="scale(0.015625)"/>
     </defs>
     <use xlink:href="#NimbusSanL-Regu-32" transform="scale(0.996264)"/>
     <use xlink:href="#NimbusSanL-Regu-3a" transform="translate(55.391677 0) scale(0.996264)"/>
     <use xlink:href="#NimbusSanL-Regu-73" transform="translate(117.356498 0) scale(0.996264)"/>
     <use xlink:href="#NimbusSanL-Regu-75" transform="translate(167.169699 0) scale(0.996264)"/>
     <use xlink:href="#NimbusSanL-Regu-62" transform="translate(222.561376 0) scale(0.996264)"/>
     <use xlink:href="#NimbusSanL-Regu-73" transform="translate(277.953053 0) scale(0.996264)"/>
     <use xlink:href="#NimbusSanL-Regu-61" transform="translate(327.766253 0) scale(0.996264)"/>
     <use xlink:href="#NimbusSanL-Regu-6d" transform="translate(383.15793 0) scale(0.996264)"/>
     <use xlink:href="#NimbusSanL-Regu-70" transform="translate(466.14636 0) scale(0.996264)"/>
     <use xlink:href="#NimbusSanL-Regu-6c" transform="translate(521.538037 0) scale(0.996264)"/>
     <use xlink:href="#NimbusSanL-Regu-65" transform="translate(543.654822 0) scale(0.996264)"/>
     <use xlink:href="#NimbusSanL-Regu-67" transform="translate(634.912064 0) scale(0.996264)"/>
     <use xlink:href="#NimbusSanL-Regu-72" transform="translate(689.307644 0) scale(0.996264)"/>
     <use xlink:href="#NimbusSanL-Regu-61" transform="translate(721.486777 0) scale(0.996264)"/>
     <use xlink:href="#NimbusSanL-Regu-70" transform="translate(776.878454 0) scale(0.996264)"/>
     <use xlink:href="#NimbusSanL-Regu-68" transform="translate(832.270131 0) scale(0.996264)"/>
     <use xlink:href="#NimbusSanL-Regu-69" transform="translate(923.527373 0) scale(0.996264)"/>
     <use xlink:href="#NimbusSanL-Regu-66" transform="translate(945.644157 0) scale(0.996264)"/>
     <use xlink:href="#NimbusSanL-Regu-6e" transform="translate(1009.204892 0) scale(0.996264)"/>
     <use xlink:href="#NimbusSanL-Regu-65" transform="translate(1064.596569 0) scale(0.996264)"/>
     <use xlink:href="#NimbusSanL-Regu-63" transform="translate(1119.988246 0) scale(0.996264)"/>
     <use xlink:href="#NimbusSanL-Regu-65" transform="translate(1169.801446 0) scale(0.996264)"/>
     <use xlink:href="#NimbusSanL-Regu-73" transform="translate(1225.193123 0) scale(0.996264)"/>
     <use xlink:href="#NimbusSanL-Regu-73" transform="translate(1275.006324 0) scale(0.996264)"/>
     <use xlink:href="#NimbusSanL-Regu-61" transform="translate(1324.819524 0) scale(0.996264)"/>
     <use xlink:href="#NimbusSanL-Regu-72" transform="translate(1380.211201 0) scale(0.996264)"/>
     <use xlink:href="#NimbusSanL-Regu-79" transform="translate(1416.374524 0) scale(0.996264)"/>
     <path d="M 605.023839 0 
L 634.912064 0 
L 634.912064 0.3985 
L 605.023839 0.3985 
L 605.023839 0 
z
"/>
     <path d="M 893.639149 0 
L 923.527373 0 
L 923.527373 0.3985 
L 893.639149 0.3985 
L 893.639149 0 
z
"/>
     <path d="M 979.316668 0 
L 1009.204892 0 
L 1009.204892 0.3985 
L 979.316668 0.3985 
L 979.316668 0 
z
"/>
    </g>
    <!-- 3: plot_and_analyze_graph -->
    <g style="fill: #262626" transform="translate(378.0379 607.282908) scale(0.09 -0.09)">
     <use xlink:href="#NimbusSanL-Regu-33" transform="scale(0.996264)"/>
     <use xlink:href="#NimbusSanL-Regu-3a" transform="translate(55.391677 0) scale(0.996264)"/>
     <use xlink:href="#NimbusSanL-Regu-70" transform="translate(117.356498 0) scale(0.996264)"/>
     <use xlink:href="#NimbusSanL-Regu-6c" transform="translate(172.748175 0) scale(0.996264)"/>
     <use xlink:href="#NimbusSanL-Regu-6f" transform="translate(194.86496 0) scale(0.996264)"/>
     <use xlink:href="#NimbusSanL-Regu-74" transform="translate(250.256636 0) scale(0.996264)"/>
     <use xlink:href="#NimbusSanL-Regu-61" transform="translate(313.817371 0) scale(0.996264)"/>
     <use xlink:href="#NimbusSanL-Regu-6e" transform="translate(369.209048 0) scale(0.996264)"/>
     <use xlink:href="#NimbusSanL-Regu-64" transform="translate(424.600725 0) scale(0.996264)"/>
     <use xlink:href="#NimbusSanL-Regu-61" transform="translate(515.857967 0) scale(0.996264)"/>
     <use xlink:href="#NimbusSanL-Regu-6e" transform="translate(571.249644 0) scale(0.996264)"/>
     <use xlink:href="#NimbusSanL-Regu-61" transform="translate(626.641321 0) scale(0.996264)"/>
     <use xlink:href="#NimbusSanL-Regu-6c" transform="translate(682.032998 0) scale(0.996264)"/>
     <use xlink:href="#NimbusSanL-Regu-79" transform="translate(704.149783 0) scale(0.996264)"/>
     <use xlink:href="#NimbusSanL-Regu-7a" transform="translate(753.962983 0) scale(0.996264)"/>
     <use xlink:href="#NimbusSanL-Regu-65" transform="translate(802.282791 0) scale(0.996264)"/>
     <use xlink:href="#NimbusSanL-Regu-67" transform="translate(893.540033 0) scale(0.996264)"/>
     <use xlink:href="#NimbusSanL-Regu-72" transform="translate(947.935613 0) scale(0.996264)"/>
     <use xlink:href="#NimbusSanL-Regu-61" transform="translate(980.114746 0) scale(0.996264)"/>
     <use xlink:href="#NimbusSanL-Regu-70" transform="translate(1035.506423 0) scale(0.996264)"/>
     <use xlink:href="#NimbusSanL-Regu-68" transform="translate(1090.8981 0) scale(0.996264)"/>
     <path d="M 283.929147 0 
L 313.817371 0 
L 313.817371 0.3985 
L 283.929147 0.3985 
L 283.929147 0 
z
"/>
     <path d="M 485.969743 0 
L 515.857967 0 
L 515.857967 0.3985 
L 485.969743 0.3985 
L 485.969743 0 
z
"/>
     <path d="M 863.651809 0 
L 893.540033 0 
L 893.540033 0.3985 
L 863.651809 0.3985 
L 863.651809 0 
z
"/>
    </g>
    <!-- 4: compute_shortest_paths -->
    <g style="fill: #262626" transform="translate(376.827565 616.858879) scale(0.09 -0.09)">
     <use xlink:href="#NimbusSanL-Regu-34" transform="scale(0.996264)"/>
     <use xlink:href="#NimbusSanL-Regu-3a" transform="translate(55.391677 0) scale(0.996264)"/>
     <use xlink:href="#NimbusSanL-Regu-63" transform="translate(117.356498 0) scale(0.996264)"/>
     <use xlink:href="#NimbusSanL-Regu-6f" transform="translate(167.169699 0) scale(0.996264)"/>
     <use xlink:href="#NimbusSanL-Regu-6d" transform="translate(222.561376 0) scale(0.996264)"/>
     <use xlink:href="#NimbusSanL-Regu-70" transform="translate(305.549806 0) scale(0.996264)"/>
     <use xlink:href="#NimbusSanL-Regu-75" transform="translate(360.941483 0) scale(0.996264)"/>
     <use xlink:href="#NimbusSanL-Regu-74" transform="translate(416.33316 0) scale(0.996264)"/>
     <use xlink:href="#NimbusSanL-Regu-65" transform="translate(444.028329 0) scale(0.996264)"/>
     <use xlink:href="#NimbusSanL-Regu-73" transform="translate(535.285572 0) scale(0.996264)"/>
     <use xlink:href="#NimbusSanL-Regu-68" transform="translate(585.098772 0) scale(0.996264)"/>
     <use xlink:href="#NimbusSanL-Regu-6f" transform="translate(640.490449 0) scale(0.996264)"/>
     <use xlink:href="#NimbusSanL-Regu-72" transform="translate(695.882126 0) scale(0.996264)"/>
     <use xlink:href="#NimbusSanL-Regu-74" transform="translate(733.041454 0) scale(0.996264)"/>
     <use xlink:href="#NimbusSanL-Regu-65" transform="translate(760.736624 0) scale(0.996264)"/>
     <use xlink:href="#NimbusSanL-Regu-73" transform="translate(816.128301 0) scale(0.996264)"/>
     <use xlink:href="#NimbusSanL-Regu-74" transform="translate(865.941501 0) scale(0.996264)"/>
     <use xlink:href="#NimbusSanL-Regu-70" transform="translate(929.502236 0) scale(0.996264)"/>
     <use xlink:href="#NimbusSanL-Regu-61" transform="translate(984.893913 0) scale(0.996264)"/>
     <use xlink:href="#NimbusSanL-Regu-74" transform="translate(1040.28559 0) scale(0.996264)"/>
     <use xlink:href="#NimbusSanL-Regu-68" transform="translate(1067.980759 0) scale(0.996264)"/>
     <use xlink:href="#NimbusSanL-Regu-73" transform="translate(1123.372436 0) scale(0.996264)"/>
     <path d="M 505.397347 0 
L 535.285572 0 
L 535.285572 0.3985 
L 505.397347 0.3985 
L 505.397347 0 
z
"/>
     <path d="M 899.614012 0 
L 929.502236 0 
L 929.502236 0.3985 
L 899.614012 0.3985 
L 899.614012 0 
z
"/>
    </g>
    <!-- 5: reconstruct_graph -->
    <g style="fill: #262626" transform="translate(389.111365 626.434849) scale(0.09 -0.09)">
     <use xlink:href="#NimbusSanL-Regu-35" transform="scale(0.996264)"/>
     <use xlink:href="#NimbusSanL-Regu-3a" transform="translate(55.391677 0) scale(0.996264)"/>
     <use xlink:href="#NimbusSanL-Regu-72" transform="translate(117.356498 0) scale(0.996264)"/>
     <use xlink:href="#NimbusSanL-Regu-65" transform="translate(150.531728 0) scale(0.996264)"/>
     <use xlink:href="#NimbusSanL-Regu-63" transform="translate(205.923405 0) scale(0.996264)"/>
     <use xlink:href="#NimbusSanL-Regu-6f" transform="translate(255.736605 0) scale(0.996264)"/>
     <use xlink:href="#NimbusSanL-Regu-6e" transform="translate(311.128282 0) scale(0.996264)"/>
     <use xlink:href="#NimbusSanL-Regu-73" transform="translate(366.519959 0) scale(0.996264)"/>
     <use xlink:href="#NimbusSanL-Regu-74" transform="translate(416.33316 0) scale(0.996264)"/>
     <use xlink:href="#NimbusSanL-Regu-72" transform="translate(444.028329 0) scale(0.996264)"/>
     <use xlink:href="#NimbusSanL-Regu-75" transform="translate(478.696937 0) scale(0.996264)"/>
     <use xlink:href="#NimbusSanL-Regu-63" transform="translate(534.088614 0) scale(0.996264)"/>
     <use xlink:href="#NimbusSanL-Regu-74" transform="translate(583.901814 0) scale(0.996264)"/>
     <use xlink:href="#NimbusSanL-Regu-67" transform="translate(647.462549 0) scale(0.996264)"/>
     <use xlink:href="#NimbusSanL-Regu-72" transform="translate(701.858129 0) scale(0.996264)"/>
     <use xlink:href="#NimbusSanL-Regu-61" transform="translate(734.037262 0) scale(0.996264)"/>
     <use xlink:href="#NimbusSanL-Regu-70" transform="translate(789.428939 0) scale(0.996264)"/>
     <use xlink:href="#NimbusSanL-Regu-68" transform="translate(844.820616 0) scale(0.996264)"/>
     <path d="M 617.574325 0 
L 647.462549 0 
L 647.462549 0.3985 
L 617.574325 0.3985 
L 617.574325 0 
z
"/>
    </g>
   </g>
  </g>
  <g id="axes_3">
   <g id="matplotlib.axis_3">
    <g id="ytick_37">
     <g id="line2d_61">
      <defs>
       <path id="m5e679cd8cc" d="M 0 0 
L -3 0 
" style="stroke: #262626; stroke-width: 0.5"/>
      </defs>
      <g>
       <use xlink:href="#m5e679cd8cc" x="779.041627" y="386.273455" style="fill: #262626; stroke: #262626; stroke-width: 0.5"/>
      </g>
     </g>
     <g id="text_15">
      <!-- $\mathdefault{0}$ -->
      <g style="fill: #1f77b4" transform="translate(782.541627 394.791439) scale(0.24 -0.24)">
       <use xlink:href="#NimbusSanL-Regu-30" transform="scale(0.996264)"/>
      </g>
     </g>
    </g>
    <g id="ytick_38">
     <g id="line2d_62">
      <g>
       <use xlink:href="#m5e679cd8cc" x="779.041627" y="308.338833" style="fill: #262626; stroke: #262626; stroke-width: 0.5"/>
      </g>
     </g>
     <g id="text_16">
      <!-- $\mathdefault{20}$ -->
      <g style="fill: #1f77b4" transform="translate(782.541627 316.856817) scale(0.24 -0.24)">
       <use xlink:href="#NimbusSanL-Regu-32" transform="scale(0.996264)"/>
       <use xlink:href="#NimbusSanL-Regu-30" transform="translate(55.391677 0) scale(0.996264)"/>
      </g>
     </g>
    </g>
    <g id="ytick_39">
     <g id="line2d_63">
      <g>
       <use xlink:href="#m5e679cd8cc" x="779.041627" y="230.404211" style="fill: #262626; stroke: #262626; stroke-width: 0.5"/>
      </g>
     </g>
     <g id="text_17">
      <!-- $\mathdefault{40}$ -->
      <g style="fill: #1f77b4" transform="translate(782.541627 238.922195) scale(0.24 -0.24)">
       <use xlink:href="#NimbusSanL-Regu-34" transform="scale(0.996264)"/>
       <use xlink:href="#NimbusSanL-Regu-30" transform="translate(55.391677 0) scale(0.996264)"/>
      </g>
     </g>
    </g>
    <g id="ytick_40">
     <g id="line2d_64">
      <g>
       <use xlink:href="#m5e679cd8cc" x="779.041627" y="152.469589" style="fill: #262626; stroke: #262626; stroke-width: 0.5"/>
      </g>
     </g>
     <g id="text_18">
      <!-- $\mathdefault{60}$ -->
      <g style="fill: #1f77b4" transform="translate(782.541627 160.987573) scale(0.24 -0.24)">
       <defs>
        <path id="NimbusSanL-Regu-36" d="M 3187 3382 
C 3078 4111 2592 4544 1901 4544 
C 1402 4544 954 4302 685 3900 
C 403 3460 275 2904 275 2081 
C 275 1321 390 836 659 434 
C 902 69 1299 -128 1798 -128 
C 2662 -128 3283 518 3283 1415 
C 3283 2268 2707 2868 1894 2868 
C 1446 2868 1094 2695 851 2362 
C 858 3444 1216 4044 1862 4044 
C 2259 4044 2534 3803 2624 3382 
L 3187 3382 
z
M 1824 2368 
C 2368 2368 2707 1986 2707 1370 
C 2707 793 2323 372 1805 372 
C 1280 372 883 813 883 1402 
C 883 1973 1267 2368 1824 2368 
z
" transform="scale(0.015625)"/>
       </defs>
       <use xlink:href="#NimbusSanL-Regu-36" transform="scale(0.996264)"/>
       <use xlink:href="#NimbusSanL-Regu-30" transform="translate(55.391677 0) scale(0.996264)"/>
      </g>
     </g>
    </g>
    <g id="ytick_41">
     <g id="line2d_65">
      <g>
       <use xlink:href="#m5e679cd8cc" x="779.041627" y="74.534967" style="fill: #262626; stroke: #262626; stroke-width: 0.5"/>
      </g>
     </g>
     <g id="text_19">
      <!-- $\mathdefault{80}$ -->
      <g style="fill: #1f77b4" transform="translate(782.541627 83.052951) scale(0.24 -0.24)">
       <defs>
        <path id="NimbusSanL-Regu-38" d="M 2502 2399 
C 2970 2680 3123 2910 3123 3338 
C 3123 4046 2566 4544 1760 4544 
C 960 4544 397 4046 397 3338 
C 397 2917 550 2687 1011 2399 
C 493 2150 237 1774 237 1276 
C 237 446 864 -128 1760 -128 
C 2656 -128 3283 447 3283 1270 
C 3283 1774 3027 2150 2502 2399 
z
M 1760 4044 
C 2240 4044 2547 3764 2547 3325 
C 2547 2904 2234 2624 1760 2624 
C 1286 2624 973 2904 973 3331 
C 973 3764 1286 4044 1760 4044 
z
M 1760 2149 
C 2323 2149 2707 1792 2707 1263 
C 2707 729 2323 372 1747 372 
C 1197 372 813 735 813 1263 
C 813 1792 1197 2149 1760 2149 
z
" transform="scale(0.015625)"/>
       </defs>
       <use xlink:href="#NimbusSanL-Regu-38" transform="scale(0.996264)"/>
       <use xlink:href="#NimbusSanL-Regu-30" transform="translate(55.391677 0) scale(0.996264)"/>
      </g>
     </g>
    </g>
    <g id="ytick_42">
     <g id="line2d_66">
      <defs>
       <path id="m8df11e95bb" d="M 0 0 
L -1.5 0 
" style="stroke: #262626; stroke-width: 0.5"/>
      </defs>
      <g>
       <use xlink:href="#m8df11e95bb" x="779.041627" y="366.789799" style="fill: #262626; stroke: #262626; stroke-width: 0.5"/>
      </g>
     </g>
    </g>
    <g id="ytick_43">
     <g id="line2d_67">
      <g>
       <use xlink:href="#m8df11e95bb" x="779.041627" y="347.306144" style="fill: #262626; stroke: #262626; stroke-width: 0.5"/>
      </g>
     </g>
    </g>
    <g id="ytick_44">
     <g id="line2d_68">
      <g>
       <use xlink:href="#m8df11e95bb" x="779.041627" y="327.822488" style="fill: #262626; stroke: #262626; stroke-width: 0.5"/>
      </g>
     </g>
    </g>
    <g id="ytick_45">
     <g id="line2d_69">
      <g>
       <use xlink:href="#m8df11e95bb" x="779.041627" y="288.855177" style="fill: #262626; stroke: #262626; stroke-width: 0.5"/>
      </g>
     </g>
    </g>
    <g id="ytick_46">
     <g id="line2d_70">
      <g>
       <use xlink:href="#m8df11e95bb" x="779.041627" y="269.371522" style="fill: #262626; stroke: #262626; stroke-width: 0.5"/>
      </g>
     </g>
    </g>
    <g id="ytick_47">
     <g id="line2d_71">
      <g>
       <use xlink:href="#m8df11e95bb" x="779.041627" y="249.887866" style="fill: #262626; stroke: #262626; stroke-width: 0.5"/>
      </g>
     </g>
    </g>
    <g id="ytick_48">
     <g id="line2d_72">
      <g>
       <use xlink:href="#m8df11e95bb" x="779.041627" y="210.920555" style="fill: #262626; stroke: #262626; stroke-width: 0.5"/>
      </g>
     </g>
    </g>
    <g id="ytick_49">
     <g id="line2d_73">
      <g>
       <use xlink:href="#m8df11e95bb" x="779.041627" y="191.4369" style="fill: #262626; stroke: #262626; stroke-width: 0.5"/>
      </g>
     </g>
    </g>
    <g id="ytick_50">
     <g id="line2d_74">
      <g>
       <use xlink:href="#m8df11e95bb" x="779.041627" y="171.953244" style="fill: #262626; stroke: #262626; stroke-width: 0.5"/>
      </g>
     </g>
    </g>
    <g id="ytick_51">
     <g id="line2d_75">
      <g>
       <use xlink:href="#m8df11e95bb" x="779.041627" y="132.985933" style="fill: #262626; stroke: #262626; stroke-width: 0.5"/>
      </g>
     </g>
    </g>
    <g id="ytick_52">
     <g id="line2d_76">
      <g>
       <use xlink:href="#m8df11e95bb" x="779.041627" y="113.502278" style="fill: #262626; stroke: #262626; stroke-width: 0.5"/>
      </g>
     </g>
    </g>
    <g id="ytick_53">
     <g id="line2d_77">
      <g>
       <use xlink:href="#m8df11e95bb" x="779.041627" y="94.018622" style="fill: #262626; stroke: #262626; stroke-width: 0.5"/>
      </g>
     </g>
    </g>
    <g id="ytick_54">
     <g id="line2d_78">
      <g>
       <use xlink:href="#m8df11e95bb" x="779.041627" y="55.051311" style="fill: #262626; stroke: #262626; stroke-width: 0.5"/>
      </g>
     </g>
    </g>
    <g id="ytick_55">
     <g id="line2d_79">
      <g>
       <use xlink:href="#m8df11e95bb" x="779.041627" y="35.567656" style="fill: #262626; stroke: #262626; stroke-width: 0.5"/>
      </g>
     </g>
    </g>
    <g id="ytick_56">
     <g id="line2d_80">
      <g>
       <use xlink:href="#m8df11e95bb" x="779.041627" y="16.084" style="fill: #262626; stroke: #262626; stroke-width: 0.5"/>
      </g>
     </g>
    </g>
    <g id="text_20">
     <!-- Memory (MiB) -->
     <g style="fill: #1f77b4" transform="translate(830.608083 279.448514) rotate(-90) scale(0.24 -0.24)">
      <defs>
       <path id="NimbusSanL-Regu-4d" d="M 2995 -2 
L 4307 3915 
L 4307 -2 
L 4870 -2 
L 4870 4672 
L 4045 4672 
L 2688 601 
L 1306 4672 
L 480 4672 
L 480 -2 
L 1043 -2 
L 1043 3915 
L 2368 -2 
L 2995 -2 
z
" transform="scale(0.015625)"/>
       <path id="NimbusSanL-Regu-42" d="M 506 0 
L 2611 0 
C 3053 0 3379 121 3629 388 
C 3859 629 3987 959 3987 1322 
C 3987 1881 3731 2217 3136 2446 
C 3558 2647 3782 2996 3782 3475 
C 3782 3817 3654 4122 3411 4342 
C 3168 4568 2848 4672 2400 4672 
L 506 4672 
L 506 0 
z
M 1101 2638 
L 1101 4146 
L 2253 4146 
C 2586 4146 2771 4100 2931 3977 
C 3098 3847 3187 3652 3187 3391 
C 3187 3138 3098 2937 2931 2806 
C 2771 2683 2586 2638 2253 2638 
L 1101 2638 
z
M 1101 526 
L 1101 2112 
L 2554 2112 
C 2842 2112 3034 2042 3174 1891 
C 3315 1745 3392 1543 3392 1316 
C 3392 1095 3315 893 3174 747 
C 3034 595 2842 526 2554 526 
L 1101 526 
z
" transform="scale(0.015625)"/>
      </defs>
      <use xlink:href="#NimbusSanL-Regu-4d" transform="scale(0.996264)"/>
      <use xlink:href="#NimbusSanL-Regu-65" transform="translate(82.98843 0) scale(0.996264)"/>
      <use xlink:href="#NimbusSanL-Regu-6d" transform="translate(138.380107 0) scale(0.996264)"/>
      <use xlink:href="#NimbusSanL-Regu-6f" transform="translate(221.368537 0) scale(0.996264)"/>
      <use xlink:href="#NimbusSanL-Regu-72" transform="translate(276.760214 0) scale(0.996264)"/>
      <use xlink:href="#NimbusSanL-Regu-79" transform="translate(312.923537 0) scale(0.996264)"/>
      <use xlink:href="#NimbusSanL-Regu-28" transform="translate(390.431907 0) scale(0.996264)"/>
      <use xlink:href="#NimbusSanL-Regu-4d" transform="translate(423.607137 0) scale(0.996264)"/>
      <use xlink:href="#NimbusSanL-Regu-69" transform="translate(506.595567 0) scale(0.996264)"/>
      <use xlink:href="#NimbusSanL-Regu-42" transform="translate(528.712351 0) scale(0.996264)"/>
      <use xlink:href="#NimbusSanL-Regu-29" transform="translate(595.162382 0) scale(0.996264)"/>
     </g>
    </g>
   </g>
   <g id="line2d_81">
    <path d="M 111.965592 375.557444 
L 270.793219 386.273455 
L 429.620847 181.603742 
L 588.448474 355.038719 
L 747.276102 21.822545 
" clip-path="url(#pf1943df840)" style="fill: none; stroke-dasharray: 3.7,1.6; stroke-dashoffset: 0; stroke: #1f77b4"/>
    <defs>
     <path id="mce1b566812" d="M 0 1.5 
C 0.397805 1.5 0.77937 1.341951 1.06066 1.06066 
C 1.341951 0.77937 1.5 0.397805 1.5 0 
C 1.5 -0.397805 1.341951 -0.77937 1.06066 -1.06066 
C 0.77937 -1.341951 0.397805 -1.5 0 -1.5 
C -0.397805 -1.5 -0.77937 -1.341951 -1.06066 -1.06066 
C -1.341951 -0.77937 -1.5 -0.397805 -1.5 0 
C -1.5 0.397805 -1.341951 0.77937 -1.06066 1.06066 
C -0.77937 1.341951 -0.397805 1.5 0 1.5 
z
" style="stroke: #1f77b4"/>
    </defs>
    <g clip-path="url(#pf1943df840)">
     <use xlink:href="#mce1b566812" x="111.965592" y="375.557444" style="fill: #1f77b4; stroke: #1f77b4"/>
     <use xlink:href="#mce1b566812" x="270.793219" y="386.273455" style="fill: #1f77b4; stroke: #1f77b4"/>
     <use xlink:href="#mce1b566812" x="429.620847" y="181.603742" style="fill: #1f77b4; stroke: #1f77b4"/>
     <use xlink:href="#mce1b566812" x="588.448474" y="355.038719" style="fill: #1f77b4; stroke: #1f77b4"/>
     <use xlink:href="#mce1b566812" x="747.276102" y="21.822545" style="fill: #1f77b4; stroke: #1f77b4"/>
    </g>
   </g>
   <g id="patch_7">
    <path d="M 80.200067 404.496 
L 80.200067 3.6 
" style="fill: none; stroke: #262626; stroke-width: 0.5; stroke-linejoin: miter; stroke-linecap: square"/>
   </g>
   <g id="patch_8">
    <path d="M 779.041627 404.496 
L 779.041627 3.6 
" style="fill: none; stroke: #262626; stroke-width: 0.5; stroke-linejoin: miter; stroke-linecap: square"/>
   </g>
   <g id="patch_9">
    <path d="M 80.200067 404.496 
L 779.041627 404.496 
" style="fill: none; stroke: #262626; stroke-width: 0.5; stroke-linejoin: miter; stroke-linecap: square"/>
   </g>
   <g id="patch_10">
    <path d="M 80.200067 3.6 
L 779.041627 3.6 
" style="fill: none; stroke: #262626; stroke-width: 0.5; stroke-linejoin: miter; stroke-linecap: square"/>
   </g>
  </g>
 </g>
 <defs>
  <clipPath id="pf1943df840">
   <rect x="80.200067" y="3.6" width="698.84156" height="400.896"/>
  </clipPath>
 </defs>
</svg>
