<?xml version="1.0" encoding="utf-8" standalone="no"?>
<!DOCTYPE svg PUBLIC "-//W3C//DTD SVG 1.1//EN"
  "http://www.w3.org/Graphics/SVG/1.1/DTD/svg11.dtd">
<svg xmlns:xlink="http://www.w3.org/1999/xlink" width="762.310746pt" height="544.352763pt" viewBox="0 0 762.310746 544.352763" xmlns="http://www.w3.org/2000/svg" version="1.1">
 <metadata>
  <rdf:RDF xmlns:dc="http://purl.org/dc/elements/1.1/" xmlns:cc="http://creativecommons.org/ns#" xmlns:rdf="http://www.w3.org/1999/02/22-rdf-syntax-ns#">
   <cc:Work>
    <dc:type rdf:resource="http://purl.org/dc/dcmitype/StillImage"/>
    <dc:date>2024-03-12T11:51:26.036552</dc:date>
    <dc:format>image/svg+xml</dc:format>
    <dc:creator>
     <cc:Agent>
      <dc:title>Matplotlib v3.8.3, https://matplotlib.org/</dc:title>
     </cc:Agent>
    </dc:creator>
   </cc:Work>
  </rdf:RDF>
 </metadata>
 <defs>
  <style type="text/css">*{stroke-linejoin: round; stroke-linecap: butt}</style>
 </defs>
 <g id="figure_1">
  <g id="patch_1">
   <path d="M 0 544.352763 
L 762.310746 544.352763 
L 762.310746 0 
L 0 0 
z
" style="fill: #ffffff"/>
  </g>
  <g id="axes_1">
   <g id="patch_2">
    <path d="M 89.110746 472.995297 
L 758.710746 472.995297 
L 758.710746 29.475297 
L 89.110746 29.475297 
z
" style="fill: #ffffff"/>
   </g>
   <g id="matplotlib.axis_1">
    <g id="xtick_1">
     <g id="line2d_1">
      <defs>
       <path id="mc3c25fdde0" d="M 0 0 
L 0 3 
" style="stroke: #262626; stroke-width: 0.5"/>
      </defs>
      <g>
       <use xlink:href="#mc3c25fdde0" x="90.560096" y="29.475297" style="fill: #262626; stroke: #262626; stroke-width: 0.5"/>
      </g>
     </g>
     <g id="text_1">
      <!-- $\mathdefault{0}$ -->
      <g style="fill: #262626" transform="translate(83.913094 493.531265) scale(0.24 -0.24)">
       <defs>
        <path id="NimbusSanL-Regu-30" d="M 1760 4544 
C 1338 4544 954 4360 717 4046 
C 422 3651 275 3044 275 2208 
C 275 683 787 -128 1760 -128 
C 2720 -128 3245 683 3245 2170 
C 3245 3050 3104 3638 2803 4046 
C 2566 4366 2189 4544 1760 4544 
z
M 1760 4044 
C 2368 4044 2669 3432 2669 2221 
C 2669 939 2374 340 1747 340 
C 1152 340 851 965 851 2202 
C 851 3438 1152 4044 1760 4044 
z
" transform="scale(0.015625)"/>
       </defs>
       <use xlink:href="#NimbusSanL-Regu-30" transform="scale(0.996264)"/>
      </g>
     </g>
    </g>
    <g id="xtick_2">
     <g id="line2d_2">
      <g>
       <use xlink:href="#mc3c25fdde0" x="235.495161" y="29.475297" style="fill: #262626; stroke: #262626; stroke-width: 0.5"/>
      </g>
     </g>
     <g id="text_2">
      <!-- $\mathdefault{5}$ -->
      <g style="fill: #262626" transform="translate(228.848159 493.531265) scale(0.24 -0.24)">
       <defs>
        <path id="NimbusSanL-Regu-35" d="M 3046 4544 
L 704 4544 
L 365 2086 
L 883 2086 
C 1146 2399 1363 2508 1715 2508 
C 2323 2508 2707 2092 2707 1421 
C 2707 768 2330 372 1715 372 
C 1222 372 922 621 787 1133 
L 224 1133 
C 301 762 365 582 499 415 
C 755 70 1216 -128 1728 -128 
C 2643 -128 3283 537 3283 1497 
C 3283 2394 2688 3008 1818 3008 
C 1498 3008 1242 2925 979 2732 
L 1158 3987 
L 3046 3987 
L 3046 4544 
z
" transform="scale(0.015625)"/>
       </defs>
       <use xlink:href="#NimbusSanL-Regu-35" transform="scale(0.996264)"/>
      </g>
     </g>
    </g>
    <g id="xtick_3">
     <g id="line2d_3">
      <g>
       <use xlink:href="#mc3c25fdde0" x="380.430226" y="29.475297" style="fill: #262626; stroke: #262626; stroke-width: 0.5"/>
      </g>
     </g>
     <g id="text_3">
      <!-- $\mathdefault{10}$ -->
      <g style="fill: #262626" transform="translate(367.136222 493.531265) scale(0.24 -0.24)">
       <defs>
        <path id="NimbusSanL-Regu-31" d="M 1658 3238 
L 1658 0 
L 2221 0 
L 2221 4545 
L 1850 4545 
C 1651 3847 1523 3751 653 3642 
L 653 3238 
L 1658 3238 
z
" transform="scale(0.015625)"/>
       </defs>
       <use xlink:href="#NimbusSanL-Regu-31" transform="scale(0.996264)"/>
       <use xlink:href="#NimbusSanL-Regu-30" transform="translate(55.391677 0) scale(0.996264)"/>
      </g>
     </g>
    </g>
    <g id="xtick_4">
     <g id="line2d_4">
      <g>
       <use xlink:href="#mc3c25fdde0" x="525.365291" y="29.475297" style="fill: #262626; stroke: #262626; stroke-width: 0.5"/>
      </g>
     </g>
     <g id="text_4">
      <!-- $\mathdefault{15}$ -->
      <g style="fill: #262626" transform="translate(512.071287 493.531265) scale(0.24 -0.24)">
       <use xlink:href="#NimbusSanL-Regu-31" transform="scale(0.996264)"/>
       <use xlink:href="#NimbusSanL-Regu-35" transform="translate(55.391677 0) scale(0.996264)"/>
      </g>
     </g>
    </g>
    <g id="xtick_5">
     <g id="line2d_5">
      <g>
       <use xlink:href="#mc3c25fdde0" x="670.300356" y="29.475297" style="fill: #262626; stroke: #262626; stroke-width: 0.5"/>
      </g>
     </g>
     <g id="text_5">
      <!-- $\mathdefault{20}$ -->
      <g style="fill: #262626" transform="translate(657.006352 493.531265) scale(0.24 -0.24)">
       <defs>
        <path id="NimbusSanL-Regu-32" d="M 3238 558 
L 851 558 
C 909 930 1114 1167 1670 1494 
L 2310 1840 
C 2944 2186 3270 2653 3270 3211 
C 3270 3589 3117 3942 2848 4185 
C 2579 4429 2246 4544 1818 4544 
C 1242 4544 813 4339 563 3955 
C 403 3711 333 3429 320 2967 
L 883 2967 
C 902 3275 941 3461 1018 3608 
C 1165 3884 1459 4051 1798 4051 
C 2310 4051 2694 3685 2694 3198 
C 2694 2839 2483 2531 2080 2301 
L 1491 1968 
C 544 1430 269 1000 218 0 
L 3238 0 
L 3238 558 
z
" transform="scale(0.015625)"/>
       </defs>
       <use xlink:href="#NimbusSanL-Regu-32" transform="scale(0.996264)"/>
       <use xlink:href="#NimbusSanL-Regu-30" transform="translate(55.391677 0) scale(0.996264)"/>
      </g>
     </g>
    </g>
    <g id="xtick_6">
     <g id="line2d_6">
      <defs>
       <path id="m70d0dfcad1" d="M 0 0 
L 0 1.5 
" style="stroke: #262626; stroke-width: 0.5"/>
      </defs>
      <g>
       <use xlink:href="#m70d0dfcad1" x="119.547109" y="29.475297" style="fill: #262626; stroke: #262626; stroke-width: 0.5"/>
      </g>
     </g>
    </g>
    <g id="xtick_7">
     <g id="line2d_7">
      <g>
       <use xlink:href="#m70d0dfcad1" x="148.534122" y="29.475297" style="fill: #262626; stroke: #262626; stroke-width: 0.5"/>
      </g>
     </g>
    </g>
    <g id="xtick_8">
     <g id="line2d_8">
      <g>
       <use xlink:href="#m70d0dfcad1" x="177.521135" y="29.475297" style="fill: #262626; stroke: #262626; stroke-width: 0.5"/>
      </g>
     </g>
    </g>
    <g id="xtick_9">
     <g id="line2d_9">
      <g>
       <use xlink:href="#m70d0dfcad1" x="206.508148" y="29.475297" style="fill: #262626; stroke: #262626; stroke-width: 0.5"/>
      </g>
     </g>
    </g>
    <g id="xtick_10">
     <g id="line2d_10">
      <g>
       <use xlink:href="#m70d0dfcad1" x="264.482174" y="29.475297" style="fill: #262626; stroke: #262626; stroke-width: 0.5"/>
      </g>
     </g>
    </g>
    <g id="xtick_11">
     <g id="line2d_11">
      <g>
       <use xlink:href="#m70d0dfcad1" x="293.469187" y="29.475297" style="fill: #262626; stroke: #262626; stroke-width: 0.5"/>
      </g>
     </g>
    </g>
    <g id="xtick_12">
     <g id="line2d_12">
      <g>
       <use xlink:href="#m70d0dfcad1" x="322.4562" y="29.475297" style="fill: #262626; stroke: #262626; stroke-width: 0.5"/>
      </g>
     </g>
    </g>
    <g id="xtick_13">
     <g id="line2d_13">
      <g>
       <use xlink:href="#m70d0dfcad1" x="351.443213" y="29.475297" style="fill: #262626; stroke: #262626; stroke-width: 0.5"/>
      </g>
     </g>
    </g>
    <g id="xtick_14">
     <g id="line2d_14">
      <g>
       <use xlink:href="#m70d0dfcad1" x="409.417239" y="29.475297" style="fill: #262626; stroke: #262626; stroke-width: 0.5"/>
      </g>
     </g>
    </g>
    <g id="xtick_15">
     <g id="line2d_15">
      <g>
       <use xlink:href="#m70d0dfcad1" x="438.404252" y="29.475297" style="fill: #262626; stroke: #262626; stroke-width: 0.5"/>
      </g>
     </g>
    </g>
    <g id="xtick_16">
     <g id="line2d_16">
      <g>
       <use xlink:href="#m70d0dfcad1" x="467.391265" y="29.475297" style="fill: #262626; stroke: #262626; stroke-width: 0.5"/>
      </g>
     </g>
    </g>
    <g id="xtick_17">
     <g id="line2d_17">
      <g>
       <use xlink:href="#m70d0dfcad1" x="496.378278" y="29.475297" style="fill: #262626; stroke: #262626; stroke-width: 0.5"/>
      </g>
     </g>
    </g>
    <g id="xtick_18">
     <g id="line2d_18">
      <g>
       <use xlink:href="#m70d0dfcad1" x="554.352304" y="29.475297" style="fill: #262626; stroke: #262626; stroke-width: 0.5"/>
      </g>
     </g>
    </g>
    <g id="xtick_19">
     <g id="line2d_19">
      <g>
       <use xlink:href="#m70d0dfcad1" x="583.339317" y="29.475297" style="fill: #262626; stroke: #262626; stroke-width: 0.5"/>
      </g>
     </g>
    </g>
    <g id="xtick_20">
     <g id="line2d_20">
      <g>
       <use xlink:href="#m70d0dfcad1" x="612.32633" y="29.475297" style="fill: #262626; stroke: #262626; stroke-width: 0.5"/>
      </g>
     </g>
    </g>
    <g id="xtick_21">
     <g id="line2d_21">
      <g>
       <use xlink:href="#m70d0dfcad1" x="641.313343" y="29.475297" style="fill: #262626; stroke: #262626; stroke-width: 0.5"/>
      </g>
     </g>
    </g>
    <g id="xtick_22">
     <g id="line2d_22">
      <g>
       <use xlink:href="#m70d0dfcad1" x="699.287369" y="29.475297" style="fill: #262626; stroke: #262626; stroke-width: 0.5"/>
      </g>
     </g>
    </g>
    <g id="xtick_23">
     <g id="line2d_23">
      <g>
       <use xlink:href="#m70d0dfcad1" x="728.274382" y="29.475297" style="fill: #262626; stroke: #262626; stroke-width: 0.5"/>
      </g>
     </g>
    </g>
    <g id="xtick_24">
     <g id="line2d_24">
      <g>
       <use xlink:href="#m70d0dfcad1" x="757.261395" y="29.475297" style="fill: #262626; stroke: #262626; stroke-width: 0.5"/>
      </g>
     </g>
    </g>
    <g id="text_6">
     <!-- Distance -->
     <g style="fill: #262626" transform="translate(377.405544 535.659998) scale(0.24 -0.24)">
      <defs>
       <path id="NimbusSanL-Regu-44" d="M 570 0 
L 2368 0 
C 3546 0 4269 885 4269 2339 
C 4269 3787 3552 4672 2368 4672 
L 570 4672 
L 570 0 
z
M 1165 526 
L 1165 4146 
L 2266 4146 
C 3187 4146 3674 3524 3674 2333 
C 3674 1154 3187 526 2266 526 
L 1165 526 
z
" transform="scale(0.015625)"/>
       <path id="NimbusSanL-Regu-69" d="M 960 3359 
L 429 3359 
L 429 0 
L 960 0 
L 960 3359 
z
M 960 4672 
L 422 4672 
L 422 3999 
L 960 3999 
L 960 4672 
z
" transform="scale(0.015625)"/>
       <path id="NimbusSanL-Regu-73" d="M 2803 2427 
C 2797 3085 2362 3456 1587 3456 
C 806 3456 301 3054 301 2436 
C 301 1913 570 1665 1363 1474 
L 1862 1353 
C 2234 1263 2381 1130 2381 888 
C 2381 576 2067 365 1600 365 
C 1312 365 1069 448 934 588 
C 851 684 813 779 781 1014 
L 218 1014 
C 243 241 678 -128 1555 -128 
C 2400 -128 2938 285 2938 929 
C 2938 1426 2656 1701 1990 1860 
L 1478 1981 
C 1043 2082 858 2223 858 2458 
C 858 2764 1133 2962 1568 2962 
C 1997 2962 2227 2777 2240 2427 
L 2803 2427 
z
" transform="scale(0.015625)"/>
       <path id="NimbusSanL-Regu-74" d="M 1626 3380 
L 1075 3380 
L 1075 4288 
L 544 4288 
L 544 3380 
L 90 3380 
L 90 2944 
L 544 2944 
L 544 404 
C 544 64 774 -128 1190 -128 
C 1318 -128 1446 -116 1626 -83 
L 1626 366 
C 1555 346 1472 340 1370 340 
C 1139 340 1075 404 1075 641 
L 1075 2944 
L 1626 2944 
L 1626 3380 
z
" transform="scale(0.015625)"/>
       <path id="NimbusSanL-Regu-61" d="M 3424 333 
C 3366 320 3341 320 3309 320 
C 3123 320 3021 415 3021 581 
L 3021 2545 
C 3021 3137 2586 3456 1760 3456 
C 1274 3456 870 3316 646 3066 
C 493 2893 429 2702 416 2370 
L 954 2370 
C 998 2777 1242 2962 1741 2962 
C 2221 2962 2490 2783 2490 2465 
L 2490 2325 
C 2490 2101 2355 2006 1933 1955 
C 1178 1860 1062 1834 858 1751 
C 467 1592 269 1292 269 859 
C 269 254 691 -128 1370 -128 
C 1792 -128 2131 19 2509 365 
C 2547 25 2714 -128 3059 -128 
C 3168 -128 3251 -116 3424 -70 
L 3424 333 
z
M 2490 1072 
C 2490 893 2438 785 2278 639 
C 2061 441 1798 340 1485 340 
C 1069 340 826 537 826 874 
C 826 1225 1062 1403 1632 1486 
C 2195 1562 2310 1588 2490 1670 
L 2490 1072 
z
" transform="scale(0.015625)"/>
       <path id="NimbusSanL-Regu-6e" d="M 448 3359 
L 448 0 
L 986 0 
L 986 1853 
C 986 2539 1344 2988 1894 2988 
C 2317 2988 2586 2731 2586 2327 
L 2586 0 
L 3117 0 
L 3117 2539 
C 3117 3097 2701 3456 2054 3456 
C 1555 3456 1235 3263 941 2796 
L 941 3359 
L 448 3359 
z
" transform="scale(0.015625)"/>
       <path id="NimbusSanL-Regu-63" d="M 3014 2236 
C 2989 2562 2918 2773 2790 2958 
C 2560 3271 2157 3456 1690 3456 
C 787 3456 198 2742 198 1632 
C 198 554 774 -128 1683 -128 
C 2483 -128 2989 350 3053 1167 
L 2515 1167 
C 2426 632 2150 365 1696 365 
C 1107 365 755 843 755 1632 
C 755 2466 1101 2962 1683 2962 
C 2131 2962 2413 2701 2477 2236 
L 3014 2236 
z
" transform="scale(0.015625)"/>
       <path id="NimbusSanL-Regu-65" d="M 3283 1529 
C 3283 2034 3245 2338 3149 2584 
C 2931 3127 2419 3456 1792 3456 
C 858 3456 256 2742 256 1645 
C 256 547 838 -128 1779 -128 
C 2547 -128 3078 310 3213 1044 
L 2675 1044 
C 2528 598 2227 365 1798 365 
C 1459 365 1171 520 992 805 
C 864 998 819 1193 813 1529 
L 3283 1529 
z
M 826 1984 
C 870 2577 1248 2962 1786 2962 
C 2310 2962 2714 2530 2714 1984 
C 2714 1984 2714 1984 2707 1984 
L 826 1984 
z
" transform="scale(0.015625)"/>
      </defs>
      <use xlink:href="#NimbusSanL-Regu-44" transform="scale(0.996264)"/>
      <use xlink:href="#NimbusSanL-Regu-69" transform="translate(71.929985 0) scale(0.996264)"/>
      <use xlink:href="#NimbusSanL-Regu-73" transform="translate(94.046769 0) scale(0.996264)"/>
      <use xlink:href="#NimbusSanL-Regu-74" transform="translate(143.85997 0) scale(0.996264)"/>
      <use xlink:href="#NimbusSanL-Regu-61" transform="translate(171.555139 0) scale(0.996264)"/>
      <use xlink:href="#NimbusSanL-Regu-6e" transform="translate(226.946816 0) scale(0.996264)"/>
      <use xlink:href="#NimbusSanL-Regu-63" transform="translate(282.338493 0) scale(0.996264)"/>
      <use xlink:href="#NimbusSanL-Regu-65" transform="translate(332.151694 0) scale(0.996264)"/>
     </g>
    </g>
   </g>
   <g id="matplotlib.axis_2">
    <g id="ytick_1">
     <g id="line2d_25">
      <defs>
       <path id="m12489434db" d="M 0 0 
L -3 0 
" style="stroke: #262626; stroke-width: 0.5"/>
      </defs>
      <g>
       <use xlink:href="#m12489434db" x="758.710746" y="457.770317" style="fill: #262626; stroke: #262626; stroke-width: 0.5"/>
      </g>
     </g>
     <g id="text_7">
      <!-- $\mathdefault{0}$ -->
      <g style="fill: #262626" transform="translate(72.316742 466.288301) scale(0.24 -0.24)">
       <use xlink:href="#NimbusSanL-Regu-30" transform="scale(0.996264)"/>
      </g>
     </g>
    </g>
    <g id="ytick_2">
     <g id="line2d_26">
      <g>
       <use xlink:href="#m12489434db" x="758.710746" y="400.228483" style="fill: #262626; stroke: #262626; stroke-width: 0.5"/>
      </g>
     </g>
     <g id="text_8">
      <!-- $\mathdefault{50}$ -->
      <g style="fill: #262626" transform="translate(59.022737 408.746468) scale(0.24 -0.24)">
       <use xlink:href="#NimbusSanL-Regu-35" transform="scale(0.996264)"/>
       <use xlink:href="#NimbusSanL-Regu-30" transform="translate(55.391677 0) scale(0.996264)"/>
      </g>
     </g>
    </g>
    <g id="ytick_3">
     <g id="line2d_27">
      <g>
       <use xlink:href="#m12489434db" x="758.710746" y="342.68665" style="fill: #262626; stroke: #262626; stroke-width: 0.5"/>
      </g>
     </g>
     <g id="text_9">
      <!-- $\mathdefault{100}$ -->
      <g style="fill: #262626" transform="translate(45.728733 351.204634) scale(0.24 -0.24)">
       <use xlink:href="#NimbusSanL-Regu-31" transform="scale(0.996264)"/>
       <use xlink:href="#NimbusSanL-Regu-30" transform="translate(55.391677 0) scale(0.996264)"/>
       <use xlink:href="#NimbusSanL-Regu-30" transform="translate(110.783354 0) scale(0.996264)"/>
      </g>
     </g>
    </g>
    <g id="ytick_4">
     <g id="line2d_28">
      <g>
       <use xlink:href="#m12489434db" x="758.710746" y="285.144816" style="fill: #262626; stroke: #262626; stroke-width: 0.5"/>
      </g>
     </g>
     <g id="text_10">
      <!-- $\mathdefault{150}$ -->
      <g style="fill: #262626" transform="translate(45.728733 293.6628) scale(0.24 -0.24)">
       <use xlink:href="#NimbusSanL-Regu-31" transform="scale(0.996264)"/>
       <use xlink:href="#NimbusSanL-Regu-35" transform="translate(55.391677 0) scale(0.996264)"/>
       <use xlink:href="#NimbusSanL-Regu-30" transform="translate(110.783354 0) scale(0.996264)"/>
      </g>
     </g>
    </g>
    <g id="ytick_5">
     <g id="line2d_29">
      <g>
       <use xlink:href="#m12489434db" x="758.710746" y="227.602982" style="fill: #262626; stroke: #262626; stroke-width: 0.5"/>
      </g>
     </g>
     <g id="text_11">
      <!-- $\mathdefault{200}$ -->
      <g style="fill: #262626" transform="translate(45.728733 236.120967) scale(0.24 -0.24)">
       <use xlink:href="#NimbusSanL-Regu-32" transform="scale(0.996264)"/>
       <use xlink:href="#NimbusSanL-Regu-30" transform="translate(55.391677 0) scale(0.996264)"/>
       <use xlink:href="#NimbusSanL-Regu-30" transform="translate(110.783354 0) scale(0.996264)"/>
      </g>
     </g>
    </g>
    <g id="ytick_6">
     <g id="line2d_30">
      <g>
       <use xlink:href="#m12489434db" x="758.710746" y="170.061149" style="fill: #262626; stroke: #262626; stroke-width: 0.5"/>
      </g>
     </g>
     <g id="text_12">
      <!-- $\mathdefault{250}$ -->
      <g style="fill: #262626" transform="translate(45.728733 178.579133) scale(0.24 -0.24)">
       <use xlink:href="#NimbusSanL-Regu-32" transform="scale(0.996264)"/>
       <use xlink:href="#NimbusSanL-Regu-35" transform="translate(55.391677 0) scale(0.996264)"/>
       <use xlink:href="#NimbusSanL-Regu-30" transform="translate(110.783354 0) scale(0.996264)"/>
      </g>
     </g>
    </g>
    <g id="ytick_7">
     <g id="line2d_31">
      <g>
       <use xlink:href="#m12489434db" x="758.710746" y="112.519315" style="fill: #262626; stroke: #262626; stroke-width: 0.5"/>
      </g>
     </g>
     <g id="text_13">
      <!-- $\mathdefault{300}$ -->
      <g style="fill: #262626" transform="translate(45.728733 121.037299) scale(0.24 -0.24)">
       <defs>
        <path id="NimbusSanL-Regu-33" d="M 1414 2112 
L 1485 2112 
L 1722 2112 
C 2342 2112 2662 1830 2662 1284 
C 2662 712 2310 372 1722 372 
C 1107 372 806 681 768 1345 
L 205 1345 
C 230 978 294 740 403 534 
C 634 97 1082 -128 1702 -128 
C 2637 -128 3238 431 3238 1293 
C 3238 1872 3014 2194 2470 2381 
C 2893 2546 3104 2862 3104 3311 
C 3104 4082 2586 4544 1722 4544 
C 806 4544 320 4050 301 3095 
L 864 3095 
C 870 3366 896 3517 966 3655 
C 1094 3900 1376 4051 1728 4051 
C 2227 4051 2528 3760 2528 3287 
C 2528 2971 2413 2781 2163 2681 
C 2010 2618 1811 2592 1414 2592 
L 1414 2112 
z
" transform="scale(0.015625)"/>
       </defs>
       <use xlink:href="#NimbusSanL-Regu-33" transform="scale(0.996264)"/>
       <use xlink:href="#NimbusSanL-Regu-30" transform="translate(55.391677 0) scale(0.996264)"/>
       <use xlink:href="#NimbusSanL-Regu-30" transform="translate(110.783354 0) scale(0.996264)"/>
      </g>
     </g>
    </g>
    <g id="ytick_8">
     <g id="line2d_32">
      <g>
       <use xlink:href="#m12489434db" x="758.710746" y="54.977481" style="fill: #262626; stroke: #262626; stroke-width: 0.5"/>
      </g>
     </g>
     <g id="text_14">
      <!-- $\mathdefault{350}$ -->
      <g style="fill: #262626" transform="translate(45.728733 63.495466) scale(0.24 -0.24)">
       <use xlink:href="#NimbusSanL-Regu-33" transform="scale(0.996264)"/>
       <use xlink:href="#NimbusSanL-Regu-35" transform="translate(55.391677 0) scale(0.996264)"/>
       <use xlink:href="#NimbusSanL-Regu-30" transform="translate(110.783354 0) scale(0.996264)"/>
      </g>
     </g>
    </g>
    <g id="ytick_9">
     <g id="line2d_33">
      <defs>
       <path id="mfc4ede46d7" d="M 0 0 
L -1.5 0 
" style="stroke: #262626; stroke-width: 0.5"/>
      </defs>
      <g>
       <use xlink:href="#mfc4ede46d7" x="758.710746" y="469.278684" style="fill: #262626; stroke: #262626; stroke-width: 0.5"/>
      </g>
     </g>
    </g>
    <g id="ytick_10">
     <g id="line2d_34">
      <g>
       <use xlink:href="#mfc4ede46d7" x="758.710746" y="446.26195" style="fill: #262626; stroke: #262626; stroke-width: 0.5"/>
      </g>
     </g>
    </g>
    <g id="ytick_11">
     <g id="line2d_35">
      <g>
       <use xlink:href="#mfc4ede46d7" x="758.710746" y="434.753583" style="fill: #262626; stroke: #262626; stroke-width: 0.5"/>
      </g>
     </g>
    </g>
    <g id="ytick_12">
     <g id="line2d_36">
      <g>
       <use xlink:href="#mfc4ede46d7" x="758.710746" y="423.245217" style="fill: #262626; stroke: #262626; stroke-width: 0.5"/>
      </g>
     </g>
    </g>
    <g id="ytick_13">
     <g id="line2d_37">
      <g>
       <use xlink:href="#mfc4ede46d7" x="758.710746" y="411.73685" style="fill: #262626; stroke: #262626; stroke-width: 0.5"/>
      </g>
     </g>
    </g>
    <g id="ytick_14">
     <g id="line2d_38">
      <g>
       <use xlink:href="#mfc4ede46d7" x="758.710746" y="388.720116" style="fill: #262626; stroke: #262626; stroke-width: 0.5"/>
      </g>
     </g>
    </g>
    <g id="ytick_15">
     <g id="line2d_39">
      <g>
       <use xlink:href="#mfc4ede46d7" x="758.710746" y="377.21175" style="fill: #262626; stroke: #262626; stroke-width: 0.5"/>
      </g>
     </g>
    </g>
    <g id="ytick_16">
     <g id="line2d_40">
      <g>
       <use xlink:href="#mfc4ede46d7" x="758.710746" y="365.703383" style="fill: #262626; stroke: #262626; stroke-width: 0.5"/>
      </g>
     </g>
    </g>
    <g id="ytick_17">
     <g id="line2d_41">
      <g>
       <use xlink:href="#mfc4ede46d7" x="758.710746" y="354.195016" style="fill: #262626; stroke: #262626; stroke-width: 0.5"/>
      </g>
     </g>
    </g>
    <g id="ytick_18">
     <g id="line2d_42">
      <g>
       <use xlink:href="#mfc4ede46d7" x="758.710746" y="331.178283" style="fill: #262626; stroke: #262626; stroke-width: 0.5"/>
      </g>
     </g>
    </g>
    <g id="ytick_19">
     <g id="line2d_43">
      <g>
       <use xlink:href="#mfc4ede46d7" x="758.710746" y="319.669916" style="fill: #262626; stroke: #262626; stroke-width: 0.5"/>
      </g>
     </g>
    </g>
    <g id="ytick_20">
     <g id="line2d_44">
      <g>
       <use xlink:href="#mfc4ede46d7" x="758.710746" y="308.161549" style="fill: #262626; stroke: #262626; stroke-width: 0.5"/>
      </g>
     </g>
    </g>
    <g id="ytick_21">
     <g id="line2d_45">
      <g>
       <use xlink:href="#mfc4ede46d7" x="758.710746" y="296.653183" style="fill: #262626; stroke: #262626; stroke-width: 0.5"/>
      </g>
     </g>
    </g>
    <g id="ytick_22">
     <g id="line2d_46">
      <g>
       <use xlink:href="#mfc4ede46d7" x="758.710746" y="273.636449" style="fill: #262626; stroke: #262626; stroke-width: 0.5"/>
      </g>
     </g>
    </g>
    <g id="ytick_23">
     <g id="line2d_47">
      <g>
       <use xlink:href="#mfc4ede46d7" x="758.710746" y="262.128082" style="fill: #262626; stroke: #262626; stroke-width: 0.5"/>
      </g>
     </g>
    </g>
    <g id="ytick_24">
     <g id="line2d_48">
      <g>
       <use xlink:href="#mfc4ede46d7" x="758.710746" y="250.619716" style="fill: #262626; stroke: #262626; stroke-width: 0.5"/>
      </g>
     </g>
    </g>
    <g id="ytick_25">
     <g id="line2d_49">
      <g>
       <use xlink:href="#mfc4ede46d7" x="758.710746" y="239.111349" style="fill: #262626; stroke: #262626; stroke-width: 0.5"/>
      </g>
     </g>
    </g>
    <g id="ytick_26">
     <g id="line2d_50">
      <g>
       <use xlink:href="#mfc4ede46d7" x="758.710746" y="216.094615" style="fill: #262626; stroke: #262626; stroke-width: 0.5"/>
      </g>
     </g>
    </g>
    <g id="ytick_27">
     <g id="line2d_51">
      <g>
       <use xlink:href="#mfc4ede46d7" x="758.710746" y="204.586249" style="fill: #262626; stroke: #262626; stroke-width: 0.5"/>
      </g>
     </g>
    </g>
    <g id="ytick_28">
     <g id="line2d_52">
      <g>
       <use xlink:href="#mfc4ede46d7" x="758.710746" y="193.077882" style="fill: #262626; stroke: #262626; stroke-width: 0.5"/>
      </g>
     </g>
    </g>
    <g id="ytick_29">
     <g id="line2d_53">
      <g>
       <use xlink:href="#mfc4ede46d7" x="758.710746" y="181.569515" style="fill: #262626; stroke: #262626; stroke-width: 0.5"/>
      </g>
     </g>
    </g>
    <g id="ytick_30">
     <g id="line2d_54">
      <g>
       <use xlink:href="#mfc4ede46d7" x="758.710746" y="158.552782" style="fill: #262626; stroke: #262626; stroke-width: 0.5"/>
      </g>
     </g>
    </g>
    <g id="ytick_31">
     <g id="line2d_55">
      <g>
       <use xlink:href="#mfc4ede46d7" x="758.710746" y="147.044415" style="fill: #262626; stroke: #262626; stroke-width: 0.5"/>
      </g>
     </g>
    </g>
    <g id="ytick_32">
     <g id="line2d_56">
      <g>
       <use xlink:href="#mfc4ede46d7" x="758.710746" y="135.536048" style="fill: #262626; stroke: #262626; stroke-width: 0.5"/>
      </g>
     </g>
    </g>
    <g id="ytick_33">
     <g id="line2d_57">
      <g>
       <use xlink:href="#mfc4ede46d7" x="758.710746" y="124.027682" style="fill: #262626; stroke: #262626; stroke-width: 0.5"/>
      </g>
     </g>
    </g>
    <g id="ytick_34">
     <g id="line2d_58">
      <g>
       <use xlink:href="#mfc4ede46d7" x="758.710746" y="101.010948" style="fill: #262626; stroke: #262626; stroke-width: 0.5"/>
      </g>
     </g>
    </g>
    <g id="ytick_35">
     <g id="line2d_59">
      <g>
       <use xlink:href="#mfc4ede46d7" x="758.710746" y="89.502581" style="fill: #262626; stroke: #262626; stroke-width: 0.5"/>
      </g>
     </g>
    </g>
    <g id="ytick_36">
     <g id="line2d_60">
      <g>
       <use xlink:href="#mfc4ede46d7" x="758.710746" y="77.994215" style="fill: #262626; stroke: #262626; stroke-width: 0.5"/>
      </g>
     </g>
    </g>
    <g id="ytick_37">
     <g id="line2d_61">
      <g>
       <use xlink:href="#mfc4ede46d7" x="758.710746" y="66.485848" style="fill: #262626; stroke: #262626; stroke-width: 0.5"/>
      </g>
     </g>
    </g>
    <g id="ytick_38">
     <g id="line2d_62">
      <g>
       <use xlink:href="#mfc4ede46d7" x="758.710746" y="43.469114" style="fill: #262626; stroke: #262626; stroke-width: 0.5"/>
      </g>
     </g>
    </g>
    <g id="ytick_39">
     <g id="line2d_63">
      <g>
       <use xlink:href="#mfc4ede46d7" x="758.710746" y="31.960748" style="fill: #262626; stroke: #262626; stroke-width: 0.5"/>
      </g>
     </g>
    </g>
    <g id="text_15">
     <!-- Node Count -->
     <g style="fill: #262626" transform="translate(20.635969 315.027342) rotate(-90) scale(0.24 -0.24)">
      <defs>
       <path id="NimbusSanL-Regu-4e" d="M 4134 4672 
L 3571 4672 
L 3571 851 
L 1133 4672 
L 486 4672 
L 486 -2 
L 1050 -2 
L 1050 3787 
L 3462 -2 
L 4134 -2 
L 4134 4672 
z
" transform="scale(0.015625)"/>
       <path id="NimbusSanL-Regu-6f" d="M 1741 3456 
C 800 3456 230 2786 230 1663 
C 230 541 794 -128 1747 -128 
C 2688 -128 3264 541 3264 1638 
C 3264 2792 2707 3456 1741 3456 
z
M 1747 2962 
C 2349 2962 2707 2472 2707 1645 
C 2707 861 2336 365 1747 365 
C 1152 365 787 855 787 1663 
C 787 2466 1152 2962 1747 2962 
z
" transform="scale(0.015625)"/>
       <path id="NimbusSanL-Regu-64" d="M 3168 4672 
L 2637 4672 
L 2637 2937 
C 2413 3276 2054 3456 1606 3456 
C 736 3456 166 2761 166 1695 
C 166 566 723 -128 1626 -128 
C 2086 -128 2406 45 2694 461 
L 2694 -2 
L 3168 -2 
L 3168 4672 
z
M 1696 2956 
C 2272 2956 2637 2447 2637 1651 
C 2637 881 2266 372 1702 372 
C 1114 372 723 887 723 1664 
C 723 2440 1114 2956 1696 2956 
z
" transform="scale(0.015625)"/>
       <path id="NimbusSanL-Regu-43" d="M 4237 3229 
C 4051 4252 3462 4750 2438 4750 
C 1811 4750 1306 4552 960 4168 
C 538 3709 307 3045 307 2291 
C 307 1525 544 868 986 414 
C 1344 44 1805 -128 2413 -128 
C 3552 -128 4192 485 4333 1717 
L 3718 1717 
C 3667 1399 3603 1182 3507 997 
C 3315 614 2918 397 2419 397 
C 1491 397 902 1137 902 2298 
C 902 3491 1466 4224 2368 4224 
C 2746 4224 3098 4110 3290 3930 
C 3462 3771 3558 3573 3629 3229 
L 4237 3229 
z
" transform="scale(0.015625)"/>
       <path id="NimbusSanL-Regu-75" d="M 3085 33 
L 3085 3392 
L 2554 3392 
L 2554 1479 
C 2554 790 2195 340 1638 340 
C 1216 340 947 597 947 1003 
L 947 3392 
L 416 3392 
L 416 792 
C 416 232 832 -128 1485 -128 
C 1978 -128 2291 45 2605 488 
L 2605 33 
L 3085 33 
z
" transform="scale(0.015625)"/>
      </defs>
      <use xlink:href="#NimbusSanL-Regu-4e" transform="scale(0.996264)"/>
      <use xlink:href="#NimbusSanL-Regu-6f" transform="translate(71.929985 0) scale(0.996264)"/>
      <use xlink:href="#NimbusSanL-Regu-64" transform="translate(127.321662 0) scale(0.996264)"/>
      <use xlink:href="#NimbusSanL-Regu-65" transform="translate(182.713339 0) scale(0.996264)"/>
      <use xlink:href="#NimbusSanL-Regu-43" transform="translate(265.800185 0) scale(0.996264)"/>
      <use xlink:href="#NimbusSanL-Regu-6f" transform="translate(337.73017 0) scale(0.996264)"/>
      <use xlink:href="#NimbusSanL-Regu-75" transform="translate(393.121847 0) scale(0.996264)"/>
      <use xlink:href="#NimbusSanL-Regu-6e" transform="translate(448.513524 0) scale(0.996264)"/>
      <use xlink:href="#NimbusSanL-Regu-74" transform="translate(503.905201 0) scale(0.996264)"/>
     </g>
    </g>
   </g>
   <g id="PolyCollection_1">
    <defs>
     <path id="m0ec8169315" d="M 119.547109 -117.026202 
L 119.547109 -106.507773 
L 148.534122 -118.230085 
L 177.521135 -127.729884 
L 206.508148 -135.988714 
L 235.495161 -143.419808 
L 264.482174 -150.245194 
L 293.469187 -156.601035 
L 322.4562 -162.578213 
L 351.443213 -168.241095 
L 380.430226 -173.637308 
L 409.417239 -178.803317 
L 438.404252 -183.767795 
L 467.391265 -188.553798 
L 496.378278 -193.180202 
L 525.365291 -197.662705 
L 554.352304 -202.014532 
L 583.339317 -206.246958 
L 612.32633 -210.369686 
L 641.313343 -214.391146 
L 670.300356 -218.318716 
L 699.287369 -222.158899 
L 728.274382 -225.917466 
L 728.274382 -360.317466 
L 728.274382 -360.317466 
L 699.287369 -351.199612 
L 670.300356 -341.966043 
L 641.313343 -332.609395 
L 612.32633 -323.121423 
L 583.339317 -313.492835 
L 554.352304 -303.71309 
L 525.365291 -293.770139 
L 496.378278 -283.6501 
L 467.391265 -273.336813 
L 438.404252 -262.811273 
L 409.417239 -252.050832 
L 380.430226 -241.028106 
L 351.443213 -229.709393 
L 322.4562 -218.052325 
L 293.469187 -206.002224 
L 264.482174 -193.486161 
L 235.495161 -180.402561 
L 206.508148 -166.601367 
L 177.521135 -151.841042 
L 148.534122 -135.675305 
L 119.547109 -117.026202 
z
" style="stroke: #ff0000; stroke-opacity: 0.2"/>
    </defs>
    <g clip-path="url(#pbcce60aff4)">
     <use xlink:href="#m0ec8169315" x="0" y="544.352763" style="fill: #ff0000; fill-opacity: 0.2; stroke: #ff0000; stroke-opacity: 0.2"/>
    </g>
   </g>
   <g id="PolyCollection_2">
    <defs>
     <path id="mf2009583f2" d="M 119.547109 -127.544631 
L 119.547109 -95.989344 
L 148.534122 -100.784865 
L 177.521135 -103.618726 
L 206.508148 -105.37606 
L 235.495161 -106.437056 
L 264.482174 -107.004228 
L 293.469187 -107.199846 
L 322.4562 -107.104102 
L 351.443213 -106.772796 
L 380.430226 -106.24651 
L 409.417239 -105.555801 
L 438.404252 -104.724317 
L 467.391265 -103.770783 
L 496.378278 -102.710305 
L 525.365291 -101.555271 
L 554.352304 -100.315975 
L 583.339317 -99.001081 
L 612.32633 -97.617949 
L 641.313343 -96.172897 
L 670.300356 -94.671389 
L 699.287369 -93.118186 
L 728.274382 -91.517466 
L 728.274382 -494.717466 
L 728.274382 -494.717466 
L 699.287369 -480.240325 
L 670.300356 -465.613369 
L 641.313343 -450.827644 
L 612.32633 -435.873161 
L 583.339317 -420.738713 
L 554.352304 -405.411647 
L 525.365291 -389.877574 
L 496.378278 -374.119997 
L 467.391265 -358.119828 
L 438.404252 -341.854751 
L 409.417239 -325.298348 
L 380.430226 -308.418904 
L 351.443213 -291.177692 
L 322.4562 -273.526436 
L 293.469187 -255.403413 
L 264.482174 -236.727127 
L 235.495161 -217.385314 
L 206.508148 -197.214021 
L 177.521135 -175.9522 
L 148.534122 -153.120525 
L 119.547109 -127.544631 
z
" style="stroke: #0000ff; stroke-opacity: 0.1"/>
    </defs>
    <g clip-path="url(#pbcce60aff4)">
     <use xlink:href="#mf2009583f2" x="0" y="544.352763" style="fill: #0000ff; fill-opacity: 0.1; stroke: #0000ff; stroke-opacity: 0.1"/>
    </g>
   </g>
   <g id="line2d_64">
    <path d="M 119.547109 432.585775 
L 148.534122 417.400068 
L 177.521135 404.567299 
L 206.508148 393.057722 
L 235.495161 382.441578 
L 264.482174 372.487085 
L 293.469187 363.051133 
L 322.4562 354.037494 
L 351.443213 345.377519 
L 380.430226 337.020055 
L 409.417239 328.925688 
L 438.404252 321.063229 
L 467.391265 313.407457 
L 496.378278 305.937612 
L 525.365291 298.63634 
L 554.352304 291.488952 
L 583.339317 284.482866 
L 612.32633 277.607208 
L 641.313343 270.852492 
L 670.300356 264.210383 
L 699.287369 257.673507 
L 728.274382 251.235297 
" clip-path="url(#pbcce60aff4)" style="fill: none; stroke: #008000; stroke-opacity: 0.9; stroke-width: 2.5; stroke-linecap: round"/>
   </g>
   <g id="patch_3">
    <path d="M 89.110746 472.995297 
L 89.110746 29.475297 
" style="fill: none; stroke: #262626; stroke-width: 0.5; stroke-linejoin: miter; stroke-linecap: square"/>
   </g>
   <g id="patch_4">
    <path d="M 758.710746 472.995297 
L 758.710746 29.475297 
" style="fill: none; stroke: #262626; stroke-width: 0.5; stroke-linejoin: miter; stroke-linecap: square"/>
   </g>
   <g id="patch_5">
    <path d="M 89.110746 472.995297 
L 758.710746 472.995297 
" style="fill: none; stroke: #262626; stroke-width: 0.5; stroke-linejoin: miter; stroke-linecap: square"/>
   </g>
   <g id="patch_6">
    <path d="M 89.110746 29.475297 
L 758.710746 29.475297 
" style="fill: none; stroke: #262626; stroke-width: 0.5; stroke-linejoin: miter; stroke-linecap: square"/>
   </g>
   <g id="PathCollection_1">
    <defs>
     <path id="m6c7962ae18" d="M 0 1.5 
C 0.397805 1.5 0.77937 1.341951 1.06066 1.06066 
C 1.341951 0.77937 1.5 0.397805 1.5 0 
C 1.5 -0.397805 1.341951 -0.77937 1.06066 -1.06066 
C 0.77937 -1.341951 0.397805 -1.5 0 -1.5 
C -0.397805 -1.5 -0.77937 -1.341951 -1.06066 -1.06066 
C -1.341951 -0.77937 -1.5 -0.397805 -1.5 0 
C -1.5 0.397805 -1.341951 0.77937 -1.06066 1.06066 
C -0.77937 1.341951 -0.397805 1.5 0 1.5 
z
" style="stroke: #ffffff; stroke-opacity: 0.5"/>
    </defs>
    <g clip-path="url(#pbcce60aff4)">
     <use xlink:href="#m6c7962ae18" x="119.547109" y="448.563623" style="fill: #0c5da5; fill-opacity: 0.5; stroke: #ffffff; stroke-opacity: 0.5"/>
     <use xlink:href="#m6c7962ae18" x="148.534122" y="433.602747" style="fill: #0c5da5; fill-opacity: 0.5; stroke: #ffffff; stroke-opacity: 0.5"/>
     <use xlink:href="#m6c7962ae18" x="177.521135" y="419.792707" style="fill: #0c5da5; fill-opacity: 0.5; stroke: #ffffff; stroke-opacity: 0.5"/>
     <use xlink:href="#m6c7962ae18" x="206.508148" y="410.586013" style="fill: #0c5da5; fill-opacity: 0.5; stroke: #ffffff; stroke-opacity: 0.5"/>
     <use xlink:href="#m6c7962ae18" x="235.495161" y="397.92681" style="fill: #0c5da5; fill-opacity: 0.5; stroke: #ffffff; stroke-opacity: 0.5"/>
     <use xlink:href="#m6c7962ae18" x="264.482174" y="377.21175" style="fill: #0c5da5; fill-opacity: 0.5; stroke: #ffffff; stroke-opacity: 0.5"/>
     <use xlink:href="#m6c7962ae18" x="293.469187" y="361.100036" style="fill: #0c5da5; fill-opacity: 0.5; stroke: #ffffff; stroke-opacity: 0.5"/>
     <use xlink:href="#m6c7962ae18" x="322.4562" y="358.798363" style="fill: #0c5da5; fill-opacity: 0.5; stroke: #ffffff; stroke-opacity: 0.5"/>
     <use xlink:href="#m6c7962ae18" x="351.443213" y="350.742506" style="fill: #0c5da5; fill-opacity: 0.5; stroke: #ffffff; stroke-opacity: 0.5"/>
     <use xlink:href="#m6c7962ae18" x="380.430226" y="332.329119" style="fill: #0c5da5; fill-opacity: 0.5; stroke: #ffffff; stroke-opacity: 0.5"/>
     <use xlink:href="#m6c7962ae18" x="409.417239" y="328.876609" style="fill: #0c5da5; fill-opacity: 0.5; stroke: #ffffff; stroke-opacity: 0.5"/>
     <use xlink:href="#m6c7962ae18" x="438.404252" y="301.256529" style="fill: #0c5da5; fill-opacity: 0.5; stroke: #ffffff; stroke-opacity: 0.5"/>
     <use xlink:href="#m6c7962ae18" x="467.391265" y="286.295653" style="fill: #0c5da5; fill-opacity: 0.5; stroke: #ffffff; stroke-opacity: 0.5"/>
     <use xlink:href="#m6c7962ae18" x="496.378278" y="280.541469" style="fill: #0c5da5; fill-opacity: 0.5; stroke: #ffffff; stroke-opacity: 0.5"/>
     <use xlink:href="#m6c7962ae18" x="525.365291" y="264.429756" style="fill: #0c5da5; fill-opacity: 0.5; stroke: #ffffff; stroke-opacity: 0.5"/>
     <use xlink:href="#m6c7962ae18" x="554.352304" y="274.787286" style="fill: #0c5da5; fill-opacity: 0.5; stroke: #ffffff; stroke-opacity: 0.5"/>
     <use xlink:href="#m6c7962ae18" x="583.339317" y="254.072226" style="fill: #0c5da5; fill-opacity: 0.5; stroke: #ffffff; stroke-opacity: 0.5"/>
     <use xlink:href="#m6c7962ae18" x="612.32633" y="275.938122" style="fill: #0c5da5; fill-opacity: 0.5; stroke: #ffffff; stroke-opacity: 0.5"/>
     <use xlink:href="#m6c7962ae18" x="641.313343" y="283.993979" style="fill: #0c5da5; fill-opacity: 0.5; stroke: #ffffff; stroke-opacity: 0.5"/>
     <use xlink:href="#m6c7962ae18" x="670.300356" y="270.183939" style="fill: #0c5da5; fill-opacity: 0.5; stroke: #ffffff; stroke-opacity: 0.5"/>
     <use xlink:href="#m6c7962ae18" x="699.287369" y="297.804019" style="fill: #0c5da5; fill-opacity: 0.5; stroke: #ffffff; stroke-opacity: 0.5"/>
     <use xlink:href="#m6c7962ae18" x="728.274382" y="288.597326" style="fill: #0c5da5; fill-opacity: 0.5; stroke: #ffffff; stroke-opacity: 0.5"/>
    </g>
   </g>
   <g id="text_16">
    <g id="patch_7">
     <path d="M 557.830746 479.75072 
L 661.940456 479.75072 
Q 665.540456 479.75072 665.540456 476.15072 
L 665.540456 450.819297 
Q 665.540456 447.219297 661.940456 447.219297 
L 557.830746 447.219297 
Q 554.230746 447.219297 554.230746 450.819297 
L 554.230746 476.15072 
Q 554.230746 479.75072 557.830746 479.75072 
z
" style="fill: #f5deb3; opacity: 0.5; stroke: #ffffff; stroke-linejoin: miter"/>
    </g>
    <!-- $y = 21.8837 \cdot x^{0.6808}$ -->
    <g style="fill: #262626" transform="translate(557.830746 460.83639) scale(0.12 -0.12)">
     <defs>
      <path id="NimbusSanL-ReguItal-79" d="M 3206 3392 
L 1715 776 
L 1421 3392 
L 845 3392 
L 1280 -1 
L 947 -522 
C 774 -792 672 -856 435 -856 
C 371 -856 326 -850 154 -830 
L 51 -1312 
C 166 -1363 243 -1376 365 -1376 
C 819 -1376 1146 -1157 1421 -681 
L 3776 3392 
L 3206 3392 
z
" transform="scale(0.015625)"/>
      <path id="NimbusSanL-Regu-3d" d="M 3418 2241 
L 320 2241 
L 320 1792 
L 3418 1792 
L 3418 2241 
z
M 3418 1152 
L 320 1152 
L 320 704 
L 3418 704 
L 3418 1152 
z
" transform="scale(0.015625)"/>
      <path id="NimbusSanL-Regu-2e" d="M 1222 667 
L 557 667 
L 557 0 
L 1222 0 
L 1222 667 
z
" transform="scale(0.015625)"/>
      <path id="NimbusSanL-Regu-38" d="M 2502 2399 
C 2970 2680 3123 2910 3123 3338 
C 3123 4046 2566 4544 1760 4544 
C 960 4544 397 4046 397 3338 
C 397 2917 550 2687 1011 2399 
C 493 2150 237 1774 237 1276 
C 237 446 864 -128 1760 -128 
C 2656 -128 3283 447 3283 1270 
C 3283 1774 3027 2150 2502 2399 
z
M 1760 4044 
C 2240 4044 2547 3764 2547 3325 
C 2547 2904 2234 2624 1760 2624 
C 1286 2624 973 2904 973 3331 
C 973 3764 1286 4044 1760 4044 
z
M 1760 2149 
C 2323 2149 2707 1792 2707 1263 
C 2707 729 2323 372 1747 372 
C 1197 372 813 735 813 1263 
C 813 1792 1197 2149 1760 2149 
z
" transform="scale(0.015625)"/>
      <path id="NimbusSanL-Regu-37" d="M 3328 4525 
L 294 4525 
L 294 3968 
L 2746 3968 
C 1664 2418 1222 1466 883 -32 
L 1485 -32 
C 1734 1427 2304 2681 3328 4051 
L 3328 4525 
z
" transform="scale(0.015625)"/>
      <path id="CMSY10-1" d="M 1229 1619 
C 1229 1805 1075 1958 890 1958 
C 704 1958 550 1805 550 1619 
C 550 1433 704 1280 890 1280 
C 1075 1280 1229 1433 1229 1619 
z
" transform="scale(0.015625)"/>
      <path id="NimbusSanL-ReguItal-78" d="M 2240 1713 
L 3731 3360 
L 3110 3360 
L 2042 2129 
L 1478 3360 
L 883 3360 
L 1638 1712 
L 109 0 
L 736 0 
L 1850 1282 
L 2426 0 
L 3027 0 
L 2240 1713 
z
" transform="scale(0.015625)"/>
      <path id="NimbusSanL-Regu-36" d="M 3187 3382 
C 3078 4111 2592 4544 1901 4544 
C 1402 4544 954 4302 685 3900 
C 403 3460 275 2904 275 2081 
C 275 1321 390 836 659 434 
C 902 69 1299 -128 1798 -128 
C 2662 -128 3283 518 3283 1415 
C 3283 2268 2707 2868 1894 2868 
C 1446 2868 1094 2695 851 2362 
C 858 3444 1216 4044 1862 4044 
C 2259 4044 2534 3803 2624 3382 
L 3187 3382 
z
M 1824 2368 
C 2368 2368 2707 1986 2707 1370 
C 2707 793 2323 372 1805 372 
C 1280 372 883 813 883 1402 
C 883 1973 1267 2368 1824 2368 
z
" transform="scale(0.015625)"/>
     </defs>
     <use xlink:href="#NimbusSanL-ReguItal-79" transform="scale(0.996264)"/>
     <use xlink:href="#NimbusSanL-Regu-3d" transform="translate(87.44988 0) scale(0.996264)"/>
     <use xlink:href="#NimbusSanL-Regu-32" transform="translate(173.305381 0) scale(0.996264)"/>
     <use xlink:href="#NimbusSanL-Regu-31" transform="translate(228.697058 0) scale(0.996264)"/>
     <use xlink:href="#NimbusSanL-Regu-2e" transform="translate(284.088735 0) scale(0.996264)"/>
     <use xlink:href="#NimbusSanL-Regu-38" transform="translate(311.783905 0) scale(0.996264)"/>
     <use xlink:href="#NimbusSanL-Regu-38" transform="translate(367.175582 0) scale(0.996264)"/>
     <use xlink:href="#NimbusSanL-Regu-33" transform="translate(422.567259 0) scale(0.996264)"/>
     <use xlink:href="#NimbusSanL-Regu-37" transform="translate(477.958936 0) scale(0.996264)"/>
     <use xlink:href="#CMSY10-1" transform="translate(555.48982 0) scale(0.996264)"/>
     <use xlink:href="#NimbusSanL-ReguItal-78" transform="translate(605.303111 0) scale(0.996264)"/>
     <use xlink:href="#NimbusSanL-Regu-30" transform="translate(664.48061 36.153639) scale(0.697382)"/>
     <use xlink:href="#NimbusSanL-Regu-2e" transform="translate(703.25461 36.153639) scale(0.697382)"/>
     <use xlink:href="#NimbusSanL-Regu-36" transform="translate(722.641139 36.153639) scale(0.697382)"/>
     <use xlink:href="#NimbusSanL-Regu-38" transform="translate(761.41514 36.153639) scale(0.697382)"/>
     <use xlink:href="#NimbusSanL-Regu-30" transform="translate(800.189141 36.153639) scale(0.697382)"/>
     <use xlink:href="#NimbusSanL-Regu-38" transform="translate(838.963141 36.153639) scale(0.697382)"/>
    </g>
    <!-- R2: 0.89 -->
    <g style="fill: #262626" transform="translate(557.830746 473.604345) scale(0.12 -0.12)">
     <defs>
      <path id="NimbusSanL-Regu-52" d="M 1190 2034 
L 2726 2034 
C 3258 2034 3494 1774 3494 1187 
L 3488 762 
C 3488 468 3539 181 3622 -14 
L 4346 -14 
L 4346 136 
C 4122 292 4077 462 4064 1093 
C 4058 1873 3936 2108 3430 2329 
C 3955 2583 4166 2906 4166 3434 
C 4166 4233 3661 4672 2746 4672 
L 595 4672 
L 595 -14 
L 1190 -14 
L 1190 2034 
z
M 1190 2560 
L 1190 4146 
L 2630 4146 
C 2963 4146 3155 4096 3302 3969 
C 3462 3836 3546 3628 3546 3350 
C 3546 2806 3264 2560 2630 2560 
L 1190 2560 
z
" transform="scale(0.015625)"/>
      <path id="NimbusSanL-Regu-3a" d="M 1370 667 
L 704 667 
L 704 0 
L 1370 0 
L 1370 667 
z
M 1370 3354 
L 704 3354 
L 704 2688 
L 1370 2688 
L 1370 3354 
z
" transform="scale(0.015625)"/>
      <path id="NimbusSanL-Regu-39" d="M 339 1064 
C 448 316 934 -128 1626 -128 
C 2125 -128 2579 114 2842 516 
C 3130 956 3258 1512 3258 2335 
C 3258 3095 3142 3580 2874 3982 
C 2624 4347 2227 4544 1728 4544 
C 864 4544 243 3909 243 3027 
C 243 2190 819 1600 1638 1600 
C 2067 1600 2381 1754 2675 2106 
C 2669 991 2310 372 1664 372 
C 1267 372 992 624 902 1064 
L 339 1064 
z
M 1722 4051 
C 2246 4051 2643 3622 2643 3041 
C 2643 2491 2253 2100 1702 2100 
C 1158 2100 819 2472 819 3072 
C 819 3640 1203 4051 1722 4051 
z
" transform="scale(0.015625)"/>
     </defs>
     <use xlink:href="#NimbusSanL-Regu-52" transform="scale(0.996264)"/>
     <use xlink:href="#NimbusSanL-Regu-32" transform="translate(71.929985 0) scale(0.996264)"/>
     <use xlink:href="#NimbusSanL-Regu-3a" transform="translate(127.321662 0) scale(0.996264)"/>
     <use xlink:href="#NimbusSanL-Regu-30" transform="translate(189.286483 0) scale(0.996264)"/>
     <use xlink:href="#NimbusSanL-Regu-2e" transform="translate(244.67816 0) scale(0.996264)"/>
     <use xlink:href="#NimbusSanL-Regu-38" transform="translate(272.37333 0) scale(0.996264)"/>
     <use xlink:href="#NimbusSanL-Regu-39" transform="translate(327.765007 0) scale(0.996264)"/>
    </g>
   </g>
   <g id="text_17">
    <!-- Dimension Prediction -->
    <g style="fill: #1a1a1a" transform="translate(292.148263 23.475297) scale(0.28 -0.28)">
     <defs>
      <path id="NimbusSanL-Regu-6d" d="M 448 3359 
L 448 0 
L 986 0 
L 986 2109 
C 986 2597 1338 2988 1773 2988 
C 2170 2988 2394 2744 2394 2314 
L 2394 0 
L 2931 0 
L 2931 2109 
C 2931 2597 3283 2988 3718 2988 
C 4109 2988 4339 2738 4339 2314 
L 4339 0 
L 4877 0 
L 4877 2520 
C 4877 3122 4531 3456 3904 3456 
C 3456 3456 3187 3321 2874 2943 
C 2675 3302 2406 3456 1971 3456 
C 1523 3456 1229 3289 941 2885 
L 941 3359 
L 448 3359 
z
" transform="scale(0.015625)"/>
      <path id="NimbusSanL-Regu-50" d="M 1178 1984 
L 2643 1984 
C 3008 1984 3296 2093 3546 2316 
C 3827 2573 3949 2873 3949 3303 
C 3949 4179 3430 4672 2509 4672 
L 582 4672 
L 582 -14 
L 1178 -14 
L 1178 1984 
z
M 1178 2510 
L 1178 4146 
L 2419 4146 
C 2989 4146 3328 3839 3328 3327 
C 3328 2816 2989 2510 2419 2510 
L 1178 2510 
z
" transform="scale(0.015625)"/>
      <path id="NimbusSanL-Regu-72" d="M 442 3359 
L 442 0 
L 979 0 
L 979 1741 
C 979 2221 1101 2535 1357 2720 
C 1523 2842 1683 2880 2054 2880 
L 2054 3432 
C 1965 3444 1920 3444 1850 3444 
C 1504 3444 1242 3240 934 2746 
L 934 3359 
L 442 3359 
z
" transform="scale(0.015625)"/>
     </defs>
     <use xlink:href="#NimbusSanL-Regu-44" transform="scale(0.996264)"/>
     <use xlink:href="#NimbusSanL-Regu-69" transform="translate(71.929985 0) scale(0.996264)"/>
     <use xlink:href="#NimbusSanL-Regu-6d" transform="translate(94.046769 0) scale(0.996264)"/>
     <use xlink:href="#NimbusSanL-Regu-65" transform="translate(177.035199 0) scale(0.996264)"/>
     <use xlink:href="#NimbusSanL-Regu-6e" transform="translate(232.426876 0) scale(0.996264)"/>
     <use xlink:href="#NimbusSanL-Regu-73" transform="translate(287.818553 0) scale(0.996264)"/>
     <use xlink:href="#NimbusSanL-Regu-69" transform="translate(337.631754 0) scale(0.996264)"/>
     <use xlink:href="#NimbusSanL-Regu-6f" transform="translate(359.748538 0) scale(0.996264)"/>
     <use xlink:href="#NimbusSanL-Regu-6e" transform="translate(415.140215 0) scale(0.996264)"/>
     <use xlink:href="#NimbusSanL-Regu-50" transform="translate(498.227062 0) scale(0.996264)"/>
     <use xlink:href="#NimbusSanL-Regu-72" transform="translate(564.677093 0) scale(0.996264)"/>
     <use xlink:href="#NimbusSanL-Regu-65" transform="translate(597.852323 0) scale(0.996264)"/>
     <use xlink:href="#NimbusSanL-Regu-64" transform="translate(653.244 0) scale(0.996264)"/>
     <use xlink:href="#NimbusSanL-Regu-69" transform="translate(708.635677 0) scale(0.996264)"/>
     <use xlink:href="#NimbusSanL-Regu-63" transform="translate(730.752461 0) scale(0.996264)"/>
     <use xlink:href="#NimbusSanL-Regu-74" transform="translate(780.565661 0) scale(0.996264)"/>
     <use xlink:href="#NimbusSanL-Regu-69" transform="translate(808.260831 0) scale(0.996264)"/>
     <use xlink:href="#NimbusSanL-Regu-6f" transform="translate(830.377615 0) scale(0.996264)"/>
     <use xlink:href="#NimbusSanL-Regu-6e" transform="translate(885.769292 0) scale(0.996264)"/>
    </g>
   </g>
   <g id="legend_1">
    <g id="PathCollection_2">
     <g>
      <use xlink:href="#m6c7962ae18" x="582.158621" y="53.727273" style="fill: #0c5da5; fill-opacity: 0.5; stroke: #ffffff; stroke-opacity: 0.5"/>
     </g>
    </g>
    <g id="text_18">
     <!-- Data -->
     <g style="fill: #262626" transform="translate(614.558621 58.452273) scale(0.18 -0.18)">
      <use xlink:href="#NimbusSanL-Regu-44" transform="scale(0.996264)"/>
      <use xlink:href="#NimbusSanL-Regu-61" transform="translate(71.929985 0) scale(0.996264)"/>
      <use xlink:href="#NimbusSanL-Regu-74" transform="translate(127.321662 0) scale(0.996264)"/>
      <use xlink:href="#NimbusSanL-Regu-61" transform="translate(155.016831 0) scale(0.996264)"/>
     </g>
    </g>
    <g id="line2d_65">
     <path d="M 564.158621 77.748819 
L 582.158621 77.748819 
L 600.158621 77.748819 
" style="fill: none; stroke: #008000; stroke-opacity: 0.9; stroke-width: 2.5; stroke-linecap: round"/>
    </g>
    <g id="text_19">
     <!-- Fit -->
     <g style="fill: #262626" transform="translate(614.558621 84.048819) scale(0.18 -0.18)">
      <defs>
       <path id="NimbusSanL-Regu-46" d="M 1171 2112 
L 3398 2112 
L 3398 2638 
L 1171 2638 
L 1171 4146 
L 3706 4146 
L 3706 4672 
L 576 4672 
L 576 -14 
L 1171 -14 
L 1171 2112 
z
" transform="scale(0.015625)"/>
      </defs>
      <use xlink:href="#NimbusSanL-Regu-46" transform="scale(0.996264)"/>
      <use xlink:href="#NimbusSanL-Regu-69" transform="translate(60.871631 0) scale(0.996264)"/>
      <use xlink:href="#NimbusSanL-Regu-74" transform="translate(82.988415 0) scale(0.996264)"/>
     </g>
    </g>
    <g id="patch_8">
     <path d="M 564.158621 109.645365 
L 600.158621 109.645365 
L 600.158621 97.045365 
L 564.158621 97.045365 
z
" style="fill: #ff0000; fill-opacity: 0.2; stroke: #ff0000; stroke-opacity: 0.2; stroke-linejoin: miter"/>
    </g>
    <g id="text_20">
     <!-- $\pm 1\sigma$ uncertainty -->
     <g style="fill: #262626" transform="translate(614.558621 109.645365) scale(0.18 -0.18)">
      <defs>
       <path id="CMSY10-6" d="M 2618 1984 
L 4397 1984 
C 4506 1984 4621 1984 4621 2112 
C 4621 2240 4506 2240 4397 2240 
L 2618 2240 
L 2618 4018 
C 2618 4121 2618 4256 2490 4256 
C 2362 4256 2362 4140 2362 4038 
L 2362 2240 
L 576 2240 
C 467 2240 352 2240 352 2112 
C 352 1984 467 1984 576 1984 
L 2362 1984 
L 2362 256 
L 576 256 
C 467 256 352 256 352 128 
C 352 0 467 0 576 0 
L 4397 0 
C 4506 0 4621 0 4621 128 
C 4621 256 4506 256 4397 256 
L 2618 256 
L 2618 1984 
z
" transform="scale(0.015625)"/>
       <path id="CMMI12-1b" d="M 3251 2408 
C 3334 2408 3546 2408 3546 2612 
C 3546 2752 3424 2752 3309 2752 
L 1894 2752 
C 934 2752 243 1686 243 932 
C 243 390 595 -64 1171 -64 
C 1926 -64 2752 747 2752 1705 
C 2752 1954 2694 2196 2541 2408 
L 3251 2408 
z
M 1178 64 
C 851 64 614 313 614 754 
C 614 1137 845 2408 1786 2408 
C 2061 2408 2368 2274 2368 1781 
C 2368 1558 2266 1021 2042 652 
C 1811 275 1466 64 1178 64 
z
" transform="scale(0.015625)"/>
       <path id="NimbusSanL-Regu-79" d="M 2483 3360 
L 1555 738 
L 698 3360 
L 128 3360 
L 1261 -21 
L 1056 -554 
C 973 -792 851 -882 627 -882 
C 550 -882 461 -869 346 -843 
L 346 -1325 
C 454 -1382 563 -1408 704 -1408 
C 877 -1408 1062 -1350 1203 -1247 
C 1370 -1125 1466 -983 1568 -713 
L 3059 3360 
L 2483 3360 
z
" transform="scale(0.015625)"/>
      </defs>
      <use xlink:href="#CMSY10-6" transform="scale(0.996264)"/>
      <use xlink:href="#NimbusSanL-Regu-31" transform="translate(77.487468 0) scale(0.996264)"/>
      <use xlink:href="#CMMI12-1b" transform="translate(132.879145 0) scale(0.996264)"/>
      <use xlink:href="#NimbusSanL-Regu-75" transform="translate(219.594368 0) scale(0.996264)"/>
      <use xlink:href="#NimbusSanL-Regu-6e" transform="translate(274.986045 0) scale(0.996264)"/>
      <use xlink:href="#NimbusSanL-Regu-63" transform="translate(330.377722 0) scale(0.996264)"/>
      <use xlink:href="#NimbusSanL-Regu-65" transform="translate(380.190922 0) scale(0.996264)"/>
      <use xlink:href="#NimbusSanL-Regu-72" transform="translate(435.582599 0) scale(0.996264)"/>
      <use xlink:href="#NimbusSanL-Regu-74" transform="translate(472.741927 0) scale(0.996264)"/>
      <use xlink:href="#NimbusSanL-Regu-61" transform="translate(500.437097 0) scale(0.996264)"/>
      <use xlink:href="#NimbusSanL-Regu-69" transform="translate(555.828774 0) scale(0.996264)"/>
      <use xlink:href="#NimbusSanL-Regu-6e" transform="translate(577.945558 0) scale(0.996264)"/>
      <use xlink:href="#NimbusSanL-Regu-74" transform="translate(633.337235 0) scale(0.996264)"/>
      <use xlink:href="#NimbusSanL-Regu-79" transform="translate(661.032405 0) scale(0.996264)"/>
     </g>
    </g>
    <g id="patch_9">
     <path d="M 564.158621 135.241911 
L 600.158621 135.241911 
L 600.158621 122.641911 
L 564.158621 122.641911 
z
" style="fill: #0000ff; fill-opacity: 0.1; stroke: #0000ff; stroke-opacity: 0.1; stroke-linejoin: miter"/>
    </g>
    <g id="text_21">
     <!-- $\pm 3\sigma$ uncertainty -->
     <g style="fill: #262626" transform="translate(614.558621 135.241911) scale(0.18 -0.18)">
      <use xlink:href="#CMSY10-6" transform="scale(0.996264)"/>
      <use xlink:href="#NimbusSanL-Regu-33" transform="translate(77.487468 0) scale(0.996264)"/>
      <use xlink:href="#CMMI12-1b" transform="translate(132.879145 0) scale(0.996264)"/>
      <use xlink:href="#NimbusSanL-Regu-75" transform="translate(219.594368 0) scale(0.996264)"/>
      <use xlink:href="#NimbusSanL-Regu-6e" transform="translate(274.986045 0) scale(0.996264)"/>
      <use xlink:href="#NimbusSanL-Regu-63" transform="translate(330.377722 0) scale(0.996264)"/>
      <use xlink:href="#NimbusSanL-Regu-65" transform="translate(380.190922 0) scale(0.996264)"/>
      <use xlink:href="#NimbusSanL-Regu-72" transform="translate(435.582599 0) scale(0.996264)"/>
      <use xlink:href="#NimbusSanL-Regu-74" transform="translate(472.741927 0) scale(0.996264)"/>
      <use xlink:href="#NimbusSanL-Regu-61" transform="translate(500.437097 0) scale(0.996264)"/>
      <use xlink:href="#NimbusSanL-Regu-69" transform="translate(555.828774 0) scale(0.996264)"/>
      <use xlink:href="#NimbusSanL-Regu-6e" transform="translate(577.945558 0) scale(0.996264)"/>
      <use xlink:href="#NimbusSanL-Regu-74" transform="translate(633.337235 0) scale(0.996264)"/>
      <use xlink:href="#NimbusSanL-Regu-79" transform="translate(661.032405 0) scale(0.996264)"/>
     </g>
    </g>
   </g>
  </g>
 </g>
 <defs>
  <clipPath id="pbcce60aff4">
   <rect x="89.110746" y="29.475297" width="669.6" height="443.52"/>
  </clipPath>
 </defs>
</svg>
